<svg width="178" height="115" viewBox="0 0 178 115" fill="none" xmlns="http://www.w3.org/2000/svg">
<g clip-path="url(#clip0_231_23)">
<path d="M97.3542 70.174C99.3952 70.174 101.05 68.5277 101.05 66.497C101.05 64.4662 99.3952 62.8199 97.3542 62.8199C95.3132 62.8199 93.6587 64.4662 93.6587 66.497C93.6587 68.5277 95.3132 70.174 97.3542 70.174Z" fill="#365987"/>
<path d="M78.2924 69.7211L81.0468 77.2124C79.1787 77.4627 77.3205 76.3999 76.6463 74.5664C75.9723 72.7328 76.703 70.7294 78.2924 69.7211Z" fill="#72A5E8"/>
<path d="M77.6087 70.2709L78.9517 73.9234C79.357 75.0256 78.1651 76.0625 77.1389 75.4838C77.1312 75.4795 77.1235 75.4751 77.1157 75.4706C77.9861 76.7364 79.5125 77.4179 81.0469 77.2123L78.2925 69.7209C78.0416 69.8803 77.8148 70.0666 77.6087 70.2709Z" fill="#E6E6E6"/>
<path d="M84.3578 71.7593C85.1368 73.878 84.043 76.2246 81.9138 76.9997C81.6273 77.1039 81.3376 77.1746 81.047 77.2124L78.2925 69.7211C78.539 69.5634 78.8061 69.4313 79.0926 69.327C81.222 68.5519 83.5788 69.6407 84.3578 71.7593Z" fill="#4D9AFF"/>
<path d="M101.031 76.2687C96.6143 74.1037 88.1637 75.6702 82.3228 76.56L79.6898 69.399C84.6462 66.471 91.8311 62.5303 94.1701 57.6094L101.031 76.2687Z" fill="#72A5E8"/>
<path d="M92.3958 60.2665C94.5134 66.0259 90.7179 72.2541 84.606 73.0471C83.4477 73.1974 82.3052 73.3676 81.2109 73.5363L82.3227 76.56C88.1635 75.6702 96.6141 74.1037 101.031 76.2687L94.17 57.6094C93.7327 58.5294 93.1258 59.4153 92.3958 60.2665Z" fill="#E6E6E6"/>
<path d="M84.2057 66.4612L87.6778 75.9042C87.76 76.1278 87.6437 76.3739 87.4192 76.4557L81.9608 78.4425C81.7362 78.5243 81.4876 78.4109 81.4055 78.1874L77.9334 68.7444C77.8518 68.5225 77.9675 68.2747 78.1921 68.1929L83.6504 66.206C83.8751 66.1243 84.1241 66.2393 84.2057 66.4612Z" fill="#8FA7C5"/>
<path d="M89.5471 85.2452L86.0355 86.5235C85.5687 86.6934 85.0593 86.4105 84.9597 85.926L83.3132 77.9219L86.0481 76.9264L89.9815 84.0979C90.2195 84.5321 90.0138 85.0752 89.5471 85.2452Z" fill="#3A6194"/>
<path d="M89.9813 84.0981L86.048 76.9265L84.9992 77.3083L87.3161 83.2701C87.5542 83.7042 87.3486 84.2474 86.8819 84.4172L84.8047 85.1733L84.9595 85.9261C85.0591 86.4106 85.5685 86.6935 86.0353 86.5236L89.547 85.2453C90.0137 85.0752 90.2194 84.5321 89.9813 84.0981Z" fill="#365987"/>
<path d="M94.908 57.3361L94.1677 57.6056L101.03 76.2645L101.77 75.9949L94.908 57.3361Z" fill="#3A6194"/>
<path d="M83.5596 68.0778L79.4751 69.5646C79.4531 69.5726 79.4288 69.5614 79.4209 69.5396L79.3032 69.2196C79.2953 69.1977 79.3064 69.1736 79.3284 69.1656L83.4129 67.6788C83.4349 67.6709 83.4591 67.682 83.4671 67.7039L83.5848 68.0239C83.5928 68.0456 83.5816 68.0698 83.5596 68.0778ZM84.0756 69.4812L79.9911 70.968C79.9691 70.976 79.9449 70.9648 79.9369 70.943L79.8193 70.623C79.8113 70.6011 79.8225 70.577 79.8444 70.569L83.929 69.0822C83.9509 69.0743 83.9752 69.0854 83.9832 69.1073L84.1008 69.4273C84.1089 69.449 84.0976 69.4732 84.0756 69.4812ZM84.5916 70.8846L80.5071 72.3714C80.4852 72.3794 80.4609 72.3682 80.4529 72.3464L80.3353 72.0264C80.3273 72.0045 80.3385 71.9804 80.3605 71.9724L84.445 70.4856C84.467 70.4777 84.4912 70.4888 84.4992 70.5107L84.6168 70.8307C84.6249 70.8524 84.6136 70.8767 84.5916 70.8846ZM85.1077 72.288L81.0232 73.7748C81.0012 73.7827 80.9769 73.7716 80.969 73.7497L80.8513 73.4298C80.8433 73.4079 80.8545 73.3838 80.8765 73.3758L84.961 71.889C84.983 71.8811 85.0072 71.8922 85.0152 71.9141L85.1329 72.2341C85.1408 72.2559 85.1296 72.28 85.1077 72.288ZM85.6237 73.6915L81.5392 75.1783C81.5172 75.1862 81.493 75.1751 81.485 75.1532L81.3674 74.8333C81.3594 74.8114 81.3706 74.7873 81.3925 74.7793L85.477 73.2925C85.499 73.2846 85.5233 73.2957 85.5313 73.3176L85.6489 73.6376C85.6569 73.6593 85.6457 73.6834 85.6237 73.6915ZM86.1397 75.0949L82.0552 76.5817C82.0332 76.5896 82.009 76.5785 82.001 76.5566L81.8834 76.2366C81.8754 76.2148 81.8866 76.1907 81.9086 76.1827L85.9931 74.6959C86.015 74.688 86.0393 74.6991 86.0473 74.721L86.1649 75.0409C86.1729 75.0627 86.1616 75.0868 86.1397 75.0949Z" fill="#365987"/>
<path d="M24.3563 83.3309C26.5776 81.1206 28.799 78.9104 31.0203 76.7002C27.5665 65.3068 24.1126 53.9134 10.6627 52.4661C7.10849 56.0025 3.55432 59.5389 0.000244141 63.0753C14.7829 63.1963 19.5696 73.2636 24.3563 83.3309Z" fill="#7AB3FF"/>
<path d="M3.57734 61.4489C3.20392 61.4167 2.82345 61.3915 2.43573 61.3737C2.06604 61.7415 1.69635 62.1094 1.32666 62.4772C1.71822 62.4913 2.10252 62.5127 2.47967 62.541C2.84553 62.1769 3.21148 61.8129 3.57734 61.4489ZM5.76428 61.7302C5.41884 61.6703 5.06667 61.6168 4.70765 61.5704C4.34563 61.9306 3.98372 62.2908 3.6217 62.651C3.98454 62.6937 4.34045 62.7433 4.68972 62.7994C5.04791 62.443 5.40609 62.0866 5.76428 61.7302ZM7.78632 62.1756C7.46711 62.0895 7.14167 62.0095 6.80971 61.9361C6.45546 62.2886 6.10111 62.6412 5.74686 62.9936C6.08266 63.0633 6.41193 63.1393 6.73488 63.2217C7.08539 62.873 7.43591 62.5243 7.78632 62.1756ZM9.65353 62.775C9.35898 62.6645 9.05842 62.5597 8.75195 62.461C8.40537 62.8058 8.05879 63.1507 7.71222 63.4955C8.02252 63.5905 8.32681 63.6915 8.62519 63.7983C8.96804 63.4572 9.31078 63.116 9.65353 62.775ZM11.376 63.5184C11.1044 63.385 10.8273 63.257 10.5445 63.1347C10.2056 63.4719 9.86682 63.809 9.52791 64.1462C9.81448 64.2648 10.0953 64.3891 10.3708 64.5187C10.7059 64.1852 11.041 63.8518 11.376 63.5184ZM12.964 64.3958C12.7136 64.2412 12.4583 64.0917 12.1976 63.9473C11.8665 64.2768 11.5352 64.6064 11.2041 64.9358C11.4686 65.0764 11.7278 65.2222 11.9819 65.373C12.3092 65.0472 12.6366 64.7214 12.964 64.3958ZM14.4275 65.397C14.1968 65.2229 13.9613 65.0534 13.721 64.8887C13.3976 65.2106 13.0741 65.5324 12.7506 65.8542C12.9946 66.0151 13.2338 66.1809 13.4685 66.3513C13.7881 66.0332 14.1078 65.715 14.4275 65.397ZM15.7765 66.512C15.5637 66.3199 15.3467 66.1322 15.1252 65.9488C14.8094 66.263 14.4937 66.5771 14.1779 66.8914C14.4031 67.071 14.624 67.255 14.8406 67.4432C15.1525 67.1328 15.4645 66.8224 15.7765 66.512ZM17.0213 67.7308C16.8248 67.5226 16.6245 67.3182 16.4202 67.1177C16.1122 67.4242 15.804 67.7308 15.496 68.0372C15.7041 68.2339 15.9082 68.4345 16.1085 68.639C16.4127 68.3363 16.717 68.0335 17.0213 67.7308ZM18.1719 69.0433C17.99 68.8206 17.8048 68.6011 17.616 68.3854C17.3156 68.6842 17.0153 68.9831 16.7149 69.2819C16.9076 69.494 17.0966 69.7096 17.2823 69.9286C17.5788 69.6334 17.8753 69.3383 18.1719 69.0433ZM19.2384 70.4394C19.0696 70.2036 18.8976 69.971 18.7226 69.7414C18.4299 70.0327 18.1373 70.3238 17.8446 70.615C18.0235 70.8407 18.1992 71.0697 18.3718 71.3016C18.6607 71.0142 18.9495 70.7268 19.2384 70.4394ZM20.231 71.9092C20.0734 71.6622 19.9133 71.4178 19.7504 71.1763C19.4655 71.4598 19.1805 71.7434 18.8955 72.0268C19.0623 72.2646 19.2262 72.5052 19.3875 72.7485C19.6687 72.4686 19.9498 72.1889 20.231 71.9092ZM21.1597 73.4424C21.0118 73.1858 20.8617 72.9314 20.7093 72.6794C20.432 72.9553 20.1548 73.2311 19.8775 73.507C20.0337 73.7552 20.1876 74.0059 20.3394 74.2586C20.6128 73.9866 20.8863 73.7144 21.1597 73.4424ZM22.0346 75.0291C21.8947 74.7646 21.753 74.5018 21.6095 74.241C21.3399 74.5092 21.0705 74.7773 20.8009 75.0455C20.9483 75.3025 21.0938 75.5616 21.2374 75.8224C21.5032 75.558 21.7689 75.2936 22.0346 75.0291ZM22.8659 76.6593C22.7325 76.3885 22.5975 76.1189 22.461 75.851C22.1992 76.1115 21.9373 76.3721 21.6755 76.6326C21.8157 76.8967 21.9545 77.1624 22.0918 77.4295C22.3499 77.1728 22.608 76.9161 22.8659 76.6593ZM23.6638 78.3228C23.5348 78.0472 23.4051 77.7727 23.2741 77.4993C23.02 77.7522 22.7658 78.0051 22.5117 78.2579C22.6464 78.5276 22.78 78.7983 22.9127 79.07C23.1631 78.821 23.4135 78.5719 23.6638 78.3228ZM24.4382 80.0096C24.3124 79.7311 24.1859 79.4532 24.0589 79.176C23.8124 79.4212 23.566 79.6664 23.3196 79.9116C23.4505 80.1851 23.5807 80.4593 23.7103 80.734C23.9529 80.4925 24.1956 80.2511 24.4382 80.0096ZM25.1992 81.7097C25.0748 81.4299 24.9501 81.1502 24.8252 80.8707C24.5865 81.1082 24.3477 81.3458 24.109 81.5833C24.2377 81.8589 24.3662 82.1349 24.4945 82.411C24.7293 82.1773 24.9643 81.9435 25.1992 81.7097ZM11.7246 53.3423C11.3794 53.2821 11.0271 53.2289 10.6674 53.183C10.2978 53.5508 9.92807 53.9187 9.55838 54.2865C9.92175 54.3287 10.2779 54.3781 10.6268 54.4345C10.9928 54.0705 11.3587 53.7064 11.7246 53.3423ZM13.74 53.7944C13.4228 53.7064 13.0988 53.6251 12.768 53.5505C12.4059 53.9107 12.044 54.2708 11.682 54.631C12.0167 54.7018 12.3444 54.7794 12.6654 54.8636C13.0236 54.5072 13.3818 54.1508 13.74 53.7944ZM15.5905 54.4105C15.2995 54.2963 15.0022 54.1884 14.6984 54.0869C14.3441 54.4393 13.9898 54.7919 13.6355 55.1444C13.9431 55.2421 14.2442 55.3462 14.539 55.4566C14.8896 55.1079 15.24 54.7592 15.5905 54.4105ZM17.2862 55.1806C17.0198 55.042 16.7475 54.9091 16.4692 54.7824C16.1226 55.1273 15.776 55.4721 15.4295 55.8169C15.7116 55.94 15.9877 56.069 16.2579 56.2037C16.6006 55.8627 16.9435 55.5217 17.2862 55.1806ZM18.8372 56.0946C18.5937 55.9332 18.3448 55.7771 18.0903 55.6268C17.7513 55.964 17.4125 56.3011 17.0736 56.6383C17.332 56.7849 17.5847 56.9372 17.832 57.0948C18.167 56.7614 18.5021 56.428 18.8372 56.0946ZM20.2536 57.1427C20.0314 56.96 19.8042 56.7825 19.5717 56.61C19.2406 56.9395 18.9093 57.2691 18.5782 57.5986C18.8145 57.7672 19.0455 57.941 19.2715 58.1199C19.5988 57.7942 19.9262 57.4684 20.2536 57.1427ZM21.5455 58.3147C21.3429 58.1125 21.1357 57.915 20.9236 57.7222C20.6001 58.0441 20.2767 58.3659 19.9532 58.6878C20.169 58.8767 20.3801 59.0705 20.5865 59.2689C20.9061 58.9507 21.2258 58.6327 21.5455 58.3147ZM22.7229 59.6003C22.5383 59.3802 22.3495 59.1644 22.1562 58.953C21.8404 59.2672 21.5247 59.5813 21.2089 59.8955C21.4059 60.1032 21.5986 60.3152 21.787 60.5315C22.099 60.2212 22.411 59.9108 22.7229 59.6003ZM23.7961 60.9898C23.6278 60.7535 23.4557 60.5211 23.2796 60.2925C22.9716 60.599 22.6634 60.9056 22.3554 61.2121C22.5353 61.4368 22.7112 61.6654 22.8834 61.898C23.1876 61.5953 23.4919 61.2925 23.7961 60.9898ZM24.7752 62.473C24.6215 62.2222 24.4645 61.9747 24.3038 61.7309C24.0034 62.0297 23.7031 62.3286 23.4027 62.6274C23.5672 62.8675 23.728 63.1112 23.8856 63.3582C24.1821 63.0631 24.4787 62.7681 24.7752 62.473ZM25.6702 64.0398C25.5295 63.7761 25.3858 63.5153 25.2389 63.2577C24.9462 63.5489 24.6537 63.8401 24.361 64.1313C24.5117 64.3851 24.6592 64.642 24.8036 64.902C25.0925 64.6146 25.3813 64.3272 25.6702 64.0398ZM26.4912 65.6802C26.3619 65.4052 26.2299 65.1328 26.0952 64.8631C25.8103 65.1466 25.5253 65.4302 25.2404 65.7137C25.3789 65.9795 25.5147 66.2482 25.6478 66.5194C25.929 66.2397 26.2101 65.96 26.4912 65.6802ZM27.2484 67.3842C27.1287 67.0996 27.0068 66.8171 26.8826 66.537C26.6053 66.8129 26.3281 67.0887 26.0508 67.3646C26.1788 67.6408 26.3046 67.9196 26.4281 68.2004C26.7015 67.9282 26.9749 67.6562 27.2484 67.3842ZM27.9518 69.1416C27.8401 68.849 27.7266 68.5581 27.6112 68.2694C27.3416 68.5376 27.0721 68.8057 26.8026 69.0739C26.9217 69.359 27.0391 69.6461 27.1545 69.9348C27.4204 69.6704 27.6861 69.406 27.9518 69.1416ZM28.6116 70.9424C28.5062 70.6436 28.3996 70.346 28.2913 70.05C28.0295 70.3105 27.7676 70.5711 27.5058 70.8316C27.6178 71.1237 27.7284 71.4175 27.8375 71.7126C28.0956 71.456 28.3536 71.1992 28.6116 70.9424ZM29.2378 72.7766C29.1371 72.4731 29.0355 72.1705 28.9327 71.8691C28.6786 72.1219 28.4244 72.3748 28.1703 72.6276C28.2769 72.9254 28.3824 73.2241 28.4868 73.5239C28.7372 73.2748 28.9875 73.0257 29.2378 72.7766ZM29.8407 74.6342C29.7431 74.3276 29.6448 74.0216 29.5458 73.7164C29.2994 73.9616 29.053 74.2067 28.8066 74.452C28.9093 74.7534 29.0114 75.0556 29.1128 75.3584C29.3555 75.117 29.5981 74.8756 29.8407 74.6342ZM30.4302 76.5049C30.3339 76.197 30.2374 75.8893 30.1407 75.5819C29.9021 75.8194 29.6633 76.057 29.4246 76.2945C29.5251 76.5982 29.6253 76.9021 29.7255 77.2062C29.9603 76.9725 30.1953 76.7387 30.4302 76.5049ZM13.8207 56.0823C12.3349 55.5484 10.6929 55.1698 8.87 54.9714C6.95854 56.8733 5.04718 58.7751 3.13572 60.677C5.05651 60.7781 6.79634 61.0592 8.37998 61.4957C10.1936 59.6912 12.0072 57.8867 13.8207 56.0823ZM18.6215 58.6954C17.4804 57.8185 16.2137 57.0666 14.7966 56.4643C13.005 58.247 11.2133 60.0297 9.42178 61.8123C10.9368 62.3172 12.3013 62.9717 13.5403 63.7512C15.234 62.0659 16.9277 60.3807 18.6215 58.6954ZM22.2937 62.4313C21.4225 61.2859 20.4563 60.2351 19.3702 59.3035C17.6984 60.967 16.0265 62.6304 14.3547 64.2939C15.5387 65.1282 16.6027 66.0816 17.5718 67.1296C19.1457 65.5635 20.7197 63.9974 22.2937 62.4313ZM25.1123 67.0166C24.436 65.6772 23.6954 64.4019 22.8655 63.2155C21.3135 64.7597 19.7615 66.304 18.2093 67.8483C19.1371 68.9374 19.9756 70.1154 20.7497 71.3575C22.2039 69.9105 23.6581 68.4636 25.1123 67.0166ZM27.3521 72.1778C26.796 70.7188 26.2062 69.2935 25.5575 67.9266C24.1253 69.3516 22.693 70.7768 21.2607 72.2018C22.0073 73.4714 22.6949 74.7993 23.3488 76.1609C24.6833 74.8333 26.0177 73.5055 27.3521 72.1778ZM29.288 77.6414C28.7772 76.1373 28.2634 74.6365 27.7212 73.1637C26.4087 74.4696 25.0963 75.7754 23.7838 77.0814C24.4238 78.4568 25.0356 79.8603 25.6442 81.2671C26.8587 80.0585 28.0733 78.85 29.288 77.6414Z" fill="white"/>
<path d="M48.7124 103.586C49.6009 102.702 50.4894 101.818 51.378 100.934C37.928 99.4868 34.4742 88.0936 31.0202 76.7002C28.7989 78.9104 26.5775 81.1206 24.3562 83.3309C29.1429 93.3981 33.9296 103.465 48.7124 103.586Z" fill="#7AB3FF"/>
<path d="M26.0366 83.5918C25.9117 83.3124 25.7872 83.0327 25.6626 82.7528C25.4324 82.9818 25.2022 83.2108 24.9719 83.44C25.1002 83.716 25.2286 83.992 25.3573 84.2676C25.5838 84.0423 25.8103 83.817 26.0366 83.5918ZM26.8026 85.2869C26.6756 85.0096 26.5492 84.7316 26.4234 84.4531C26.2009 84.6745 25.9784 84.8959 25.7559 85.1173C25.8854 85.392 26.0156 85.6663 26.1464 85.9398C26.3653 85.7221 26.584 85.5045 26.8026 85.2869ZM27.5867 86.9641C27.4558 86.6906 27.3261 86.4159 27.1973 86.1403C26.9825 86.3541 26.7677 86.5678 26.5529 86.7816C26.6854 87.0534 26.8189 87.3242 26.9535 87.594C27.1648 87.3839 27.3758 87.174 27.5867 86.9641ZM28.3989 88.6132C28.2626 88.3451 28.1279 88.0755 27.9944 87.8045C27.7873 88.0106 27.5803 88.2166 27.3731 88.4228C27.5103 88.6899 27.6489 88.9558 27.789 89.2201C27.9923 89.0178 28.1957 88.8156 28.3989 88.6132ZM29.2495 90.2243C29.1061 89.9633 28.9646 89.7003 28.8249 89.4356C28.6255 89.634 28.4261 89.8324 28.2267 90.0308C28.3702 90.2917 28.5154 90.551 28.6627 90.8082C28.8583 90.6135 29.0538 90.4189 29.2495 90.2243ZM30.1484 91.7872C29.9961 91.535 29.8464 91.2804 29.6987 91.0235C29.507 91.2142 29.3153 91.405 29.1236 91.5957C29.275 91.8488 29.4287 92.0996 29.5847 92.3481C29.7726 92.1611 29.9605 91.9742 30.1484 91.7872ZM31.1057 93.292C30.9431 93.0501 30.7832 92.8055 30.626 92.5583C30.442 92.7413 30.2581 92.9244 30.074 93.1075C30.235 93.351 30.3987 93.5918 30.5651 93.8299C30.7454 93.6505 30.9255 93.4713 31.1057 93.292ZM32.1317 94.7286C31.9569 94.4987 31.7854 94.2658 31.6168 94.0297C31.4405 94.2051 31.2642 94.3805 31.0879 94.5559C31.2603 94.7881 31.4356 95.0173 31.6142 95.2434C31.7867 95.0718 31.9591 94.9002 32.1317 94.7286ZM33.2363 96.0867C33.0478 95.8706 32.8629 95.6508 32.6814 95.4277C32.5128 95.5954 32.3442 95.7631 32.1756 95.9309C32.3609 96.1502 32.5497 96.3662 32.7419 96.5786C32.9067 96.4146 33.0715 96.2507 33.2363 96.0867ZM34.4297 97.3567C34.2259 97.1559 34.0259 96.9511 33.8297 96.7425C33.6689 96.9025 33.508 97.0626 33.3471 97.2227C33.547 97.4275 33.7508 97.6286 33.9585 97.8256C34.1156 97.6692 34.2727 97.5129 34.4297 97.3567ZM35.722 98.5281C35.5011 98.3443 35.2845 98.1561 35.0721 97.9636C34.9189 98.1161 34.7657 98.2685 34.6125 98.4209C34.8287 98.6095 35.0491 98.794 35.2739 98.974C35.4233 98.8253 35.5727 98.6767 35.722 98.5281ZM37.1234 99.5911C36.8836 99.4259 36.6487 99.256 36.4184 99.0814C36.2729 99.2262 36.1275 99.3708 35.982 99.5156C36.2161 99.6864 36.4548 99.8526 36.6983 100.014C36.8401 99.8729 36.9818 99.7321 37.1234 99.5911ZM38.6439 100.536C38.3837 100.391 38.1289 100.241 37.8789 100.085C37.7412 100.223 37.6034 100.36 37.4656 100.497C37.7193 100.648 37.978 100.794 38.242 100.936C38.376 100.802 38.51 100.669 38.6439 100.536ZM40.2935 101.351C40.0113 101.228 39.7348 101.1 39.4637 100.966C39.3336 101.095 39.2036 101.225 39.0735 101.354C39.3484 101.484 39.6288 101.609 39.9147 101.728C40.0411 101.603 40.1673 101.477 40.2935 101.351ZM42.0826 102.029C41.7767 101.929 41.4768 101.824 41.1828 101.713C41.0605 101.835 40.9381 101.956 40.8157 102.078C41.1136 102.185 41.4171 102.287 41.7269 102.383C41.8455 102.265 41.964 102.147 42.0826 102.029ZM44.021 102.557C43.6898 102.483 43.3649 102.403 43.0463 102.316C42.9316 102.43 42.817 102.544 42.7023 102.658C43.0247 102.741 43.3533 102.818 43.6884 102.888C43.7993 102.778 43.9102 102.668 44.021 102.557ZM46.119 102.927C45.7606 102.88 45.4092 102.826 45.0644 102.765C44.9574 102.872 44.8505 102.978 44.7435 103.085C45.0922 103.142 45.4473 103.192 45.8096 103.235C45.9128 103.132 46.0159 103.03 46.119 102.927ZM48.3867 103.128C47.9997 103.11 47.6199 103.084 47.2472 103.051C47.1479 103.15 47.0487 103.248 46.9495 103.347C47.326 103.376 47.7095 103.398 48.1003 103.413C48.1958 103.318 48.2913 103.223 48.3867 103.128ZM31.0781 78.5755C30.9814 78.268 30.8849 77.9603 30.7886 77.6523C30.5584 77.8814 30.3282 78.1104 30.0979 78.3396C30.198 78.6437 30.2983 78.9477 30.3988 79.2514C30.6253 79.0261 30.8517 78.8008 31.0781 78.5755ZM31.6725 80.4414C31.5737 80.136 31.4755 79.83 31.3779 79.5234C31.1554 79.7448 30.9329 79.9662 30.7103 80.1876C30.8117 80.4904 30.9137 80.7927 31.0164 81.0943C31.2352 80.8766 31.4539 80.659 31.6725 80.4414ZM32.2851 82.2892C32.1824 81.9877 32.0809 81.6849 31.9803 81.3814C31.7654 81.5951 31.5507 81.8088 31.3358 82.0226C31.4402 82.3225 31.5455 82.6213 31.652 82.9191C31.863 82.7092 32.0741 82.4992 32.2851 82.2892ZM32.9258 84.109C32.8177 83.8129 32.711 83.5153 32.6058 83.2162C32.3988 83.4222 32.1917 83.6283 31.9845 83.8344C32.0935 84.1297 32.2039 84.4236 32.3159 84.7159C32.5192 84.5137 32.7224 84.3114 32.9258 84.109ZM33.6047 85.8909C33.4895 85.6018 33.3762 85.3108 33.2647 85.0181C33.0653 85.2165 32.8659 85.4149 32.6665 85.6133C32.7818 85.9022 32.8988 86.1894 33.0179 86.4748C33.2136 86.2801 33.4092 86.0855 33.6047 85.8909ZM34.3321 87.6245C34.208 87.3442 34.0865 87.0615 33.967 86.7767C33.7752 86.9675 33.5836 87.1582 33.3919 87.3489C33.5152 87.63 33.6406 87.9089 33.7684 88.1854C33.9563 87.9984 34.1442 87.8114 34.3321 87.6245ZM35.1179 89.2999C34.9835 89.0299 34.8518 88.7573 34.7226 88.4821C34.5387 88.6651 34.3547 88.8481 34.1706 89.0313C34.3035 89.3028 34.4389 89.5716 34.5772 89.8378C34.7575 89.6585 34.9377 89.4792 35.1179 89.2999ZM35.9723 90.9072C35.8258 90.6493 35.6824 90.3883 35.542 90.1242C35.3657 90.2996 35.1894 90.475 35.0131 90.6504C35.1573 90.9107 35.3045 91.168 35.4548 91.4221C35.6273 91.2504 35.7998 91.0788 35.9723 90.9072ZM36.9053 92.4361C36.745 92.1919 36.5883 91.9441 36.435 91.693C36.2665 91.8607 36.0978 92.0284 35.9292 92.1962C36.0863 92.4436 36.2469 92.6876 36.4109 92.928C36.5758 92.764 36.7406 92.6 36.9053 92.4361ZM37.9273 93.8766C37.7515 93.6478 37.5798 93.4149 37.4119 93.1782C37.2511 93.3383 37.0902 93.4983 36.9292 93.6585C37.101 93.8913 37.2765 94.1205 37.4561 94.3455C37.6132 94.1892 37.7702 94.0329 37.9273 93.8766ZM39.0481 95.2187C38.8553 95.0068 38.6669 94.7907 38.4827 94.5702C38.3295 94.7226 38.1764 94.875 38.0232 95.0274C38.2112 95.2441 38.4033 95.4565 38.5999 95.6646C38.7493 95.516 38.8986 95.3673 39.0481 95.2187ZM40.2778 96.4525C40.0663 96.2592 39.8595 96.0612 39.6574 95.8586C39.5119 96.0034 39.3665 96.1481 39.221 96.2928C39.4269 96.4917 39.6374 96.686 39.8528 96.8754C39.9945 96.7343 40.1362 96.5933 40.2778 96.4525ZM41.6268 97.5676C41.3948 97.3947 41.1681 97.2166 40.9464 97.0335C40.8086 97.1705 40.6709 97.3076 40.5331 97.4447C40.7586 97.6241 40.9891 97.7984 41.2249 97.9676C41.3589 97.8342 41.4928 97.7009 41.6268 97.5676ZM43.1049 98.5542C42.8509 98.4032 42.6026 98.2467 42.3596 98.0847C42.2296 98.2141 42.0995 98.3435 41.9694 98.473C42.2162 98.6312 42.4684 98.784 42.7261 98.9311C42.8525 98.8054 42.9787 98.6798 43.1049 98.5542ZM44.7224 99.4021C44.4446 99.2747 44.173 99.1413 43.9071 99.0021C43.7847 99.1239 43.6624 99.2456 43.54 99.3673C43.8097 99.5027 44.0852 99.6324 44.3667 99.756C44.4853 99.638 44.6038 99.5201 44.7224 99.4021ZM46.4893 100.101C46.1862 99.9993 45.8896 99.8907 45.5992 99.7759C45.4845 99.89 45.3699 100.004 45.2552 100.118C45.5494 100.229 45.8499 100.334 46.1568 100.432C46.2677 100.322 46.3784 100.212 46.4893 100.101ZM48.4157 100.642C48.0855 100.567 47.7623 100.485 47.4456 100.396C47.3387 100.502 47.2317 100.609 47.1248 100.715C47.4452 100.8 47.7723 100.878 48.1063 100.95C48.2095 100.847 48.3126 100.745 48.4157 100.642ZM50.5119 101.014C50.153 100.967 49.8014 100.913 49.4569 100.852C49.3576 100.951 49.2584 101.05 49.1591 101.148C49.5075 101.205 49.8629 101.256 50.2255 101.299C50.321 101.204 50.4164 101.109 50.5119 101.014ZM31.2352 83.2448C30.6937 81.7714 30.1799 80.2702 29.6694 78.7661C28.4791 79.9503 27.2888 81.1347 26.0986 82.3189C26.7071 83.7257 27.3186 85.1295 27.958 86.5056C29.0504 85.4187 30.1428 84.3317 31.2352 83.2448ZM33.3956 88.485C32.7481 87.117 32.1592 85.6907 31.6038 84.231C30.5334 85.2962 29.4629 86.3612 28.3925 87.4264C29.0458 88.7887 29.7325 90.1176 30.4778 91.3882C31.4503 90.4205 32.423 89.4527 33.3956 88.485ZM36.0822 93.2017C35.2541 92.0135 34.515 90.7365 33.84 89.3958C32.8893 90.3418 31.9387 91.2876 30.988 92.2335C31.7607 93.4769 32.5977 94.6564 33.5237 95.7472C34.3766 94.8987 35.2293 94.0502 36.0822 93.2017ZM39.5698 97.1212C38.4861 96.1873 37.5221 95.1343 36.6527 93.9869C35.8218 94.8137 34.9909 95.6404 34.16 96.4671C35.1272 97.517 36.1891 98.4727 37.3707 99.3093C38.1038 98.58 38.8369 97.8506 39.5698 97.1212ZM44.1335 99.9703C42.7194 99.3651 41.4555 98.6103 40.3169 97.731C39.6058 98.4385 38.8947 99.146 38.1836 99.8537C39.4201 100.636 40.7818 101.293 42.2937 101.801C42.907 101.191 43.5202 100.58 44.1335 99.9703ZM50.0478 101.475C48.2284 101.273 46.5899 100.891 45.1072 100.354C44.5159 100.943 43.9245 101.531 43.3332 102.119C44.9138 102.559 46.6502 102.844 48.5674 102.948C49.0609 102.457 49.5543 101.966 50.0478 101.475Z" fill="white"/>
<path d="M70.6019 99.4665C79.2237 90.8876 79.2235 76.9786 70.6014 68.4C61.9793 59.8214 48.0003 59.8216 39.3785 68.4006C30.7567 76.9795 30.7569 90.8884 39.3791 99.4671C48.0012 108.046 61.9801 108.045 70.6019 99.4665Z" fill="#6495ED" fill-opacity="0.5"/>
<path d="M54.9911 104.523C43.5808 104.523 34.2977 95.2866 34.2977 83.9335C34.2977 72.5803 43.5808 63.3438 54.9911 63.3438C66.4014 63.3438 75.6845 72.5803 75.6845 83.9335C75.6845 95.2866 66.4014 104.523 54.9911 104.523ZM54.9911 63.8835C43.8798 63.8835 34.8402 72.8778 34.8402 83.9335C34.8402 94.989 43.8798 103.983 54.9911 103.983C66.1023 103.983 75.1419 94.9891 75.1419 83.9335C75.1419 72.8778 66.1023 63.8835 54.9911 63.8835Z" fill="white"/>
<path d="M59.1419 70.1981C59.5138 67.9181 57.9577 65.7699 55.6663 65.3998C53.3749 65.0298 51.2158 66.578 50.8439 68.858C50.472 71.1379 52.0281 73.2862 54.3195 73.6562C56.6109 74.0263 58.77 72.478 59.1419 70.1981Z" fill="white"/>
<path d="M41.7814 76.7045C40.1399 75.0712 40.1399 72.4231 41.7814 70.7899C43.4229 69.1566 46.0843 69.1566 47.7258 70.7899C49.3672 72.4231 49.3672 75.0712 47.7258 76.7045C46.0844 78.3377 43.423 78.3377 41.7814 76.7045Z" fill="white"/>
<path d="M40.5131 88.1157C42.8345 88.1157 44.7164 86.2432 44.7164 83.9335C44.7164 81.6237 42.8345 79.7512 40.5131 79.7512C38.1917 79.7512 36.3098 81.6237 36.3098 83.9335C36.3098 86.2432 38.1917 88.1157 40.5131 88.1157Z" fill="white"/>
<path d="M47.7258 97.077C46.0843 98.7103 43.4229 98.7103 41.7814 97.077C40.1399 95.4438 40.1399 92.7957 41.7814 91.1624C43.4229 89.5292 46.0843 89.5292 47.7258 91.1624C49.3672 92.7957 49.3672 95.4439 47.7258 97.077Z" fill="white"/>
<path d="M54.9911 102.521C57.3125 102.521 59.1944 100.649 59.1944 98.339C59.1944 96.0292 57.3125 94.1567 54.9911 94.1567C52.6697 94.1567 50.7878 96.0292 50.7878 98.339C50.7878 100.649 52.6697 102.521 54.9911 102.521Z" fill="white"/>
<path d="M65.2287 98.302C67.5501 98.302 69.432 96.4295 69.432 94.1197C69.432 91.8099 67.5501 89.9375 65.2287 89.9375C62.9073 89.9375 61.0254 91.8099 61.0254 94.1197C61.0254 96.4295 62.9073 98.302 65.2287 98.302Z" fill="white"/>
<path d="M69.4691 88.1157C71.7906 88.1157 73.6724 86.2432 73.6724 83.9335C73.6724 81.6237 71.7906 79.7512 69.4691 79.7512C67.1477 79.7512 65.2659 81.6237 65.2659 83.9335C65.2659 86.2432 67.1477 88.1157 69.4691 88.1157Z" fill="white"/>
<path d="M65.2287 77.9294C67.5501 77.9294 69.432 76.057 69.432 73.7472C69.432 71.4374 67.5501 69.5649 65.2287 69.5649C62.9073 69.5649 61.0254 71.4374 61.0254 73.7472C61.0254 76.057 62.9073 77.9294 65.2287 77.9294Z" fill="white"/>
<path d="M53.5801 83.9336C53.5801 83.1582 54.2119 82.5295 54.9912 82.5295C55.7704 82.5295 56.4021 83.1582 56.4021 83.9336C56.4021 84.7089 55.7703 85.3375 54.9912 85.3375C54.2118 85.3375 53.5801 84.7089 53.5801 83.9336Z" fill="white"/>
<path d="M27.4161 70.7539V67.3592C27.4161 67.2313 27.4933 67.1159 27.612 67.0665L32.7822 64.9142C32.9447 64.8466 33.1315 64.9228 33.1995 65.0846C33.2675 65.2463 33.1909 65.4322 33.0283 65.4998L28.2499 67.489C28.1313 67.5384 28.0541 67.6537 28.0541 67.7818V70.754C28.0541 70.9293 27.9112 71.0714 27.735 71.0714C27.559 71.0713 27.4161 70.9292 27.4161 70.7539Z" fill="#B7CBE6"/>
<path d="M39.3623 58.1851H38.7278V58.0102C38.7278 57.5354 38.3614 57.1505 37.9095 57.1505H37.8494C37.8494 56.8716 37.6342 56.6454 37.3686 56.6454H36.3146C36.0491 56.6454 35.8338 56.8716 35.8338 57.1505H34.6225V56.6163C34.6225 56.2729 34.3575 55.9946 34.0307 55.9946H33.6239V55.6353C33.6239 55.4367 33.4707 55.2759 33.2817 55.2759H30.4709C30.2819 55.2759 30.1288 55.4369 30.1288 55.6353V55.9946H29.722C29.3952 55.9946 29.1302 56.273 29.1302 56.6163V57.1505H28.3952C27.9432 57.1505 27.5769 57.5354 27.5769 58.0102V63.5469C27.5769 64.0217 27.9433 64.4065 28.3952 64.4065H37.9093C38.3331 64.4065 38.6817 64.068 38.7234 63.6344H39.3622C39.6896 63.6344 39.9551 63.3554 39.9551 63.0115V58.8079C39.9552 58.4639 39.6897 58.1851 39.3623 58.1851Z" fill="#0047AB" fill-opacity="0.65"/>
<path d="M27.9724 64.4065H30.4633C30.6817 64.4065 30.8587 64.2304 30.8587 64.0131V57.5471C30.8587 57.3298 30.6817 57.1537 30.4633 57.1537H27.9724C27.754 57.1537 27.577 57.3298 27.577 57.5471V64.0131C27.577 64.2304 27.754 64.4065 27.9724 64.4065Z" fill="#72A5E8"/>
<path d="M29.8542 58.6842H28.6613C28.5388 58.6842 28.4395 58.5855 28.4395 58.4635C28.4395 58.3416 28.5387 58.2427 28.6613 58.2427H29.8542C29.9767 58.2427 30.0761 58.3416 30.0761 58.4635C30.0761 58.5855 29.9767 58.6842 29.8542 58.6842ZM29.8541 59.6507H28.6613C28.5388 59.6507 28.4395 59.5519 28.4395 59.4299C28.4395 59.308 28.5387 59.2091 28.6613 59.2091H29.8541C29.9766 59.2091 30.0759 59.3079 30.0759 59.4299C30.0761 59.5519 29.9767 59.6507 29.8541 59.6507Z" fill="white"/>
<path d="M29.2522 61.4991C29.4038 61.4991 29.5266 61.3768 29.5266 61.2261C29.5266 61.0753 29.4038 60.9531 29.2522 60.9531C29.1007 60.9531 28.9779 61.0753 28.9779 61.2261C28.9779 61.3768 29.1007 61.4991 29.2522 61.4991Z" fill="white"/>
<path d="M28.3248 61.9069C28.3248 61.7561 28.4476 61.6339 28.5992 61.6339C28.7507 61.6339 28.8735 61.7561 28.8735 61.9069C28.8735 62.0575 28.7507 62.1798 28.5992 62.1798C28.4476 62.1797 28.3248 62.0575 28.3248 61.9069Z" fill="white"/>
<path d="M29.9488 62.1798C30.1003 62.1798 30.2231 62.0576 30.2231 61.9069C30.2231 61.7561 30.1003 61.6339 29.9488 61.6339C29.7973 61.6339 29.6744 61.7561 29.6744 61.9069C29.6744 62.0576 29.7973 62.1798 29.9488 62.1798Z" fill="white"/>
<path d="M28.978 62.6294C28.978 62.4786 29.1008 62.3564 29.2524 62.3564C29.4039 62.3564 29.5267 62.4786 29.5267 62.6294C29.5267 62.7801 29.4039 62.9024 29.2524 62.9024C29.1008 62.9024 28.978 62.7802 28.978 62.6294Z" fill="white"/>
<path d="M37.5769 59.0317H31.7955C31.673 59.0317 31.5736 58.9328 31.5736 58.8109C31.5736 58.689 31.673 58.5901 31.7955 58.5901H37.5769C37.6994 58.5901 37.7988 58.6889 37.7988 58.8109C37.7988 58.9328 37.6995 59.0317 37.5769 59.0317ZM37.5769 60.1679H31.7955C31.673 60.1679 31.5736 60.0691 31.5736 59.9471C31.5736 59.8252 31.673 59.7263 31.7955 59.7263H37.5769C37.6994 59.7263 37.7988 59.8251 37.7988 59.9471C37.7988 60.069 37.6995 60.1679 37.5769 60.1679ZM37.5769 61.304H31.7955C31.673 61.304 31.5736 61.2052 31.5736 61.0832C31.5736 60.9613 31.673 60.8624 31.7955 60.8624H37.5769C37.6994 60.8624 37.7988 60.9612 37.7988 61.0832C37.7988 61.2052 37.6994 61.304 37.5769 61.304ZM37.5769 62.4402H31.7955C31.673 62.4402 31.5736 62.3413 31.5736 62.2194C31.5736 62.0975 31.6729 61.9986 31.7955 61.9986H37.577C37.6995 61.9986 37.7989 62.0974 37.7989 62.2194C37.7988 62.3414 37.6995 62.4402 37.5769 62.4402Z" fill="#72A5E8"/>
<path d="M43.7062 59.4299H39.9552V62.9024H43.7062V59.4299Z" fill="#0047AB" fill-opacity="0.65"/>
<path d="M45.5364 58.9906H43.6012V63.3417H45.5364V58.9906Z" fill="#72A5E8"/>
<path d="M29.1727 57.1538H30.076V56.1252H29.1726C28.8872 56.1252 28.6558 56.3555 28.6558 56.6395C28.6559 56.9235 28.8873 57.1538 29.1727 57.1538Z" fill="#72A5E8"/>
<path d="M33.3072 64.5894H32.6692V82.9664H33.3072V64.5894Z" fill="#B7CBE6"/>
<path d="M33.3072 83.1044H32.6692V105.524H33.3072V83.1044Z" fill="#B7CBE6"/>
<path d="M26.8836 105.524H26.2456L32.6693 83.1044H33.3073L26.8836 105.524Z" fill="#B7CBE6"/>
<path d="M39.0329 105.524H39.6709L33.2473 83.1044H32.6093L39.0329 105.524Z" fill="#B7CBE6"/>
<path d="M28.2621 70.9816V68.3875C28.2621 68.1627 28.0788 67.9805 27.853 67.9805H27.631C27.4051 67.9805 27.2219 68.1628 27.2219 68.3876V70.9817C27.2219 71.2065 27.4052 71.3888 27.631 71.3888H27.853C28.0788 71.3888 28.2621 71.2065 28.2621 70.9816Z" fill="#0047AB" fill-opacity="0.65"/>
<path d="M33.3189 78.624H32.6346V82.9663H33.3189V78.624Z" fill="#0047AB" fill-opacity="0.65"/>
<path d="M34.0424 82.304H31.9342V83.6288H34.0424V82.304Z" fill="#0047AB" fill-opacity="0.65"/>
<path d="M26.5468 105.045C26.2191 105.045 25.9535 105.31 25.9535 105.636V105.791H27.1401V105.636C27.1401 105.31 26.8746 105.045 26.5468 105.045ZM32.9883 105.045C32.6605 105.045 32.3949 105.31 32.3949 105.636V105.791H33.5815V105.636C33.5815 105.31 33.3159 105.045 32.9883 105.045ZM39.3126 105.045C38.985 105.045 38.7193 105.31 38.7193 105.636V105.791H39.9059V105.636C39.9058 105.31 39.6402 105.045 39.3126 105.045Z" fill="#0047AB" fill-opacity="0.65"/>
<path d="M33.513 78.3021H32.4635V78.9461H33.513V78.3021Z" fill="#0047AB" fill-opacity="0.65"/>
<path d="M35.9144 53.4762H27.823C27.5399 53.4762 27.3502 53.7658 27.4644 54.0235L28.3217 55.9578C28.3843 56.0992 28.5251 56.1904 28.6803 56.1904H35.0571C35.2123 56.1904 35.353 56.0991 35.4157 55.9578L36.273 54.0235C36.3872 53.7658 36.1976 53.4762 35.9144 53.4762Z" fill="#72A5E8"/>
<path d="M30.8397 55.3955L30.2783 54.0878C30.2414 54.0018 30.1564 53.946 30.0626 53.946H28.4295C28.2612 53.946 28.1476 54.1172 28.2137 54.2713L28.775 55.579C28.8119 55.665 28.8969 55.7208 28.9909 55.7208H30.624C30.7922 55.7207 30.9058 55.5496 30.8397 55.3955Z" fill="white"/>
<path d="M31.5736 63.9236C31.5736 64.4571 32.0083 64.8895 32.5444 64.8895H33.4319C33.9681 64.8895 34.4027 64.457 34.4027 63.9236H31.5736Z" fill="#0047AB" fill-opacity="0.65"/>
<path d="M62.1992 105.983H92.2628V86.3756H62.1992V105.983Z" fill="#6495ED" fill-opacity="0.9"/>
<path d="M91.0672 102.744H63.7156V103.032H91.0672V102.744Z" fill="white"/>
<path d="M90.7782 99.2881H63.7156V99.5763H90.7782V99.2881Z" fill="white"/>
<path d="M71.6092 95.9063H80.9172H81.1621H90.7642V95.618H81.1621V91.8716H90.7642V91.5834H81.1621H80.9172H71.6092H71.3643H63.6974V91.8716H71.3643V95.6181H63.6974V95.9064H71.3643L71.6092 95.9063ZM71.6092 91.8716H80.9172V95.6181H71.6092V91.8716Z" fill="white"/>
<path d="M62.1991 86.3755V90.3213H85.1084C87.619 90.3213 89.6541 92.3463 89.6541 94.8442V105.982H92.2628V86.3755H62.1991Z" fill="#E4E9EF"/>
<path d="M92.2651 84.887H62.1995V88.5977H92.2651V84.887Z" fill="#3A6194"/>
<path d="M63.7156 85.2523L65.2445 88.238H68.4214L66.8877 85.2523H63.7156Z" fill="white"/>
<path d="M70.0231 85.2523L71.552 88.238H74.7288L73.1952 85.2523H70.0231Z" fill="white"/>
<path d="M76.208 85.2523L77.7369 88.238H80.9138L79.3802 85.2523H76.208Z" fill="white"/>
<path d="M81.6276 85.2523L83.1565 88.238H86.3334L84.7997 85.2523H81.6276Z" fill="white"/>
<path d="M87.0165 85.2523L88.5454 88.238H91.7222L90.1885 85.2523H87.0165Z" fill="white"/>
<path d="M62.6376 79.9115L89.8441 84.5694L91.6969 84.887L92.2179 84.9761L92.2356 84.887L92.9223 81.321L91.5193 81.0815L63.342 76.262L62.6376 79.9115Z" fill="#3A6194"/>
<path d="M64.7676 76.877L65.7043 80.072L68.8299 80.6071L67.8885 77.4112L64.7676 76.877Z" fill="white"/>
<path d="M70.9734 77.9393L71.91 81.1344L75.0356 81.6694L74.0942 78.4735L70.9734 77.9393Z" fill="white"/>
<path d="M77.0585 78.981L77.9951 82.176L81.1207 82.711L80.1794 79.5152L77.0585 78.981Z" fill="white"/>
<path d="M82.3905 79.8937L83.3271 83.0887L86.4527 83.6237L85.5115 80.428L82.3905 79.8937Z" fill="white"/>
<path d="M87.6924 80.8013L88.6291 83.9963L91.7547 84.5313L90.8133 81.3355L87.6924 80.8013Z" fill="white"/>
<path d="M91.2885 88.5978H92.2652V84.8871H92.2356L92.9224 81.3211L91.5194 81.0815L91.0339 82.0845L90.0098 84.2296L89.8441 84.5695L89.6902 84.8871L89.5186 85.2548L88.3109 87.7733L87.9143 88.5978H91.2885Z" fill="#3A6194"/>
<path d="M88.7976 87.9087C89.1785 87.9087 89.1791 88.4659 88.7976 88.4659C88.4166 88.4659 88.416 87.9087 88.7976 87.9087ZM90.7644 87.9087C91.1453 87.9087 91.1459 88.4659 90.7644 88.4659C90.3835 88.4659 90.3829 87.9087 90.7644 87.9087ZM91.4364 82.9044C91.8173 82.9044 91.8179 83.4616 91.4364 83.4616C91.0554 83.4616 91.0548 82.9044 91.4364 82.9044Z" fill="white"/>
<path d="M30.9465 36.0204L20.1537 39.0973C19.8954 39.171 19.7459 39.4391 19.82 39.6962L21.7718 46.4739C21.8458 46.731 22.1153 46.8797 22.3736 46.8059L33.1664 43.729C33.4248 43.6553 33.5743 43.3872 33.5002 43.1301L31.5484 36.3524C31.4744 36.0954 31.2049 35.9467 30.9465 36.0204Z" fill="#4D9AFF"/>
<path d="M30.6262 37.9634L21.4596 40.5768C21.2013 40.6504 21.0518 40.9185 21.1259 41.1756L22.0922 44.531C22.1662 44.7881 22.4356 44.9368 22.694 44.863L31.8606 42.2497C32.119 42.1761 32.2684 41.908 32.1943 41.6509L31.2281 38.2955C31.1541 38.0384 30.8846 37.8898 30.6262 37.9634Z" fill="white"/>
<path d="M27.5022 41.0498L25.9115 40.7724C25.8124 40.7551 25.7293 40.847 25.757 40.9433L26.157 42.3324C26.1851 42.4299 26.3069 42.4634 26.3812 42.394L27.5718 41.2822C27.6538 41.2057 27.6128 41.0691 27.5022 41.0498Z" fill="#4D9AFF"/>
<path d="M22.0714 39.0181L20.8044 39.3793C20.7045 39.4078 20.6468 39.5114 20.6754 39.6108L20.7583 39.8987C20.7869 39.9981 20.8911 40.0556 20.991 40.0271L22.2579 39.6659C22.3578 39.6374 22.4156 39.5338 22.3869 39.4344L22.304 39.1464C22.2754 39.047 22.1713 38.9896 22.0714 39.0181ZM24.1897 38.4142L22.9228 38.7754C22.8229 38.8039 22.7651 38.9075 22.7937 39.0069L22.8767 39.2948C22.9053 39.3942 23.0094 39.4517 23.1093 39.4232L24.3762 39.062C24.4762 39.0335 24.5339 38.9299 24.5053 38.8305L24.4224 38.5426C24.3939 38.4431 24.2896 38.3857 24.1897 38.4142ZM26.3081 37.8102L25.0412 38.1714C24.9413 38.1999 24.8835 38.3035 24.9122 38.4029L24.9951 38.6909C25.0237 38.7903 25.1278 38.8477 25.2278 38.8192L26.4947 38.458C26.5946 38.4295 26.6523 38.3259 26.6237 38.2265L26.5408 37.9386C26.5122 37.8393 26.408 37.7817 26.3081 37.8102ZM28.4264 37.2063L27.1595 37.5675C27.0596 37.596 27.0019 37.6996 27.0305 37.799L27.1134 38.087C27.142 38.1864 27.2462 38.2438 27.3461 38.2154L28.613 37.8541C28.7129 37.8257 28.7706 37.722 28.742 37.6226L28.6591 37.3347C28.6305 37.2353 28.5264 37.1778 28.4264 37.2063ZM30.5448 36.6024L29.2779 36.9637C29.1779 36.9921 29.1202 37.0958 29.1488 37.1952L29.2317 37.4831C29.2603 37.5825 29.3645 37.6399 29.4644 37.6115L30.7313 37.2502C30.8312 37.2218 30.8891 37.1181 30.8604 37.0187L30.7774 36.7308C30.7488 36.6314 30.6447 36.5739 30.5448 36.6024ZM23.8559 45.2149L22.5889 45.5761C22.489 45.6046 22.4313 45.7083 22.4599 45.8076L22.5428 46.0956C22.5714 46.195 22.6756 46.2524 22.7755 46.2239L24.0424 45.8627C24.1423 45.8342 24.2001 45.7306 24.1714 45.6312L24.0885 45.3433C24.0599 45.2439 23.9558 45.1864 23.8559 45.2149ZM25.9742 44.611L24.7073 44.9722C24.6074 45.0007 24.5496 45.1044 24.5782 45.2038L24.6612 45.4917C24.6898 45.5911 24.7939 45.6485 24.8938 45.6201L26.1607 45.2588C26.2607 45.2304 26.3184 45.1267 26.2898 45.0273L26.2069 44.7394C26.1784 44.64 26.0741 44.5824 25.9742 44.611ZM28.0926 44.007L26.8257 44.3683C26.7258 44.3967 26.6681 44.5005 26.6967 44.5998L26.7796 44.8877C26.8082 44.9871 26.9123 45.0445 27.0123 45.0161L28.2792 44.6548C28.3791 44.6264 28.4368 44.5227 28.4082 44.4233L28.3253 44.1354C28.2967 44.0361 28.1925 43.9786 28.0926 44.007ZM30.2109 43.4031L28.944 43.7644C28.8441 43.7928 28.7864 43.8966 28.815 43.9959L28.8979 44.2838C28.9265 44.3832 29.0307 44.4406 29.1306 44.4122L30.3975 44.0509C30.4974 44.0225 30.5551 43.9188 30.5265 43.8194L30.4436 43.5315C30.415 43.4321 30.3109 43.3747 30.2109 43.4031ZM32.3293 42.7991L31.0624 43.1604C30.9625 43.1888 30.9047 43.2926 30.9333 43.3919L31.0162 43.6798C31.0448 43.7792 31.149 43.8367 31.2489 43.8082L32.5158 43.447C32.6157 43.4185 32.6735 43.3149 32.6449 43.2154L32.5619 42.9275C32.5333 42.8282 32.4292 42.7707 32.3293 42.7991Z" fill="white"/>
<path d="M103.498 44.5071L93.0271 40.4767C92.7765 40.3802 92.4947 40.5041 92.3977 40.7536L89.841 47.3292C89.744 47.5785 89.8687 47.8589 90.1193 47.9554L100.59 51.9859C100.841 52.0824 101.123 51.9583 101.22 51.709L103.776 45.1334C103.873 44.884 103.749 44.6036 103.498 44.5071Z" fill="#7AB3FF"/>
<path d="M102.064 45.8636L93.1706 42.4404C92.92 42.3439 92.6382 42.4679 92.5412 42.7173L91.2755 45.9726C91.1785 46.2219 91.3031 46.5023 91.5538 46.5988L100.447 50.022C100.697 50.1185 100.979 49.9945 101.076 49.7451L102.342 46.4898C102.439 46.2405 102.314 45.9601 102.064 45.8636Z" fill="white"/>
<path d="M97.7006 46.4475L96.6008 45.2708C96.5323 45.1975 96.4102 45.2208 96.3739 45.3143L95.8499 46.662C95.8131 46.7565 95.8899 46.8563 95.9913 46.8457L97.6151 46.6746C97.7268 46.6628 97.7769 46.5292 97.7006 46.4475Z" fill="#7AB3FF"/>
<path d="M94.6039 41.5653L93.3747 41.0922C93.2778 41.0549 93.1688 41.1028 93.1314 41.1992L93.0228 41.4786C92.9852 41.575 93.0334 41.6835 93.1303 41.7207L94.3595 42.1939C94.4564 42.2312 94.5654 42.1832 94.6029 42.0868L94.7115 41.8075C94.749 41.7111 94.7008 41.6027 94.6039 41.5653ZM96.6591 42.3565L95.4299 41.8834C95.333 41.846 95.2241 41.894 95.1866 41.9904L95.078 42.2698C95.0405 42.3662 95.0887 42.4747 95.1856 42.5119L96.4147 42.985C96.5116 43.0223 96.6207 42.9744 96.6581 42.878L96.7667 42.5986C96.8042 42.5022 96.756 42.3937 96.6591 42.3565ZM98.7142 43.1475L97.485 42.6744C97.3881 42.6371 97.2791 42.685 97.2417 42.7814L97.1331 43.0608C97.0956 43.1572 97.1438 43.2657 97.2407 43.3029L98.4698 43.7761C98.5668 43.8134 98.6757 43.7654 98.7132 43.669L98.8218 43.3897C98.8593 43.2932 98.8112 43.1849 98.7142 43.1475ZM100.769 43.9386L99.5403 43.4655C99.4434 43.4281 99.3344 43.4761 99.2969 43.5725L99.1883 43.8519C99.1508 43.9483 99.199 44.0568 99.2959 44.094L100.525 44.5671C100.622 44.6044 100.731 44.5565 100.768 44.4601L100.877 44.1807C100.915 44.0843 100.866 43.9759 100.769 43.9386ZM102.825 44.7296L101.595 44.2565C101.498 44.2192 101.39 44.2671 101.352 44.3636L101.243 44.6429C101.206 44.7393 101.254 44.8478 101.351 44.885L102.58 45.3582C102.677 45.3955 102.786 45.3475 102.824 45.2511L102.932 44.9718C102.97 44.8755 102.921 44.767 102.825 44.7296ZM92.2665 47.5774L91.0373 47.1042C90.9404 47.0669 90.8314 47.1149 90.794 47.2113L90.6853 47.4906C90.6478 47.5871 90.696 47.6954 90.7929 47.7328L92.0221 48.2059C92.119 48.2432 92.228 48.1953 92.2655 48.0988L92.3741 47.8195C92.4115 47.7231 92.3634 47.6147 92.2665 47.5774ZM94.3216 48.3684L93.0924 47.8953C92.9955 47.858 92.8865 47.9059 92.8491 48.0023L92.7404 48.2817C92.7029 48.3781 92.7511 48.4865 92.848 48.5238L94.0772 48.9969C94.1741 49.0343 94.2832 48.9863 94.3206 48.8899L94.4292 48.6105C94.4667 48.5141 94.4185 48.4057 94.3216 48.3684ZM96.3768 49.1595L95.1476 48.6863C95.0507 48.649 94.9417 48.697 94.9043 48.7934L94.7957 49.0727C94.7581 49.1692 94.8063 49.2775 94.9032 49.3149L96.1324 49.788C96.2293 49.8253 96.3383 49.7774 96.3758 49.681L96.4844 49.4016C96.5219 49.3053 96.4737 49.1968 96.3768 49.1595ZM98.4319 49.9506L97.2027 49.4775C97.1058 49.4402 96.9969 49.4881 96.9594 49.5845L96.8508 49.8639C96.8132 49.9603 96.8614 50.0687 96.9583 50.106L98.1875 50.5791C98.2844 50.6165 98.3934 50.5685 98.4309 50.4721L98.5395 50.1927C98.577 50.0963 98.5288 49.9878 98.4319 49.9506ZM100.487 50.7417L99.2579 50.2685C99.161 50.2312 99.0521 50.2792 99.0146 50.3756L98.906 50.6549C98.8685 50.7514 98.9167 50.8597 99.0136 50.8971L100.243 51.3702C100.34 51.4075 100.449 51.3596 100.486 51.2632L100.595 50.9838C100.632 50.8874 100.584 50.779 100.487 50.7417Z" fill="white"/>
<path d="M105.32 59.7447C105.38 59.6878 105.348 59.5878 105.266 59.5753L104.819 59.507C104.786 59.502 104.758 59.4815 104.744 59.4522L104.547 59.0465C104.511 58.9727 104.406 58.9718 104.369 59.0451L104.165 59.4476C104.15 59.4766 104.122 59.4967 104.089 59.5011L103.641 59.5622C103.559 59.5734 103.526 59.6729 103.584 59.7306L103.906 60.0478C103.929 60.0707 103.94 60.1036 103.934 60.1357L103.854 60.5792C103.839 60.66 103.924 60.7224 103.997 60.6847L104.4 60.4783C104.429 60.4633 104.464 60.4636 104.492 60.479L104.892 60.6919C104.964 60.7307 105.05 60.6698 105.037 60.5887L104.964 60.144C104.958 60.1118 104.969 60.0791 104.993 60.0565L105.32 59.7447ZM13.2285 77.1447C13.288 77.0879 13.2563 76.9879 13.1748 76.9754L12.7271 76.907C12.6948 76.9021 12.6669 76.8815 12.6526 76.8522L12.4555 76.4466C12.4196 76.3727 12.3141 76.3718 12.277 76.4451L12.0733 76.8476C12.0585 76.8767 12.0303 76.8967 11.9979 76.9011L11.5492 76.9623C11.4676 76.9734 11.4341 77.0729 11.4928 77.1307L11.8145 77.4479C11.8377 77.4708 11.8481 77.5037 11.8423 77.5357L11.7621 77.9793C11.7475 78.06 11.8323 78.1224 11.9057 78.0848L12.3082 77.8783C12.3373 77.8634 12.3719 77.8637 12.4008 77.879L12.7999 78.092C12.8725 78.1308 12.9583 78.0698 12.9451 77.9888L12.8721 77.544C12.8668 77.5118 12.8778 77.4791 12.9014 77.4565L13.2285 77.1447ZM61.8927 33.7721C61.9522 33.7152 61.9204 33.6152 61.8389 33.6027L61.3912 33.5344C61.3589 33.5294 61.331 33.5089 61.3167 33.4796L61.1196 33.0739C61.0837 33.0001 60.9782 32.9992 60.9411 33.0725L60.7374 33.475C60.7227 33.504 60.6945 33.524 60.662 33.5285L60.2134 33.5896C60.1317 33.6008 60.0982 33.7003 60.1569 33.758L60.4786 34.0752C60.5018 34.0981 60.5123 34.131 60.5065 34.1631L60.4262 34.6066C60.4116 34.6874 60.4964 34.7498 60.5698 34.7121L60.9723 34.5057C61.0015 34.4907 61.0361 34.491 61.0649 34.5064L61.464 34.7193C61.5367 34.7581 61.6225 34.6972 61.6092 34.6161L61.5362 34.1713C61.531 34.1392 61.5419 34.1065 61.5656 34.0839L61.8927 33.7721Z" fill="#4D9AFF"/>
<path d="M74.5631 62.7173C74.6226 62.6605 74.5909 62.5605 74.5093 62.548L74.0617 62.4796C74.0294 62.4747 74.0015 62.4542 73.9872 62.4249L73.7901 62.0192C73.7542 61.9453 73.6487 61.9444 73.6116 62.0177L73.4078 62.4202C73.3931 62.4493 73.3649 62.4693 73.3325 62.4737L72.8838 62.5349C72.8021 62.546 72.7687 62.6455 72.8273 62.7033L73.149 63.0205C73.1722 63.0434 73.1827 63.0763 73.1769 63.1084L73.0967 63.5519C73.0821 63.6326 73.1669 63.695 73.2402 63.6574L73.6428 63.4509C73.6719 63.436 73.7065 63.4363 73.7353 63.4517L74.1345 63.6646C74.2071 63.7034 74.2929 63.6424 74.2797 63.5614L74.2067 63.1166C74.2014 63.0844 74.2124 63.0517 74.236 63.0292L74.5631 62.7173ZM110.895 97.6285C110.954 97.5717 110.923 97.4716 110.841 97.4591L110.394 97.3908C110.361 97.3858 110.333 97.3653 110.319 97.336L110.122 96.9303C110.086 96.8565 109.981 96.8556 109.943 96.9289L109.74 97.3314C109.725 97.3605 109.697 97.3805 109.664 97.3849L109.216 97.4461C109.134 97.4572 109.1 97.5567 109.159 97.6145L109.481 97.9317C109.504 97.9545 109.515 97.9874 109.509 98.0195L109.429 98.463C109.414 98.5438 109.499 98.6062 109.572 98.5685L109.975 98.3621C110.004 98.3471 110.038 98.3474 110.067 98.3628L110.466 98.5758C110.539 98.6145 110.625 98.5536 110.612 98.4725L110.539 98.0278C110.533 97.9956 110.544 97.9629 110.568 97.9403L110.895 97.6285ZM22.902 97.1813C22.9615 97.1245 22.9298 97.0245 22.8482 97.012L22.4006 96.9436C22.3683 96.9387 22.3404 96.9182 22.3261 96.8889L22.1289 96.4832C22.0931 96.4094 21.9876 96.4084 21.9505 96.4818L21.7467 96.8842C21.732 96.9133 21.7038 96.9333 21.6714 96.9378L21.2227 96.9989C21.141 97.0101 21.1076 97.1096 21.1662 97.1673L21.4879 97.4845C21.5111 97.5074 21.5216 97.5403 21.5158 97.5724L21.4356 98.0159C21.421 98.0967 21.5057 98.159 21.5791 98.1214L21.9817 97.915C22.0108 97.9 22.0454 97.9003 22.0742 97.9157L22.4733 98.1286C22.546 98.1674 22.6318 98.1064 22.6185 98.0254L22.5456 97.5806C22.5403 97.5485 22.5513 97.5158 22.5749 97.4932L22.902 97.1813ZM38.0721 47.5717C38.1316 47.5149 38.0999 47.4149 38.0183 47.4024L37.5707 47.334C37.5384 47.3291 37.5105 47.3086 37.4962 47.2793L37.299 46.8736C37.2632 46.7998 37.1577 46.7988 37.1206 46.8722L36.9168 47.2746C36.9021 47.3037 36.8739 47.3237 36.8415 47.3282L36.3928 47.3893C36.3111 47.4004 36.2777 47.5 36.3363 47.5577L36.658 47.8749C36.6812 47.8978 36.6917 47.9307 36.6859 47.9628L36.6057 48.4063C36.5911 48.4871 36.6758 48.5494 36.7492 48.5118L37.1518 48.3053C37.1809 48.2904 37.2155 48.2907 37.2443 48.3061L37.6434 48.519C37.7161 48.5578 37.8019 48.4968 37.7886 48.4158L37.7157 47.971C37.7104 47.9389 37.7214 47.9062 37.745 47.8836L38.0721 47.5717Z" fill="white"/>
</g>
<path fill-rule="evenodd" clip-rule="evenodd" d="M173.838 91.845L172.747 92.1023L172.962 93.0156L174.053 92.7583C174.268 92.9755 174.584 93.0789 174.903 93.0029C175.388 92.8891 175.688 92.4018 175.574 91.9167C175.46 91.4316 174.972 91.13 174.487 91.2439C174.171 91.3219 173.933 91.5581 173.838 91.845ZM169.147 62.3138L167.854 62.6175L168.109 63.7017L169.402 63.398C169.655 63.6532 170.033 63.7776 170.408 63.689C170.984 63.5519 171.34 62.9782 171.203 62.4024C171.066 61.8266 170.49 61.4701 169.917 61.6072C169.541 61.6937 169.259 61.97 169.147 62.3138ZM124.062 92.0369L125.153 92.2921L124.935 93.2054L123.845 92.9502C123.632 93.1654 123.314 93.2687 122.995 93.1949C122.51 93.081 122.208 92.5938 122.324 92.1086C122.438 91.6235 122.925 91.3219 123.411 91.4358C123.729 91.5117 123.967 91.7459 124.062 92.0369ZM128.414 62.5036L129.707 62.8074L129.451 63.8915L128.158 63.5878C127.905 63.843 127.528 63.9674 127.152 63.8767C126.576 63.7418 126.22 63.1659 126.357 62.5901C126.494 62.0143 127.068 61.66 127.644 61.7949C128.017 61.8835 128.302 62.1619 128.414 62.5036Z" fill="#B5CAE5"/>
<path fill-rule="evenodd" clip-rule="evenodd" d="M133.725 55.8955L147.555 51.3227L164.682 55.8955L164.414 58.2304L147.7 53.6049L133.457 58.2304L133.725 55.8955Z" fill="#163967"/>
<path d="M149.189 83.3533H147.023V101.408H149.189V83.3533Z" fill="#D2E3F9"/>
<path fill-rule="evenodd" clip-rule="evenodd" d="M147.116 23.4136H149.097C149.641 23.4136 150.086 23.8586 150.086 24.4049V86.4539C150.086 86.9981 149.641 87.4452 149.097 87.4452H147.116C146.572 87.4452 146.127 87.0002 146.127 86.4539V24.4049C146.125 23.8586 146.572 23.4136 147.116 23.4136Z" fill="#8FA7C5"/>
<path fill-rule="evenodd" clip-rule="evenodd" d="M146.713 5H149.653C150.461 5 151.124 5.66019 151.124 6.47013V56.7138C151.124 57.5217 150.461 58.184 149.653 58.184H146.713C145.905 58.184 145.243 57.5238 145.243 56.7138V6.47013C145.243 5.66229 145.905 5 146.713 5Z" fill="#B5CAE5"/>
<path fill-rule="evenodd" clip-rule="evenodd" d="M147.16 58.0531C146.445 57.9688 145.889 57.3571 145.889 56.6231V7.33908C145.889 6.60296 146.447 5.99129 147.16 5.90692V58.0531Z" fill="#2F6FC4"/>
<path fill-rule="evenodd" clip-rule="evenodd" d="M146.54 100.6H149.67C150.406 100.6 150.406 101.714 149.67 101.714H146.54C145.806 101.714 145.806 100.6 146.54 100.6Z" fill="#B5CAE5"/>
<path d="M172.331 90.5479L170.217 91.0212L174.161 108.638L176.275 108.165L172.331 90.5479Z" fill="#D2E3F9"/>
<path fill-rule="evenodd" clip-rule="evenodd" d="M157.2 32.5126L159.132 32.0802C159.664 31.96 160.195 32.2996 160.316 32.829L173.882 93.3784C174.002 93.9099 173.663 94.4414 173.131 94.5616L171.199 94.994C170.668 95.1143 170.136 94.7768 170.016 94.2453L156.451 33.6959C156.331 33.1644 156.671 32.6329 157.2 32.5126Z" fill="#8FA7C5"/>
<path fill-rule="evenodd" clip-rule="evenodd" d="M152.781 14.6328L155.65 13.9895C156.439 13.8123 157.228 14.3143 157.405 15.1032L168.39 64.1299C168.567 64.9187 168.065 65.7097 167.276 65.8868L164.407 66.5302C163.619 66.7052 162.828 66.2053 162.653 65.4165L151.67 16.3898C151.493 15.6009 151.993 14.81 152.781 14.6328ZM173.515 107.957L176.567 107.274C177.286 107.112 177.529 108.2 176.812 108.362L173.758 109.046C173.04 109.206 172.798 108.12 173.515 107.957Z" fill="#B5CAE5"/>
<path d="M125.586 90.9775L121.975 108.668L124.098 109.101L127.708 91.4107L125.586 90.9775Z" fill="#D2E3F9"/>
<path fill-rule="evenodd" clip-rule="evenodd" d="M137.658 32.2701L139.599 32.6666C140.132 32.7763 140.48 33.3015 140.371 33.8351L127.966 94.6313C127.859 95.1649 127.332 95.5129 126.798 95.4032L124.857 95.0067C124.324 94.8991 123.978 94.3718 124.086 93.8382L136.49 33.04C136.6 32.5084 137.127 32.1604 137.658 32.2701Z" fill="#8FA7C5"/>
<path fill-rule="evenodd" clip-rule="evenodd" d="M140.945 14.1478L143.826 14.7362C144.619 14.8987 145.133 15.6791 144.973 16.47L134.929 65.6992C134.767 66.4902 133.986 67.0069 133.195 66.8466L130.314 66.2603C129.521 66.0978 129.006 65.3174 129.167 64.5265L139.211 15.2973C139.373 14.5021 140.154 13.9854 140.945 14.1478ZM121.666 107.784L124.733 108.409C125.454 108.556 125.231 109.649 124.509 109.501L121.443 108.875C120.721 108.729 120.943 107.637 121.666 107.784Z" fill="#B5CAE5"/>
<path fill-rule="evenodd" clip-rule="evenodd" d="M138.19 10.446H158.675C159.529 10.446 160.227 11.1442 160.227 11.9984V19.2436C160.227 20.0978 159.529 20.796 158.675 20.796H138.19C137.333 20.796 136.635 20.0957 136.635 19.2436V11.9984C136.635 11.1442 137.333 10.446 138.19 10.446ZM141.075 24.6432L133.895 58.7197C133.672 59.7807 132.077 59.4263 132.297 58.3759L139.479 24.2994C139.702 23.2363 141.297 23.5949 141.075 24.6432ZM156.297 23.6793C155.861 23.7805 155.589 24.2214 155.688 24.6601L163.121 57.8929C163.355 58.9454 164.947 58.5742 164.711 57.5238L157.278 24.291C157.181 23.8544 156.732 23.578 156.297 23.6793Z" fill="#163967"/>
<path fill-rule="evenodd" clip-rule="evenodd" d="M128.498 42.5905H168.366C168.525 42.5905 168.655 42.6938 168.655 42.8182V44.6427C168.655 44.7672 168.525 44.8705 168.366 44.8705H128.498C128.34 44.8705 128.211 44.7672 128.211 44.6427V42.8182C128.211 42.6917 128.34 42.5905 128.498 42.5905Z" fill="#417CCA"/>
<path fill-rule="evenodd" clip-rule="evenodd" d="M128.498 42.5905H168.366C168.525 42.5905 168.655 42.6938 168.655 42.8182V43.141H128.211V42.8182C128.211 42.6917 128.34 42.5905 128.498 42.5905ZM135.697 44.6723H162.425C162.937 44.6723 163.357 45.092 163.357 45.6066V49.9622C163.357 50.4768 162.937 50.8966 162.425 50.8966H135.697C135.182 50.8966 134.762 50.4768 134.762 49.9622V45.6066C134.762 45.092 135.182 44.6723 135.697 44.6723Z" fill="#5B94DF"/>
<path fill-rule="evenodd" clip-rule="evenodd" d="M135.697 44.6723H162.425C162.937 44.6723 163.357 45.092 163.357 45.6067V49.4328L134.811 45.3093C134.937 44.9402 135.285 44.6723 135.697 44.6723Z" fill="#417CCA"/>
<path fill-rule="evenodd" clip-rule="evenodd" d="M148.339 49.0004C149.099 49.0004 149.717 48.3824 149.717 47.6231C149.717 46.8659 149.099 46.2458 148.339 46.2458C147.58 46.2458 146.962 46.8638 146.962 47.6231C146.962 48.3824 147.58 49.0004 148.339 49.0004Z" fill="#163967"/>
<path fill-rule="evenodd" clip-rule="evenodd" d="M126.878 59.9347H168.89C169.628 59.9347 170.233 59.4031 170.233 58.7514V6.68742C170.233 6.03778 169.63 5.50415 168.89 5.50415H126.878C126.14 5.50415 125.535 6.03778 125.535 6.68742V58.7514C125.535 59.4031 126.14 59.9347 126.878 59.9347Z" fill="#72ACFD"/>
<path fill-rule="evenodd" clip-rule="evenodd" d="M133.415 9.61084H163.18C163.346 9.61084 163.484 9.74794 163.484 9.91457V55.0202C163.484 55.1868 163.346 55.3239 163.18 55.3239H133.415C133.248 55.3239 133.111 55.1868 133.111 55.0202V9.91457C133.111 9.74794 133.248 9.61084 133.415 9.61084Z" fill="white"/>
<path fill-rule="evenodd" clip-rule="evenodd" d="M140.078 23.0339C142.653 23.0339 144.754 20.9331 144.754 18.3578C144.754 15.7824 142.653 13.6816 140.078 13.6816C137.502 13.6816 135.399 15.7824 135.399 18.3578C135.399 20.9331 137.502 23.0339 140.078 23.0339Z" fill="#C0D9F9"/>
<path fill-rule="evenodd" clip-rule="evenodd" d="M149.561 29.1738C149.394 29.313 149.181 29.3953 148.949 29.3953C148.768 29.3953 148.599 29.3447 148.455 29.2582C148.299 29.3447 148.12 29.3953 147.93 29.3953C147.563 29.3953 147.238 29.2139 147.044 28.9334C146.952 29.022 146.823 29.0789 146.682 29.0789C146.393 29.0789 146.156 28.8427 146.156 28.5537C146.156 28.2837 146.361 28.0623 146.623 28.0327C146.585 27.9484 146.563 27.8534 146.563 27.7543C146.563 27.3768 146.869 27.0709 147.245 27.0709C147.426 27.0709 147.591 27.1405 147.713 27.2565C147.774 27.2439 147.837 27.2376 147.903 27.2354C147.88 27.1743 147.867 27.1089 147.867 27.0414C147.867 26.744 148.107 26.5014 148.407 26.5014C148.706 26.5014 148.947 26.744 148.947 27.0414V27.0456C149.033 26.6406 149.394 26.3369 149.822 26.3369C150.158 26.3369 150.451 26.5225 150.605 26.7967C150.657 26.7651 150.723 26.7461 150.792 26.7461C150.999 26.7461 151.168 26.9148 151.168 27.1215C151.168 27.1827 151.151 27.2397 151.128 27.2903C151.176 27.2818 151.229 27.2776 151.282 27.2776C151.792 27.2776 152.21 27.6931 152.21 28.2057C152.21 28.7182 151.792 29.1337 151.282 29.1337C151.058 29.1337 150.854 29.0557 150.693 28.9249C150.651 29.2265 150.392 29.4586 150.077 29.4586C149.862 29.4565 149.67 29.3447 149.561 29.1738ZM151.558 26.725C151.446 26.725 151.353 26.8157 151.353 26.9296C151.353 27.0414 151.446 27.1342 151.558 27.1342C151.67 27.1342 151.761 27.0435 151.761 26.9296C151.761 26.8157 151.67 26.725 151.558 26.725Z" fill="#D6DCE4"/>
<path fill-rule="evenodd" clip-rule="evenodd" d="M160.385 29.6019C160.459 29.6631 160.556 29.7011 160.659 29.7011C160.74 29.7011 160.818 29.68 160.881 29.6399C160.95 29.68 161.031 29.7011 161.117 29.7011C161.282 29.7011 161.427 29.6188 161.514 29.4944C161.558 29.5344 161.615 29.5598 161.678 29.5598C161.809 29.5598 161.914 29.4543 161.914 29.3235C161.914 29.2012 161.822 29.1021 161.706 29.0894C161.722 29.0514 161.731 29.0093 161.731 28.965C161.731 28.7962 161.594 28.657 161.425 28.657C161.343 28.657 161.271 28.6887 161.216 28.7393C161.187 28.7351 161.159 28.7308 161.13 28.7308C161.14 28.7034 161.147 28.6739 161.147 28.6422C161.147 28.5073 161.039 28.3976 160.904 28.3976C160.771 28.3976 160.661 28.5073 160.661 28.6422V28.6444C160.621 28.463 160.459 28.3259 160.267 28.3259C160.117 28.3259 159.984 28.4102 159.917 28.5326C159.892 28.5178 159.864 28.5094 159.833 28.5094C159.74 28.5094 159.664 28.5853 159.664 28.6781C159.664 28.7055 159.67 28.7308 159.683 28.754C159.66 28.7498 159.636 28.7477 159.613 28.7477C159.383 28.7477 159.196 28.9354 159.196 29.1653C159.196 29.3952 159.383 29.583 159.613 29.583C159.712 29.583 159.805 29.5471 159.877 29.488C159.896 29.6251 160.012 29.7285 160.153 29.7285C160.248 29.7285 160.335 29.6779 160.385 29.6019ZM159.485 28.5009C159.535 28.5009 159.577 28.5431 159.577 28.5916C159.577 28.6422 159.537 28.6844 159.485 28.6844C159.434 28.6844 159.394 28.6444 159.394 28.5916C159.396 28.5431 159.436 28.5009 159.485 28.5009Z" fill="#E4EFFE"/>
<path fill-rule="evenodd" clip-rule="evenodd" d="M141.354 32.7151C141.354 32.7151 136.986 32.5717 135.108 32.8058C134.376 32.8965 133.666 32.9999 133.109 33.1011V33.7086C133.143 33.7254 133.145 33.736 133.109 33.7444V33.8309C134.073 33.7402 136.252 33.7423 137.272 33.9005C138.508 34.0967 141.381 32.8501 141.354 32.7151Z" fill="#537FBA"/>
<path fill-rule="evenodd" clip-rule="evenodd" d="M143.372 29.4142L144.986 25.2675L135.45 32.9092L136.258 33.0399C136.258 33.0399 140.66 33.1665 140.712 32.8817C140.765 32.597 143.372 29.4142 143.372 29.4142Z" fill="#D2E3F9"/>
<path fill-rule="evenodd" clip-rule="evenodd" d="M140.126 31.8777C140.126 31.8777 138.036 32.8543 135.979 33.7107C134.912 34.1557 133.855 34.5649 133.109 34.7906V36.845C135.568 36.7121 138.43 36.2101 138.43 36.2101L140.126 31.8777Z" fill="#3D5473"/>
<path fill-rule="evenodd" clip-rule="evenodd" d="M163.484 34.7928C162.286 33.464 160.788 32.228 159.153 31.8631C155.175 30.9793 152.67 30.9794 147.736 31.5699C142.801 32.1584 138.97 35.8411 136.245 37.9777C133.52 40.1144 134.109 40.5552 134.919 40.7767C135.594 40.9602 155.859 41.1352 163.486 41.1078V34.7928H163.484Z" fill="#1F3C63"/>
<path fill-rule="evenodd" clip-rule="evenodd" d="M163.484 34.7948C163.338 34.6324 163.188 34.4721 163.032 34.3139C162.203 34.7716 161.583 35.1218 161.589 35.1787C161.613 35.3517 159.341 34.0355 159.271 34.2654C159.202 34.4953 156.139 33.4955 156.139 33.4955L152.33 34.7126C152.33 34.7126 152.311 34.7189 152.275 34.7294L140.959 38.3446L143.507 40.9833C150.177 41.0676 159.008 41.1204 163.484 41.1056V34.7948Z" fill="#1F3C63"/>
<path fill-rule="evenodd" clip-rule="evenodd" d="M163.484 34.7949C163.338 34.6325 163.188 34.4722 163.032 34.314C162.203 34.7717 161.583 35.1218 161.59 35.1787C161.598 35.2357 161.364 35.1345 161.039 34.9805C156.703 37.2627 151.815 39.8275 149.491 41.0466C154.792 41.093 160.265 41.1183 163.484 41.1057V34.7949Z" fill="#D2E3F9"/>
<path fill-rule="evenodd" clip-rule="evenodd" d="M146.215 33.3226C148.974 32.3292 153.726 26.1428 153.726 26.1428C153.726 26.1428 154.939 26.5858 155.27 26.5119C155.601 26.4381 158.784 28.8447 158.784 28.8447C158.784 28.8447 160.001 28.3406 160.294 28.3406C160.59 28.3406 160.881 28.9375 160.881 28.9375L162.61 30.6123L163.486 31.4581V35.2989L156.414 33.1454L146.215 33.3226Z" fill="#B5CAE5"/>
<path fill-rule="evenodd" clip-rule="evenodd" d="M163.484 35.2989L156.411 33.1454L155.389 33.1623C154.927 31.0889 154.37 28.5009 154.37 28.5009L156.665 29.1527L157.186 30.3275L161.59 31.2661L163.45 32.7531C163.45 32.7531 163.465 32.8269 163.484 32.9514V35.2989Z" fill="#B5CAE5"/>
<path fill-rule="evenodd" clip-rule="evenodd" d="M135.359 36.5792C137.066 35.4128 137.684 34.6029 138.373 33.7275C139.951 31.7238 140.81 30.4646 140.81 30.4646L141.693 30.6122L144.984 25.2675C144.984 25.2675 146.853 26.2735 147.251 25.934C147.373 25.8306 147.705 25.3413 148.055 25.1472C148.852 24.7043 149.9 24.4807 149.9 24.4807C149.9 24.4807 151.138 25.4172 152.442 27.5602C153.092 28.6274 153.617 29.4437 153.726 29.4922C154.058 29.6378 156.84 33.274 156.84 33.274L150.596 34.47L144.847 33.9701L135.359 36.5792Z" fill="#B5CAE5"/>
<path fill-rule="evenodd" clip-rule="evenodd" d="M149.683 24.9869C149.816 24.6811 149.9 24.4807 149.9 24.4807C149.9 24.4807 151.138 25.4172 152.442 27.5602C153.091 28.6274 153.617 29.4437 153.726 29.4922C154.057 29.6378 156.84 33.274 156.84 33.274L152.889 33.7908L149.683 24.9869ZM144.984 25.2675C144.984 25.2675 144.851 34.2464 144.984 33.9827C145.116 33.7191 147.251 25.9319 147.251 25.9319L144.984 25.2675Z" fill="#D2E3F9"/>
<path fill-rule="evenodd" clip-rule="evenodd" d="M145.37 30.2853L144.598 30.5785L144.885 32.3735L150.105 32.2068L146.987 30.3317L145.37 30.2853Z" fill="#D2E3F9"/>
<path fill-rule="evenodd" clip-rule="evenodd" d="M141.32 34.9425L142.035 35.2526L145.001 34.2169C145.001 34.2169 150.225 34.7252 150.381 34.7653C150.537 34.8033 151.111 34.7906 151.111 34.7906L155.325 33.7592C155.325 33.7592 156.329 33.8056 156.363 33.6959C156.399 33.5842 158.331 34.1494 158.331 34.1494C158.331 34.1494 159.788 34.179 159.75 34.2697C159.714 34.3582 161.223 35.0712 161.223 35.0712L162.237 34.9214L156.837 33.2783C156.837 33.2783 151.837 34.3709 151.206 34.3561C150.575 34.3435 150.432 34.335 150.432 34.335C150.432 34.335 146.939 34.2317 146.3 34.0355C145.661 33.8394 145.249 33.8415 145.1 33.852C144.956 33.8605 141.358 34.932 141.32 34.9425Z" fill="#2382FF"/>
<path fill-rule="evenodd" clip-rule="evenodd" d="M139.242 33.4492C139.242 33.4492 140.856 32.8059 142.185 32.519C143.516 32.2322 144.71 32.0107 144.817 32.0107C144.925 32.0107 145.309 31.9348 145.557 32.0381C145.806 32.1415 147.346 31.6247 147.346 31.6247C147.346 31.6247 148.479 31.4728 149.384 31.3864C150.288 31.302 154.055 32.2849 154.055 32.2849L156.004 32.9345C156.004 32.9345 158.955 32.7025 159.189 32.519C159.423 32.3355 161.223 32.2849 161.223 32.2849L163.134 33.5694L162.682 35.0543C162.682 35.0543 158.567 33.6622 157.833 33.5778C157.099 33.4935 145.467 33.5821 145.454 33.7192C145.446 33.8563 139.242 33.4492 139.242 33.4492Z" fill="#537FBA"/>
<path fill-rule="evenodd" clip-rule="evenodd" d="M140.689 33.426L138.584 33.4597L141.482 34.894L144.627 34.0334C145.513 34.0419 147.207 34.1663 148.078 34.2549C149.244 34.3709 149.637 34.3139 150.82 34.3456C150.82 34.3456 148.947 33.2783 148.738 33.0948C148.529 32.9113 145.819 32.9387 145.819 32.9387L144.925 32.4684L140.689 33.426Z" fill="#284975"/>
<path fill-rule="evenodd" clip-rule="evenodd" d="M147.698 33.2994C147.698 33.2994 149.27 32.6666 149.81 32.5992C150.35 32.5295 149.848 32.4367 150.35 32.5296C150.852 32.6245 152.311 32.9113 152.311 32.9113C152.311 32.9113 153.874 32.3903 154.058 32.287C154.241 32.1815 156.84 33.2783 156.84 33.2783L157.941 32.7848L162.632 34.8708L161.792 34.7864C161.792 34.7864 158.413 33.7571 158.052 33.6474C157.692 33.5378 156.492 33.5082 156.169 33.6116C155.846 33.7149 151.092 34.4827 151.092 34.4827C151.092 34.4827 147.958 33.9554 147.698 33.2994Z" fill="#284975"/>
<path fill-rule="evenodd" clip-rule="evenodd" d="M152.712 40.4517C152.21 40.0763 150.643 40.0973 147.793 38.6694C144.127 36.8344 139.696 33.7655 137.812 33.9258C137.108 33.9869 134.918 35.7439 133.109 37.0833V44.3516C134.63 44.4339 136.433 44.4677 138.551 44.4761C148.266 44.5183 161.611 43.8876 161.611 43.8876L152.712 40.4517Z" fill="#1F3C63"/>
<path fill-rule="evenodd" clip-rule="evenodd" d="M138.555 33.232C138.321 33.1792 138.112 33.156 137.935 33.1708C137.218 33.232 134.503 35.5774 133.109 36.4422V37.0138L133.178 36.9801C133.621 36.7713 134.769 35.7799 135.889 35.0227C136.688 34.487 137.911 33.6665 138.555 33.232Z" fill="#6F99D1"/>
<path fill-rule="evenodd" clip-rule="evenodd" d="M133.111 40.7998C134.336 40.3104 135.515 39.6756 136.311 39.3001C137.838 38.5809 137.599 37.0897 137.633 36.4464C137.667 35.803 139.268 36.7332 139.637 36.6299C140.006 36.5286 138.886 35.5647 138.578 35.1914C138.274 34.818 140.816 34.9235 141.814 35.377C142.699 35.7798 148.314 38.7581 150.666 39.819C150.965 39.9561 150.634 39.9456 150.833 40.013C152.592 40.6205 151.748 40.5129 152.187 41.2237C152.625 41.9345 152.524 42.6137 152.524 42.6137C152.524 42.6137 140.628 44.0543 133.107 43.6409V40.7998H133.111Z" fill="#284975"/>
<path fill-rule="evenodd" clip-rule="evenodd" d="M153.823 26.5457L156.939 32.9218L156.169 32.9999L152.499 27.6572L153.724 26.1428L153.823 26.5457Z" fill="#B5CAE5"/>
<path fill-rule="evenodd" clip-rule="evenodd" d="M153.037 34.1093L153.414 33.9131L153.914 33.2381L154.669 32.985L155.435 33.2698L157.268 34.1156L154.983 34.432L153.037 34.1093Z" fill="#7A8799"/>
<path fill-rule="evenodd" clip-rule="evenodd" d="M154.69 33.2403L154.983 34.432L157.441 34.1451L156.194 33.6009L156.165 33.5883L155.435 33.2698L154.669 32.985L154.69 33.2403Z" fill="#292D33"/>
<path fill-rule="evenodd" clip-rule="evenodd" d="M143.617 30.878C143.617 30.878 142.029 32.5274 142.098 32.519C142.166 32.5105 144.866 32.2849 144.87 32.2153C145.026 30.1756 145.481 29.9457 143.617 30.878Z" fill="#D2E3F9"/>
<path fill-rule="evenodd" clip-rule="evenodd" d="M151.803 29.9837L156.751 31.4138L158.12 32.7257C158.12 32.7257 156.253 32.8839 156.255 33.0336C156.257 33.1834 151.803 29.9837 151.803 29.9837Z" fill="#292D33"/>
<path fill-rule="evenodd" clip-rule="evenodd" d="M144.8 25.4172L143.566 26.4043C143.566 26.4043 143.881 26.3179 143.931 26.3875C143.984 26.4571 143.978 26.533 144.062 26.5836C144.144 26.6342 144.492 26.5372 144.492 26.5372L144.969 26.5435L145.064 26.3263L145.296 26.0711L147.215 26.0647L147.251 25.934C147.251 25.934 144.963 25.1747 144.933 25.2527C144.904 25.3307 144.8 25.4172 144.8 25.4172Z" fill="#B5CAE5"/>
<path fill-rule="evenodd" clip-rule="evenodd" d="M145.296 26.0711L147.215 26.0648L147.241 25.9741L146.566 25.7126C145.992 25.5291 145.231 25.2907 145.001 25.2527L145.024 25.2907L145.296 26.0711Z" fill="#B5CAE5"/>
<path fill-rule="evenodd" clip-rule="evenodd" d="M147.947 25.7611L147.103 26.0838L147.884 25.1916L149.85 24.3416L150.643 25.1156L151.052 25.624L150.556 25.4236L150.307 25.548L149.968 25.5691L149.685 25.316L148.82 25.8243L147.947 25.7611Z" fill="#B5CAE5"/>
<path fill-rule="evenodd" clip-rule="evenodd" d="M147.884 25.1916L147.987 25.1473L148.82 25.8244C148.82 25.8244 147.985 25.7653 147.949 25.7611C147.911 25.759 147.884 25.1916 147.884 25.1916ZM149.822 24.3542L149.85 24.3437L150.643 25.1178L151.052 25.6261L150.556 25.4278L150.307 25.5523L149.968 25.5734L149.689 25.3245C149.706 25.1368 149.776 24.6559 149.822 24.3542Z" fill="#D2E3F9"/>
<path fill-rule="evenodd" clip-rule="evenodd" d="M144.847 33.9722L141.636 34.5965C141.636 34.5965 141.512 34.6999 141.906 34.7779C142.303 34.8559 143.292 34.491 143.514 34.4784C143.735 34.4657 143.788 34.5839 144.243 34.5564C144.701 34.5311 144.792 34.2822 145.001 34.2169C145.209 34.1515 145.534 34.1768 145.886 34.1915C146.239 34.2042 147.234 34.2696 147.388 34.4531C147.542 34.6345 148.128 34.896 148.363 34.7906C148.599 34.6872 148.742 34.6767 149.023 34.6155C149.303 34.5543 150.383 34.7653 150.383 34.7653C150.383 34.7653 151.073 34.799 151.185 34.7737C151.294 34.7463 152.473 34.6724 152.72 34.5944C152.967 34.5143 153.465 34.1831 153.465 34.1831L153.178 34.0397L151.181 34.47C151.181 34.4657 146.732 33.641 144.847 33.9722ZM156.979 33.5208C157.354 33.525 158.012 33.6073 158.126 33.6347C158.238 33.6621 159.463 33.9869 160.362 34.2337C161.263 34.4805 162.02 34.8834 162.02 34.8834L162.237 34.9171L161.872 34.9698C161.872 34.9698 161.824 34.9488 161.608 34.9023C161.393 34.8559 161.237 34.8306 161.172 34.7779C161.107 34.7252 161.185 34.5944 160.978 34.5881C160.769 34.5817 160.415 34.7399 160.354 34.6345C160.292 34.529 160.09 34.5607 159.868 34.6007C159.647 34.6408 159.183 34.7041 159.21 34.5754C159.236 34.4447 159.556 34.4172 159.432 34.3012C159.307 34.1852 159.4 34.1515 158.559 33.9743C157.717 33.7992 157.242 33.6221 157.04 33.6685C156.835 33.7149 156.749 33.7423 156.65 33.7465C156.551 33.7507 156.485 33.7486 156.485 33.7486L156.167 33.6031L156.979 33.5208Z" fill="#8AB8F4"/>
<path fill-rule="evenodd" clip-rule="evenodd" d="M140.731 33.061C140.731 33.061 141.678 32.4536 141.887 32.2975C142.096 32.1414 142.189 32.1393 142.461 32.2722C142.733 32.4051 142.63 32.3249 142.967 32.1541C143.307 31.9853 143.372 31.882 143.581 32.0381C143.79 32.192 143.828 32.1836 144.003 32.1498C144.178 32.1161 144.452 32.0149 144.663 32.114C144.872 32.2131 144.927 32.2511 144.927 32.2511C144.927 32.2511 140.974 33.2762 140.731 33.061Z" fill="#537FBA"/>
<path fill-rule="evenodd" clip-rule="evenodd" d="M155.049 38.5472L157.479 36.5434L159.071 35.6808C159.071 35.6808 161.564 35.0796 163.481 34.4869V38.7897C159.961 38.7138 156.38 38.602 155.049 38.5472Z" fill="#284975"/>
<path fill-rule="evenodd" clip-rule="evenodd" d="M133.111 46.2901C136.028 45.4401 139.15 44.5394 141.345 43.932C142.849 43.5164 148.348 41.3566 149.985 41.2469C154.165 40.9706 154.528 43.4004 156.869 43.4743C160.126 43.5755 161.691 42.0084 163.182 42.4555C163.268 42.4808 163.37 42.5209 163.486 42.5736V49.2873C159.782 49.3379 155.021 49.3843 149.936 49.5636C144.089 49.7682 137.865 50.1035 133.111 50.1288V46.2901Z" fill="#1F3C63"/>
<path fill-rule="evenodd" clip-rule="evenodd" d="M151.706 41.3018C154.328 41.6836 154.897 43.4131 156.867 43.4764C158.318 43.5207 159.147 45.1111 160.069 44.82C161.6 45.3578 161.256 42.213 162.849 42.3902C163.034 42.4113 163.247 42.4788 163.482 42.5821V49.2915H163.467C162.075 48.7938 160.729 48.3972 159.655 48.3993C157.24 48.4014 152.661 48.3804 152.663 47.8826C152.665 47.3827 156.268 45.8619 155.69 45.573C155.114 45.284 154.861 44.0944 153.456 43.5165C152.052 42.9386 150.43 41.8565 150.43 41.8565C150.742 41.576 151.176 41.3988 151.706 41.3018Z" fill="#34629E"/>
<path fill-rule="evenodd" clip-rule="evenodd" d="M133.111 46.2901C136.028 45.4401 139.15 44.5395 141.345 43.9341C142.849 43.5186 148.348 41.3567 149.985 41.2491C150.716 41.2006 151.332 41.2364 151.862 41.3271C151.472 41.4769 150.938 41.6435 150.432 41.8544C149.128 42.4028 148.738 42.5399 147.835 43.1896C146.935 43.8392 145.781 44.3433 144.916 44.2716C144.051 44.1978 143.22 45.8957 142.069 45.8577C140.915 45.8219 136.663 47.6632 136.266 47.8067C135.87 47.9501 134.608 46.8681 133.609 47.2562C133.522 47.2899 133.351 47.3469 133.111 47.4207V46.2901Z" fill="#284975"/>
<path fill-rule="evenodd" clip-rule="evenodd" d="M155.009 28.3069L158.58 28.9839L158.784 28.8447L157.434 27.8534L155.009 28.3069Z" fill="#B5CAE5"/>
<path fill-rule="evenodd" clip-rule="evenodd" d="M148.004 26.3538L146.987 30.3339C146.987 30.3339 145.848 30.7452 146.03 30.3022C146.211 29.8593 147.215 26.0648 147.215 26.0648L148.004 26.3538Z" fill="#D2E3F9"/>
<path fill-rule="evenodd" clip-rule="evenodd" d="M153.212 26.7777L153.543 26.6216L153.849 26.5963L156.074 27.1848L156.751 27.3704L156.262 26.9612L155.46 26.5183L155.068 26.514L153.724 26.1428L153.212 26.7777Z" fill="#B5CAE5"/>
<path fill-rule="evenodd" clip-rule="evenodd" d="M154.884 30.8759L155.62 31.4496C156.215 31.9158 155.987 33.0147 156.122 33.0547L156.924 33.3015C156.924 33.3015 157.466 33.7887 157.451 33.8436C157.436 33.8984 158.002 33.8541 157.972 33.8478C157.943 33.8394 156.658 32.8797 156.658 32.8797C156.658 32.8797 156.538 32.1836 156.435 31.8968C156.329 31.6099 155.861 31.1754 155.823 31.1501C155.787 31.1206 154.884 30.8759 154.884 30.8759Z" fill="#2382FF"/>
<path fill-rule="evenodd" clip-rule="evenodd" d="M163.484 34.9003C163.089 35.0121 162.69 35.1049 162.393 35.1302C161.543 35.1977 161.187 35.4087 160.282 35.6259C159.575 35.7946 158.263 36.2587 157.721 36.4548C157.571 36.5097 157.481 36.5434 157.481 36.5434C157.481 36.5434 158.023 35.8938 158.938 35.7103C159.626 35.5711 162.081 34.8856 163.484 34.3815V34.9003Z" fill="#537FBA"/>
<path fill-rule="evenodd" clip-rule="evenodd" d="M155.578 21.4836C155.287 21.7261 154.912 21.8738 154.5 21.8738C154.182 21.8738 153.887 21.7852 153.634 21.6333C153.359 21.7873 153.043 21.8738 152.705 21.8738C152.06 21.8738 151.491 21.5511 151.147 21.0596C150.982 21.2178 150.757 21.3148 150.51 21.3148C149.999 21.3148 149.586 20.9014 149.586 20.391C149.586 19.9164 149.947 19.5241 150.406 19.4735C150.341 19.3237 150.301 19.1571 150.301 18.9842C150.301 18.3198 150.839 17.7819 151.503 17.7819C151.822 17.7819 152.111 17.9063 152.326 18.1088C152.433 18.0856 152.547 18.073 152.661 18.0709C152.619 17.9654 152.598 17.8473 152.598 17.7271C152.598 17.2019 153.022 16.7758 153.549 16.7758C154.074 16.7758 154.5 17.2019 154.5 17.7271V17.7355C154.654 17.0226 155.287 16.489 156.046 16.489C156.639 16.489 157.154 16.8159 157.424 17.2968C157.521 17.2419 157.635 17.2082 157.755 17.2082C158.12 17.2082 158.415 17.5035 158.415 17.8663C158.415 17.9738 158.39 18.073 158.346 18.1637C158.434 18.1489 158.525 18.1405 158.618 18.1405C159.52 18.1405 160.252 18.8724 160.252 19.7751C160.252 20.6779 159.52 21.4098 158.618 21.4098C158.225 21.4098 157.865 21.2706 157.582 21.0385C157.508 21.5701 157.05 21.9814 156.498 21.9814C156.112 21.9814 155.774 21.781 155.578 21.4836ZM159.099 17.166C158.9 17.166 158.738 17.3263 158.738 17.5267C158.738 17.7271 158.898 17.8874 159.099 17.8874C159.297 17.8874 159.457 17.7271 159.457 17.5267C159.457 17.3263 159.297 17.166 159.099 17.166Z" fill="#E4EFFE"/>
<path fill-rule="evenodd" clip-rule="evenodd" d="M147.217 16.626C147.108 16.8095 146.88 16.934 146.614 16.934C146.243 16.934 145.941 16.6851 145.941 16.375C145.941 16.2084 146.03 16.0586 146.171 15.9553C146.175 15.7254 146.329 15.5229 146.561 15.4027C146.686 15.1053 146.977 14.8986 147.319 14.8986C147.354 14.8986 147.388 14.9007 147.422 14.9049C147.511 14.6708 147.736 14.5042 148 14.5042C148.19 14.5042 148.358 14.5906 148.472 14.7256C148.504 14.7214 148.538 14.7193 148.571 14.7193C148.747 14.7193 148.909 14.7678 149.048 14.8522C149.088 14.8395 149.135 14.8332 149.179 14.8332C149.434 14.8332 149.643 15.042 149.643 15.2972C149.643 15.3605 149.63 15.4217 149.607 15.4786C149.689 15.3858 149.812 15.3246 149.945 15.3246C150.196 15.3246 150.396 15.5271 150.396 15.776C150.396 16.027 150.193 16.2274 149.945 16.2274C149.824 16.2274 149.715 16.181 149.635 16.105C149.641 16.1451 149.643 16.1873 149.643 16.2274C149.643 16.742 149.225 17.1597 148.713 17.1597C148.607 17.1597 148.508 17.1428 148.415 17.1111C148.329 17.1428 148.236 17.1597 148.137 17.1597C147.772 17.1597 147.462 16.9213 147.357 16.5902C147.314 16.607 147.266 16.6176 147.217 16.626ZM149.5 15.7275C149.506 15.6853 149.516 15.6452 149.533 15.6052C149.525 15.6157 149.514 15.6263 149.504 15.6368V15.6473C149.502 15.6748 149.502 15.7001 149.5 15.7275Z" fill="#E4EFFE"/>
<path opacity="0.31" d="M117.015 66.4037L108.286 62.1782L98.4358 73.9254L96.7819 71.5775L98.8406 55.7861L90.6867 31.2433L72 37.859L76.9772 50.3887L92.9728 88.8955L96.5004 97.62L96.9091 95.0871L100.807 80.2249L106.254 74.1759L115.981 73.428L100.491 62.7064L117.015 66.4037Z" fill="white"/>
<path d="M101.967 20.1941C107.746 20.1941 112.43 15.6735 112.43 10.097C112.43 4.5206 107.746 0 101.967 0C96.1882 0 91.5037 4.5206 91.5037 10.097C91.5037 15.6735 96.1882 20.1941 101.967 20.1941Z" fill="#0047AB"/>
<path d="M129.582 81.0194L123.217 84.2154C121.367 80.6955 117.442 78.3631 112.997 78.7178C107.796 79.1341 103.648 83.3172 103.432 88.3483C103.351 90.2259 103.798 91.9993 104.654 93.5337L104.222 93.7496L100.822 95.4536L96.5039 97.6203C94.2755 92.5892 92.3903 87.5387 90.798 82.5538C90.5397 81.7558 90.2891 80.95 90.0501 80.1519V80.1442C89.8728 79.5582 89.6954 78.9568 89.5605 78.4903C89.4255 78.0277 89.333 77.7077 89.333 77.7077C86.4762 67.7417 84.7298 58.1844 83.6811 49.7991L83.6889 49.9611C82.2932 40.7585 82.2238 30.7385 82.2238 30.7385C82.1776 29.073 82.166 27.5656 82.166 26.2355C82.166 25.4298 82.166 24.6857 82.1814 24.0149C82.2238 21.347 82.3202 19.7702 82.3318 19.5466V19.5196L87.9066 20.2752L90.7209 20.7456C90.7017 20.9923 90.6901 21.2429 90.6901 21.4935C90.6901 27.0721 95.3743 31.5905 101.15 31.5905C105.969 31.5905 110.021 28.4523 111.235 24.1768L114.242 24.678L118.83 25.4837V25.503C118.818 25.6611 118.695 27.9126 118.71 31.5327C118.71 31.5327 118.976 41.7416 119.408 45.6817C119.952 51.268 120.869 57.4558 122.423 63.5047C122.431 63.524 122.435 63.5394 122.439 63.5587C123.025 65.9374 123.105 66.0107 123.109 66.0107C124.667 71.3966 126.764 76.5781 129.586 81.0155L129.582 81.0194Z" fill="#6495ED"/>
<defs>
<clipPath id="clip0_231_23">
<rect width="111" height="82" fill="white" transform="translate(0 33)"/>
</clipPath>
</defs>
</svg>
