<svg width="156" height="156" viewBox="0 0 156 156" fill="none" xmlns="http://www.w3.org/2000/svg">
<path d="M4.53702 77.8591C3.4192 64.1631 6.53475 49.4356 16.6009 39.5038C20.8293 35.3319 26.1117 32.1435 31.9186 30.7705C39.3254 29.0191 46.9358 30.8651 54.4138 29.9144C66.9148 28.3252 81.3906 18.3226 93.6979 18.3103C123.075 18.2809 131.72 35.2776 132.803 38.6873C133.864 42.026 136.163 44.7457 138.559 47.2183C143.779 52.6067 147.764 57.2429 148.134 65.0959C148.452 71.8438 147.208 78.8247 144.849 85.1383C140.14 97.7413 129.734 108.214 116.168 110.613C108.755 111.924 101.921 109.844 94.8247 107.933C87.6532 106.003 80.2897 104.898 72.8627 104.71C64.2675 104.492 55.6389 105.465 47.3152 107.623C39.5784 109.629 31.6822 113.63 23.4939 112.338C9.00392 110.052 5.45671 89.8362 4.53702 77.8591Z" fill="white" fill-opacity="0.2"/>
<path d="M107.263 92.7369H103.512C101.957 92.7369 100.697 93.9972 100.697 95.5519V99.3033C100.697 100.858 101.957 102.118 103.512 102.118H104.913L107.263 104.469V102.118C108.818 102.118 110.078 100.858 110.078 99.3033V95.5519C110.078 93.9973 108.818 92.7369 107.263 92.7369Z" fill="#6495ED"/>
<path d="M108.019 95.3403H102.71V96.1881H108.019V95.3403Z" fill="white"/>
<path d="M108.019 96.9988H102.71V97.8466H108.019V96.9988Z" fill="white"/>
<path d="M105.776 98.6573H102.71V99.5051H105.776V98.6573Z" fill="white"/>
<path d="M15.3776 89.1006H10.0457C9.11923 89.1006 8.36816 88.3495 8.36816 87.423V83.4812C8.36816 82.8654 8.86736 82.3661 9.48325 82.3661H15.9402C16.556 82.3661 17.0553 82.8654 17.0553 83.4812V87.423C17.0552 88.3495 16.3041 89.1006 15.3776 89.1006Z" fill="#6495ED"/>
<path d="M15.9884 87.509C15.7315 87.2261 15.4688 86.949 15.2082 86.6698C14.9442 86.3939 14.6836 86.1147 14.4169 85.8416C14.1881 85.6072 13.9614 85.371 13.7314 85.1378L13.8003 85.085C14.1297 84.8247 14.4624 84.5688 14.7885 84.304C15.1169 84.0423 15.4416 83.7759 15.7656 83.5085C16.0876 83.2385 16.4102 82.9692 16.7245 82.689C16.37 82.9163 16.0238 83.1544 15.677 83.3917C15.3321 83.6317 14.9881 83.8727 14.6476 84.1184C14.3048 84.361 13.9687 84.6125 13.6293 84.8596L13.5299 84.9339L13.5289 84.9329L13.428 85.0086L12.7084 85.5488L11.9336 85.0059L11.8282 84.932L11.827 84.9334L11.7625 84.8884C11.4142 84.6518 11.069 84.411 10.7175 84.1791C10.3682 83.944 10.0154 83.7139 9.66192 83.4846C9.30663 83.258 8.95173 83.0309 8.58911 82.8146C8.91359 83.0848 9.24579 83.344 9.57753 83.6039C9.91113 83.8611 10.2454 84.1174 10.5832 84.3688C10.9187 84.6233 11.2605 84.869 11.5994 85.1189L11.6379 85.1466C11.4199 85.3927 11.2048 85.6416 10.9879 85.8887C10.7362 86.1759 10.4903 86.4682 10.2412 86.7577C9.99569 87.0505 9.74788 87.3412 9.50608 87.6373C9.26233 87.9316 9.02225 88.2292 8.78583 88.5301C9.06015 88.2633 9.33081 87.9931 9.59781 87.7197C9.86675 87.448 10.1297 87.171 10.395 86.896C10.6567 86.6177 10.9215 86.3423 11.1805 86.0618C11.4101 85.8127 11.642 85.5654 11.8703 85.3151L12.6253 85.8553L12.6354 85.8625L12.7147 85.9194L12.7905 85.8611L12.802 85.8524L13.5039 85.3144C13.7453 85.553 13.9905 85.788 14.2334 86.0252C14.5066 86.2918 14.7857 86.5525 15.0616 86.8165C15.3409 87.0771 15.618 87.3398 15.9009 87.5967C16.182 87.8554 16.4664 88.1109 16.7545 88.3626C16.5026 88.0745 16.2472 87.7901 15.9884 87.509Z" fill="#0047AB"/>
<path d="M95.4672 92.2984C95.073 91.9041 94.5968 91.707 94.0384 91.707C93.4801 91.707 93.0039 91.9041 92.6096 92.2984C92.2153 92.6926 92.0183 93.1688 92.0183 93.7272C92.0183 94.2855 92.2154 94.7616 92.6096 95.1559C93.0039 95.5502 93.4801 95.7473 94.0384 95.7473C94.5968 95.7473 95.0729 95.5502 95.4672 95.1559C95.8615 94.7617 96.0585 94.2855 96.0585 93.7272C96.0585 93.1688 95.8614 92.6926 95.4672 92.2984Z" fill="#FDC564"/>
<path d="M95.2009 95.3762C95.1999 95.3751 95.1986 95.3745 95.1972 95.3744H94.9658C94.9643 95.3745 94.9632 95.3751 94.9622 95.3762C94.961 95.3772 94.9604 95.3785 94.9603 95.3799C94.9604 95.3813 94.961 95.3825 94.9622 95.3835C94.9632 95.3847 94.9644 95.3852 94.9658 95.3853H95.1972C95.1987 95.3852 95.1999 95.3847 95.2009 95.3835C95.202 95.3825 95.2026 95.3813 95.2027 95.3799C95.2026 95.3785 95.202 95.3772 95.2009 95.3762ZM95.3937 95.2183C95.3927 95.2172 95.3914 95.2166 95.39 95.2165H95.1586C95.1572 95.2166 95.156 95.2172 95.155 95.2183C95.1538 95.2193 95.1532 95.2206 95.1532 95.222C95.1532 95.2234 95.1538 95.2247 95.155 95.2257C95.156 95.2268 95.1572 95.2274 95.1586 95.2275H95.39C95.3914 95.2274 95.3927 95.2268 95.3937 95.2257C95.3948 95.2247 95.3954 95.2234 95.3955 95.222C95.3954 95.2206 95.3948 95.2193 95.3937 95.2183ZM95.548 95.0622C95.547 95.0611 95.5457 95.0605 95.5443 95.0604H95.3129C95.3115 95.0605 95.3102 95.0611 95.3092 95.0622C95.3081 95.0632 95.3075 95.0644 95.3074 95.0659C95.3075 95.0673 95.3081 95.0685 95.3092 95.0695C95.3102 95.0706 95.3115 95.0712 95.3129 95.0713H95.5443C95.5457 95.0712 95.547 95.0706 95.548 95.0695C95.5491 95.0685 95.5497 95.0673 95.5498 95.0659C95.5497 95.0644 95.5491 95.0632 95.548 95.0622ZM95.6747 94.9061C95.6737 94.905 95.6725 94.9044 95.6711 94.9043H95.4396C95.4381 94.9044 95.437 94.905 95.436 94.9061C95.4348 94.9071 95.4343 94.9083 95.4342 94.9097C95.4343 94.9112 95.4348 94.9124 95.436 94.9134C95.437 94.9145 95.4382 94.9151 95.4396 94.9152H95.6711C95.6725 94.9151 95.6737 94.9145 95.6747 94.9134C95.6759 94.9124 95.6764 94.9112 95.6765 94.9097C95.6764 94.9083 95.6758 94.9071 95.6747 94.9061ZM94.7069 95.5397C94.7078 95.5408 94.7091 95.5414 94.7105 95.5415H94.9419C94.9433 95.5414 94.9446 95.5408 94.9455 95.5397C94.9467 95.5387 94.9473 95.5375 94.9474 95.5361C94.9473 95.5346 94.9467 95.5334 94.9455 95.5324C94.9446 95.5313 94.9433 95.5307 94.9419 95.5306H94.7105C94.7091 95.5307 94.7078 95.5313 94.7069 95.5324C94.7057 95.5334 94.7051 95.5346 94.705 95.5361C94.7051 95.5375 94.7057 95.5387 94.7069 95.5397ZM94.2753 95.6976C94.2762 95.6988 94.2775 95.6993 94.2789 95.6994H94.5103C94.5117 95.6993 94.513 95.6988 94.514 95.6976C94.5151 95.6966 94.5157 95.6954 94.5158 95.694C94.5157 95.6925 94.5151 95.6913 94.514 95.6903C94.513 95.6892 94.5117 95.6886 94.5103 95.6885H94.2789C94.2775 95.6886 94.2762 95.6892 94.2753 95.6903C94.2741 95.6913 94.2735 95.6926 94.2734 95.694C94.2735 95.6954 94.2741 95.6966 94.2753 95.6976ZM95.8638 94.5921C95.8628 94.5909 95.8616 94.5904 95.8602 94.5903H95.6287C95.6272 94.5904 95.6261 94.5909 95.6251 94.5921C95.6239 94.5931 95.6234 94.5943 95.6233 94.5957C95.6234 94.5971 95.6239 94.5984 95.6251 94.5994C95.6261 94.6005 95.6273 94.6011 95.6287 94.6012H95.8602C95.8616 94.6011 95.8628 94.6005 95.8638 94.5994C95.8649 94.5984 95.8655 94.5971 95.8656 94.5957C95.8656 94.5943 95.8649 94.5931 95.8638 94.5921ZM95.9318 94.4342C95.9308 94.433 95.9295 94.4324 95.9281 94.4324H95.6949C95.6934 94.4324 95.6922 94.433 95.6912 94.4342C95.6901 94.4352 95.6895 94.4364 95.6894 94.4378C95.6895 94.4392 95.6901 94.4405 95.6912 94.4415C95.6922 94.4426 95.6935 94.4432 95.6949 94.4433H95.9281C95.9295 94.4432 95.9308 94.4426 95.9318 94.4415C95.9329 94.4405 95.9335 94.4392 95.9336 94.4378C95.9335 94.4363 95.9329 94.4352 95.9318 94.4342ZM95.7463 94.2762C95.7449 94.2763 95.7437 94.2768 95.7427 94.278C95.7415 94.279 95.7409 94.2802 95.7408 94.2816C95.7409 94.283 95.7415 94.2843 95.7427 94.2853C95.7437 94.2864 95.7449 94.287 95.7463 94.2871H95.9777C95.9791 94.287 95.9804 94.2864 95.9814 94.2853C95.9825 94.2843 95.9831 94.283 95.9832 94.2816C95.9831 94.2801 95.9825 94.279 95.9814 94.278C95.9804 94.2768 95.9791 94.2763 95.9777 94.2762H95.7463ZM96.0181 94.1202C96.0171 94.119 96.0158 94.1184 96.0144 94.1183H95.783C95.7816 94.1184 95.7804 94.119 95.7794 94.1202C95.7782 94.1212 95.7776 94.1224 95.7776 94.1238C95.7776 94.1252 95.7782 94.1264 95.7794 94.1274C95.7804 94.1286 95.7816 94.1292 95.783 94.1293H96.0144C96.0158 94.1292 96.0171 94.1286 96.0181 94.1274C96.0192 94.1264 96.0198 94.1252 96.0199 94.1238C96.0198 94.1223 96.0192 94.1212 96.0181 94.1202ZM95.5406 94.7556C95.5416 94.7567 95.5428 94.7573 95.5442 94.7574H95.7775C95.7789 94.7573 95.7801 94.7567 95.7811 94.7556C95.7823 94.7546 95.7828 94.7533 95.7829 94.7519C95.7828 94.7504 95.7823 94.7493 95.7811 94.7483C95.7801 94.7471 95.7789 94.7465 95.7775 94.7465H95.5442C95.5428 94.7465 95.5416 94.7471 95.5406 94.7483C95.5394 94.7493 95.5389 94.7505 95.5388 94.7519C95.5389 94.7533 95.5394 94.7545 95.5406 94.7556ZM95.8124 93.8152C95.8134 93.8164 95.8146 93.817 95.816 93.8171H96.0474C96.0488 93.817 96.0501 93.8164 96.0511 93.8152C96.0522 93.8142 96.0528 93.813 96.0529 93.8116C96.0528 93.8101 96.0522 93.809 96.0511 93.808C96.0501 93.8068 96.0488 93.8062 96.0474 93.8061H95.816C95.8145 93.8062 95.8134 93.8068 95.8124 93.808C95.8112 93.809 95.8106 93.8102 95.8105 93.8116C95.8106 93.813 95.8112 93.8142 95.8124 93.8152ZM95.8051 93.9622C95.8037 93.9622 95.8024 93.9628 95.8014 93.964C95.8003 93.965 95.7997 93.9662 95.7996 93.9676C95.7997 93.9691 95.8003 93.9703 95.8014 93.9713C95.8024 93.9724 95.8037 93.973 95.8051 93.9731H96.0365C96.0379 93.973 96.0392 93.9724 96.0401 93.9713C96.0413 93.9703 96.0419 93.969 96.042 93.9676C96.0419 93.9662 96.0413 93.965 96.0401 93.964C96.0392 93.9628 96.0379 93.9622 96.0365 93.9622H95.8051ZM95.8179 93.6481C95.8164 93.6482 95.8153 93.6488 95.8143 93.65C95.8131 93.651 95.8125 93.6522 95.8124 93.6536C95.8125 93.655 95.8131 93.6562 95.8143 93.6572C95.8153 93.6584 95.8165 93.659 95.8179 93.6591H96.0493C96.0507 93.659 96.052 93.6584 96.053 93.6572C96.0541 93.6562 96.0547 93.655 96.0548 93.6536C96.0547 93.6521 96.0541 93.651 96.053 93.65C96.052 93.6488 96.0507 93.6482 96.0493 93.6481H95.8179ZM95.985 93.1798C95.984 93.1787 95.9828 93.1781 95.9814 93.178H95.7499C95.7485 93.1781 95.7473 93.1787 95.7463 93.1798C95.7451 93.1808 95.7446 93.1821 95.7445 93.1835C95.7446 93.1849 95.7451 93.1861 95.7463 93.1871C95.7473 93.1883 95.7485 93.1888 95.7499 93.1889H95.9814C95.9828 93.1888 95.984 93.1883 95.985 93.1871C95.9862 93.1861 95.9867 93.1849 95.9868 93.1835C95.9868 93.1821 95.9862 93.1808 95.985 93.1798ZM96.0199 93.3359C96.0189 93.3348 96.0177 93.3342 96.0162 93.3341H95.7848C95.7834 93.3342 95.7822 93.3348 95.7812 93.3359C95.78 93.3369 95.7795 93.3382 95.7794 93.3396C95.7795 93.341 95.78 93.3422 95.7812 93.3432C95.7822 93.3444 95.7834 93.345 95.7848 93.345H96.0162C96.0177 93.345 96.0189 93.3444 96.0199 93.3432C96.021 93.3422 96.0216 93.341 96.0217 93.3396C96.0217 93.3382 96.021 93.3369 96.0199 93.3359ZM96.042 93.4939C96.041 93.4927 96.0397 93.4921 96.0383 93.492H95.8069C95.8054 93.4921 95.8043 93.4927 95.8033 93.4939C95.8021 93.4948 95.8015 93.4961 95.8014 93.4975C95.8015 93.499 95.8021 93.5001 95.8033 93.5011C95.8043 93.5023 95.8055 93.5029 95.8069 93.503H96.0383C96.0398 93.5029 96.041 93.5023 96.042 93.5011C96.0431 93.5001 96.0437 93.4989 96.0438 93.4975C96.0437 93.4961 96.0431 93.4949 96.042 93.4939ZM95.7003 93.0201C95.6989 93.0202 95.6977 93.0208 95.6967 93.0219C95.6955 93.0229 95.695 93.0242 95.6949 93.0256C95.695 93.027 95.6955 93.0282 95.6967 93.0292C95.6977 93.0303 95.6989 93.0309 95.7003 93.031H95.9318C95.9332 93.0309 95.9344 93.0303 95.9354 93.0292C95.9365 93.0282 95.9371 93.027 95.9372 93.0256C95.9371 93.0241 95.9365 93.0229 95.9354 93.0219C95.9344 93.0208 95.9332 93.0202 95.9318 93.0201H95.7003ZM95.6306 92.8732C95.6315 92.8743 95.6328 92.8749 95.6342 92.875H95.8656C95.867 92.8749 95.8683 92.8743 95.8692 92.8732C95.8704 92.8722 95.871 92.871 95.8711 92.8695C95.871 92.8681 95.8704 92.8669 95.8692 92.8659C95.8683 92.8647 95.867 92.8642 95.8656 92.8641H95.6342C95.6327 92.8642 95.6315 92.8647 95.6306 92.8659C95.6294 92.8669 95.6288 92.8681 95.6287 92.8695C95.6288 92.871 95.6295 92.8722 95.6306 92.8732ZM95.548 92.7153C95.5489 92.7164 95.5502 92.717 95.5516 92.7171H95.783C95.7844 92.717 95.7857 92.7164 95.7866 92.7153C95.7878 92.7143 95.7884 92.713 95.7885 92.7116C95.7884 92.7102 95.7878 92.709 95.7866 92.708C95.7857 92.7068 95.7844 92.7062 95.783 92.7062H95.5516C95.5502 92.7062 95.5489 92.7068 95.548 92.708C95.5468 92.709 95.5462 92.7102 95.5461 92.7116C95.5462 92.713 95.5468 92.7143 95.548 92.7153ZM95.4451 92.5592C95.4461 92.5603 95.4473 92.5609 95.4487 92.561H95.6802C95.6816 92.5609 95.6828 92.5603 95.6838 92.5592C95.6849 92.5582 95.6855 92.5569 95.6856 92.5555C95.6855 92.554 95.6849 92.5529 95.6838 92.5519C95.6828 92.5507 95.6816 92.5502 95.6802 92.5501H95.4487C95.4472 92.5502 95.4461 92.5507 95.4451 92.5519C95.4439 92.5529 95.4434 92.5541 95.4433 92.5555C95.4434 92.5569 95.4439 92.5582 95.4451 92.5592ZM95.3221 92.3939C95.3207 92.394 95.3194 92.3945 95.3184 92.3957C95.3173 92.3967 95.3167 92.3979 95.3166 92.3993C95.3167 92.4007 95.3173 92.402 95.3184 92.403C95.3194 92.4041 95.3207 92.4047 95.3221 92.4048H95.5535C95.5549 92.4047 95.5561 92.4041 95.5571 92.403C95.5583 92.402 95.5589 92.4007 95.5589 92.3993C95.5589 92.3979 95.5583 92.3967 95.5571 92.3957C95.5561 92.3945 95.5549 92.394 95.5535 92.3939H95.3221ZM95.4047 92.2414C95.4046 92.24 95.404 92.2388 95.4028 92.2378C95.4019 92.2366 95.4006 92.236 95.3992 92.236H95.1678C95.1664 92.236 95.1651 92.2366 95.1641 92.2378C95.163 92.2388 95.1624 92.24 95.1623 92.2414C95.1624 92.2428 95.163 92.2441 95.1641 92.2451C95.1651 92.2462 95.1664 92.2468 95.1678 92.2469H95.3992C95.4006 92.2468 95.4019 92.2462 95.4028 92.2451C95.404 92.2441 95.4047 92.2429 95.4047 92.2414ZM94.9805 92.0799C94.979 92.0799 94.9779 92.0805 94.9768 92.0817C94.9756 92.0827 94.9751 92.0839 94.975 92.0853C94.9751 92.0868 94.9756 92.088 94.9768 92.089C94.9778 92.0901 94.979 92.0907 94.9805 92.0908H95.2119C95.2133 92.0907 95.2146 92.0901 95.2156 92.089C95.2167 92.088 95.2173 92.0867 95.2174 92.0853C95.2173 92.0839 95.2167 92.0827 95.2156 92.0817C95.2146 92.0805 95.2133 92.0799 95.2119 92.0799H94.9805ZM94.7252 91.931C94.7262 91.9322 94.7274 91.9328 94.7288 91.9329H94.9603C94.9617 91.9328 94.9629 91.9322 94.9639 91.931C94.9651 91.93 94.9656 91.9288 94.9657 91.9273C94.9656 91.9259 94.9651 91.9247 94.9639 91.9237C94.9629 91.9225 94.9617 91.9219 94.9603 91.9219H94.7288C94.7274 91.9219 94.7262 91.9225 94.7252 91.9237C94.724 91.9247 94.7235 91.9259 94.7234 91.9273C94.7235 91.9288 94.724 91.93 94.7252 91.931ZM94.3194 91.775C94.3204 91.7762 94.3216 91.7768 94.323 91.7768H94.5545C94.5559 91.7768 94.5571 91.7762 94.5581 91.775C94.5593 91.774 94.5598 91.7728 94.5599 91.7714C94.5598 91.7699 94.5593 91.7687 94.5581 91.7677C94.5571 91.7666 94.5559 91.766 94.5545 91.7659H94.323C94.3216 91.766 94.3204 91.7666 94.3194 91.7677C94.3183 91.7687 94.3177 91.77 94.3176 91.7714C94.3176 91.7728 94.3182 91.7739 94.3194 91.775Z" fill="#CA872A"/>
<path d="M95.2358 92.2984C94.8416 91.9041 94.3653 91.707 93.807 91.707C93.2487 91.707 92.7725 91.9041 92.3782 92.2984C91.9839 92.6926 91.7869 93.1688 91.7869 93.7272C91.7869 94.2855 91.984 94.7616 92.3782 95.1559C92.7724 95.5502 93.2486 95.7473 93.807 95.7473C94.3652 95.7473 94.8415 95.5502 95.2358 95.1559C95.63 94.7617 95.8271 94.2855 95.8271 93.7272C95.8271 93.1688 95.63 92.6926 95.2358 92.2984Z" fill="#FBB43C"/>
<path d="M94.9426 92.591C94.6293 92.2777 94.2508 92.121 93.807 92.121C93.3633 92.121 92.9848 92.2777 92.6714 92.591C92.3581 92.9043 92.2014 93.2829 92.2014 93.7266C92.2014 94.1703 92.3581 94.5488 92.6714 94.8622C92.9847 95.1756 93.3632 95.3322 93.807 95.3322C94.2507 95.3322 94.6292 95.1756 94.9426 94.8622C95.2559 94.5489 95.4126 94.1704 95.4126 93.7266C95.4126 93.2829 95.2559 92.9044 94.9426 92.591Z" fill="#F4A621"/>
<path d="M93.4216 93.083C93.3475 93.1572 93.3104 93.2525 93.3104 93.369C93.3104 93.4368 93.3213 93.495 93.3432 93.5438C93.3644 93.5925 93.3948 93.6353 93.4343 93.672C93.4724 93.708 93.519 93.7401 93.5741 93.7683C93.6285 93.7959 93.6931 93.8238 93.768 93.852C93.8435 93.8803 93.8972 93.9114 93.929 93.9453C93.9593 93.9785 93.9745 94.0233 93.9745 94.0798C93.9745 94.1342 93.9572 94.1776 93.9226 94.2101C93.8873 94.2418 93.8393 94.2578 93.7785 94.2578C93.7051 94.2578 93.6493 94.2359 93.6112 94.1921C93.5717 94.1483 93.5519 94.0855 93.5519 94.0035H93.2532C93.2532 94.1448 93.292 94.2581 93.3697 94.3436C93.4474 94.4283 93.5568 94.4784 93.698 94.494V94.6984H93.8622V94.4929C93.9907 94.4795 94.0913 94.4364 94.1641 94.3637C94.2375 94.2902 94.2742 94.1949 94.2742 94.0777C94.2742 94.0148 94.2643 93.9601 94.2445 93.9135C94.2255 93.8655 94.1976 93.8235 94.1609 93.7875C94.1249 93.75 94.08 93.7168 94.0263 93.6879C93.9733 93.6582 93.9059 93.6268 93.824 93.5936C93.7414 93.5604 93.6849 93.528 93.6546 93.4961C93.6242 93.4644 93.609 93.4224 93.609 93.3701C93.609 93.3136 93.6246 93.2695 93.6556 93.2377C93.6867 93.2052 93.7305 93.1889 93.7869 93.1889C93.8441 93.1889 93.89 93.2098 93.9246 93.2515C93.9578 93.2917 93.9744 93.3535 93.9744 93.4368H94.2742C94.2742 93.302 94.2395 93.1925 94.1703 93.1085C94.1012 93.0238 94.0058 92.9726 93.8844 92.9549V92.7314H93.7181V92.9527C93.5946 92.9648 93.4958 93.0082 93.4216 93.083Z" fill="#624118"/>
<path d="M93.3848 93.083C93.3106 93.1572 93.2736 93.2525 93.2736 93.369C93.2736 93.4368 93.2845 93.495 93.3064 93.5438C93.3276 93.5925 93.3579 93.6353 93.3975 93.672C93.4356 93.708 93.4822 93.7401 93.5373 93.7683C93.5917 93.7959 93.6563 93.8238 93.7311 93.852C93.8067 93.8803 93.8604 93.9114 93.8921 93.9453C93.9225 93.9785 93.9377 94.0233 93.9377 94.0798C93.9377 94.1342 93.9204 94.1776 93.8858 94.2101C93.8505 94.2418 93.8025 94.2578 93.7417 94.2578C93.6683 94.2578 93.6125 94.2359 93.5743 94.1921C93.5348 94.1483 93.515 94.0855 93.515 94.0035H93.2163C93.2163 94.1448 93.2551 94.2581 93.3328 94.3436C93.4105 94.4283 93.5199 94.4784 93.6612 94.494V94.6984H93.8254V94.4929C93.9539 94.4795 94.0545 94.4364 94.1272 94.3637C94.2007 94.2902 94.2374 94.1949 94.2374 94.0777C94.2374 94.0148 94.2275 93.9601 94.2077 93.9135C94.1887 93.8655 94.1608 93.8235 94.124 93.7875C94.088 93.75 94.0432 93.7168 93.9895 93.6879C93.9365 93.6582 93.8691 93.6268 93.7872 93.5936C93.7046 93.5604 93.6481 93.528 93.6177 93.4961C93.5874 93.4644 93.5722 93.4224 93.5722 93.3701C93.5722 93.3136 93.5877 93.2695 93.6188 93.2377C93.6498 93.2052 93.6937 93.1889 93.7501 93.1889C93.8073 93.1889 93.8532 93.2098 93.8878 93.2515C93.921 93.2917 93.9376 93.3535 93.9376 93.4368H94.2374C94.2374 93.302 94.2028 93.1925 94.1336 93.1085C94.0644 93.0238 93.9691 92.9726 93.8476 92.9549V92.7314H93.6813V92.9527C93.5578 92.9648 93.4589 93.0082 93.3848 93.083Z" fill="#724B1E"/>
<path d="M95.8269 91.7069V85.3979" stroke="#0047AB" stroke-miterlimit="10"/>
<path d="M93.5559 90.5588V88.3444" stroke="#0047AB" stroke-miterlimit="10"/>
<path d="M93.5559 86.8018V84.6649" stroke="#0047AB" stroke-miterlimit="10"/>
<path d="M91.3374 93.7325V88.7371" stroke="#0047AB" stroke-miterlimit="10"/>
<path d="M16.8015 56.8381C16.4072 56.4439 15.931 56.2468 15.3727 56.2468C14.8144 56.2468 14.3382 56.4439 13.9439 56.8381C13.5496 57.2323 13.3525 57.7085 13.3525 58.2669C13.3525 58.8251 13.5496 59.3015 13.9439 59.6957C14.3381 60.0899 14.8143 60.287 15.3727 60.287C15.9309 60.287 16.4072 60.0899 16.8015 59.6957C17.1957 59.3015 17.3928 58.8252 17.3928 58.2669C17.3928 57.7085 17.1957 57.2323 16.8015 56.8381Z" fill="#FDC564"/>
<path d="M16.5351 59.9159C16.5341 59.9148 16.5329 59.9142 16.5315 59.9141H16.3C16.2985 59.9142 16.2974 59.9148 16.2964 59.9159C16.2952 59.9169 16.2947 59.9182 16.2946 59.9196C16.2947 59.921 16.2952 59.9222 16.2964 59.9232C16.2974 59.9244 16.2986 59.9249 16.3 59.925H16.5315C16.5329 59.9249 16.5341 59.9244 16.5351 59.9232C16.5362 59.9222 16.5368 59.921 16.5369 59.9196C16.5368 59.9182 16.5362 59.9169 16.5351 59.9159ZM16.7279 59.758C16.7269 59.7569 16.7257 59.7563 16.7243 59.7562H16.4928C16.4914 59.7563 16.4902 59.7569 16.4892 59.758C16.488 59.759 16.4875 59.7602 16.4874 59.7616C16.4875 59.7631 16.488 59.7643 16.4892 59.7653C16.4902 59.7664 16.4914 59.767 16.4928 59.7671H16.7243C16.7257 59.767 16.7269 59.7664 16.7279 59.7653C16.7291 59.7643 16.7296 59.7631 16.7297 59.7616C16.7296 59.7602 16.7291 59.759 16.7279 59.758ZM16.8822 59.6019C16.8812 59.6008 16.8799 59.6002 16.8785 59.6001H16.6471C16.6456 59.6002 16.6445 59.6008 16.6435 59.6019C16.6423 59.6029 16.6417 59.6041 16.6417 59.6055C16.6417 59.607 16.6423 59.6082 16.6435 59.6092C16.6445 59.6103 16.6457 59.6109 16.6471 59.611H16.8785C16.8799 59.6109 16.8812 59.6103 16.8822 59.6092C16.8833 59.6082 16.8839 59.607 16.884 59.6055C16.8839 59.6041 16.8833 59.6029 16.8822 59.6019ZM17.0088 59.4458C17.0079 59.4447 17.0066 59.4441 17.0052 59.444H16.7738C16.7723 59.4441 16.7711 59.4447 16.7701 59.4458C16.769 59.4468 16.7684 59.448 16.7683 59.4494C16.7684 59.4509 16.769 59.4521 16.7701 59.4531C16.7711 59.4542 16.7724 59.4548 16.7738 59.4549H17.0052C17.0066 59.4548 17.0079 59.4542 17.0088 59.4531C17.01 59.4521 17.0106 59.4509 17.0107 59.4494C17.0106 59.448 17.01 59.4468 17.0088 59.4458ZM16.0411 60.0794C16.0421 60.0805 16.0433 60.0811 16.0447 60.0812H16.2761C16.2775 60.0811 16.2788 60.0805 16.2798 60.0794C16.2809 60.0784 16.2815 60.0772 16.2816 60.0757C16.2815 60.0743 16.2809 60.0731 16.2798 60.0721C16.2788 60.071 16.2775 60.0704 16.2761 60.0703H16.0447C16.0432 60.0704 16.0421 60.071 16.0411 60.0721C16.0399 60.0731 16.0393 60.0743 16.0393 60.0757C16.0393 60.0772 16.0399 60.0784 16.0411 60.0794ZM15.6095 60.2373C15.6105 60.2385 15.6117 60.239 15.6131 60.2391H15.8445C15.846 60.239 15.8472 60.2385 15.8482 60.2373C15.8493 60.2363 15.8499 60.2351 15.85 60.2337C15.8499 60.2323 15.8493 60.231 15.8482 60.23C15.8472 60.2289 15.846 60.2283 15.8445 60.2282H15.6131C15.6116 60.2283 15.6105 60.2289 15.6095 60.23C15.6083 60.231 15.6077 60.2323 15.6077 60.2337C15.6077 60.2351 15.6083 60.2363 15.6095 60.2373ZM17.198 59.1318C17.197 59.1306 17.1958 59.1301 17.1944 59.13H16.963C16.9615 59.1301 16.9603 59.1306 16.9593 59.1318C16.9582 59.1328 16.9576 59.134 16.9575 59.1354C16.9576 59.1368 16.9582 59.1381 16.9593 59.1391C16.9603 59.1402 16.9616 59.1408 16.963 59.1409H17.1944C17.1958 59.1408 17.197 59.1402 17.198 59.1391C17.1992 59.1381 17.1998 59.1368 17.1998 59.1354C17.1998 59.134 17.1992 59.1328 17.198 59.1318ZM17.266 58.9739C17.265 58.9727 17.2637 58.9721 17.2623 58.9721H17.0291C17.0276 58.9721 17.0265 58.9727 17.0255 58.9739C17.0243 58.9749 17.0237 58.9761 17.0236 58.9775C17.0237 58.9789 17.0243 58.9802 17.0255 58.9811C17.0265 58.9823 17.0277 58.9829 17.0291 58.983H17.2623C17.2637 58.9829 17.265 58.9823 17.266 58.9811C17.2671 58.9802 17.2677 58.9789 17.2678 58.9775C17.2677 58.976 17.2671 58.9749 17.266 58.9739ZM17.0804 58.8159C17.079 58.816 17.0778 58.8165 17.0768 58.8177C17.0757 58.8187 17.0751 58.8199 17.075 58.8213C17.0751 58.8228 17.0757 58.824 17.0768 58.825C17.0778 58.8261 17.079 58.8267 17.0804 58.8268H17.3119C17.3133 58.8267 17.3145 58.8261 17.3155 58.825C17.3167 58.824 17.3172 58.8227 17.3173 58.8213C17.3172 58.8198 17.3167 58.8187 17.3155 58.8177C17.3145 58.8165 17.3133 58.816 17.3119 58.8159H17.0804ZM17.3523 58.6598C17.3513 58.6586 17.3501 58.658 17.3487 58.658H17.1172C17.1157 58.658 17.1146 58.6586 17.1136 58.6598C17.1124 58.6608 17.1119 58.662 17.1118 58.6634C17.1119 58.6649 17.1124 58.6661 17.1136 58.667C17.1146 58.6682 17.1158 58.6688 17.1172 58.6689H17.3487C17.3501 58.6688 17.3513 58.6682 17.3523 58.667C17.3535 58.6661 17.354 58.6648 17.3541 58.6634C17.354 58.662 17.3535 58.6608 17.3523 58.6598ZM16.8748 59.2952C16.8758 59.2964 16.8771 59.297 16.8785 59.2971H17.1117C17.1131 59.297 17.1143 59.2964 17.1153 59.2952C17.1165 59.2943 17.1171 59.293 17.1172 59.2916C17.1171 59.2901 17.1165 59.289 17.1153 59.288C17.1143 59.2868 17.1131 59.2862 17.1117 59.2862H16.8785C16.877 59.2862 16.8758 59.2868 16.8748 59.288C16.8737 59.289 16.8731 59.2902 16.873 59.2916C16.873 59.293 16.8737 59.2942 16.8748 59.2952ZM17.1466 58.3549C17.1476 58.3561 17.1488 58.3567 17.1502 58.3567H17.3816C17.3831 58.3567 17.3843 58.3561 17.3853 58.3549C17.3864 58.3539 17.387 58.3527 17.3871 58.3513C17.387 58.3499 17.3864 58.3486 17.3853 58.3477C17.3843 58.3465 17.3831 58.3459 17.3816 58.3458H17.1502C17.1487 58.3459 17.1476 58.3465 17.1466 58.3477C17.1454 58.3486 17.1449 58.3499 17.1448 58.3513C17.1449 58.3527 17.1454 58.3539 17.1466 58.3549ZM17.1392 58.5019C17.1377 58.5019 17.1366 58.5025 17.1356 58.5037C17.1344 58.5047 17.1339 58.5059 17.1338 58.5073C17.1339 58.5087 17.1344 58.51 17.1356 58.5109C17.1366 58.5121 17.1378 58.5127 17.1392 58.5128H17.3707C17.3721 58.5127 17.3733 58.5121 17.3743 58.5109C17.3754 58.51 17.376 58.5087 17.3761 58.5073C17.376 58.5058 17.3754 58.5047 17.3743 58.5037C17.3733 58.5025 17.3721 58.5019 17.3707 58.5019H17.1392ZM17.1521 58.1878C17.1506 58.1879 17.1495 58.1885 17.1485 58.1897C17.1473 58.1906 17.1468 58.1919 17.1467 58.1933C17.1468 58.1948 17.1473 58.1959 17.1485 58.1969C17.1495 58.1981 17.1507 58.1987 17.1521 58.1987H17.3836C17.385 58.1987 17.3862 58.1981 17.3872 58.1969C17.3883 58.1959 17.3889 58.1947 17.389 58.1933C17.3889 58.1919 17.3883 58.1906 17.3872 58.1897C17.3862 58.1885 17.385 58.1879 17.3836 58.1878H17.1521ZM17.3192 57.7195C17.3182 57.7184 17.317 57.7178 17.3156 57.7177H17.0842C17.0827 57.7178 17.0815 57.7184 17.0805 57.7195C17.0794 57.7205 17.0788 57.7218 17.0787 57.7232C17.0788 57.7246 17.0794 57.7258 17.0805 57.7268C17.0815 57.728 17.0828 57.7285 17.0842 57.7286H17.3156C17.317 57.7285 17.3182 57.728 17.3192 57.7268C17.3204 57.7258 17.321 57.7246 17.321 57.7232C17.321 57.7218 17.3204 57.7205 17.3192 57.7195ZM17.3541 57.8756C17.3531 57.8745 17.3519 57.8739 17.3505 57.8738H17.1191C17.1177 57.8739 17.1164 57.8745 17.1154 57.8756C17.1143 57.8766 17.1137 57.8779 17.1136 57.8793C17.1137 57.8807 17.1143 57.8819 17.1154 57.8829C17.1164 57.8841 17.1177 57.8846 17.1191 57.8847H17.3505C17.3519 57.8846 17.3531 57.8841 17.3541 57.8829C17.3553 57.8819 17.3559 57.8807 17.3559 57.8793C17.3559 57.8779 17.3553 57.8766 17.3541 57.8756ZM17.3761 58.0336C17.3751 58.0324 17.3739 58.0318 17.3725 58.0317H17.141C17.1396 58.0318 17.1384 58.0324 17.1374 58.0336C17.1363 58.0345 17.1357 58.0358 17.1356 58.0372C17.1357 58.0386 17.1363 58.0398 17.1374 58.0408C17.1384 58.042 17.1396 58.0426 17.141 58.0426H17.3725C17.374 58.0426 17.3751 58.042 17.3761 58.0408C17.3773 58.0398 17.3778 58.0386 17.3779 58.0372C17.3779 58.0358 17.3773 58.0345 17.3761 58.0336ZM17.0346 57.5598C17.0332 57.5599 17.0319 57.5605 17.0309 57.5616C17.0298 57.5626 17.0292 57.5638 17.0291 57.5653C17.0292 57.5667 17.0298 57.5679 17.0309 57.5689C17.0319 57.57 17.0332 57.5706 17.0346 57.5707H17.266C17.2674 57.5706 17.2686 57.57 17.2696 57.5689C17.2708 57.5679 17.2714 57.5667 17.2714 57.5653C17.2714 57.5638 17.2708 57.5626 17.2696 57.5616C17.2686 57.5605 17.2674 57.5599 17.266 57.5598H17.0346ZM16.9648 57.4129C16.9658 57.414 16.967 57.4146 16.9684 57.4147H17.1998C17.2012 57.4146 17.2025 57.414 17.2035 57.4129C17.2046 57.4119 17.2052 57.4106 17.2053 57.4092C17.2052 57.4077 17.2046 57.4066 17.2035 57.4056C17.2025 57.4044 17.2012 57.4039 17.1998 57.4038H16.9684C16.9669 57.4039 16.9658 57.4044 16.9648 57.4056C16.9636 57.4066 16.963 57.4078 16.963 57.4092C16.963 57.4106 16.9636 57.4119 16.9648 57.4129ZM16.8822 57.255C16.8832 57.2561 16.8844 57.2567 16.8858 57.2568H17.1172C17.1186 57.2567 17.1199 57.2561 17.1209 57.255C17.122 57.254 17.1226 57.2527 17.1227 57.2513C17.1226 57.2498 17.122 57.2487 17.1209 57.2477C17.1199 57.2465 17.1186 57.2459 17.1172 57.2459H16.8858C16.8843 57.2459 16.8832 57.2465 16.8822 57.2477C16.881 57.2487 16.8804 57.2499 16.8804 57.2513C16.8804 57.2527 16.881 57.2539 16.8822 57.255ZM16.7793 57.0989C16.7803 57.1 16.7816 57.1006 16.783 57.1007H17.0144C17.0159 57.1006 17.017 57.1 17.018 57.0989C17.0192 57.0979 17.0198 57.0966 17.0198 57.0952C17.0198 57.0937 17.0192 57.0926 17.018 57.0916C17.017 57.0904 17.0158 57.0898 17.0144 57.0898H16.783C16.7815 57.0898 16.7803 57.0904 16.7793 57.0916C16.7782 57.0926 16.7776 57.0938 16.7775 57.0952C16.7775 57.0966 16.7782 57.0978 16.7793 57.0989ZM16.6562 56.9336C16.6548 56.9337 16.6536 56.9342 16.6526 56.9354C16.6514 56.9364 16.6508 56.9376 16.6508 56.939C16.6508 56.9405 16.6514 56.9417 16.6526 56.9427C16.6536 56.9438 16.6548 56.9444 16.6562 56.9445H16.8876C16.889 56.9444 16.8903 56.9438 16.8913 56.9427C16.8924 56.9417 16.893 56.9404 16.8931 56.939C16.893 56.9376 16.8924 56.9364 16.8913 56.9354C16.8903 56.9342 16.889 56.9337 16.8876 56.9336H16.6562ZM16.7389 56.7811C16.7388 56.7797 16.7382 56.7785 16.7371 56.7775C16.7361 56.7763 16.7348 56.7757 16.7334 56.7757H16.502C16.5006 56.7757 16.4994 56.7763 16.4984 56.7775C16.4972 56.7785 16.4966 56.7797 16.4966 56.7811C16.4966 56.7826 16.4972 56.7838 16.4984 56.7848C16.4994 56.7859 16.5006 56.7865 16.502 56.7866H16.7334C16.7348 56.7865 16.7361 56.7859 16.7371 56.7848C16.7382 56.7838 16.7388 56.7826 16.7389 56.7811ZM16.3147 56.6196C16.3132 56.6196 16.312 56.6202 16.3109 56.6214C16.3098 56.6224 16.3092 56.6236 16.3091 56.625C16.3092 56.6264 16.3098 56.6277 16.3109 56.6287C16.3119 56.6298 16.3132 56.6304 16.3147 56.6305H16.5461C16.5475 56.6304 16.5487 56.6298 16.5497 56.6287C16.5509 56.6277 16.5515 56.6264 16.5515 56.625C16.5515 56.6235 16.5509 56.6224 16.5497 56.6214C16.5487 56.6202 16.5475 56.6196 16.5461 56.6196H16.3147ZM16.0594 56.4707C16.0604 56.4719 16.0617 56.4725 16.0631 56.4726H16.2945C16.2959 56.4725 16.2971 56.4719 16.2981 56.4707C16.2993 56.4697 16.2999 56.4685 16.2999 56.4671C16.2999 56.4656 16.2993 56.4645 16.2981 56.4635C16.2971 56.4623 16.2959 56.4617 16.2945 56.4616H16.0631C16.0616 56.4617 16.0604 56.4623 16.0594 56.4635C16.0583 56.4645 16.0577 56.4657 16.0576 56.4671C16.0576 56.4685 16.0583 56.4697 16.0594 56.4707ZM15.6536 56.3146C15.6545 56.3158 15.6558 56.3164 15.6572 56.3165H15.8886C15.89 56.3164 15.8913 56.3158 15.8923 56.3146C15.8934 56.3136 15.894 56.3124 15.8941 56.311C15.894 56.3095 15.8934 56.3084 15.8923 56.3074C15.8913 56.3062 15.89 56.3056 15.8886 56.3055H15.6572C15.6557 56.3056 15.6545 56.3062 15.6536 56.3074C15.6524 56.3084 15.6518 56.3096 15.6517 56.311C15.6518 56.3124 15.6524 56.3136 15.6536 56.3146Z" fill="#CA872A"/>
<path d="M16.57 56.8381C16.1758 56.4439 15.6996 56.2468 15.1412 56.2468C14.5829 56.2468 14.1067 56.4439 13.7124 56.8381C13.3182 57.2323 13.1211 57.7085 13.1211 58.2669C13.1211 58.8251 13.3182 59.3015 13.7124 59.6957C14.1066 60.0899 14.5829 60.287 15.1412 60.287C15.6996 60.287 16.1757 60.0899 16.57 59.6957C16.9642 59.3015 17.1613 58.8252 17.1613 58.2669C17.1613 57.7085 16.9642 57.2323 16.57 56.8381Z" fill="#FBB43C"/>
<path d="M16.2768 57.1308C15.9635 56.8175 15.585 56.6608 15.1412 56.6608C14.6975 56.6608 14.319 56.8175 14.0056 57.1308C13.6923 57.4441 13.5356 57.8227 13.5356 58.2664C13.5356 58.7102 13.6923 59.0886 14.0056 59.402C14.319 59.7154 14.6975 59.872 15.1412 59.872C15.5849 59.872 15.9635 59.7154 16.2768 59.402C16.5902 59.0887 16.7468 58.7102 16.7468 58.2664C16.7468 57.8227 16.5902 57.4441 16.2768 57.1308Z" fill="#F4A621"/>
<path d="M14.7553 57.6225C14.6812 57.6967 14.6441 57.792 14.6441 57.9085C14.6441 57.9763 14.6551 58.0346 14.6769 58.0833C14.6981 58.132 14.7285 58.1747 14.768 58.2115C14.8062 58.2475 14.8528 58.2796 14.9078 58.3078C14.9622 58.3354 15.0268 58.3633 15.1017 58.3915C15.1772 58.4198 15.2309 58.4509 15.2627 58.4848C15.2931 58.518 15.3082 58.5628 15.3082 58.6193C15.3082 58.6737 15.2909 58.7171 15.2563 58.7496C15.2211 58.7813 15.173 58.7973 15.1123 58.7973C15.0388 58.7973 14.9831 58.7754 14.945 58.7316C14.9054 58.6878 14.8856 58.625 14.8856 58.543H14.5869C14.5869 58.6842 14.6257 58.7976 14.7034 58.8831C14.7811 58.9678 14.8905 59.0179 15.0317 59.0335V59.2379H15.1959V59.0324C15.3244 59.019 15.4251 58.9759 15.4978 58.9032C15.5712 58.8297 15.6079 58.7344 15.6079 58.6172C15.6079 58.5543 15.5981 58.4996 15.5783 58.453C15.5592 58.405 15.5313 58.363 15.4946 58.327C15.4586 58.2895 15.4138 58.2563 15.3601 58.2274C15.3071 58.1977 15.2397 58.1663 15.1578 58.1331C15.0752 58.0999 15.0187 58.0675 14.9883 58.0357C14.9579 58.0039 14.9428 57.9619 14.9428 57.9097C14.9428 57.8532 14.9583 57.809 14.9893 57.7773C15.0204 57.7448 15.0642 57.7285 15.1207 57.7285C15.1779 57.7285 15.2238 57.7494 15.2584 57.791C15.2915 57.8313 15.3081 57.8931 15.3081 57.9764H15.6079C15.6079 57.8415 15.5733 57.7321 15.5041 57.648C15.4349 57.5633 15.3396 57.5121 15.2181 57.4944V57.2709H15.0518V57.4923C14.9284 57.5043 14.8295 57.5477 14.7553 57.6225Z" fill="#624118"/>
<path d="M14.7187 57.6225C14.6446 57.6967 14.6075 57.792 14.6075 57.9085C14.6075 57.9763 14.6184 58.0346 14.6403 58.0833C14.6615 58.132 14.6919 58.1747 14.7314 58.2115C14.7696 58.2475 14.8161 58.2796 14.8712 58.3078C14.9256 58.3354 14.9902 58.3633 15.0651 58.3915C15.1406 58.4198 15.1943 58.4509 15.2261 58.4848C15.2564 58.518 15.2716 58.5628 15.2716 58.6193C15.2716 58.6737 15.2543 58.7171 15.2197 58.7496C15.1844 58.7813 15.1364 58.7973 15.0757 58.7973C15.0022 58.7973 14.9464 58.7754 14.9083 58.7316C14.8688 58.6878 14.849 58.625 14.849 58.543H14.5503C14.5503 58.6842 14.5891 58.7976 14.6668 58.8831C14.7445 58.9678 14.8539 59.0179 14.9952 59.0335V59.2379H15.1594V59.0324C15.2879 59.019 15.3885 58.9759 15.4612 58.9032C15.5347 58.8297 15.5714 58.7344 15.5714 58.6172C15.5714 58.5543 15.5615 58.4996 15.5417 58.453C15.5226 58.405 15.4947 58.363 15.458 58.327C15.422 58.2895 15.3771 58.2563 15.3235 58.2274C15.2705 58.1977 15.2031 58.1663 15.1212 58.1331C15.0386 58.0999 14.9821 58.0675 14.9517 58.0357C14.9213 58.0039 14.9062 57.9619 14.9062 57.9097C14.9062 57.8532 14.9217 57.809 14.9528 57.7773C14.9838 57.7448 15.0276 57.7285 15.0841 57.7285C15.1413 57.7285 15.1872 57.7494 15.2218 57.791C15.255 57.8313 15.2716 57.8931 15.2716 57.9764H15.5714C15.5714 57.8415 15.5368 57.7321 15.4676 57.648C15.3984 57.5633 15.303 57.5121 15.1816 57.4944V57.2709H15.0153V57.4923C14.8917 57.5043 14.7929 57.5477 14.7187 57.6225Z" fill="#724B1E"/>
<path d="M17.1614 56.2468V49.9377" stroke="#0047AB" stroke-miterlimit="10"/>
<path d="M14.8904 55.0986V52.8843" stroke="#0047AB" stroke-miterlimit="10"/>
<path d="M14.8904 51.3417V49.2047" stroke="#0047AB" stroke-miterlimit="10"/>
<path d="M12.6719 58.2724V53.2769" stroke="#0047AB" stroke-miterlimit="10"/>
<path d="M54.6229 26.6309C55.9873 26.6309 57.0933 25.5249 57.0933 24.1605C57.0933 22.7962 55.9873 21.6902 54.6229 21.6902C53.2586 21.6902 52.1526 22.7962 52.1526 24.1605C52.1526 25.5249 53.2586 26.6309 54.6229 26.6309Z" fill="#E8F0F7"/>
<path d="M145.498 42.1836C145.655 41.2179 144.999 40.308 144.033 40.1513C143.068 39.9946 142.158 40.6503 142.001 41.616C141.844 42.5817 142.5 43.4916 143.466 43.6483C144.431 43.805 145.341 43.1493 145.498 42.1836Z" fill="#E8F0F7"/>
<path d="M137.073 39.5734C137.74 39.5734 138.282 39.0321 138.282 38.3644C138.282 37.6967 137.74 37.1554 137.073 37.1554C136.405 37.1554 135.864 37.6967 135.864 38.3644C135.864 39.0321 136.405 39.5734 137.073 39.5734Z" fill="#E8F0F7"/>
<path d="M82.5714 112.434C85.4725 112.434 87.8243 110.083 87.8243 107.182C87.8243 104.281 85.4725 101.929 82.5714 101.929C79.6704 101.929 77.3186 104.281 77.3186 107.182C77.3186 110.083 79.6704 112.434 82.5714 112.434Z" fill="#E8F0F7"/>
<path d="M91.7869 112.917C92.5965 112.917 93.2527 112.261 93.2527 111.451C93.2527 110.642 92.5965 109.985 91.7869 109.985C90.9773 109.985 90.321 110.642 90.321 111.451C90.321 112.261 90.9773 112.917 91.7869 112.917Z" fill="#E8F0F7"/>
<path d="M13.9414 128.142H141.118" stroke="#0047AB" stroke-opacity="0.45" stroke-miterlimit="10" stroke-linecap="round" stroke-linejoin="round"/>
<path d="M142.14 128.141H145.459" stroke="#0047AB" stroke-opacity="0.45" stroke-miterlimit="10" stroke-linecap="round" stroke-linejoin="round"/>
<path d="M146.469 128.141H147.448" stroke="#0047AB" stroke-opacity="0.45" stroke-miterlimit="10" stroke-linecap="round" stroke-linejoin="round"/>
<path d="M12.586 128.141H9.26709" stroke="#0047AB" stroke-opacity="0.45" stroke-miterlimit="10" stroke-linecap="round" stroke-linejoin="round"/>
<path d="M8.25698 128.141H7.27808" stroke="#0047AB" stroke-opacity="0.45" stroke-miterlimit="10" stroke-linecap="round" stroke-linejoin="round"/>
<path d="M40.8146 36.7384C41.1365 36.7384 41.3975 36.4774 41.3975 36.1555C41.3975 35.8335 41.1365 35.5726 40.8146 35.5726C40.4927 35.5726 40.2317 35.8335 40.2317 36.1555C40.2317 36.4774 40.4927 36.7384 40.8146 36.7384Z" stroke="#5672B6" stroke-width="0.54" stroke-miterlimit="10" stroke-linecap="round" stroke-linejoin="round"/>
<path d="M81.9884 89.4549C82.3103 89.4549 82.5713 89.1939 82.5713 88.872C82.5713 88.5501 82.3103 88.2891 81.9884 88.2891C81.6665 88.2891 81.4055 88.5501 81.4055 88.872C81.4055 89.1939 81.6665 89.4549 81.9884 89.4549Z" stroke="#5672B6" stroke-width="3.536" stroke-miterlimit="10" stroke-linecap="round" stroke-linejoin="round"/>
<path d="M63.5987 36.1555C64.2426 36.1555 64.7646 35.6335 64.7646 34.9896C64.7646 34.3457 64.2426 33.8237 63.5987 33.8237C62.9548 33.8237 62.4329 34.3457 62.4329 34.9896C62.4329 35.6335 62.9548 36.1555 63.5987 36.1555Z" stroke="#5672B6" stroke-width="0.54" stroke-miterlimit="10" stroke-linecap="round" stroke-linejoin="round"/>
<path d="M28.7477 55.4826C29.4501 55.4826 30.0196 54.9132 30.0196 54.2108C30.0196 53.5083 29.4501 52.9389 28.7477 52.9389C28.0453 52.9389 27.4758 53.5083 27.4758 54.2108C27.4758 54.9132 28.0453 55.4826 28.7477 55.4826Z" stroke="#5672B6" stroke-width="0.54" stroke-miterlimit="10" stroke-linecap="round" stroke-linejoin="round"/>
<path d="M118.394 94.203C118.507 93.5097 118.036 92.8564 117.343 92.7439C116.649 92.6313 115.996 93.1022 115.883 93.7955C115.771 94.4889 116.242 95.1422 116.935 95.2547C117.628 95.3673 118.282 94.8964 118.394 94.203Z" stroke="#5672B6" stroke-width="0.54" stroke-miterlimit="10" stroke-linecap="round" stroke-linejoin="round"/>
<path d="M126.36 48.7968L125.525 47.9617" stroke="#5672B6" stroke-miterlimit="10" stroke-linecap="round" stroke-linejoin="round"/>
<path d="M124.278 46.7153L123.493 45.9299" stroke="#5672B6" stroke-miterlimit="10" stroke-linecap="round" stroke-linejoin="round"/>
<path d="M124.328 47.9617L123.493 48.7968" stroke="#5672B6" stroke-miterlimit="10" stroke-linecap="round" stroke-linejoin="round"/>
<path d="M126.36 45.9299L125.525 46.7651" stroke="#5672B6" stroke-miterlimit="10" stroke-linecap="round" stroke-linejoin="round"/>
<path d="M85.7136 30.3059L84.8784 29.4708" stroke="#5672B6" stroke-miterlimit="10" stroke-linecap="round" stroke-linejoin="round"/>
<path d="M83.6318 28.2243L82.8464 27.439" stroke="#5672B6" stroke-miterlimit="10" stroke-linecap="round" stroke-linejoin="round"/>
<path d="M83.6817 29.4708L82.8464 30.3059" stroke="#5672B6" stroke-miterlimit="10" stroke-linecap="round" stroke-linejoin="round"/>
<path d="M85.7136 27.439L84.8784 28.2742" stroke="#5672B6" stroke-miterlimit="10" stroke-linecap="round" stroke-linejoin="round"/>
<path d="M40.01 96.0807L39.1748 95.2455" stroke="#5672B6" stroke-width="0.54" stroke-miterlimit="10" stroke-linecap="round" stroke-linejoin="round"/>
<path d="M37.9284 93.9991L37.1431 93.2137" stroke="#5672B6" stroke-width="0.54" stroke-miterlimit="10" stroke-linecap="round" stroke-linejoin="round"/>
<path d="M37.9783 95.2455L37.1431 96.0807" stroke="#5672B6" stroke-width="0.54" stroke-miterlimit="10" stroke-linecap="round" stroke-linejoin="round"/>
<path d="M40.01 93.2137L39.1748 94.049" stroke="#5672B6" stroke-width="0.54" stroke-miterlimit="10" stroke-linecap="round" stroke-linejoin="round"/>
<path d="M137.656 62.2563C137.978 62.2563 138.239 61.9953 138.239 61.6734C138.239 61.3515 137.978 61.0905 137.656 61.0905C137.334 61.0905 137.073 61.3515 137.073 61.6734C137.073 61.9953 137.334 62.2563 137.656 62.2563Z" stroke="#5672B6" stroke-width="0.54" stroke-miterlimit="10" stroke-linecap="round" stroke-linejoin="round"/>
<path d="M105.479 31.9187C105.801 31.9187 106.062 31.6577 106.062 31.3358C106.062 31.0138 105.801 30.7529 105.479 30.7529C105.157 30.7529 104.896 31.0138 104.896 31.3358C104.896 31.6577 105.157 31.9187 105.479 31.9187Z" stroke="#5672B6" stroke-width="3.536" stroke-miterlimit="10" stroke-linecap="round" stroke-linejoin="round"/>
<path d="M114.951 84.7971H37.3042C36.4906 84.7971 35.8311 84.1375 35.8311 83.3239V42.2475C35.8311 41.4339 36.4906 40.7744 37.3042 40.7744H114.951C115.764 40.7744 116.424 41.4339 116.424 42.2475V83.3239C116.424 84.1375 115.764 84.7971 114.951 84.7971Z" fill="#E3E8FF"/>
<path d="M76.1276 62.7857H35.8311V42.6723C35.8311 41.4363 36.833 40.4344 38.069 40.4344H76.1275L76.1276 62.7857ZM114.186 84.6585H76.1275V62.8258H116.424V82.4205C116.424 83.6565 115.422 84.6585 114.186 84.6585Z" fill="#F0F3FF"/>
<path d="M114.951 85.0571H37.3049C36.1581 85.0571 35.2251 84.124 35.2251 82.9773V41.9008C35.2251 40.7541 36.1581 39.821 37.3049 39.821H114.951C116.098 39.821 117.031 40.7541 117.031 41.9008V82.9772C117.031 84.124 116.098 85.0571 114.951 85.0571ZM37.3049 41.0343C36.8271 41.0343 36.4383 41.423 36.4383 41.9008V82.9772C36.4383 83.455 36.8271 83.8438 37.3049 83.8438H114.951C115.429 83.8438 115.818 83.455 115.818 82.9772V41.9008C115.818 41.423 115.429 41.0343 114.951 41.0343H37.3049Z" fill="#0047AB"/>
<path d="M114.951 85.0571V83.8439C115.429 83.8439 115.817 83.4551 115.817 82.9773H117.031C117.031 84.124 116.098 85.0571 114.951 85.0571ZM117.031 41.9008H115.817C115.817 41.423 115.429 41.0343 114.951 41.0343V39.821C116.098 39.821 117.031 40.7541 117.031 41.9008ZM36.4376 41.9008H35.2244C35.2244 40.7541 36.1574 39.821 37.3042 39.821V41.0343C36.8264 41.0343 36.4376 41.423 36.4376 41.9008ZM37.3042 85.0571C36.1574 85.0571 35.2244 84.124 35.2244 82.9773H36.4377C36.4377 83.4551 36.8264 83.8439 37.3042 83.8439V85.0571Z" fill="#0047AB"/>
<path d="M40.0103 58.1627H40.054" stroke="#4C4D51" stroke-width="0.1" stroke-linecap="round" stroke-linejoin="round"/>
<path d="M40.4026 58.1627H69.0182" stroke="#4C4D51" stroke-width="0.1" stroke-linecap="round" stroke-linejoin="round" stroke-dasharray="1.12 4.47"/>
<path d="M69.1926 58.1627H69.2363" stroke="#4C4D51" stroke-width="0.1" stroke-linecap="round" stroke-linejoin="round"/>
<path d="M40.0103 53.7723H40.054" stroke="#4C4D51" stroke-width="0.1" stroke-linecap="round" stroke-linejoin="round"/>
<path d="M40.4026 53.7723H69.0182" stroke="#4C4D51" stroke-width="0.1" stroke-linecap="round" stroke-linejoin="round" stroke-dasharray="1.12 4.47"/>
<path d="M69.1926 53.7723H69.2363" stroke="#4C4D51" stroke-width="0.1" stroke-linecap="round" stroke-linejoin="round"/>
<path d="M40.0103 49.382H40.054" stroke="#4C4D51" stroke-width="0.1" stroke-linecap="round" stroke-linejoin="round"/>
<path d="M40.4026 49.382H69.0182" stroke="#4C4D51" stroke-width="0.1" stroke-linecap="round" stroke-linejoin="round" stroke-dasharray="1.12 4.47"/>
<path d="M69.1926 49.382H69.2363" stroke="#4C4D51" stroke-width="0.1" stroke-linecap="round" stroke-linejoin="round"/>
<path d="M40.0103 44.9916H40.054" stroke="#4C4D51" stroke-width="0.1" stroke-linecap="round" stroke-linejoin="round"/>
<path d="M40.4026 44.9916H69.0182" stroke="#4C4D51" stroke-width="0.1" stroke-linecap="round" stroke-linejoin="round" stroke-dasharray="1.12 4.47"/>
<path d="M69.1926 44.9916H69.2363" stroke="#4C4D51" stroke-width="0.1" stroke-linecap="round" stroke-linejoin="round"/>
<path d="M68.6251 43.4855V45.7149L67.8844 44.9743L59.8392 53.0515L58.0103 51.2226L52.0537 57.1792L49.0649 54.1904L42.0149 61.2101H40.387L49.0649 52.5664L52.0537 55.5551L58.0103 49.5986L59.8392 51.4274L67.0723 44.1624L66.3957 43.4855H68.6251Z" fill="#6495ED"/>
<path d="M70.1622 61.2101H40.0103V42.8829" stroke="#4C4D51" stroke-width="0.1" stroke-miterlimit="10"/>
<path d="M70.1621 61.7611V60.6591L70.7131 61.2101L70.1621 61.7611Z" fill="#4C4D51"/>
<path d="M40.5612 42.8829H39.4592L40.0102 42.332L40.5612 42.8829Z" fill="#4C4D51"/>
<path d="M80.1003 79.3583H80.144" stroke="#4C4D51" stroke-width="0.1" stroke-linecap="round" stroke-linejoin="round"/>
<path d="M80.4927 79.3583H109.108" stroke="#4C4D51" stroke-width="0.1" stroke-linecap="round" stroke-linejoin="round" stroke-dasharray="1.12 4.47"/>
<path d="M109.283 79.3583H109.326" stroke="#4C4D51" stroke-width="0.1" stroke-linecap="round" stroke-linejoin="round"/>
<path d="M80.1003 74.968H80.144" stroke="#4C4D51" stroke-width="0.1" stroke-linecap="round" stroke-linejoin="round"/>
<path d="M80.4927 74.968H109.108" stroke="#4C4D51" stroke-width="0.1" stroke-linecap="round" stroke-linejoin="round" stroke-dasharray="1.12 4.47"/>
<path d="M109.283 74.968H109.326" stroke="#4C4D51" stroke-width="0.1" stroke-linecap="round" stroke-linejoin="round"/>
<path d="M80.1003 70.5775H80.144" stroke="#4C4D51" stroke-width="0.1" stroke-linecap="round" stroke-linejoin="round"/>
<path d="M80.4927 70.5775H109.108" stroke="#4C4D51" stroke-width="0.1" stroke-linecap="round" stroke-linejoin="round" stroke-dasharray="1.12 4.47"/>
<path d="M109.283 70.5775H109.326" stroke="#4C4D51" stroke-width="0.1" stroke-linecap="round" stroke-linejoin="round"/>
<path d="M80.1003 66.1871H80.144" stroke="#4C4D51" stroke-width="0.1" stroke-linecap="round" stroke-linejoin="round"/>
<path d="M80.4927 66.1871H109.108" stroke="#4C4D51" stroke-width="0.1" stroke-linecap="round" stroke-linejoin="round" stroke-dasharray="1.12 4.47"/>
<path d="M109.283 66.1871H109.326" stroke="#4C4D51" stroke-width="0.1" stroke-linecap="round" stroke-linejoin="round"/>
<path d="M110.252 82.5356H79.9702V64.0785H80.2303V82.2757H110.252V82.5356Z" fill="#4C4D51"/>
<path d="M110.252 82.9566V81.8547L110.803 82.4057L110.252 82.9566Z" fill="#4C4D51"/>
<path d="M80.6512 64.0785H79.5493L80.1003 63.5275L80.6512 64.0785Z" fill="#4C4D51"/>
<path d="M107.519 66.7231L107.311 65.9722L106.56 66.18L106.92 66.3835L101.204 76.7019L93.0833 71.8611L88.7209 76.9757L85.0567 74.623L79.9917 82.3344L80.209 82.477L85.1327 74.9808L88.7713 77.317L93.1386 72.1967L101.302 77.0626L107.146 66.5117L107.519 66.7231Z" fill="#4C4D51"/>
<path d="M110.023 65.7956L110.022 65.0164L109.243 65.0176L109.541 65.3145L100.29 74.5329L90.2272 71.8802L85.421 78.7001H80.1003V78.9601H85.556L90.3357 72.1776L100.296 74.8032L100.368 74.8223L109.725 65.4981L109.713 65.4869L110.023 65.7956Z" fill="#6495ED"/>
<path d="M78.4001 58.4371H113.752" stroke="#4C4D51" stroke-width="0.1" stroke-miterlimit="10" stroke-linecap="round" stroke-linejoin="round" stroke-dasharray="1.11 4.44"/>
<path d="M83.3609 54.7459H80.1493C79.91 54.7459 79.7161 54.9399 79.7161 55.1792V61.2102H83.7941V55.1792C83.7941 54.9399 83.6002 54.7459 83.3609 54.7459Z" fill="#6495ED"/>
<path d="M78.4001 54.7459H113.752" stroke="#4C4D51" stroke-width="0.1" stroke-miterlimit="10" stroke-linecap="round" stroke-linejoin="round" stroke-dasharray="1.11 4.44"/>
<path d="M78.4001 51.0547H113.752" stroke="#4C4D51" stroke-width="0.1" stroke-miterlimit="10" stroke-linecap="round" stroke-linejoin="round" stroke-dasharray="1.11 4.44"/>
<path d="M78.4001 47.3635H113.752" stroke="#4C4D51" stroke-width="0.1" stroke-miterlimit="10" stroke-linecap="round" stroke-linejoin="round" stroke-dasharray="1.11 4.44"/>
<path d="M78.4001 43.6722H113.752" stroke="#4C4D51" stroke-width="0.1" stroke-miterlimit="10" stroke-linecap="round" stroke-linejoin="round" stroke-dasharray="1.11 4.44"/>
<path d="M90.3518 52.1461H87.1403C86.901 52.1461 86.707 52.3401 86.707 52.5794V61.2102H90.7851V52.5794C90.7851 52.3401 90.5911 52.1461 90.3518 52.1461ZM97.3428 50.4129H94.1313C93.892 50.4129 93.698 50.6069 93.698 50.8462V61.2102H97.7761V50.8462C97.7761 50.6069 97.5821 50.4129 97.3428 50.4129ZM104.334 47.8132H101.122C100.883 47.8132 100.689 48.0072 100.689 48.2465V61.2102H104.767V48.2465C104.767 48.0072 104.573 47.8132 104.334 47.8132ZM111.325 46.08H108.113C107.874 46.08 107.68 46.2739 107.68 46.5132V61.2102H111.758V46.5132C111.758 46.2739 111.564 46.08 111.325 46.08Z" fill="#6495ED"/>
<path d="M113.752 61.0369H78.4001" stroke="#4C4D51" stroke-width="0.1" stroke-miterlimit="10"/>
<path d="M60.1743 79.1436C63.2406 76.0773 63.2405 71.1058 60.1741 68.0395C57.1078 64.9733 52.1363 64.9733 49.07 68.0397C46.0038 71.1061 46.0038 76.0776 49.0702 79.1438C52.1366 82.2101 57.1081 82.21 60.1743 79.1436Z" fill="#D0D0D0"/>
<path d="M59.7412 78.7106C62.5684 75.8834 62.5683 71.2997 59.7411 68.4726C56.9138 65.6454 52.3301 65.6455 49.503 68.4727C46.6759 71.2999 46.6759 75.8837 49.5032 78.7108C52.3304 81.5379 56.9141 81.5378 59.7412 78.7106Z" fill="white"/>
<path d="M54.623 73.5918L59.7385 78.344C58.4181 79.7654 56.5631 80.5741 54.623 80.5741C51.9866 80.5741 49.566 79.081 48.3831 76.7248L54.623 73.5918Z" fill="#F0F0F0"/>
<path d="M54.623 73.5918L57.9689 67.4634C60.2076 68.6856 61.6054 71.0412 61.6054 73.5918C61.6054 75.3493 60.9418 77.0435 59.7484 78.3335L54.623 73.5918Z" fill="#0047AB"/>
<path d="M54.6231 73.5918L48.415 76.7874C47.9063 75.799 47.6409 74.7034 47.6409 73.5918C47.6409 69.7615 50.7928 66.6096 54.6231 66.6096C55.8234 66.6096 57.0036 66.9191 58.0494 67.508L54.6231 73.5918Z" fill="#6495ED"/>
<path opacity="0.31" d="M92.2899 114.335L83.702 110.177L74.0103 121.735L72.383 119.425L74.4085 103.888L66.3858 79.7404L48 86.2496L52.8971 98.5776L68.6352 136.464L72.106 145.049L72.5081 142.556L76.3431 127.933L81.703 121.982L91.2733 121.246L76.0321 110.697L92.2899 114.335Z" fill="white"/>
<path d="M77.4848 68.869C83.1705 68.869 87.7797 64.4212 87.7797 58.9345C87.7797 53.4478 83.1705 49 77.4848 49C71.7991 49 67.1899 53.4478 67.1899 58.9345C67.1899 64.4212 71.7991 68.869 77.4848 68.869Z" fill="#0047AB"/>
<path d="M104.655 128.715L98.3926 131.86C96.5719 128.396 92.7104 126.101 88.3368 126.45C83.2197 126.86 79.1381 130.976 78.9257 135.926C78.8461 137.773 79.2861 139.518 80.1282 141.028L79.7033 141.24L76.3577 142.917L72.1093 145.049C69.9168 140.099 68.0619 135.129 66.4953 130.225C66.2411 129.44 65.9946 128.647 65.7594 127.862V127.854C65.5849 127.277 65.4104 126.686 65.2776 126.227C65.1449 125.771 65.0538 125.457 65.0538 125.457C62.243 115.651 60.5247 106.248 59.4929 97.9974L59.5005 98.1567C58.1274 89.1022 58.0591 79.2436 58.0591 79.2436C58.0136 77.6049 58.0022 76.1218 58.0022 74.8131C58.0022 74.0203 58.0022 73.2882 58.0174 72.6282C58.0591 70.0033 58.1539 68.4518 58.1653 68.2318V68.2053L63.6503 68.9487L66.4194 69.4115C66.4004 69.6543 66.3891 69.9008 66.3891 70.1474C66.3891 75.6362 70.9978 80.0819 76.6801 80.0819C81.4217 80.0819 85.4084 76.9942 86.6032 72.7875L89.562 73.2806L94.0759 74.0734V74.0924C94.0645 74.2479 93.9432 76.4631 93.9583 80.025C93.9583 80.025 94.2201 90.0695 94.6449 93.9462C95.1798 99.4426 96.0826 105.531 97.6112 111.482C97.6188 111.501 97.6226 111.516 97.6264 111.535C98.203 113.876 98.2826 113.948 98.2864 113.948C99.8189 119.247 101.882 124.345 104.659 128.711L104.655 128.715Z" fill="#6495ED"/>
</svg>
