<svg width="152" height="108" viewBox="0 0 152 108" fill="none" xmlns="http://www.w3.org/2000/svg">
<path opacity="0.31" d="M45.2084 77.2287L36.6045 73.0636L26.8948 84.6431L25.2645 82.3287L27.2938 66.7627L19.2562 42.57L0.836182 49.0913L5.74236 61.4423L21.5098 99.3996L24.987 108L25.3899 105.503L29.232 90.8527L34.6018 84.8901L44.1899 84.1528L28.9204 73.5842L45.2084 77.2287Z" fill="white"/>
<path d="M30.3758 31.6784C36.072 31.6784 40.6898 27.2223 40.6898 21.7254C40.6898 16.2286 36.072 11.7725 30.3758 11.7725C24.6795 11.7725 20.0618 16.2286 20.0618 21.7254C20.0618 27.2223 24.6795 31.6784 30.3758 31.6784Z" fill="#0047AB"/>
<path d="M57.597 91.6358L51.3227 94.7863C49.4986 91.3166 45.6299 89.0174 41.2481 89.3671C36.1215 89.7775 32.0324 93.9008 31.8196 98.8602C31.7398 100.711 32.1806 102.459 33.0243 103.972L32.5987 104.184L29.2468 105.864L24.9905 108C22.7939 103.041 20.9356 98.0621 19.366 93.1483C19.1114 92.3617 18.8644 91.5674 18.6288 90.7808V90.7732C18.454 90.1955 18.2791 89.6027 18.1461 89.1428C18.0131 88.6868 17.9219 88.3714 17.9219 88.3714C15.1059 78.5476 13.3844 69.1267 12.3507 60.8611L12.3583 61.0207C10.9826 51.9494 10.9142 42.0724 10.9142 42.0724C10.8686 40.4307 10.8572 38.9448 10.8572 37.6337C10.8572 36.8394 10.8572 36.1059 10.8724 35.4447C10.9142 32.8149 11.0092 31.2606 11.0206 31.0402V31.0135L16.5158 31.7584L19.29 32.222C19.271 32.4653 19.2596 32.7123 19.2596 32.9593C19.2596 38.4583 23.877 42.9123 29.5698 42.9123C34.3202 42.9123 38.3143 39.8188 39.5114 35.6043L42.4756 36.0983L46.998 36.8926V36.9116C46.9866 37.0674 46.865 39.2868 46.8802 42.8553C46.8802 42.8553 47.1424 52.9184 47.568 56.8023C48.1039 62.309 49.0083 68.4084 50.5398 74.3711C50.5474 74.3901 50.5512 74.4053 50.555 74.4243C51.1327 76.7691 51.2125 76.8413 51.2163 76.8413C52.7516 82.1503 54.819 87.2579 57.6008 91.632L57.597 91.6358Z" fill="#6495ED"/>
<path opacity="0.31" d="M107.409 65.4562L116.013 61.2911L125.722 72.8706L127.353 70.5562L125.323 54.9902L133.361 30.7975L151.781 37.3189L146.875 49.6698L131.107 87.6271L127.63 96.2272L127.227 93.7304L123.385 79.0803L118.015 73.1176L108.427 72.3804L123.697 61.8117L107.409 65.4562Z" fill="white"/>
<path d="M122.242 19.9059C116.545 19.9059 111.928 15.4498 111.928 9.95297C111.928 4.4561 116.545 0 122.242 0C127.938 0 132.556 4.4561 132.556 9.95297C132.556 15.4498 127.938 19.9059 122.242 19.9059Z" fill="#0047AB"/>
<path d="M95.0204 79.8633L101.295 83.0138C103.119 79.5441 106.988 77.2449 111.369 77.5945C116.496 78.005 120.585 82.1283 120.798 87.0877C120.878 88.9384 120.437 90.6865 119.593 92.1991L120.019 92.4119L123.371 94.0916L127.627 96.2274C129.824 91.268 131.682 86.2896 133.251 81.3758C133.506 80.5892 133.753 79.7949 133.989 79.0082V79.0006C134.163 78.423 134.338 77.8302 134.471 77.3703C134.604 76.9143 134.696 76.5989 134.696 76.5989C137.512 66.7751 139.233 57.3542 140.267 49.0885L140.259 49.2481C141.635 40.1768 141.703 30.2999 141.703 30.2999C141.749 28.6582 141.76 27.1722 141.76 25.8611C141.76 25.0669 141.76 24.3334 141.745 23.6722C141.703 21.0424 141.608 19.488 141.597 19.2676V19.241L136.102 19.9859L133.327 20.4495C133.346 20.6927 133.358 20.9398 133.358 21.1868C133.358 26.6858 128.74 31.1397 123.048 31.1397C118.297 31.1397 114.303 28.0463 113.106 23.8318L110.142 24.3258L105.619 25.1201V25.1391C105.631 25.2949 105.752 27.5143 105.737 31.0827C105.737 31.0827 105.475 41.1459 105.049 45.0298C104.514 50.5364 103.609 56.6359 102.078 62.5986C102.07 62.6176 102.066 62.6328 102.062 62.6518C101.485 64.9966 101.405 65.0688 101.401 65.0688C99.8658 70.3778 97.7985 75.4854 95.0166 79.8595L95.0204 79.8633Z" fill="#6495ED"/>
<path d="M14.1408 72.0736C14.1408 72.0736 14.1408 72.0736 14.1382 72.0786C11.4898 73.8612 10.3471 77.0912 10.0347 80.1535L10.0373 80.1561C9.79606 82.5354 9.98143 84.9477 10.4385 87.2889L10.436 87.2914C10.4817 87.5047 10.5274 87.718 10.5731 87.9237C8.22679 88.9496 5.27361 89.5666 2.93748 88.7007C-0.460074 81.2124 5.77638 71.7841 14.1306 72.0786L14.1408 72.0736Z" fill="#0047AB"/>
<path d="M14.1938 72.038C14.176 72.0481 14.1608 72.0608 14.1456 72.0761C14.1405 72.0761 14.1405 72.0761 14.1405 72.0761C14.1583 72.0634 14.176 72.0481 14.1938 72.038ZM14.1303 72.0786C14.1329 72.0786 14.143 72.0659 14.1379 72.0786C11.4895 73.8612 10.3468 77.0911 10.0345 80.1535L10.037 80.156C9.79832 82.5328 9.97861 84.9502 10.4382 87.2888L10.4357 87.2914C10.4788 87.5072 10.5246 87.7154 10.5728 87.9237C9.32602 88.4747 8.00305 88.8581 6.73341 89.0206C4.19668 79.9046 5.61613 71.7536 14.1303 72.0786Z" fill="#6495ED"/>
<path d="M14.1458 72.0736C14.1408 72.0736 14.1408 72.0736 14.1408 72.0736C14.1763 72.0508 14.2144 72.0229 14.2499 72C14.2144 72.0203 14.1788 72.0457 14.1458 72.0736ZM18.5718 72.9472C13.8462 75.0014 12.9143 80.2399 14.8162 84.9021C13.4983 86.3215 12.2642 87.1798 10.5756 87.9213C10.5274 87.7181 10.4842 87.4921 10.4385 87.289L10.441 87.2864C9.97888 84.9503 9.79859 82.5355 10.0373 80.1562L10.0347 80.1536C10.3369 77.0938 11.505 73.8461 14.1382 72.0787C15.6592 72.0863 17.1625 72.386 18.5718 72.9472Z" fill="white"/>
<path d="M3.96831 90.6661C3.95308 90.6635 3.93784 90.6559 3.92261 90.6458C3.93784 90.6483 3.95054 90.6584 3.96577 90.661C3.96831 90.6661 3.96831 90.6661 3.96831 90.6661Z" fill="#6495ED"/>
<path d="M22.7843 92.3929C17.7947 98.1164 7.88134 97.0956 3.96831 90.6687C9.07479 92.9617 14.6967 89.7216 18.5539 86.4078C20.5066 87.8705 22.4314 90.0492 22.7843 92.3929ZM3.96831 90.6662C3.95308 90.6637 3.93784 90.656 3.92261 90.6459C3.93784 90.6484 3.95054 90.6586 3.96577 90.6611C3.96831 90.6662 3.96831 90.6662 3.96831 90.6662Z" fill="#0047AB"/>
<path d="M21.2586 89.0588C15.6011 94.729 8.20416 97.9311 3.97119 90.6687C9.07767 92.9617 14.6996 89.7216 18.5568 86.4078C19.5877 87.1772 20.5273 88.0888 21.2586 89.0588Z" fill="#6495ED"/>
<path d="M18.1857 86.5017C17.9851 86.6617 17.7769 86.8217 17.5687 86.9842C17.4671 87.0655 17.3605 87.1391 17.2538 87.2203C16.9237 87.4641 16.5911 87.7003 16.2381 87.9288C16.1594 87.9796 16.0857 88.0278 16.0121 88.0786C15.715 88.2716 15.4027 88.4595 15.0878 88.6449C14.6206 88.9166 14.1406 89.1807 13.6455 89.4168C13.4449 89.5184 13.2417 89.6098 13.0386 89.7063C12.8304 89.7952 12.6222 89.8866 12.4165 89.9678C12.3987 89.978 12.3835 89.9882 12.3657 89.9932C12.2108 90.0567 12.0534 90.1202 11.901 90.1761C11.4363 90.3513 10.9666 90.5011 10.4866 90.623C10.3343 90.6661 10.1743 90.7042 10.0143 90.7449C9.69692 90.821 9.37697 90.8845 9.0621 90.9353C8.90213 90.9607 8.74215 90.9785 8.58472 90.9988C8.49584 91.0089 8.40697 91.0216 8.3181 91.0242C8.1505 91.0369 7.98545 91.0521 7.81277 91.0623C7.64264 91.0673 7.4649 91.0724 7.29477 91.0699C7.20589 91.0673 7.12717 91.0648 7.0383 91.0648C6.9799 91.0623 6.92404 91.0623 6.86817 91.0572C6.78184 91.0547 6.6955 91.047 6.60916 91.0394C6.43395 91.0242 6.26382 91.0039 6.09369 90.9836C5.92102 90.9607 5.75088 90.9302 5.58329 90.8947C5.46648 90.8718 5.35476 90.8439 5.23795 90.816C5.16685 90.8007 5.09575 90.7804 5.02973 90.7601C4.98148 90.7474 4.93324 90.7372 4.88499 90.7195C4.80373 90.6966 4.71994 90.6712 4.63615 90.6433C4.58282 90.6204 4.52188 90.6027 4.46855 90.5849H4.46348C4.39238 90.557 4.32635 90.5341 4.25525 90.5062C4.18923 90.4782 4.12067 90.4528 4.04957 90.4198C3.98101 90.3894 3.90991 90.3614 3.84389 90.331C3.80327 90.3132 3.76518 90.2954 3.72455 90.2776C3.72201 90.2751 3.72201 90.2751 3.72201 90.2726C3.42237 89.7647 3.16082 89.2416 2.94245 88.7109L2.93991 88.7084C2.63266 87.9567 2.36095 87.2457 2.21368 86.4687C2.19082 86.3367 2.15274 86.1615 2.12988 86.032C2.8485 86.5881 3.95054 87.2203 5.23541 87.5479C5.51219 87.6216 5.78897 87.6749 6.06068 87.7079C6.1724 87.7206 6.28414 87.7333 6.39079 87.7409C7.63503 87.8425 8.8615 87.5835 10.0397 87.0451L10.0448 87.0426C10.1514 86.9918 10.2556 86.9436 10.3597 86.8852C11.5531 86.2834 12.6857 85.3971 13.7394 84.2824C13.7445 84.2748 13.7547 84.2646 13.7648 84.2545C13.7801 84.2367 13.7978 84.2189 13.8156 84.1986C13.968 84.2443 14.1153 84.29 14.2625 84.3408C14.2981 84.3535 14.3387 84.3662 14.3768 84.3814L14.3793 84.384C14.4758 84.4144 14.5698 84.4449 14.6637 84.4779C14.7272 84.4982 14.7882 84.5262 14.8516 84.549C15.3646 84.7395 15.8318 84.9553 16.2584 85.1788C16.9262 85.552 17.5738 86.0015 18.1857 86.5017Z" fill="#DDDDEB"/>
<path d="M18.5513 86.4026C14.6992 89.724 9.07724 92.9616 3.96822 90.6686L3.96568 90.6661C3.12518 89.3736 2.4802 87.8881 2.1958 86.3899C6.10375 89.526 10.9766 88.1395 14.0847 84.2823C14.2726 84.3357 14.4681 84.3814 14.6535 84.4423L14.656 84.4449C16.1161 84.8384 17.3527 85.5063 18.5513 86.4026Z" fill="white"/>
<path d="M17.9545 86.9131C17.8682 86.9893 17.7692 87.063 17.6752 87.1442C15.8596 84.5872 13.8765 84.5161 13.8765 84.5161C13.9222 84.4678 13.9653 84.4196 14.0085 84.3662C14.0136 84.3586 14.0237 84.3485 14.0339 84.3383C14.0491 84.3205 14.0644 84.3002 14.0821 84.2799C14.1405 84.2951 14.2015 84.3129 14.2599 84.3282C14.3919 84.3612 14.5214 84.3967 14.6484 84.4373L14.6509 84.4399C14.8236 84.483 14.976 84.5313 15.1309 84.5846C15.6514 84.7548 16.1263 84.9477 16.5656 85.1534C17.2486 85.5064 17.9165 85.9254 18.5487 86.3977C18.3558 86.5729 18.1577 86.743 17.9545 86.9131Z" fill="#DDDDEB"/>
<path d="M22.7845 92.3929C22.7616 92.4437 22.7388 92.4919 22.7108 92.5402C21.9871 93.2842 21.1542 93.9419 20.2198 94.4954C19.9252 94.6706 19.6256 94.8306 19.3209 94.9779C19.199 95.0388 19.0771 95.0922 18.9527 95.1506C19.4733 93.3477 19.5317 91.9689 19.3336 90.8287C19.1279 89.6378 18.6429 88.7059 18.1147 87.8146C17.9725 87.5734 17.8253 87.355 17.678 87.1468C17.7745 87.0731 17.8659 86.9944 17.9573 86.9182C18.1655 86.7506 18.3636 86.578 18.554 86.4078C19.5875 87.1798 20.527 88.0914 21.2584 89.0588C22.0684 90.133 22.6296 91.2807 22.7845 92.3929Z" fill="#DDDDEB"/>
<path d="M24.4552 77.9925C27.2307 82.6953 26.479 88.5432 22.8504 92.3953C23.6757 88.0963 20.9409 84.1325 17.9039 81.3596C17.6348 81.1082 16.1366 80.3033 15.8547 80.0747C15.1513 79.4882 14.4302 78.9625 13.6887 78.4674C14.5597 76.182 15.9614 73.9982 18.008 72.7388C18.201 72.8048 18.3813 72.8708 18.5717 72.947L18.5743 72.9495C20.9536 73.9018 23.0485 75.6158 24.4552 77.9925Z" fill="#0047AB"/>
<path d="M25.5776 87.7409C25.0393 89.4524 24.1175 91.0648 22.8504 92.3954C23.6757 88.0964 20.9409 84.1326 17.9039 81.3597C17.6348 81.1083 16.1366 80.3033 15.8547 80.0748C15.1513 79.4882 14.4302 78.9626 13.6887 78.4675C14.1661 77.2207 14.7984 76.0297 15.5424 75.0267C21.7077 78.47 25.6538 83.6857 25.5776 87.7409Z" fill="#6495ED"/>
<path d="M21.3549 84.841C23.3102 88.5255 23.2645 90.9683 22.9851 92.2532C21.9694 93.3603 20.7049 94.3125 19.321 94.9778C20.9461 91.0622 18.8258 86.5017 15.1337 84.5871C8.32845 82.7486 13.6508 78.4827 13.6863 78.47C15.9742 78.9194 19.5216 81.6999 21.3549 84.841Z" fill="white"/>
<path d="M18.4496 72.899C17.7792 73.3052 16.7838 74.0442 15.9129 75.2427C15.5929 75.6769 15.2907 76.1721 15.0266 76.7383C14.7397 77.3579 14.5036 77.9826 14.3157 78.5996C14.2903 78.6809 14.2623 78.7647 14.2395 78.8434C13.5564 81.2176 13.5742 83.3887 13.9678 84.2825C12.3858 82.6092 13.6859 78.4676 13.6859 78.4676C13.6885 78.4651 13.691 78.4676 13.6935 78.4676C13.691 78.4651 13.6885 78.4676 13.6859 78.4625C14.1633 77.2157 14.7956 76.0248 15.5396 75.0218C16.2049 74.1229 17.1292 73.2773 18.0052 72.7365C18.1601 72.7898 18.3023 72.8406 18.4496 72.899Z" fill="#DDDDEB"/>
<path d="M10.7359 82.1498C12.7538 79.206 13.0282 75.8862 11.3486 74.7349C9.66904 73.5835 6.6716 75.0367 4.65362 77.9806C2.63565 80.9244 2.36131 84.2442 4.04088 85.3956C5.72045 86.5469 8.7179 85.0937 10.7359 82.1498Z" fill="#0047AB"/>
<path d="M24.0822 77.4213V77.4188C23.9679 77.2512 23.8562 77.0938 23.7343 76.9313C22.9497 75.8775 21.9924 74.9557 20.9081 74.2066C20.9056 74.2066 20.9005 74.2015 20.9005 74.2015C28.2821 83.0128 16.9164 97.4664 4.66943 91.654C6.51549 93.9622 9.19442 95.5873 12.2923 96.0469C12.625 96.0977 12.9652 96.1333 13.308 96.1536C14.3923 96.2221 15.4512 96.1485 16.4694 95.9403C16.5355 95.9301 16.5989 95.9174 16.665 95.8996C16.731 95.8869 16.7919 95.8717 16.858 95.859C18.5872 95.4502 20.1819 94.663 21.5404 93.5889C24.1304 91.5473 25.8749 88.4545 26.1035 84.902C26.2787 82.1469 25.5118 79.5492 24.0822 77.4213Z" fill="#DDDDEB"/>
<path d="M62.4477 102.813C67.4322 102.813 71.4728 98.7724 71.4728 93.7879C71.4728 88.8035 67.4322 84.7628 62.4477 84.7628C57.4633 84.7628 53.4226 88.8035 53.4226 93.7879C53.4226 98.7724 57.4633 102.813 62.4477 102.813Z" fill="white"/>
<path d="M67.6419 88.2177L65.1397 90.9042L65.0618 90.9873L65.054 90.9977H65.0488L64.9424 90.9717L61.4279 90.1074L61.3162 90.0814L61.2877 90.0736H61.2851L61.254 89.9646L60.2754 86.4111L60.2806 86.4059L60.361 86.3203L61.7861 84.7888C63.6731 84.6487 65.4927 85.1081 67.0319 86.0244L67.6029 88.1061L67.6419 88.2177ZM70.4763 97.9021C69.6769 99.4647 68.4258 100.781 66.8684 101.658L64.6024 101.103L64.4933 101.074H64.483L63.5096 97.5361L63.4784 97.4245L63.4758 97.4115L63.5459 97.3363L65.9729 94.7354L66.0533 94.6472L66.0663 94.6368H66.0689L66.1805 94.6627L69.8326 95.5608L69.8352 95.5712L69.8664 95.6854L70.4763 97.9021Z" fill="#0047AB"/>
<path d="M64.6021 101.103L63.6001 97.4505L63.569 97.3415L63.5482 97.3363L63.4548 97.313L59.8001 96.4175L59.7508 96.4045L59.6963 96.3889H59.6937L59.6132 96.4668V96.472L59.6106 96.4772L57.0617 99.2104L57.0305 99.2493L57.0383 99.2987L57.6197 101.414C57.7028 101.463 57.7807 101.515 57.8663 101.562L57.246 99.3064L59.7534 96.6121L59.7586 96.6095L63.4107 97.5076V97.5128L64.3866 101.059L62.754 102.808C62.85 102.805 62.946 102.8 63.0421 102.792L64.6073 101.113L64.6021 101.103Z" fill="#0047AB"/>
<path d="M66.183 94.6601L66.1622 94.5771L65.1785 91.0081L65.1499 90.9042H65.1421L65.0279 90.8757L61.407 89.988L61.2668 89.9542L61.2564 89.9646L61.2071 90.0191L58.6738 92.7368L58.6011 92.8172L58.6322 92.934L59.6082 96.4797L59.6393 96.5887L59.6497 96.5913L59.7535 96.6147L63.4108 97.5128L63.5147 97.5387H63.5224L63.6029 97.4505L66.1051 94.7666L66.1882 94.6757L66.183 94.6601ZM63.455 97.3155L59.8029 96.4174V96.4148L58.8321 92.8951L58.8243 92.8665L61.3343 90.1723L61.3629 90.18L64.9656 91.0678L64.9838 91.0704L65.9598 94.6212L65.9468 94.6342L63.4524 97.3129L63.455 97.3155Z" fill="#0047AB"/>
<path d="M59.7273 96.5005V96.5057L59.6495 96.5913L57.1395 99.2856L57.1369 99.283L57.0304 99.2571L54.8942 98.7328C54.2349 97.7282 53.7677 96.5758 53.5523 95.3169C53.451 94.7277 53.4095 94.1385 53.4225 93.5622L54.889 91.9918L54.9539 91.9218L54.9695 91.9269L58.5982 92.8173L58.7098 92.8432L58.715 92.8458V92.851L58.7462 92.9626L59.691 96.3915L59.7273 96.5005Z" fill="#0047AB"/>
<path d="M61.4094 89.9854L60.4023 86.3281L60.3685 86.3203L58.2479 85.7986C58.1622 85.8427 58.0739 85.892 57.9883 85.9413L60.2413 86.4942L61.2121 90.0165L61.2199 90.0451L58.7099 92.7394L58.6813 92.7316L55.0604 91.8413L54.4478 89.6194C54.4037 89.7076 54.3596 89.7959 54.3154 89.8868L54.8839 91.9477L54.8969 91.9892L54.9046 92.01L58.6398 92.9289L58.7021 92.9444L58.7566 92.9574L58.7748 92.9626L58.8371 92.8951L61.3678 90.1801L61.3964 90.1515L61.4379 90.1048L61.4457 90.097L61.4094 89.9854ZM69.7908 95.47L66.162 94.5797L66.1439 94.5771L65.1653 91.0237L65.1783 91.0107L67.6727 88.3294L70.0399 88.9108C69.9854 88.8277 69.9309 88.7447 69.8738 88.6642L67.6701 88.1243L67.613 88.1061H67.6104L65.0303 90.8783L64.9888 90.9224L64.9473 90.9691L64.955 91.0185L64.968 91.0704L65.9492 94.6394L65.9596 94.6757L65.9751 94.738V94.7406L66.1023 94.7718L69.8582 95.6958L69.866 95.688L71.4676 93.9645C71.4728 93.8685 71.4702 93.7698 71.4702 93.6712L69.7908 95.47Z" fill="#0047AB"/>
<path d="M71.3407 92.2618C71.0578 90.6188 70.3466 89.1574 69.3421 87.9686C69.5212 92.8511 68.6075 102.086 59.1411 102.188C60.6258 102.774 62.2845 102.972 63.9716 102.683C68.8852 101.84 72.1843 97.1754 71.3407 92.2618Z" fill="#EBF2FC"/>
<path d="M61.4166 9.73606C56.4489 8.22854 50.8388 12.2283 48.8862 18.6657C46.9335 25.1031 49.3775 31.5447 54.3451 33.0522C59.3128 34.5598 64.923 30.56 66.8756 24.1226C68.8283 17.6831 66.3843 11.2415 61.4166 9.73606ZM54.5635 32.3342C49.9989 30.9505 47.7755 24.9162 49.6042 18.8841C51.433 12.8519 56.6358 9.07049 61.1983 10.4541C65.7628 11.8378 67.9863 17.8721 66.1576 23.9042C64.3288 29.9364 59.128 33.7178 54.5635 32.3342Z" fill="#6495ED"/>
<path d="M49.6032 18.8842C49.8824 17.9625 50.2415 17.0954 50.6635 16.2891L49.9328 16.0687C49.5171 16.8791 49.1644 17.7484 48.8851 18.668C48.1419 21.1203 48.0369 23.5748 48.4652 25.7542L49.2841 26.0019C48.7843 23.8435 48.8515 21.3639 49.6032 18.8842ZM66.1586 23.9044C65.407 26.384 64.0842 28.4837 62.4717 29.9996L63.2905 30.2473C64.859 28.6726 66.1334 26.5751 66.8767 24.1207C67.1559 23.201 67.3449 22.2814 67.4499 21.3765L66.7192 21.156C66.6205 22.061 66.4379 22.9827 66.1586 23.9044Z" fill="#0047AB"/>
<path d="M48.8127 27.1041C48.8127 27.1041 52.0084 37.3229 50.82 41.4424L51.7186 41.7153L52.6172 41.9883C53.9169 37.9045 62.2502 31.1816 62.2502 31.1816C56.0669 34.184 51.5107 33.0124 48.8127 27.1041ZM53.0938 38.2804C52.9028 38.5302 52.5039 38.4105 52.485 38.0956C52.4031 36.7833 52.1973 35.2674 51.8656 33.5583C51.811 33.277 52.1091 33.0565 52.3611 33.193C53.4739 33.7956 54.6623 34.1567 55.922 34.2722C56.2076 34.2995 56.3335 34.6459 56.132 34.8496C54.9037 36.0884 53.8917 37.2326 53.0938 38.2804Z" fill="#6495ED"/>
<path d="M52.8083 41.1819L51.1097 40.6675C49.3292 44.3692 48.1513 48.2009 47.6201 52.1713L49.3187 52.6857C51.0845 49.0891 52.2309 45.2489 52.8083 41.1819Z" fill="#6495ED"/>
<path d="M49.7823 52.3434L47.6659 51.7009C47.4748 51.6421 47.2732 51.7513 47.2145 51.9424L47.1578 52.1313C47.099 52.3224 47.2082 52.524 47.3992 52.5828L49.5156 53.2252C49.7067 53.284 49.9083 53.1749 49.9671 52.9838L50.0237 52.7948C50.0804 52.6038 49.9734 52.4022 49.7823 52.3434Z" fill="#0047AB"/>
<path d="M64.9452 26.7826C64.9641 26.749 64.9809 26.7154 64.9998 26.6819L64.3594 26.4887L64.7688 25.1365L65.6171 25.3948C65.6318 25.3591 65.6465 25.3255 65.6611 25.2898L64.8003 25.0295L65.2097 23.6773L66.1378 23.9587C66.1441 23.9398 66.1483 23.923 66.1546 23.9041C66.1609 23.8852 66.1651 23.8684 66.1714 23.8495L65.2433 23.5681L65.6527 22.216L66.5136 22.4763C66.522 22.4385 66.5283 22.4028 66.5346 22.3651L65.6863 22.1068L66.0958 20.7547L66.7361 20.9478C66.7403 20.91 66.7445 20.8722 66.7466 20.8344L66.1294 20.6476L66.5388 19.2954L66.7928 19.3731C66.7928 19.3332 66.7907 19.2933 66.7907 19.2555L66.5724 19.1904L66.7529 18.5921C66.7445 18.4934 66.7361 18.3926 66.7256 18.2939L66.4632 19.1568L65.111 18.7474L65.5205 17.3953L66.6543 17.7396C66.648 17.6976 66.6417 17.6577 66.6354 17.6157L65.552 17.2882L65.9614 15.936L66.27 16.0305C66.2574 15.9864 66.2448 15.9444 66.2301 15.9004L65.9929 15.829L66.0937 15.4993C66.0727 15.4405 66.0517 15.3839 66.0286 15.3251L65.8858 15.7954L64.5336 15.386L64.9431 14.0338L65.5247 14.2102C65.4995 14.164 65.4743 14.1157 65.4491 14.0695L64.9767 13.9267L65.1068 13.4984C65.0796 13.4585 65.0544 13.4165 65.0271 13.3766L64.8696 13.8931L63.5174 13.4837L63.9269 12.1316L64.0255 12.1609C63.9668 12.1022 63.908 12.0455 63.8471 11.9888L62.5012 11.5815L62.6503 11.0922C62.6167 11.0733 62.5831 11.0524 62.5495 11.0335L62.3942 11.5479L61.042 11.1384L61.2457 10.4666C61.2268 10.4603 61.21 10.454 61.1911 10.4498C61.1722 10.4435 61.1554 10.4393 61.1365 10.4351L60.9328 11.1069L59.5807 10.6975L59.736 10.1831C59.6982 10.181 59.6584 10.1789 59.6206 10.1768L59.4715 10.666L58.1256 10.2587C58.0438 10.2713 57.964 10.286 57.8821 10.3028L57.9808 10.3322L57.5713 11.6843L56.2192 11.2749L56.3767 10.7563C56.3326 10.7752 56.2864 10.7941 56.2423 10.813L56.1121 11.2413L55.6397 11.0985C55.5935 11.1237 55.5452 11.1489 55.499 11.1741L56.0806 11.3505L55.6712 12.7026L54.3191 12.2932L54.4618 11.8229C54.4114 11.8586 54.361 11.8943 54.3107 11.9321L54.2099 12.2617L53.9726 12.1903C53.9369 12.2176 53.9033 12.247 53.8676 12.2764L54.1763 12.3709L53.7669 13.7231L52.6835 13.3955C52.6562 13.4249 52.6268 13.4564 52.5995 13.4879L53.7333 13.8322L53.3238 15.1844L51.9717 14.775L52.2341 13.912C52.1712 13.9876 52.1082 14.0653 52.0473 14.143L51.8667 14.7414L51.6483 14.6763C51.6252 14.7078 51.6022 14.7414 51.5791 14.7729L51.8331 14.8506L51.4237 16.2027L50.8064 16.0158C50.7875 16.0494 50.7707 16.083 50.7518 16.1166L51.3922 16.3098L50.9828 17.6619L50.1345 17.4037C50.1198 17.4394 50.1051 17.473 50.0904 17.5087L50.9513 17.769L50.5419 19.1212L49.6138 18.8398C49.6075 18.8587 49.6033 18.8755 49.597 18.8944C49.5907 18.9133 49.5865 18.9301 49.5802 18.949L50.5083 19.2303L50.0988 20.5825L49.238 20.3221C49.2296 20.3599 49.2233 20.3956 49.217 20.4334L50.0652 20.6917L49.6558 22.0438L49.0154 21.8506C49.0112 21.8884 49.0091 21.9262 49.0049 21.964L49.6222 22.1509L49.2128 23.503L48.9587 23.4254C48.9587 23.4653 48.9608 23.5051 48.9608 23.5429L49.1792 23.608L48.9986 24.2064C49.007 24.3051 49.0154 24.4059 49.0259 24.5046L49.2884 23.6416L50.6405 24.051L50.2311 25.4032L49.0973 25.0589C49.1036 25.1008 49.1099 25.1407 49.1162 25.1827L50.1996 25.5103L49.7902 26.8624L49.4816 26.7679C49.4942 26.812 49.5067 26.854 49.5214 26.8981L49.7587 26.9695L49.6579 27.2991C49.6789 27.3579 49.6999 27.4146 49.723 27.4734L49.8658 27.0031L51.2179 27.4125L50.8085 28.7647L50.2269 28.5883C50.2521 28.6345 50.2773 28.6828 50.3025 28.729L50.7749 28.8717L50.6447 29.3001C50.672 29.34 50.6972 29.382 50.7245 29.4218L50.882 28.9053L52.2341 29.3148L51.8247 30.6669L51.726 30.6375C51.7848 30.6963 51.8436 30.753 51.9045 30.8097L53.2503 31.217L53.1013 31.7062C53.1349 31.7251 53.1685 31.7461 53.2021 31.765L53.3574 31.2506L54.7096 31.66L54.5059 32.3319C54.5248 32.3382 54.5416 32.3445 54.5584 32.3487C54.5773 32.355 54.5941 32.3592 54.613 32.3634L54.8167 31.6915L56.1688 32.1009L56.0134 32.6154C56.0512 32.6175 56.0911 32.6196 56.1289 32.6217L56.278 32.1324L57.6238 32.5398C57.7057 32.5272 57.7855 32.5125 57.8674 32.4957L57.7687 32.4663L58.1781 31.1141L59.5303 31.5236L59.3728 32.0401C59.4169 32.0212 59.4631 32.0023 59.5072 31.9834L59.6374 31.5551L60.1098 31.6978C60.156 31.6726 60.2043 31.6474 60.2504 31.6222L59.6689 31.4459L60.0783 30.0937L61.4304 30.5031L61.2877 30.9735C61.338 30.9378 61.3884 30.9021 61.4388 30.8643L61.5396 30.5346L61.7769 30.606C61.8126 30.5787 61.8462 30.5493 61.8819 30.5199L61.5732 30.4255L61.9826 29.0733L63.0639 29.4009C63.0912 29.3715 63.1206 29.34 63.1479 29.3085L62.0141 28.9641L62.4235 27.612L63.7757 28.0214L63.5132 28.8843C63.5762 28.8088 63.6392 28.7311 63.7001 28.6534L63.8807 28.055L64.099 28.1201C64.1221 28.0886 64.1452 28.055 64.1683 28.0235L63.9143 27.9458L64.3237 26.5937L64.9452 26.7826ZM50.6804 23.9314L49.3283 23.5219L49.7377 22.1698L51.0898 22.5792L50.6804 23.9314ZM51.1213 22.4721L49.7692 22.0627L50.1786 20.7106L51.5308 21.12L51.1213 22.4721ZM51.5644 21.0129L50.2122 20.6035L50.6216 19.2513L51.9738 19.6608L51.5644 21.0129ZM52.0074 19.5537L50.6552 19.1443L51.0647 17.7921L52.4168 18.2015L52.0074 19.5537ZM52.4504 18.0944L51.0982 17.685L51.5077 16.3329L52.8598 16.7423L52.4504 18.0944ZM52.8913 16.6352L51.5392 16.2258L51.9486 14.8736L53.3007 15.2831L52.8913 16.6352ZM51.2536 27.2907L49.9015 26.8813L50.3109 25.5292L51.663 25.9386L51.2536 27.2907ZM51.6966 25.8315L50.3445 25.4221L50.7539 24.0699L52.1061 24.4794L51.6966 25.8315ZM52.1397 24.3723L50.7875 23.9629L51.1969 22.6107L52.5491 23.0201L52.1397 24.3723ZM52.5806 22.9152L51.2284 22.5057L51.6378 21.1536L52.99 21.563L52.5806 22.9152ZM53.0236 21.4559L51.6714 21.0465L52.0809 19.6943L53.433 20.1038L53.0236 21.4559ZM53.4666 19.9967L52.1145 19.5873L52.5239 18.2351L53.876 18.6445L53.4666 19.9967ZM53.9096 18.5375L52.5575 18.128L52.9669 16.7759L54.3191 17.1853L53.9096 18.5375ZM54.3505 17.0782L52.9984 16.6688L53.4078 15.3167L54.76 15.7261L54.3505 17.0782ZM54.7936 15.619L53.4414 15.2096L53.8508 13.8574L55.203 14.2669L54.7936 15.619ZM55.2366 14.1598L53.8844 13.7504L54.2939 12.3982L55.646 12.8076L55.2366 14.1598ZM52.2698 29.193L50.9177 28.7836L51.3271 27.4314L52.6793 27.8408L52.2698 29.193ZM52.7128 27.7338L51.3607 27.3243L51.7701 25.9722L53.1223 26.3816L52.7128 27.7338ZM53.1559 26.2745L51.8037 25.8651L52.2131 24.513L53.5653 24.9224L53.1559 26.2745ZM53.5968 24.8153L52.2446 24.4059L52.6541 23.0537L54.0062 23.4632L53.5968 24.8153ZM54.0398 23.3561L52.6876 22.9466L53.0971 21.5945L54.4492 22.0039L54.0398 23.3561ZM54.4828 21.8968L53.1307 21.4874L53.5401 20.1353L54.8922 20.5447L54.4828 21.8968ZM54.9258 20.4397L53.5737 20.0303L53.9831 18.6781L55.3353 19.0876L54.9258 20.4397ZM55.3668 18.9805L54.0146 18.5711L54.424 17.2189L55.7762 17.6283L55.3668 18.9805ZM55.8098 17.5213L54.4576 17.1118L54.867 15.7597L56.2192 16.1691L55.8098 17.5213ZM56.2528 16.062L54.9006 15.6526L55.3101 14.3005L56.6622 14.7099L56.2528 16.062ZM56.6958 14.6028L55.3437 14.1934L55.7531 12.8412L57.1052 13.2506L56.6958 14.6028ZM57.1367 13.1436L55.7846 12.7341L56.194 11.382L57.5462 11.7914L57.1367 13.1436ZM53.286 31.0952L51.9339 30.6858L52.3433 29.3337L53.6955 29.7431L53.286 31.0952ZM53.7291 29.636L52.3769 29.2266L52.7863 27.8744L54.1385 28.2839L53.7291 29.636ZM54.1721 28.1768L52.8199 27.7674L53.2294 26.4152L54.5815 26.8246L54.1721 28.1768ZM54.6151 26.7175L53.2629 26.3081L53.6724 24.956L55.0245 25.3654L54.6151 26.7175ZM55.056 25.2583L53.7039 24.8489L54.1133 23.4967L55.4654 23.9062L55.056 25.2583ZM55.499 23.7991L54.1469 23.3897L54.5563 22.0375L55.9085 22.4469L55.499 23.7991ZM55.942 22.3399L54.5899 21.9304L54.9993 20.5783L56.3515 20.9877L55.942 22.3399ZM56.3851 20.8806L55.0329 20.4712L55.4423 19.1191L56.7945 19.5285L56.3851 20.8806ZM56.826 19.4214L55.4738 19.012L55.8833 17.6598L57.2354 18.0693L56.826 19.4214ZM57.269 17.9622L55.9169 17.5527L56.3263 16.2006L57.6784 16.61L57.269 17.9622ZM57.712 16.505L56.3599 16.0956L56.7693 14.7435L58.1214 15.1529L57.712 16.505ZM58.155 15.0458L56.8029 14.6364L57.2123 13.2842L58.5645 13.6937L58.155 15.0458ZM58.596 13.5866L57.2438 13.1772L57.6532 11.825L59.0054 12.2344L58.596 13.5866ZM59.039 12.1274L57.6868 11.7179L58.0962 10.3658L59.4484 10.7752L59.039 12.1274ZM54.7453 31.5361L53.3931 31.1267L53.8025 29.7746L55.1547 30.184L54.7453 31.5361ZM55.1883 30.0769L53.8361 29.6675L54.2456 28.3154L55.5977 28.7248L55.1883 30.0769ZM55.6313 28.6198L54.2792 28.2104L54.6886 26.8582L56.0407 27.2676L55.6313 28.6198ZM56.0743 27.1606L54.7222 26.7511L55.1316 25.399L56.4837 25.8084L56.0743 27.1606ZM56.5152 25.7013L55.1631 25.2919L55.5725 23.9398L56.9247 24.3492L56.5152 25.7013ZM56.9583 24.2421L55.6061 23.8327L56.0155 22.4805L57.3677 22.89L56.9583 24.2421ZM57.4013 22.7829L56.0491 22.3735L56.4586 21.0213L57.8107 21.4307L57.4013 22.7829ZM57.8443 21.3236L56.4921 20.9142L56.9016 19.5621L58.2537 19.9715L57.8443 21.3236ZM58.2852 19.8644L56.9331 19.455L57.3425 18.1028L58.6946 18.5123L58.2852 19.8644ZM58.7282 18.4052L57.3761 17.9958L57.7855 16.6436L59.1377 17.053L58.7282 18.4052ZM59.1712 16.946L57.8191 16.5365L58.2285 15.1844L59.5807 15.5938L59.1712 16.946ZM59.6143 15.4867L58.2621 15.0773L58.6715 13.7252L60.0237 14.1346L59.6143 15.4867ZM60.0552 14.0275L58.703 13.6181L59.1125 12.2659L60.4646 12.6754L60.0552 14.0275ZM60.4982 12.5704L59.1461 12.1609L59.5555 10.8088L60.9076 11.2182L60.4982 12.5704ZM56.2045 31.9792L54.8523 31.5697L55.2618 30.2176L56.6139 30.627L56.2045 31.9792ZM56.6475 30.5199L55.2954 30.1105L55.7048 28.7584L57.0569 29.1678L56.6475 30.5199ZM57.0905 29.0607L55.7384 28.6513L56.1478 27.2991L57.5 27.7086L57.0905 29.0607ZM57.5315 27.6015L56.1793 27.1921L56.5887 25.8399L57.9409 26.2493L57.5315 27.6015ZM57.9745 26.1423L56.6223 25.7328L57.0317 24.3807L58.3839 24.7901L57.9745 26.1423ZM58.4175 24.6851L57.0653 24.2757L57.4748 22.9236L58.8269 23.333L58.4175 24.6851ZM58.8605 23.2259L57.5084 22.8165L57.9178 21.4643L59.2699 21.8737L58.8605 23.2259ZM59.3014 21.7667L57.9493 21.3572L58.3587 20.0051L59.7108 20.4145L59.3014 21.7667ZM59.7444 20.3074L58.3923 19.898L58.8017 18.5459L60.1539 18.9553L59.7444 20.3074ZM60.1875 18.8482L58.8353 18.4388L59.2447 17.0866L60.5969 17.4961L60.1875 18.8482ZM60.6305 17.389L59.2783 16.9796L59.6878 15.6274L61.0399 16.0368L60.6305 17.389ZM61.0714 15.9297L59.7192 15.5203L60.1287 14.1682L61.4808 14.5776L61.0714 15.9297ZM61.5144 14.4705L60.1623 14.0611L60.5717 12.7089L61.9238 13.1184L61.5144 14.4705ZM61.9574 13.0113L60.6053 12.6019L61.0147 11.2497L62.3669 11.6591L61.9574 13.0113ZM57.6637 32.4222L56.3116 32.0128L56.721 30.6606L58.0732 31.07L57.6637 32.4222ZM58.1067 30.963L56.7546 30.5535L57.164 29.2014L58.5162 29.6108L58.1067 30.963ZM58.5498 29.5037L57.1976 29.0943L57.607 27.7422L58.9592 28.1516L58.5498 29.5037ZM58.9907 28.0445L57.6385 27.6351L58.048 26.2829L59.4001 26.6924L58.9907 28.0445ZM59.4337 26.5853L58.0815 26.1758L58.491 24.8237L59.8431 25.2331L59.4337 26.5853ZM59.8767 25.126L58.5246 24.7166L58.934 23.3645L60.2861 23.7739L59.8767 25.126ZM60.3197 23.6668L58.9676 23.2574L59.377 21.9052L60.7292 22.3147L60.3197 23.6668ZM60.7607 22.2076L59.4085 21.7982L59.8179 20.446L61.1701 20.8554L60.7607 22.2076ZM61.2037 20.7505L59.8515 20.341L60.2609 18.9889L61.6131 19.3983L61.2037 20.7505ZM61.6467 19.2912L60.2945 18.8818L60.704 17.5297L62.0561 17.9391L61.6467 19.2912ZM62.0897 17.832L60.7376 17.4226L61.147 16.0704L62.4991 16.4798L62.0897 17.832ZM62.5306 16.3728L61.1785 15.9633L61.5879 14.6112L62.9401 15.0206L62.5306 16.3728ZM62.9736 14.9135L61.6215 14.5041L62.0309 13.152L63.3831 13.5614L62.9736 14.9135ZM63.4167 13.4543L62.0645 13.0449L62.4739 11.6927L63.8261 12.1022L63.4167 13.4543ZM59.566 31.406L58.2138 30.9966L58.6233 29.6444L59.9754 30.0538L59.566 31.406ZM60.009 29.9467L58.6568 29.5373L59.0663 28.1852L60.4184 28.5946L60.009 29.9467ZM60.4499 28.4875L59.0978 28.0781L59.5072 26.7259L60.8593 27.1354L60.4499 28.4875ZM60.8929 27.0283L59.5408 26.6189L59.9502 25.2667L61.3024 25.6761L60.8929 27.0283ZM61.3359 25.5691L59.9838 25.1596L60.3932 23.8075L61.7454 24.2169L61.3359 25.5691ZM61.779 24.1098L60.4268 23.7004L60.8362 22.3483L62.1884 22.7577L61.779 24.1098ZM62.2199 22.6506L60.8677 22.2412L61.2772 20.889L62.6293 21.2985L62.2199 22.6506ZM62.6629 21.1914L61.3108 20.7819L61.7202 19.4298L63.0723 19.8392L62.6629 21.1914ZM63.1059 19.7321L61.7538 19.3227L62.1632 17.9706L63.5153 18.38L63.1059 19.7321ZM63.5489 18.275L62.1968 17.8656L62.6062 16.5134L63.9584 16.9229L63.5489 18.275ZM63.9899 16.8158L62.6377 16.4064L63.0471 15.0542L64.3993 15.4636L63.9899 16.8158ZM64.4329 15.3566L63.0807 14.9471L63.4901 13.595L64.8423 14.0044L64.4329 15.3566ZM61.4661 30.3898L60.114 29.9803L60.5234 28.6282L61.8755 29.0376L61.4661 30.3898ZM61.9091 28.9305L60.557 28.5211L60.9664 27.169L62.3186 27.5784L61.9091 28.9305ZM62.3522 27.4713L61 27.0619L61.4094 25.7097L62.7616 26.1192L62.3522 27.4713ZM62.7952 26.0121L61.443 25.6027L61.8525 24.2505L63.2046 24.6599L62.7952 26.0121ZM63.2361 24.5528L61.8839 24.1434L62.2934 22.7913L63.6455 23.2007L63.2361 24.5528ZM63.6791 23.0936L62.327 22.6842L62.7364 21.332L64.0885 21.7415L63.6791 23.0936ZM64.1221 21.6344L62.77 21.225L63.1794 19.8728L64.5316 20.2822L64.1221 21.6344ZM64.5651 20.1752L63.213 19.7657L63.6224 18.4136L64.9746 18.823L64.5651 20.1752ZM65.0061 18.7159L63.6539 18.3065L64.0633 16.9544L65.4155 17.3638L65.0061 18.7159ZM65.4491 17.2567L64.0969 16.8473L64.5064 15.4951L65.8585 15.9046L65.4491 17.2567ZM63.8114 27.9122L62.4592 27.5028L62.8687 26.1507L64.2208 26.5601L63.8114 27.9122ZM64.2544 26.4551L62.9023 26.0457L63.3117 24.6935L64.6638 25.1029L64.2544 26.4551ZM64.6953 24.9959L63.3432 24.5864L63.7526 23.2343L65.1047 23.6437L64.6953 24.9959ZM65.1383 23.5366L63.7862 23.1272L64.1956 21.7751L65.5478 22.1845L65.1383 23.5366ZM65.5814 22.0774L64.2292 21.668L64.6386 20.3158L65.9908 20.7253L65.5814 22.0774ZM66.0244 20.6182L64.6722 20.2088L65.0817 18.8566L66.4338 19.266L66.0244 20.6182Z" fill="#B6B5EB"/>
<path d="M53.0235 41.4572L50.7748 40.7748C50.5669 40.7118 50.3486 40.8294 50.2856 41.0373L50.0294 41.8813C49.9665 42.0892 50.084 42.3075 50.2919 42.3705L52.5406 43.0529C52.7484 43.1159 52.9668 42.9983 53.0298 42.7904L53.2859 41.9464C53.3489 41.7385 53.2314 41.5202 53.0235 41.4572Z" fill="#0047AB"/>
<path d="M151.158 95.5978C151.158 97.3648 138.239 98.7974 122.302 98.7974C106.366 98.7974 93.447 97.3649 93.447 95.5978C93.447 93.8307 104.312 91.9675 121.885 95.0277C137.69 97.7799 151.158 93.8307 151.158 95.5978Z" fill="#EBEBEB"/>
<path d="M106.385 35.3177L105.288 32.3152C105.226 32.1432 105.205 31.9385 105.23 31.7424C105.256 31.5463 105.326 31.3735 105.426 31.2589C105.48 31.1968 105.542 31.1537 105.607 31.1324C105.672 31.1111 105.739 31.112 105.803 31.1351C105.868 31.1581 105.929 31.2029 105.983 31.2665C106.036 31.3301 106.081 31.4112 106.115 31.5047L107.106 34.25L106.385 35.3177ZM139.675 32.4659L140.709 30.0585C140.757 29.9467 140.829 29.8681 140.91 29.8377C140.991 29.8073 141.077 29.8274 141.149 29.894C141.189 29.9305 141.224 29.9797 141.252 30.0389C141.28 30.0981 141.3 30.166 141.311 30.2384C141.323 30.3108 141.325 30.3863 141.319 30.4603C141.312 30.5343 141.296 30.6054 141.272 30.6691L140.305 33.2495L139.675 32.4659Z" fill="#0047AB"/>
<path d="M121.655 91.8263C121.557 91.8263 121.459 91.8254 121.362 91.8235C119.749 91.7931 118.232 91.5101 116.853 90.982C114.325 90.0139 112.172 88.192 110.455 85.5669C108.368 82.3767 106.892 77.9719 106.069 72.4749C105.454 68.3716 105.209 63.7438 105.339 58.72C105.492 52.8472 103.896 48.0119 102.489 43.7458C101.598 41.0462 100.756 38.4964 100.557 36.1514C100.334 33.5406 100.916 31.4092 102.388 29.4437C102.926 28.7251 103.457 28.4816 103.965 28.7201C104.422 28.9347 104.865 29.557 105.245 30.5196C105.419 30.958 105.566 31.4253 105.685 31.9144L105.55 32.0035C105.544 31.9779 104.956 29.44 103.926 28.9572C103.465 28.7409 102.977 28.9697 102.477 29.6376C99.3683 33.7888 100.801 38.1295 102.614 43.625C104.032 47.9199 105.638 52.7878 105.483 58.7309C105.268 67.0266 105.972 78.3846 110.551 85.3835C114.175 90.9226 119.658 92.7595 126.848 90.8434C132.675 89.2905 136.663 85.2806 139.038 78.5845C141.126 72.6984 142.077 64.7996 142.121 52.9732C142.132 50.1416 143.291 46.0534 144.412 42.0999C145.084 39.732 145.778 37.2834 146.211 35.1511C146.692 32.7823 146.795 31.0642 146.523 29.8987C146.344 29.1279 146.006 28.5908 145.491 28.2567C144.191 27.4132 143.096 27.5474 142.238 28.6553C141.597 29.4839 141.334 30.5785 141.331 30.5894L141.197 30.4979C141.208 30.4509 141.475 29.3366 142.146 28.4659C142.539 27.9552 143.002 27.6288 143.492 27.5189C144.11 27.3748 144.8 27.5455 145.542 28.0266C146.089 28.3816 146.465 28.9809 146.657 29.8077C146.811 30.4669 146.853 31.2604 146.785 32.2336C146.726 33.0913 146.583 34.072 146.347 35.2318C145.911 37.3777 145.215 39.8329 144.542 42.2071C143.428 46.1361 142.276 50.1988 142.266 52.9748C142.244 58.6275 142.014 63.3351 141.561 67.3669C141.054 71.877 140.269 75.5881 139.161 78.712C138.005 82.0021 136.389 84.7527 134.46 86.7188C133.447 87.7624 132.304 88.6559 131.062 89.3746C129.798 90.1062 128.388 90.6822 126.87 91.0865C125.027 91.5778 123.274 91.8263 121.655 91.8263Z" fill="#0047AB"/>
</svg>
