<svg width="183" height="135" viewBox="0 0 183 135" fill="none" xmlns="http://www.w3.org/2000/svg">
<path d="M33.4998 42L33.4998 133C34.4998 133 54.5332 135.784 33.4998 133H122V42H33.4998Z" fill="url(#paint0_linear_275_23)" fill-opacity="0.8"/>
<path d="M122 124.112V132.546H174.279C174.693 131.189 175.546 129.351 177.313 127.855C179.343 126.14 181.524 125.761 182.443 125.654C182.438 124.21 182.438 122.765 182.438 121.327C179.823 120.436 178.121 117.906 178.268 115.207C178.404 112.745 180.065 110.579 182.443 109.779C182.15 109.569 178.894 107.127 178.954 102.815C179.009 98.6515 182.109 96.3217 182.438 96.081C182.16 95.8861 178.858 93.4901 178.884 89.1783C178.909 84.9277 182.135 82.5827 182.433 82.3725C181.923 81.891 179.706 79.6791 179.5 76.089C179.247 71.8231 182.039 69.0634 182.443 68.6794C181.999 68.1979 179.389 65.2434 179.773 60.9316C180.055 57.7159 181.832 55.6314 182.438 54.9811C182.438 53.5424 182.438 52.103 182.433 50.6643C181.525 50.5006 178.758 49.8758 176.496 47.3614C174.608 45.2615 174.078 42.9725 173.911 42H122.01V52.4571C122.005 76.3399 122.005 100.228 122 124.112Z" fill="url(#paint1_linear_275_23)" fill-opacity="0.8"/>
<path d="M33.4999 132.546H8.16388C7.75008 131.189 6.89671 129.351 5.12974 127.855C3.1003 126.14 0.9189 125.761 0.00025177 125.654C0.00527573 124.21 0.00527191 122.765 0.00527191 121.327C2.62056 120.436 4.32223 117.906 4.17529 115.207C4.03903 112.745 2.37819 110.579 0.00025177 109.779C0.292862 109.569 3.54928 107.127 3.489 102.815C3.43375 98.6515 0.333675 96.3217 0.00527191 96.081C0.282814 95.8861 3.58507 93.4901 3.55933 89.1783C3.53421 84.9277 0.307926 82.5827 0.0102921 82.3725C0.520164 81.891 2.73674 79.6791 2.94333 76.089C3.19575 71.8231 0.404018 69.0634 -0.000362396 68.6794C0.444206 68.1979 3.05384 65.2434 2.67018 60.9316C2.38762 57.7159 0.610603 55.6314 0.00466156 54.9811C0.00466156 53.5424 0.00465775 52.103 0.0096817 50.6643C0.918282 50.5006 3.68492 49.8758 5.94669 47.3614C7.83485 45.2615 8.36481 42.9725 8.53184 42H33.5C33.5056 65.8828 33.4948 108.662 33.4999 132.546Z" fill="url(#paint2_linear_275_23)" fill-opacity="0.8"/>
<path opacity="0.31" d="M105.88 78.4907L96.7986 74.0946L86.5503 86.3163L84.8296 83.8736L86.9715 67.4442L78.4881 41.9097L59.0464 48.7927L64.2247 61.8287L80.8666 101.891L84.5368 110.968L84.9619 108.333L89.0171 92.8704L94.6848 86.577L104.805 85.7989L88.6882 74.6441L105.88 78.4907Z" fill="#0047AB"/>
<path d="M90.2242 30.4141C96.2364 30.4141 101.11 25.7108 101.11 19.9091C101.11 14.1073 96.2364 9.40405 90.2242 9.40405C84.212 9.40405 79.3381 14.1073 79.3381 19.9091C79.3381 25.7108 84.212 30.4141 90.2242 30.4141Z" fill="#0047AB"/>
<path d="M118.955 93.6969L112.333 97.0221C110.408 93.36 106.325 90.9333 101.7 91.3023C96.2889 91.7355 91.973 96.0875 91.7484 101.322C91.6641 103.275 92.1294 105.12 93.0199 106.717L92.5706 106.941L89.0329 108.714L84.5405 110.969C82.2221 105.734 80.2607 100.48 78.6041 95.2933C78.3354 94.4631 78.0746 93.6247 77.8259 92.7944V92.7864C77.6414 92.1767 77.4569 91.551 77.3165 91.0657C77.1761 90.5843 77.0799 90.2514 77.0799 90.2514C74.1077 79.8828 72.2907 69.9393 71.1996 61.2153L71.2077 61.3837C69.7557 51.8093 69.6835 41.3845 69.6835 41.3845C69.6353 39.6517 69.6233 38.0834 69.6233 36.6996C69.6233 35.8613 69.6233 35.0871 69.6393 34.3892C69.6835 31.6135 69.7837 29.973 69.7958 29.7404V29.7123L75.5958 30.4985L78.5239 30.9878C78.5038 31.2445 78.4918 31.5052 78.4918 31.766C78.4918 37.57 83.3652 42.271 89.3738 42.271C94.3877 42.271 98.6033 39.0059 99.8668 34.5577L102.995 35.0791L107.769 35.9174V35.9375C107.757 36.1019 107.628 38.4444 107.644 42.2108C107.644 42.2108 107.921 52.8321 108.37 56.9314C108.936 62.7435 109.89 69.1812 111.507 75.4746C111.515 75.4947 111.519 75.5107 111.523 75.5308C112.133 78.0056 112.217 78.0818 112.221 78.0818C113.841 83.6853 116.023 89.0762 118.96 93.6929L118.955 93.6969Z" fill="#6495ED"/>
<path fill-rule="evenodd" clip-rule="evenodd" d="M63.7825 1.4424C64.1557 0.114733 65.5099 -0.243402 66.3388 0.151791C67.1678 0.546985 67.4716 1.69551 67.0983 3.02317C66.8522 4.00997 65.8613 5.19373 64.9977 6.03663C63.8301 5.73096 62.3836 5.19186 61.6818 4.45581C60.701 3.48633 60.3972 2.33776 60.9223 1.58443C61.4475 0.831051 62.8016 0.472917 63.7825 1.4424ZM49.9155 27.3177C50.8968 24.988 53.4413 24.645 54.859 25.5526C56.2768 26.4601 56.5677 28.6183 55.5864 30.9481C54.9141 32.6868 52.8423 34.6142 51.0794 35.9506C49.0255 35.1288 46.5173 33.8188 45.4085 32.3203C43.8452 30.3336 43.5543 28.1754 44.6811 26.9247C45.8078 25.6741 48.3523 25.331 49.9155 27.3177Z" fill="#0047AB"/>
<path fill-rule="evenodd" clip-rule="evenodd" d="M49.863 25.6435C49.646 24.8802 49.682 23.9234 49.9071 22.8473C50.2524 21.1961 51.0445 19.2706 52.091 17.3258C53.6667 14.3976 55.8197 11.4266 57.9079 9.28056C59.2844 7.86589 60.6294 6.80964 61.7605 6.37384L61.6251 6.0227C60.4564 6.47301 59.0606 7.55633 57.6382 9.0181C55.528 11.1867 53.3518 14.1884 51.7596 17.1475C50.6941 19.1276 49.8903 21.089 49.5387 22.7702C49.2992 23.9156 49.27 24.934 49.501 25.7464L49.863 25.6435ZM67.5152 4.84652C72.2107 2.59017 77.2713 1.1159 82.868 0.790739C86.3996 0.585563 89.6517 1.94522 92.6588 3.67629C94.7152 4.86005 97.9727 8.26551 102.231 9.4409L102.235 9.44199C104.638 10.0454 106.651 9.76464 108.223 8.49908C108.242 8.48395 108.258 8.46526 108.269 8.44409C108.281 8.42291 108.288 8.39966 108.291 8.37567C108.293 8.35167 108.291 8.3274 108.284 8.30424C108.278 8.28108 108.266 8.25948 108.251 8.24068C108.236 8.22188 108.217 8.20625 108.196 8.19467C108.175 8.18309 108.152 8.17579 108.128 8.1732C108.104 8.17061 108.08 8.17277 108.056 8.17955C108.033 8.18634 108.012 8.19762 107.993 8.21275C106.506 9.40965 104.599 9.65622 102.327 9.08616C98.1044 7.91978 94.8814 4.53164 92.8421 3.35777C89.7731 1.59107 86.4509 0.214436 82.8466 0.423795C77.1998 0.751909 72.0936 2.23868 67.3561 4.5153C67.3343 4.52575 67.3149 4.54039 67.2988 4.55836C67.2827 4.57634 67.2703 4.59731 67.2623 4.62008C67.2543 4.64285 67.2509 4.66697 67.2522 4.69106C67.2535 4.71515 67.2596 4.73874 67.2701 4.76049C67.2805 4.78224 67.2951 4.80172 67.3131 4.81781C67.3311 4.8339 67.3521 4.8463 67.3748 4.85429C67.3976 4.86227 67.4217 4.8657 67.4458 4.86437C67.4699 4.86303 67.4935 4.85697 67.5152 4.84652Z" fill="#ECF3FF"/>
<path fill-rule="evenodd" clip-rule="evenodd" d="M131.374 57.0227H134.396V102.645H131.374V57.0227ZM124.266 50.9092C124.252 50.9252 124.24 50.9442 124.224 50.9583C123.35 51.7081 121.503 51.0606 119.745 50.0878C117.99 49.1168 116.324 47.8218 115.801 47.2683L114.314 49.8776C116.026 51.6895 117.704 53.0495 119.291 53.7562C120.534 54.3095 121.741 54.4846 122.895 54.2513C123.804 54.0675 124.694 53.6293 125.544 52.8665L129.67 55.9526L132.921 55.1234L127.187 50.8502C127.84 50.3348 128.375 49.8195 128.457 49.1467C128.668 47.4057 123.689 44.1147 122.102 43.272L119.175 45.3513C120.523 46.0668 123.268 47.6515 124.081 48.4327C124.494 48.8289 124.81 49.2118 124.859 49.6528C124.903 50.0553 124.679 50.4508 124.266 50.9092Z" fill="#04295C"/>
<path fill-rule="evenodd" clip-rule="evenodd" d="M108.241 3.99527C108.241 3.99527 108.247 8.27247 108.392 11.4142C107.97 11.2717 107.71 11.2782 107.265 11.3039C106.785 11.3316 106.337 11.4857 105.993 11.8074C105.635 12.1426 105.381 12.6671 105.359 13.4625C105.312 15.2159 106.729 16.071 107.851 16.0199C108.435 15.9934 108.884 15.7107 109.032 15.2202C109.173 14.7507 109.198 13.556 109.148 12.1127C109.054 9.41981 109.127 5.80145 109.019 4.6514L115.782 3.84807L116.505 11.1786C116.106 10.9481 115.673 10.8399 115.285 10.8176C114.813 10.7905 114.411 10.9035 114.18 11.0405C113.668 11.3437 113.183 12.1027 113.289 13.0217C113.378 13.7995 113.726 14.4603 114.663 14.8174L114.854 14.8694C115.526 15.0001 115.873 14.7545 116.276 14.4C116.797 13.9407 117.187 13.2151 117.317 12.0969C117.32 12.0712 117.32 12.0453 117.317 12.0195L116.469 3.40903C116.464 3.36103 116.45 3.31445 116.427 3.27202C116.404 3.22959 116.373 3.19215 116.335 3.16189C116.298 3.13162 116.255 3.10914 116.208 3.09576C116.162 3.08237 116.113 3.07834 116.065 3.08391L108.241 3.99527ZM108.424 12.2032C108.028 12.031 107.757 12.003 107.307 12.029C107 12.0467 106.709 12.132 106.49 12.3375C106.245 12.567 106.1 12.9372 106.085 13.482C106.056 14.5664 106.711 15.1249 107.467 15.2671C107.696 15.3103 107.916 15.3081 108.09 15.2443C108.207 15.2017 108.301 15.129 108.336 15.0111C108.465 14.5842 108.468 13.5078 108.424 12.2032ZM116.357 12.3015C115.979 11.878 115.68 11.5678 115.243 11.5426C114.959 11.5263 114.709 11.5637 114.573 11.6513C114.307 11.8223 113.93 12.3375 114.009 12.9259C114.062 13.3278 114.592 14.0003 115.038 14.0247C115.876 14.0706 116.178 13.5724 116.357 12.3015Z" fill="#6495ED"/>
<path d="M133.353 60.5521C134.815 60.5521 136 59.2726 136 57.6942C136 56.1158 134.815 54.8362 133.353 54.8362C131.891 54.8362 130.706 56.1158 130.706 57.6942C130.706 59.2726 131.891 60.5521 133.353 60.5521Z" fill="#0047AB"/>
<path d="M97.3401 31.3488C99.8177 31.3488 101.826 29.4233 101.826 27.0479C101.826 24.6726 99.8177 22.747 97.3401 22.747C94.8625 22.747 92.854 24.6726 92.854 27.0479C92.854 29.4233 94.8625 31.3488 97.3401 31.3488Z" fill="#6495ED"/>
<path fill-rule="evenodd" clip-rule="evenodd" d="M101.262 27.8555C98.6552 28.0535 97.3616 29.2091 97.2832 31.2509C97.2832 31.2509 108.061 40.7633 110.692 42.4594C111.363 42.8917 113.17 41.4599 112.674 40.835C110.979 38.6996 101.15 28.1907 101.262 27.8555Z" fill="#04295C"/>
<path d="M131.851 60.4996C133.313 60.4996 134.498 59.2342 134.498 57.6732C134.498 56.1123 133.313 54.8469 131.851 54.8469C130.389 54.8469 129.204 56.1123 129.204 57.6732C129.204 59.2342 130.389 60.4996 131.851 60.4996Z" fill="#6495ED"/>
<defs>
<linearGradient id="paint0_linear_275_23" x1="77.7498" y1="42" x2="77.7498" y2="134.238" gradientUnits="userSpaceOnUse">
<stop stop-color="#216FDD" stop-opacity="0.6"/>
<stop offset="1" stop-color="#6495ED" stop-opacity="0.15"/>
</linearGradient>
<linearGradient id="paint1_linear_275_23" x1="152.222" y1="42" x2="152.222" y2="132.546" gradientUnits="userSpaceOnUse">
<stop stop-color="#216FDD" stop-opacity="0.6"/>
<stop offset="1" stop-color="#6495ED" stop-opacity="0.15"/>
</linearGradient>
<linearGradient id="paint2_linear_275_23" x1="16.7507" y1="42" x2="16.7507" y2="132.546" gradientUnits="userSpaceOnUse">
<stop stop-color="#216FDD" stop-opacity="0.6"/>
<stop offset="1" stop-color="#6495ED" stop-opacity="0.15"/>
</linearGradient>
</defs>
</svg>
