<svg width="183" height="137" viewBox="0 0 183 137" fill="none" xmlns="http://www.w3.org/2000/svg">
<path d="M33.5 44L33.5 135C34.5 135 54.5334 137.784 33.5 135H122V44H33.5Z" fill="url(#paint0_linear_275_26)" fill-opacity="0.8"/>
<path d="M122 126.112V134.546H174.279C174.693 133.189 175.547 131.351 177.314 129.855C179.343 128.14 181.524 127.761 182.443 127.654C182.438 126.21 182.438 124.765 182.438 123.327C179.823 122.436 178.121 119.906 178.268 117.207C178.404 114.745 180.065 112.579 182.443 111.779C182.15 111.569 178.894 109.127 178.954 104.815C179.01 100.651 182.11 98.3217 182.438 98.081C182.161 97.8861 178.858 95.4901 178.884 91.1783C178.909 86.9277 182.135 84.5827 182.433 84.3725C181.923 83.891 179.707 81.6791 179.5 78.089C179.248 73.8231 182.039 71.0634 182.444 70.6794C181.999 70.1979 179.389 67.2434 179.773 62.9316C180.056 59.7159 181.833 57.6314 182.439 56.9811C182.439 55.5424 182.439 54.103 182.434 52.6643C181.525 52.5006 178.758 51.8758 176.497 49.3614C174.608 47.2615 174.079 44.9725 173.911 44H122.011V54.4571C122.005 78.3399 122.005 102.228 122 126.112Z" fill="url(#paint1_linear_275_26)" fill-opacity="0.8"/>
<path d="M33.5001 134.546H8.16412C7.75032 133.189 6.89696 131.351 5.12999 129.855C3.10055 128.14 0.919144 127.761 0.000495911 127.654C0.00551987 126.21 0.00551605 124.765 0.00551605 123.327C2.62081 122.436 4.32247 119.906 4.17554 117.207C4.03928 114.745 2.37843 112.579 0.000495911 111.779C0.293106 111.569 3.54953 109.127 3.48925 104.815C3.43399 100.651 0.33392 98.3217 0.00551605 98.081C0.283058 97.8861 3.58532 95.4901 3.55957 91.1783C3.53446 86.9277 0.30817 84.5827 0.0105362 84.3725C0.520409 83.891 2.73698 81.6791 2.94357 78.089C3.196 73.8231 0.404263 71.0634 -0.000118256 70.6794C0.44445 70.1979 3.05409 67.2434 2.67043 62.9316C2.38786 59.7159 0.610847 57.6314 0.0049057 56.9811C0.0049057 55.5424 0.00490189 54.103 0.00992584 52.6643C0.918526 52.5006 3.68516 51.8758 5.94693 49.3614C7.83509 47.2615 8.36506 44.9725 8.53208 44H33.5002C33.5059 67.8828 33.4951 110.662 33.5001 134.546Z" fill="url(#paint2_linear_275_26)" fill-opacity="0.8"/>
<path opacity="0.31" d="M61.3725 77.2287L52.7686 73.0636L43.0589 84.6431L41.4285 82.3287L43.4579 66.7627L35.4203 42.57L17.0002 49.0913L21.9064 61.4423L37.6738 99.3996L41.1511 108L41.5539 105.503L45.396 90.8527L50.7659 84.8901L60.354 84.1528L45.0844 73.5842L61.3725 77.2287Z" fill="white"/>
<path d="M46.5398 31.6784C52.2361 31.6784 56.8538 27.2223 56.8538 21.7254C56.8538 16.2286 52.2361 11.7725 46.5398 11.7725C40.8436 11.7725 36.2258 16.2286 36.2258 21.7254C36.2258 27.2223 40.8436 31.6784 46.5398 31.6784Z" fill="#0047AB"/>
<path d="M73.761 91.6358L67.4868 94.7863C65.6626 91.3166 61.7939 89.0174 57.4122 89.3671C52.2856 89.7775 48.1965 93.9008 47.9837 98.8602C47.9039 100.711 48.3447 102.459 49.1883 103.972L48.7627 104.184L45.4109 105.864L41.1545 108C38.958 103.041 37.0996 98.0621 35.5301 93.1483C35.2755 92.3617 35.0285 91.5674 34.7928 90.7808V90.7732C34.618 90.1955 34.4432 89.6027 34.3102 89.1428C34.1772 88.6868 34.086 88.3714 34.086 88.3714C31.27 78.5476 29.5484 69.1267 28.5148 60.8611L28.5224 61.0207C27.1467 51.9494 27.0782 42.0724 27.0782 42.0724C27.0326 40.4307 27.0212 38.9448 27.0212 37.6337C27.0212 36.8394 27.0212 36.1059 27.0364 35.4447C27.0782 32.8149 27.1732 31.2606 27.1847 31.0402V31.0135L32.6799 31.7584L35.4541 32.222C35.4351 32.4653 35.4237 32.7123 35.4237 32.9593C35.4237 38.4583 40.041 42.9123 45.7339 42.9123C50.4842 42.9123 54.4784 39.8188 55.6755 35.6043L58.6397 36.0983L63.162 36.8926V36.9116C63.1506 37.0674 63.029 39.2868 63.0442 42.8553C63.0442 42.8553 63.3064 52.9184 63.7321 56.8023C64.2679 62.309 65.1724 68.4084 66.7039 74.3711C66.7115 74.3901 66.7153 74.4053 66.7191 74.4243C67.2967 76.7691 67.3766 76.8413 67.3804 76.8413C68.9157 82.1503 70.983 87.2579 73.7649 91.632L73.761 91.6358Z" fill="#6495ED"/>
<path opacity="0.31" d="M123.573 65.4562L132.177 61.2911L141.886 72.8706L143.517 70.5562L141.487 54.9902L149.525 30.7975L167.945 37.3189L163.039 49.6698L147.271 87.6271L143.794 96.2272L143.391 93.7304L139.549 79.0803L134.179 73.1176L124.591 72.3804L139.861 61.8117L123.573 65.4562Z" fill="white"/>
<path d="M138.406 19.9059C132.709 19.9059 128.092 15.4498 128.092 9.95297C128.092 4.4561 132.709 0 138.406 0C144.102 0 148.72 4.4561 148.72 9.95297C148.72 15.4498 144.102 19.9059 138.406 19.9059Z" fill="#0047AB"/>
<path d="M111.185 79.8633L117.459 83.0138C119.283 79.5441 123.152 77.2449 127.533 77.5945C132.66 78.005 136.749 82.1283 136.962 87.0877C137.042 88.9384 136.601 90.6865 135.757 92.1991L136.183 92.4119L139.535 94.0916L143.791 96.2274C145.988 91.268 147.846 86.2896 149.415 81.3758C149.67 80.5892 149.917 79.7949 150.153 79.0082V79.0006C150.328 78.423 150.502 77.8302 150.635 77.3703C150.768 76.9143 150.86 76.5989 150.86 76.5989C153.676 66.7751 155.397 57.3542 156.431 49.0885L156.423 49.2481C157.799 40.1768 157.867 30.2999 157.867 30.2999C157.913 28.6582 157.924 27.1722 157.924 25.8611C157.924 25.0669 157.924 24.3334 157.909 23.6722C157.867 21.0424 157.772 19.488 157.761 19.2676V19.241L152.266 19.9859L149.491 20.4495C149.51 20.6927 149.522 20.9398 149.522 21.1868C149.522 26.6858 144.905 31.1397 139.212 31.1397C134.461 31.1397 130.467 28.0463 129.27 23.8318L126.306 24.3258L121.784 25.1201V25.1391C121.795 25.2949 121.917 27.5143 121.901 31.0827C121.901 31.0827 121.639 41.1459 121.213 45.0298C120.678 50.5364 119.773 56.6359 118.242 62.5986C118.234 62.6176 118.23 62.6328 118.226 62.6518C117.649 64.9966 117.569 65.0688 117.565 65.0688C116.03 70.3778 113.963 75.4854 111.181 79.8595L111.185 79.8633Z" fill="#6495ED"/>
<path d="M30.3048 72.0736C30.3048 72.0736 30.3048 72.0736 30.3023 72.0786C27.6538 73.8612 26.5111 77.0912 26.1988 80.1535L26.2013 80.1561C25.9601 82.5354 26.1455 84.9477 26.6026 87.2889L26.6 87.2914C26.6457 87.5047 26.6914 87.718 26.7371 87.9237C24.3909 88.9496 21.4377 89.5666 19.1015 88.7007C15.704 81.2124 21.9404 71.7841 30.2947 72.0786L30.3048 72.0736Z" fill="#0047AB"/>
<path d="M30.3579 72.038C30.3401 72.0481 30.3249 72.0608 30.3096 72.0761C30.3045 72.0761 30.3045 72.0761 30.3045 72.0761C30.3223 72.0634 30.3401 72.0481 30.3579 72.038ZM30.2944 72.0786C30.2969 72.0786 30.3071 72.0659 30.302 72.0786C27.6535 73.8612 26.5109 77.0911 26.1985 80.1535L26.2011 80.156C25.9624 82.5328 26.1427 84.9502 26.6023 87.2888L26.5997 87.2914C26.6429 87.5072 26.6886 87.7154 26.7369 87.9237C25.4901 88.4747 24.1671 88.8581 22.8975 89.0206C20.3607 79.9046 21.7802 71.7536 30.2944 72.0786Z" fill="#6495ED"/>
<path d="M30.3099 72.0736C30.3048 72.0736 30.3048 72.0736 30.3048 72.0736C30.3404 72.0508 30.3785 72.0229 30.414 72C30.3785 72.0203 30.3429 72.0457 30.3099 72.0736ZM34.7359 72.9472C30.0103 75.0014 29.0783 80.2399 30.9803 84.9021C29.6624 86.3215 28.4283 87.1798 26.7397 87.9213C26.6914 87.7181 26.6483 87.4921 26.6026 87.289L26.6051 87.2864C26.1429 84.9503 25.9627 82.5355 26.2013 80.1562L26.1988 80.1536C26.501 77.0938 27.669 73.8461 30.3023 72.0787C31.8233 72.0863 33.3266 72.386 34.7359 72.9472Z" fill="white"/>
<path d="M20.1324 90.6661C20.1171 90.6635 20.1019 90.6559 20.0867 90.6458C20.1019 90.6483 20.1146 90.6584 20.1298 90.661C20.1324 90.6661 20.1324 90.6661 20.1324 90.6661Z" fill="#6495ED"/>
<path d="M38.9484 92.3929C33.9587 98.1164 24.0454 97.0956 20.1324 90.6687C25.2389 92.9617 30.8608 89.7216 34.718 86.4078C36.6707 87.8705 38.5954 90.0492 38.9484 92.3929ZM20.1324 90.6662C20.1171 90.6637 20.1019 90.656 20.0867 90.6459C20.1019 90.6484 20.1146 90.6586 20.1298 90.6611C20.1324 90.6662 20.1324 90.6662 20.1324 90.6662Z" fill="#0047AB"/>
<path d="M37.4226 89.0588C31.7651 94.729 24.3682 97.9311 20.1353 90.6687C25.2417 92.9617 30.8637 89.7216 34.7209 86.4078C35.7518 87.1772 36.6913 88.0888 37.4226 89.0588Z" fill="#6495ED"/>
<path d="M34.3498 86.5017C34.1492 86.6617 33.941 86.8217 33.7327 86.9842C33.6312 87.0655 33.5245 87.1391 33.4179 87.2203C33.0878 87.4641 32.7551 87.7003 32.4022 87.9288C32.3234 87.9796 32.2498 88.0278 32.1762 88.0786C31.8791 88.2716 31.5667 88.4595 31.2519 88.6449C30.7846 88.9166 30.3047 89.1807 29.8096 89.4168C29.6089 89.5184 29.4058 89.6098 29.2027 89.7063C28.9944 89.7952 28.7862 89.8866 28.5805 89.9678C28.5628 89.978 28.5475 89.9882 28.5298 89.9932C28.3749 90.0567 28.2174 90.1202 28.0651 90.1761C27.6004 90.3513 27.1306 90.5011 26.6507 90.623C26.4983 90.6661 26.3384 90.7042 26.1784 90.7449C25.861 90.821 25.541 90.8845 25.2262 90.9353C25.0662 90.9607 24.9062 90.9785 24.7488 90.9988C24.6599 91.0089 24.571 91.0216 24.4822 91.0242C24.3146 91.0369 24.1495 91.0521 23.9768 91.0623C23.8067 91.0673 23.629 91.0724 23.4588 91.0699C23.37 91.0673 23.2912 91.0648 23.2024 91.0648C23.144 91.0623 23.0881 91.0623 23.0322 91.0572C22.9459 91.0547 22.8596 91.047 22.7732 91.0394C22.598 91.0242 22.4279 91.0039 22.2578 90.9836C22.0851 90.9607 21.9149 90.9302 21.7474 90.8947C21.6305 90.8718 21.5188 90.8439 21.402 90.816C21.3309 90.8007 21.2598 90.7804 21.1938 90.7601C21.1455 90.7474 21.0973 90.7372 21.0491 90.7195C20.9678 90.6966 20.884 90.6712 20.8002 90.6433C20.7469 90.6204 20.6859 90.6027 20.6326 90.5849H20.6275C20.5564 90.557 20.4904 90.5341 20.4193 90.5062C20.3533 90.4782 20.2847 90.4528 20.2136 90.4198C20.1451 90.3894 20.074 90.3614 20.008 90.331C19.9673 90.3132 19.9292 90.2954 19.8886 90.2776C19.8861 90.2751 19.8861 90.2751 19.8861 90.2726C19.5864 89.7647 19.3249 89.2416 19.1065 88.7109L19.104 88.7084C18.7967 87.9567 18.525 87.2457 18.3777 86.4687C18.3549 86.3367 18.3168 86.1615 18.2939 86.032C19.0126 86.5881 20.1146 87.2203 21.3995 87.5479C21.6763 87.6216 21.953 87.6749 22.2247 87.7079C22.3365 87.7206 22.4482 87.7333 22.5548 87.7409C23.7991 87.8425 25.0256 87.5835 26.2038 87.0451L26.2089 87.0426C26.3155 86.9918 26.4196 86.9436 26.5237 86.8852C27.7172 86.2834 28.8497 85.3971 29.9035 84.2824C29.9086 84.2748 29.9187 84.2646 29.9289 84.2545C29.9441 84.2367 29.9619 84.2189 29.9797 84.1986C30.132 84.2443 30.2793 84.29 30.4266 84.3408C30.4622 84.3535 30.5028 84.3662 30.5409 84.3814L30.5434 84.384C30.6399 84.4144 30.7339 84.4449 30.8278 84.4779C30.8913 84.4982 30.9522 84.5262 31.0157 84.549C31.5286 84.7395 31.9959 84.9553 32.4225 85.1788C33.0903 85.552 33.7378 86.0015 34.3498 86.5017Z" fill="#DDDDEB"/>
<path d="M34.7153 86.4026C30.8633 89.724 25.2413 92.9616 20.1323 90.6686L20.1297 90.6661C19.2892 89.3736 18.6443 87.8881 18.3599 86.3899C22.2678 89.526 27.1407 88.1395 30.2488 84.2823C30.4367 84.3357 30.6322 84.3814 30.8175 84.4423L30.8201 84.4449C32.2802 84.8384 33.5168 85.5063 34.7153 86.4026Z" fill="white"/>
<path d="M34.1186 86.9131C34.0323 86.9893 33.9332 87.063 33.8393 87.1442C32.0237 84.5872 30.0405 84.5161 30.0405 84.5161C30.0862 84.4678 30.1294 84.4196 30.1726 84.3662C30.1777 84.3586 30.1878 84.3485 30.198 84.3383C30.2132 84.3205 30.2284 84.3002 30.2462 84.2799C30.3046 84.2951 30.3656 84.3129 30.424 84.3282C30.556 84.3612 30.6855 84.3967 30.8125 84.4373L30.815 84.4399C30.9877 84.483 31.14 84.5313 31.2949 84.5846C31.8155 84.7548 32.2903 84.9477 32.7296 85.1534C33.4127 85.5064 34.0805 85.9254 34.7128 86.3977C34.5198 86.5729 34.3217 86.743 34.1186 86.9131Z" fill="#DDDDEB"/>
<path d="M38.9485 92.3929C38.9257 92.4437 38.9028 92.4919 38.8749 92.5402C38.1512 93.2842 37.3183 93.9419 36.3839 94.4954C36.0893 94.6706 35.7897 94.8306 35.485 94.9779C35.3631 95.0388 35.2412 95.0922 35.1168 95.1506C35.6373 93.3477 35.6957 91.9689 35.4977 90.8287C35.292 89.6378 34.807 88.7059 34.2788 87.8146C34.1366 87.5734 33.9893 87.355 33.842 87.1468C33.9385 87.0731 34.0299 86.9944 34.1214 86.9182C34.3296 86.7506 34.5276 86.578 34.7181 86.4078C35.7516 87.1798 36.6911 88.0914 37.4224 89.0588C38.2324 90.133 38.7936 91.2807 38.9485 92.3929Z" fill="#DDDDEB"/>
<path d="M40.6193 77.9926C43.3947 82.6953 42.6431 88.5433 39.0145 92.3954C39.8397 88.0964 37.105 84.1326 34.068 81.3597C33.7988 81.1083 32.3006 80.3033 32.0188 80.0748C31.3154 79.4882 30.5943 78.9626 29.8528 78.4674C30.7238 76.1821 32.1254 73.9983 34.1721 72.7388C34.3651 72.8049 34.5454 72.8709 34.7358 72.9471L34.7383 72.9496C37.1176 73.9018 39.2125 75.6158 40.6193 77.9926Z" fill="#0047AB"/>
<path d="M41.7417 87.7409C41.2033 89.4524 40.2816 91.0648 39.0145 92.3954C39.8397 88.0964 37.105 84.1326 34.068 81.3597C33.7988 81.1083 32.3006 80.3033 32.0188 80.0748C31.3154 79.4882 30.5943 78.9626 29.8528 78.4675C30.3302 77.2207 30.9624 76.0297 31.7065 75.0267C37.8718 78.47 41.8178 83.6857 41.7417 87.7409Z" fill="#6495ED"/>
<path d="M37.519 84.841C39.4742 88.5255 39.4285 90.9683 39.1492 92.2532C38.1335 93.3603 36.8689 94.3125 35.485 94.9778C37.1102 91.0622 34.9899 86.5017 31.2978 84.5871C24.4925 82.7486 29.8148 78.4827 29.8504 78.47C32.1383 78.9194 35.6856 81.6999 37.519 84.841Z" fill="white"/>
<path d="M34.6137 72.899C33.9433 73.3052 32.9479 74.0442 32.0769 75.2427C31.757 75.6769 31.4548 76.1721 31.1907 76.7383C30.9038 77.3579 30.6676 77.9826 30.4797 78.5996C30.4543 78.6809 30.4264 78.7647 30.4035 78.8434C29.7205 81.2176 29.7383 83.3887 30.1318 84.2825C28.5499 82.6092 29.85 78.4676 29.85 78.4676C29.8525 78.4651 29.8551 78.4676 29.8576 78.4676C29.8551 78.4651 29.8525 78.4676 29.85 78.4625C30.3274 77.2157 30.9596 76.0248 31.7036 75.0218C32.3689 74.1229 33.2932 73.2773 34.1693 72.7365C34.3242 72.7898 34.4664 72.8406 34.6137 72.899Z" fill="#DDDDEB"/>
<path d="M26.8999 82.1498C28.9179 79.206 29.1922 75.8862 27.5127 74.7349C25.8331 73.5835 22.8357 75.0367 20.8177 77.9806C18.7997 80.9244 18.5254 84.2442 20.2049 85.3956C21.8845 86.5469 24.882 85.0937 26.8999 82.1498Z" fill="#0047AB"/>
<path d="M40.2462 77.4213V77.4188C40.132 77.2512 40.0203 77.0938 39.8984 76.9313C39.1137 75.8775 38.1564 74.9557 37.0722 74.2066C37.0696 74.2066 37.0645 74.2015 37.0645 74.2015C44.4462 83.0128 33.0804 97.4664 20.8335 91.654C22.6795 93.9622 25.3585 95.5873 28.4564 96.0469C28.789 96.0977 29.1293 96.1333 29.4721 96.1536C30.5564 96.2221 31.6153 96.1485 32.6335 95.9403C32.6995 95.9301 32.763 95.9174 32.829 95.8996C32.8951 95.8869 32.956 95.8717 33.022 95.859C34.7513 95.4502 36.3459 94.663 37.7044 93.5889C40.2945 91.5473 42.039 88.4545 42.2675 84.902C42.4427 82.1469 41.6759 79.5492 40.2462 77.4213Z" fill="#DDDDEB"/>
<path d="M78.6118 102.813C83.5962 102.813 87.6369 98.7724 87.6369 93.7879C87.6369 88.8035 83.5962 84.7628 78.6118 84.7628C73.6274 84.7628 69.5867 88.8035 69.5867 93.7879C69.5867 98.7724 73.6274 102.813 78.6118 102.813Z" fill="white"/>
<path d="M83.8059 88.2177L81.3037 90.9042L81.2259 90.9873L81.2181 90.9977H81.2129L81.1064 90.9717L77.5919 90.1074L77.4803 90.0814L77.4518 90.0736H77.4492L77.418 89.9646L76.4395 86.4111L76.4446 86.4059L76.5251 86.3203L77.9501 84.7888C79.8372 84.6487 81.6567 85.1081 83.196 86.0244L83.767 88.1061L83.8059 88.2177ZM86.6404 97.9021C85.8409 99.4647 84.5898 100.781 83.0324 101.658L80.7664 101.103L80.6574 101.074H80.647L79.6736 97.5361L79.6425 97.4245L79.6399 97.4115L79.71 97.3363L82.1369 94.7354L82.2174 94.6472L82.2304 94.6368H82.233L82.3446 94.6627L85.9967 95.5608L85.9993 95.5712L86.0304 95.6854L86.6404 97.9021Z" fill="#0047AB"/>
<path d="M80.7661 101.103L79.7642 97.4505L79.7331 97.3415L79.7123 97.3363L79.6188 97.313L75.9642 96.4175L75.9148 96.4045L75.8603 96.3889H75.8577L75.7773 96.4668V96.472L75.7747 96.4772L73.2257 99.2104L73.1946 99.2493L73.2024 99.2987L73.7838 101.414C73.8669 101.463 73.9447 101.515 74.0304 101.562L73.41 99.3064L75.9174 96.6121L75.9226 96.6095L79.5747 97.5076V97.5128L80.5507 101.059L78.918 102.808C79.0141 102.805 79.1101 102.8 79.2061 102.792L80.7713 101.113L80.7661 101.103Z" fill="#0047AB"/>
<path d="M82.3471 94.6601L82.3263 94.5771L81.3425 91.0081L81.314 90.9042H81.3062L81.192 90.8757L77.571 89.988L77.4309 89.9542L77.4205 89.9646L77.3712 90.0191L74.8378 92.7368L74.7651 92.8172L74.7963 92.934L75.7723 96.4797L75.8034 96.5887L75.8138 96.5913L75.9176 96.6147L79.5749 97.5128L79.6787 97.5387H79.6865L79.767 97.4505L82.2692 94.7666L82.3523 94.6757L82.3471 94.6601ZM79.619 97.3155L75.9669 96.4174V96.4148L74.9962 92.8951L74.9884 92.8665L77.4984 90.1723L77.5269 90.18L81.1297 91.0678L81.1479 91.0704L82.1238 94.6212L82.1109 94.6342L79.6164 97.3129L79.619 97.3155Z" fill="#0047AB"/>
<path d="M75.8914 96.5005V96.5057L75.8135 96.5913L73.3035 99.2856L73.3009 99.283L73.1945 99.2571L71.0583 98.7328C70.399 97.7282 69.9318 96.5758 69.7163 95.3169C69.6151 94.7277 69.5736 94.1385 69.5865 93.5622L71.0531 91.9918L71.118 91.9218L71.1335 91.9269L74.7623 92.8173L74.8739 92.8432L74.8791 92.8458V92.851L74.9102 92.9626L75.8551 96.3915L75.8914 96.5005Z" fill="#0047AB"/>
<path d="M77.5734 89.9854L76.5663 86.3281L76.5326 86.3203L74.4119 85.7986C74.3263 85.8427 74.238 85.892 74.1524 85.9413L76.4054 86.4942L77.3762 90.0165L77.3839 90.0451L74.8739 92.7394L74.8454 92.7316L71.2244 91.8413L70.6119 89.6194C70.5677 89.7076 70.5236 89.7959 70.4795 89.8868L71.0479 91.9477L71.0609 91.9892L71.0687 92.01L74.8039 92.9289L74.8662 92.9444L74.9207 92.9574L74.9388 92.9626L75.0011 92.8951L77.5319 90.1801L77.5605 90.1515L77.602 90.1048L77.6098 90.097L77.5734 89.9854ZM85.9548 95.47L82.3261 94.5797L82.3079 94.5771L81.3294 91.0237L81.3423 91.0107L83.8368 88.3294L86.204 88.9108C86.1495 88.8277 86.095 88.7447 86.0379 88.6642L83.8342 88.1243L83.7771 88.1061H83.7745L81.1944 90.8783L81.1528 90.9224L81.1113 90.9691L81.1191 91.0185L81.1321 91.0704L82.1132 94.6394L82.1236 94.6757L82.1392 94.738V94.7406L82.2664 94.7718L86.0223 95.6958L86.0301 95.688L87.6316 93.9645C87.6368 93.8685 87.6342 93.7698 87.6342 93.6712L85.9548 95.47Z" fill="#0047AB"/>
<path d="M87.5048 92.2618C87.2219 90.6188 86.5106 89.1574 85.5061 87.9686C85.6852 92.8511 84.7716 102.086 75.3052 102.188C76.7899 102.774 78.4485 102.972 80.1357 102.683C85.0493 101.84 88.3484 97.1754 87.5048 92.2618Z" fill="#EBF2FC"/>
<path d="M77.5807 9.73606C72.613 8.22854 67.0029 12.2283 65.0502 18.6657C63.0976 25.1031 65.5415 31.5447 70.5092 33.0522C75.4769 34.5598 81.087 30.56 83.0397 24.1226C84.9923 17.6831 82.5484 11.2415 77.5807 9.73606ZM70.7276 32.3342C66.163 30.9505 63.9395 24.9162 65.7683 18.8841C67.597 12.8519 72.7999 9.07049 77.3623 10.4541C81.9269 11.8378 84.1504 17.8721 82.3216 23.9042C80.4929 29.9364 75.2921 33.7178 70.7276 32.3342Z" fill="#6495ED"/>
<path d="M65.7673 18.8842C66.0465 17.9625 66.4055 17.0954 66.8276 16.2891L66.0969 16.0687C65.6812 16.8791 65.3284 17.7484 65.0492 18.668C64.3059 21.1203 64.2009 23.5748 64.6293 25.7542L65.4481 26.0019C64.9484 23.8435 65.0156 21.3639 65.7673 18.8842ZM82.3227 23.9044C81.571 26.384 80.2483 28.4837 78.6358 29.9996L79.4546 30.2473C81.023 28.6726 82.2975 26.5751 83.0407 24.1207C83.32 23.201 83.509 22.2814 83.6139 21.3765L82.8833 21.156C82.7846 22.061 82.6019 22.9827 82.3227 23.9044Z" fill="#0047AB"/>
<path d="M64.9768 27.1041C64.9768 27.1041 68.1724 37.3229 66.984 41.4424L67.8827 41.7153L68.7813 41.9883C70.081 37.9045 78.4143 31.1816 78.4143 31.1816C72.231 34.184 67.6748 33.0124 64.9768 27.1041ZM69.2579 38.2804C69.0668 38.5302 68.6679 38.4105 68.649 38.0956C68.5671 36.7833 68.3614 35.2674 68.0296 33.5583C67.975 33.277 68.2732 33.0565 68.5251 33.193C69.6379 33.7956 70.8263 34.1567 72.0861 34.2722C72.3716 34.2995 72.4976 34.6459 72.296 34.8496C71.0678 36.0884 70.0558 37.2326 69.2579 38.2804Z" fill="#6495ED"/>
<path d="M68.9723 41.1819L67.2737 40.6675C65.4933 44.3692 64.3154 48.2009 63.7842 52.1713L65.4828 52.6857C67.2485 49.0891 68.3949 45.2489 68.9723 41.1819Z" fill="#6495ED"/>
<path d="M65.9463 52.3434L63.8299 51.7009C63.6389 51.6421 63.4373 51.7513 63.3785 51.9424L63.3218 52.1313C63.263 52.3224 63.3722 52.524 63.5633 52.5828L65.6797 53.2252C65.8708 53.284 66.0723 53.1749 66.1311 52.9838L66.1878 52.7948C66.2445 52.6038 66.1374 52.4022 65.9463 52.3434Z" fill="#0047AB"/>
<path d="M81.1092 26.7826C81.1281 26.749 81.1449 26.7154 81.1638 26.6819L80.5235 26.4887L80.9329 25.1365L81.7811 25.3948C81.7958 25.3591 81.8105 25.3255 81.8252 25.2898L80.9644 25.0295L81.3738 23.6773L82.3018 23.9587C82.3081 23.9398 82.3123 23.923 82.3186 23.9041C82.3249 23.8852 82.3291 23.8684 82.3354 23.8495L81.4074 23.5681L81.8168 22.216L82.6777 22.4763C82.6861 22.4385 82.6923 22.4028 82.6986 22.3651L81.8504 22.1068L82.2598 20.7547L82.9002 20.9478C82.9044 20.91 82.9086 20.8722 82.9107 20.8344L82.2934 20.6476L82.7028 19.2954L82.9569 19.3731C82.9569 19.3332 82.9548 19.2933 82.9548 19.2555L82.7364 19.1904L82.917 18.5921C82.9086 18.4934 82.9002 18.3926 82.8897 18.2939L82.6273 19.1568L81.2751 18.7474L81.6845 17.3953L82.8183 17.7396C82.812 17.6976 82.8057 17.6577 82.7994 17.6157L81.716 17.2882L82.1255 15.936L82.4341 16.0305C82.4215 15.9864 82.4089 15.9444 82.3942 15.9004L82.1569 15.829L82.2577 15.4993C82.2367 15.4405 82.2157 15.3839 82.1926 15.3251L82.0499 15.7954L80.6977 15.386L81.1071 14.0338L81.6887 14.2102C81.6635 14.164 81.6383 14.1157 81.6131 14.0695L81.1407 13.9267L81.2709 13.4984C81.2436 13.4585 81.2184 13.4165 81.1911 13.3766L81.0337 13.8931L79.6815 13.4837L80.0909 12.1316L80.1896 12.1609C80.1308 12.1022 80.072 12.0455 80.0111 11.9888L78.6653 11.5815L78.8144 11.0922C78.7808 11.0733 78.7472 11.0524 78.7136 11.0335L78.5582 11.5479L77.2061 11.1384L77.4097 10.4666C77.3908 10.4603 77.374 10.454 77.3551 10.4498C77.3362 10.4435 77.3194 10.4393 77.3005 10.4351L77.0969 11.1069L75.7447 10.6975L75.9001 10.1831C75.8623 10.181 75.8224 10.1789 75.7846 10.1768L75.6356 10.666L74.2897 10.2587C74.2078 10.2713 74.128 10.286 74.0461 10.3028L74.1448 10.3322L73.7354 11.6843L72.3833 11.2749L72.5407 10.7563C72.4966 10.7752 72.4504 10.7941 72.4064 10.813L72.2762 11.2413L71.8038 11.0985C71.7576 11.1237 71.7093 11.1489 71.6631 11.1741L72.2447 11.3505L71.8353 12.7026L70.4831 12.2932L70.6259 11.8229C70.5755 11.8586 70.5251 11.8943 70.4747 11.9321L70.3739 12.2617L70.1367 12.1903C70.101 12.2176 70.0674 12.247 70.0317 12.2764L70.3403 12.3709L69.9309 13.7231L68.8475 13.3955C68.8202 13.4249 68.7908 13.4564 68.7635 13.4879L69.8973 13.8322L69.4879 15.1844L68.1358 14.775L68.3982 13.912C68.3352 13.9876 68.2722 14.0653 68.2113 14.143L68.0308 14.7414L67.8124 14.6763C67.7893 14.7078 67.7662 14.7414 67.7431 14.7729L67.9972 14.8506L67.5878 16.2027L66.9705 16.0158C66.9516 16.0494 66.9348 16.083 66.9159 16.1166L67.5563 16.3098L67.1468 17.6619L66.2986 17.4037C66.2839 17.4394 66.2692 17.473 66.2545 17.5087L67.1153 17.769L66.7059 19.1212L65.7779 18.8398C65.7716 18.8587 65.7674 18.8755 65.7611 18.8944C65.7548 18.9133 65.7506 18.9301 65.7443 18.949L66.6723 19.2303L66.2629 20.5825L65.4021 20.3221C65.3937 20.3599 65.3874 20.3956 65.3811 20.4334L66.2293 20.6917L65.8199 22.0438L65.1795 21.8506C65.1753 21.8884 65.1732 21.9262 65.169 21.964L65.7863 22.1509L65.3769 23.503L65.1228 23.4254C65.1228 23.4653 65.1249 23.5051 65.1249 23.5429L65.3433 23.608L65.1627 24.2064C65.1711 24.3051 65.1795 24.4059 65.19 24.5046L65.4524 23.6416L66.8046 24.051L66.3952 25.4032L65.2614 25.0589C65.2677 25.1008 65.274 25.1407 65.2803 25.1827L66.3637 25.5103L65.9543 26.8624L65.6456 26.7679C65.6582 26.812 65.6708 26.854 65.6855 26.8981L65.9228 26.9695L65.822 27.2991C65.843 27.3579 65.864 27.4146 65.8871 27.4734L66.0298 27.0031L67.382 27.4125L66.9726 28.7647L66.391 28.5883C66.4162 28.6345 66.4414 28.6828 66.4666 28.729L66.939 28.8717L66.8088 29.3001C66.8361 29.34 66.8613 29.382 66.8886 29.4218L67.0461 28.9053L68.3982 29.3148L67.9888 30.6669L67.8901 30.6375C67.9489 30.6963 68.0077 30.753 68.0686 30.8097L69.4144 31.217L69.2653 31.7062C69.2989 31.7251 69.3325 31.7461 69.3661 31.765L69.5215 31.2506L70.8736 31.66L70.67 32.3319C70.6889 32.3382 70.7057 32.3445 70.7225 32.3487C70.7414 32.355 70.7582 32.3592 70.7771 32.3634L70.9807 31.6915L72.3329 32.1009L72.1775 32.6154C72.2153 32.6175 72.2552 32.6196 72.293 32.6217L72.4421 32.1324L73.7879 32.5398C73.8698 32.5272 73.9496 32.5125 74.0314 32.4957L73.9328 32.4663L74.3422 31.1141L75.6943 31.5236L75.5369 32.0401C75.581 32.0212 75.6272 32.0023 75.6713 31.9834L75.8014 31.5551L76.2738 31.6978C76.32 31.6726 76.3683 31.6474 76.4145 31.6222L75.8329 31.4459L76.2423 30.0937L77.5945 30.5031L77.4517 30.9735C77.5021 30.9378 77.5525 30.9021 77.6029 30.8643L77.7037 30.5346L77.9409 30.606C77.9766 30.5787 78.0102 30.5493 78.0459 30.5199L77.7373 30.4255L78.1467 29.0733L79.228 29.4009C79.2553 29.3715 79.2847 29.34 79.312 29.3085L78.1782 28.9641L78.5876 27.612L79.9398 28.0214L79.6773 28.8843C79.7403 28.8088 79.8033 28.7311 79.8642 28.6534L80.0447 28.055L80.2631 28.1201C80.2862 28.0886 80.3093 28.055 80.3324 28.0235L80.0783 27.9458L80.4877 26.5937L81.1092 26.7826ZM66.8445 23.9314L65.4923 23.5219L65.9018 22.1698L67.2539 22.5792L66.8445 23.9314ZM67.2854 22.4721L65.9333 22.0627L66.3427 20.7106L67.6948 21.12L67.2854 22.4721ZM67.7284 21.0129L66.3763 20.6035L66.7857 19.2513L68.1379 19.6608L67.7284 21.0129ZM68.1714 19.5537L66.8193 19.1443L67.2287 17.7921L68.5809 18.2015L68.1714 19.5537ZM68.6145 18.0944L67.2623 17.685L67.6717 16.3329L69.0239 16.7423L68.6145 18.0944ZM69.0554 16.6352L67.7032 16.2258L68.1127 14.8736L69.4648 15.2831L69.0554 16.6352ZM67.4177 27.2907L66.0655 26.8813L66.475 25.5292L67.8271 25.9386L67.4177 27.2907ZM67.8607 25.8315L66.5086 25.4221L66.918 24.0699L68.2701 24.4794L67.8607 25.8315ZM68.3037 24.3723L66.9516 23.9629L67.361 22.6107L68.7131 23.0201L68.3037 24.3723ZM68.7446 22.9152L67.3925 22.5057L67.8019 21.1536L69.1541 21.563L68.7446 22.9152ZM69.1877 21.4559L67.8355 21.0465L68.2449 19.6943L69.5971 20.1038L69.1877 21.4559ZM69.6307 19.9967L68.2785 19.5873L68.6879 18.2351L70.0401 18.6445L69.6307 19.9967ZM70.0737 18.5375L68.7215 18.128L69.131 16.7759L70.4831 17.1853L70.0737 18.5375ZM70.5146 17.0782L69.1625 16.6688L69.5719 15.3167L70.924 15.7261L70.5146 17.0782ZM70.9576 15.619L69.6055 15.2096L70.0149 13.8574L71.3671 14.2669L70.9576 15.619ZM71.4006 14.1598L70.0485 13.7504L70.4579 12.3982L71.8101 12.8076L71.4006 14.1598ZM68.4339 29.193L67.0817 28.7836L67.4912 27.4314L68.8433 27.8408L68.4339 29.193ZM68.8769 27.7338L67.5248 27.3243L67.9342 25.9722L69.2863 26.3816L68.8769 27.7338ZM69.3199 26.2745L67.9678 25.8651L68.3772 24.513L69.7293 24.9224L69.3199 26.2745ZM69.7608 24.8153L68.4087 24.4059L68.8181 23.0537L70.1703 23.4632L69.7608 24.8153ZM70.2039 23.3561L68.8517 22.9466L69.2611 21.5945L70.6133 22.0039L70.2039 23.3561ZM70.6469 21.8968L69.2947 21.4874L69.7042 20.1353L71.0563 20.5447L70.6469 21.8968ZM71.0899 20.4397L69.7378 20.0303L70.1472 18.6781L71.4993 19.0876L71.0899 20.4397ZM71.5308 18.9805L70.1787 18.5711L70.5881 17.2189L71.9402 17.6283L71.5308 18.9805ZM71.9738 17.5213L70.6217 17.1118L71.0311 15.7597L72.3833 16.1691L71.9738 17.5213ZM72.4169 16.062L71.0647 15.6526L71.4741 14.3005L72.8263 14.7099L72.4169 16.062ZM72.8599 14.6028L71.5077 14.1934L71.9172 12.8412L73.2693 13.2506L72.8599 14.6028ZM73.3008 13.1436L71.9486 12.7341L72.3581 11.382L73.7102 11.7914L73.3008 13.1436ZM69.4501 31.0952L68.098 30.6858L68.5074 29.3337L69.8595 29.7431L69.4501 31.0952ZM69.8931 29.636L68.541 29.2266L68.9504 27.8744L70.3026 28.2839L69.8931 29.636ZM70.3361 28.1768L68.984 27.7674L69.3934 26.4152L70.7456 26.8246L70.3361 28.1768ZM70.7792 26.7175L69.427 26.3081L69.8364 24.956L71.1886 25.3654L70.7792 26.7175ZM71.2201 25.2583L69.8679 24.8489L70.2774 23.4967L71.6295 23.9062L71.2201 25.2583ZM71.6631 23.7991L70.3109 23.3897L70.7204 22.0375L72.0725 22.4469L71.6631 23.7991ZM72.1061 22.3399L70.754 21.9304L71.1634 20.5783L72.5155 20.9877L72.1061 22.3399ZM72.5491 20.8806L71.197 20.4712L71.6064 19.1191L72.9585 19.5285L72.5491 20.8806ZM72.99 19.4214L71.6379 19.012L72.0473 17.6598L73.3995 18.0693L72.99 19.4214ZM73.4331 17.9622L72.0809 17.5527L72.4903 16.2006L73.8425 16.61L73.4331 17.9622ZM73.8761 16.505L72.5239 16.0956L72.9334 14.7435L74.2855 15.1529L73.8761 16.505ZM74.3191 15.0458L72.967 14.6364L73.3764 13.2842L74.7285 13.6937L74.3191 15.0458ZM74.76 13.5866L73.4079 13.1772L73.8173 11.825L75.1694 12.2344L74.76 13.5866ZM75.203 12.1274L73.8509 11.7179L74.2603 10.3658L75.6125 10.7752L75.203 12.1274ZM70.9093 31.5361L69.5572 31.1267L69.9666 29.7746L71.3188 30.184L70.9093 31.5361ZM71.3524 30.0769L70.0002 29.6675L70.4096 28.3154L71.7618 28.7248L71.3524 30.0769ZM71.7954 28.6198L70.4432 28.2104L70.8526 26.8582L72.2048 27.2676L71.7954 28.6198ZM72.2384 27.1606L70.8862 26.7511L71.2957 25.399L72.6478 25.8084L72.2384 27.1606ZM72.6793 25.7013L71.3272 25.2919L71.7366 23.9398L73.0887 24.3492L72.6793 25.7013ZM73.1223 24.2421L71.7702 23.8327L72.1796 22.4805L73.5318 22.89L73.1223 24.2421ZM73.5653 22.7829L72.2132 22.3735L72.6226 21.0213L73.9748 21.4307L73.5653 22.7829ZM74.0084 21.3236L72.6562 20.9142L73.0656 19.5621L74.4178 19.9715L74.0084 21.3236ZM74.4493 19.8644L73.0971 19.455L73.5065 18.1028L74.8587 18.5123L74.4493 19.8644ZM74.8923 18.4052L73.5401 17.9958L73.9496 16.6436L75.3017 17.053L74.8923 18.4052ZM75.3353 16.946L73.9832 16.5365L74.3926 15.1844L75.7447 15.5938L75.3353 16.946ZM75.7783 15.4867L74.4262 15.0773L74.8356 13.7252L76.1878 14.1346L75.7783 15.4867ZM76.2192 14.0275L74.8671 13.6181L75.2765 12.2659L76.6287 12.6754L76.2192 14.0275ZM76.6623 12.5704L75.3101 12.1609L75.7195 10.8088L77.0717 11.2182L76.6623 12.5704ZM72.3686 31.9792L71.0164 31.5697L71.4258 30.2176L72.778 30.627L72.3686 31.9792ZM72.8116 30.5199L71.4594 30.1105L71.8689 28.7584L73.221 29.1678L72.8116 30.5199ZM73.2546 29.0607L71.9025 28.6513L72.3119 27.2991L73.664 27.7086L73.2546 29.0607ZM73.6955 27.6015L72.3434 27.1921L72.7528 25.8399L74.1049 26.2493L73.6955 27.6015ZM74.1385 26.1423L72.7864 25.7328L73.1958 24.3807L74.548 24.7901L74.1385 26.1423ZM74.5816 24.6851L73.2294 24.2757L73.6388 22.9236L74.991 23.333L74.5816 24.6851ZM75.0246 23.2259L73.6724 22.8165L74.0818 21.4643L75.434 21.8737L75.0246 23.2259ZM75.4655 21.7667L74.1133 21.3572L74.5228 20.0051L75.8749 20.4145L75.4655 21.7667ZM75.9085 20.3074L74.5563 19.898L74.9658 18.5459L76.3179 18.9553L75.9085 20.3074ZM76.3515 18.8482L74.9994 18.4388L75.4088 17.0866L76.7609 17.4961L76.3515 18.8482ZM76.7945 17.389L75.4424 16.9796L75.8518 15.6274L77.204 16.0368L76.7945 17.389ZM77.2355 15.9297L75.8833 15.5203L76.2927 14.1682L77.6449 14.5776L77.2355 15.9297ZM77.6785 14.4705L76.3263 14.0611L76.7357 12.7089L78.0879 13.1184L77.6785 14.4705ZM78.1215 13.0113L76.7693 12.6019L77.1788 11.2497L78.5309 11.6591L78.1215 13.0113ZM73.8278 32.4222L72.4756 32.0128L72.8851 30.6606L74.2372 31.07L73.8278 32.4222ZM74.2708 30.963L72.9187 30.5535L73.3281 29.2014L74.6802 29.6108L74.2708 30.963ZM74.7138 29.5037L73.3617 29.0943L73.7711 27.7422L75.1232 28.1516L74.7138 29.5037ZM75.1547 28.0445L73.8026 27.6351L74.212 26.2829L75.5642 26.6924L75.1547 28.0445ZM75.5978 26.5853L74.2456 26.1758L74.655 24.8237L76.0072 25.2331L75.5978 26.5853ZM76.0408 25.126L74.6886 24.7166L75.0981 23.3645L76.4502 23.7739L76.0408 25.126ZM76.4838 23.6668L75.1317 23.2574L75.5411 21.9052L76.8932 22.3147L76.4838 23.6668ZM76.9247 22.2076L75.5726 21.7982L75.982 20.446L77.3341 20.8554L76.9247 22.2076ZM77.3677 20.7505L76.0156 20.341L76.425 18.9889L77.7772 19.3983L77.3677 20.7505ZM77.8107 19.2912L76.4586 18.8818L76.868 17.5297L78.2202 17.9391L77.8107 19.2912ZM78.2538 17.832L76.9016 17.4226L77.311 16.0704L78.6632 16.4798L78.2538 17.832ZM78.6947 16.3728L77.3425 15.9633L77.752 14.6112L79.1041 15.0206L78.6947 16.3728ZM79.1377 14.9135L77.7856 14.5041L78.195 13.152L79.5471 13.5614L79.1377 14.9135ZM79.5807 13.4543L78.2286 13.0449L78.638 11.6927L79.9901 12.1022L79.5807 13.4543ZM75.73 31.406L74.3779 30.9966L74.7873 29.6444L76.1395 30.0538L75.73 31.406ZM76.1731 29.9467L74.8209 29.5373L75.2303 28.1852L76.5825 28.5946L76.1731 29.9467ZM76.614 28.4875L75.2618 28.0781L75.6713 26.7259L77.0234 27.1354L76.614 28.4875ZM77.057 27.0283L75.7048 26.6189L76.1143 25.2667L77.4664 25.6761L77.057 27.0283ZM77.5 25.5691L76.1479 25.1596L76.5573 23.8075L77.9094 24.2169L77.5 25.5691ZM77.943 24.1098L76.5909 23.7004L77.0003 22.3483L78.3524 22.7577L77.943 24.1098ZM78.3839 22.6506L77.0318 22.2412L77.4412 20.889L78.7934 21.2985L78.3839 22.6506ZM78.827 21.1914L77.4748 20.7819L77.8842 19.4298L79.2364 19.8392L78.827 21.1914ZM79.27 19.7321L77.9178 19.3227L78.3273 17.9706L79.6794 18.38L79.27 19.7321ZM79.713 18.275L78.3609 17.8656L78.7703 16.5134L80.1224 16.9229L79.713 18.275ZM80.1539 16.8158L78.8018 16.4064L79.2112 15.0542L80.5633 15.4636L80.1539 16.8158ZM80.5969 15.3566L79.2448 14.9471L79.6542 13.595L81.0064 14.0044L80.5969 15.3566ZM77.6302 30.3898L76.278 29.9803L76.6875 28.6282L78.0396 29.0376L77.6302 30.3898ZM78.0732 28.9305L76.7211 28.5211L77.1305 27.169L78.4826 27.5784L78.0732 28.9305ZM78.5162 27.4713L77.1641 27.0619L77.5735 25.7097L78.9257 26.1192L78.5162 27.4713ZM78.9592 26.0121L77.6071 25.6027L78.0165 24.2505L79.3687 24.6599L78.9592 26.0121ZM79.4002 24.5528L78.048 24.1434L78.4574 22.7913L79.8096 23.2007L79.4002 24.5528ZM79.8432 23.0936L78.491 22.6842L78.9004 21.332L80.2526 21.7415L79.8432 23.0936ZM80.2862 21.6344L78.934 21.225L79.3435 19.8728L80.6956 20.2822L80.2862 21.6344ZM80.7292 20.1752L79.3771 19.7657L79.7865 18.4136L81.1386 18.823L80.7292 20.1752ZM81.1701 18.7159L79.818 18.3065L80.2274 16.9544L81.5795 17.3638L81.1701 18.7159ZM81.6131 17.2567L80.261 16.8473L80.6704 15.4951L82.0226 15.9046L81.6131 17.2567ZM79.9755 27.9122L78.6233 27.5028L79.0327 26.1507L80.3849 26.5601L79.9755 27.9122ZM80.4185 26.4551L79.0663 26.0457L79.4757 24.6935L80.8279 25.1029L80.4185 26.4551ZM80.8594 24.9959L79.5072 24.5864L79.9167 23.2343L81.2688 23.6437L80.8594 24.9959ZM81.3024 23.5366L79.9502 23.1272L80.3597 21.7751L81.7118 22.1845L81.3024 23.5366ZM81.7454 22.0774L80.3933 21.668L80.8027 20.3158L82.1548 20.7253L81.7454 22.0774ZM82.1884 20.6182L80.8363 20.2088L81.2457 18.8566L82.5979 19.266L82.1884 20.6182Z" fill="#B6B5EB"/>
<path d="M69.1876 41.4572L66.9389 40.7748C66.731 40.7118 66.5126 40.8294 66.4497 41.0373L66.1935 41.8813C66.1305 42.0892 66.2481 42.3075 66.456 42.3705L68.7046 43.0529C68.9125 43.1159 69.1309 42.9983 69.1938 42.7904L69.45 41.9464C69.513 41.7385 69.3954 41.5202 69.1876 41.4572Z" fill="#0047AB"/>
<path d="M167.322 95.5978C167.322 97.3648 154.403 98.7974 138.466 98.7974C122.53 98.7974 109.611 97.3649 109.611 95.5978C109.611 93.8307 120.476 91.9675 138.049 95.0277C153.854 97.7799 167.322 93.8307 167.322 95.5978Z" fill="#EBEBEB"/>
<path d="M122.549 35.3177L121.452 32.3152C121.39 32.1432 121.369 31.9385 121.394 31.7424C121.42 31.5463 121.49 31.3735 121.59 31.2589C121.644 31.1968 121.706 31.1537 121.771 31.1324C121.836 31.1111 121.903 31.112 121.967 31.1351C122.032 31.1581 122.093 31.2029 122.147 31.2665C122.2 31.3301 122.246 31.4112 122.279 31.5047L123.27 34.25L122.549 35.3177ZM155.839 32.4659L156.873 30.0585C156.921 29.9467 156.993 29.8681 157.074 29.8377C157.155 29.8073 157.241 29.8274 157.313 29.894C157.353 29.9305 157.388 29.9797 157.416 30.0389C157.444 30.0981 157.464 30.166 157.476 30.2384C157.487 30.3108 157.489 30.3863 157.483 30.4603C157.476 30.5343 157.46 30.6054 157.436 30.6691L156.469 33.2495L155.839 32.4659Z" fill="#0047AB"/>
<path d="M137.819 91.8263C137.721 91.8263 137.623 91.8254 137.526 91.8235C135.913 91.7931 134.396 91.5101 133.017 90.982C130.489 90.0139 128.336 88.192 126.619 85.5669C124.532 82.3767 123.056 77.9719 122.233 72.4749C121.618 68.3716 121.373 63.7438 121.504 58.72C121.656 52.8472 120.06 48.0119 118.653 43.7458C117.762 41.0462 116.92 38.4964 116.721 36.1514C116.498 33.5406 117.08 31.4092 118.552 29.4437C119.09 28.7251 119.621 28.4816 120.129 28.7201C120.586 28.9347 121.029 29.557 121.409 30.5196C121.583 30.958 121.73 31.4253 121.849 31.9144L121.714 32.0035C121.708 31.9779 121.12 29.44 120.09 28.9572C119.629 28.7409 119.141 28.9697 118.641 29.6376C115.532 33.7888 116.965 38.1295 118.778 43.625C120.196 47.9199 121.802 52.7878 121.648 58.7309C121.432 67.0266 122.136 78.3846 126.715 85.3835C130.339 90.9226 135.822 92.7595 143.012 90.8434C148.839 89.2905 152.827 85.2806 155.202 78.5845C157.29 72.6984 158.241 64.7996 158.285 52.9732C158.296 50.1416 159.455 46.0534 160.576 42.0999C161.248 39.732 161.942 37.2834 162.375 35.1511C162.857 32.7823 162.959 31.0642 162.687 29.8987C162.508 29.1279 162.17 28.5908 161.655 28.2567C160.355 27.4132 159.26 27.5474 158.402 28.6553C157.761 29.4839 157.498 30.5785 157.495 30.5894L157.361 30.4979C157.372 30.4509 157.639 29.3366 158.31 28.4659C158.703 27.9552 159.166 27.6288 159.656 27.5189C160.275 27.3748 160.964 27.5455 161.706 28.0266C162.253 28.3816 162.629 28.9809 162.821 29.8077C162.975 30.4669 163.017 31.2604 162.949 32.2336C162.89 33.0913 162.747 34.072 162.511 35.2318C162.075 37.3777 161.379 39.8329 160.706 42.2071C159.592 46.1361 158.44 50.1988 158.43 52.9748C158.408 58.6275 158.178 63.3351 157.725 67.3669C157.218 71.877 156.433 75.5881 155.325 78.712C154.169 82.0021 152.554 84.7527 150.624 86.7188C149.611 87.7624 148.468 88.6559 147.226 89.3746C145.962 90.1062 144.552 90.6822 143.034 91.0865C141.191 91.5778 139.438 91.8263 137.819 91.8263Z" fill="#0047AB"/>
<defs>
<linearGradient id="paint0_linear_275_26" x1="77.75" y1="44" x2="77.75" y2="136.238" gradientUnits="userSpaceOnUse">
<stop stop-color="#216FDD" stop-opacity="0.6"/>
<stop offset="1" stop-color="#6495ED" stop-opacity="0.15"/>
</linearGradient>
<linearGradient id="paint1_linear_275_26" x1="152.222" y1="44" x2="152.222" y2="134.546" gradientUnits="userSpaceOnUse">
<stop stop-color="#216FDD" stop-opacity="0.6"/>
<stop offset="1" stop-color="#6495ED" stop-opacity="0.15"/>
</linearGradient>
<linearGradient id="paint2_linear_275_26" x1="16.7509" y1="44" x2="16.7509" y2="134.546" gradientUnits="userSpaceOnUse">
<stop stop-color="#216FDD" stop-opacity="0.6"/>
<stop offset="1" stop-color="#6495ED" stop-opacity="0.15"/>
</linearGradient>
</defs>
</svg>
