<svg width="29" height="29" viewBox="0 0 29 29" fill="none" xmlns="http://www.w3.org/2000/svg">
<path d="M4.229 7.854C4.229 6.72799 4.229 6.16521 4.41297 5.72069C4.53447 5.42749 4.71253 5.16109 4.93698 4.93671C5.16144 4.71233 5.4279 4.53436 5.72114 4.41297C6.16521 4.229 6.72799 4.229 7.854 4.229H9.36472C10.4907 4.229 11.0535 4.229 11.4976 4.41297C11.7908 4.53436 12.0573 4.71233 12.2817 4.93671C12.5062 5.16109 12.6843 5.42749 12.8058 5.72069C12.9897 6.16475 12.9897 6.72799 12.9897 7.854V9.36427C12.9897 10.4903 12.9897 11.0535 12.8058 11.4976C12.5603 12.0897 12.0898 12.5601 11.4976 12.8053C11.0535 12.9893 10.4907 12.9893 9.36472 12.9893H7.854C6.72799 12.9893 6.16521 12.9893 5.72114 12.8053C5.4279 12.6839 5.16144 12.5059 4.93698 12.2816C4.71253 12.0572 4.53447 11.7908 4.41297 11.4976C4.229 11.0535 4.229 10.4903 4.229 9.36427V7.854Z" fill="#0047AB"/>
<path fill-rule="evenodd" clip-rule="evenodd" d="M7.83272 3.625H9.38603C9.93069 3.625 10.3702 3.625 10.7282 3.64947C11.0957 3.67439 11.421 3.72741 11.7291 3.85473C12.4692 4.16144 13.0571 4.74951 13.3636 5.48961C13.4913 5.79773 13.5444 6.12308 13.5693 6.49102C13.5938 6.84853 13.5938 7.28806 13.5938 7.83272V9.38603C13.5938 9.93069 13.5938 10.3702 13.5693 10.7282C13.5444 11.0957 13.4913 11.421 13.3636 11.7291C13.057 12.4691 12.4691 13.057 11.7291 13.3636C11.421 13.4913 11.0957 13.5444 10.7277 13.5693C10.3702 13.5938 9.93069 13.5938 9.38603 13.5938H7.83272C7.28806 13.5938 6.84853 13.5938 6.49056 13.5693C6.12308 13.5444 5.79773 13.4913 5.48961 13.3636C4.74951 13.0571 4.16144 12.4692 3.85473 11.7291C3.72741 11.421 3.67439 11.0957 3.64947 10.7277C3.625 10.3707 3.625 9.93114 3.625 9.38648V7.83317C3.625 7.28852 3.625 6.84898 3.64947 6.49102C3.67439 6.12353 3.72741 5.79819 3.85473 5.49006C4.16134 4.74988 4.74942 4.1618 5.48961 3.85519C5.79773 3.72786 6.12308 3.67484 6.49102 3.64992C6.84808 3.625 7.28806 3.625 7.83272 3.625ZM6.57303 4.85478C6.26672 4.87562 6.08819 4.91505 5.95225 4.97123C5.73232 5.06232 5.53249 5.19584 5.36416 5.36416C5.19584 5.53249 5.06232 5.73232 4.97123 5.95225C4.91505 6.08819 4.87608 6.26672 4.85478 6.57303C4.83348 6.88478 4.83348 7.28308 4.83348 7.85402V9.36473C4.83348 9.93567 4.83348 10.3344 4.85478 10.6457C4.87562 10.952 4.91505 11.1306 4.97123 11.2665C5.06232 11.4864 5.19584 11.6863 5.36416 11.8546C5.53249 12.0229 5.73232 12.1564 5.95225 12.2475C6.08819 12.3037 6.26672 12.3427 6.57303 12.364C6.88478 12.3853 7.28308 12.3853 7.85402 12.3853H9.36473C9.93567 12.3853 10.3344 12.3853 10.6457 12.364C10.952 12.3431 11.1306 12.3037 11.2665 12.2475C11.4864 12.1564 11.6863 12.0229 11.8546 11.8546C12.0229 11.6863 12.1564 11.4864 12.2475 11.2665C12.3037 11.1306 12.3427 10.952 12.364 10.6457C12.3853 10.334 12.3853 9.93567 12.3853 9.36473V7.85402C12.3853 7.28308 12.3853 6.88433 12.364 6.57303C12.3431 6.26672 12.3037 6.08819 12.2475 5.95225C12.1564 5.73232 12.0229 5.53249 11.8546 5.36416C11.6863 5.19584 11.4864 5.06232 11.2665 4.97123C11.1306 4.91505 10.952 4.87608 10.6457 4.85478C10.334 4.83348 9.93567 4.83348 9.36473 4.83348H7.85402C7.28308 4.83348 6.88433 4.83348 6.57303 4.85478Z" fill="#0047AB"/>
<path d="M4.229 19.6353C4.229 18.5092 4.229 17.9465 4.41297 17.5019C4.53447 17.2087 4.71253 16.9423 4.93698 16.718C5.16144 16.4936 5.4279 16.3156 5.72114 16.1942C6.16521 16.0103 6.72799 16.0103 7.854 16.0103H9.36472C10.4907 16.0103 11.0535 16.0103 11.4976 16.1942C11.7908 16.3156 12.0573 16.4936 12.2817 16.718C12.5062 16.9423 12.6843 17.2087 12.8058 17.5019C12.9897 17.946 12.9897 18.5092 12.9897 19.6353V21.1455C12.9897 22.2715 12.9897 22.8348 12.8058 23.2788C12.5603 23.871 12.0898 24.3413 11.4976 24.5865C11.0535 24.7705 10.4907 24.7705 9.36472 24.7705H7.854C6.72799 24.7705 6.16521 24.7705 5.72114 24.5865C5.4279 24.4652 5.16144 24.2872 4.93698 24.0628C4.71253 23.8384 4.53447 23.572 4.41297 23.2788C4.229 22.8348 4.229 22.2715 4.229 21.1455V19.6353Z" fill="#6495ED"/>
<path fill-rule="evenodd" clip-rule="evenodd" d="M7.83272 15.4062H9.38603C9.93069 15.4062 10.3702 15.4063 10.7282 15.4307C11.0957 15.4556 11.421 15.5087 11.7291 15.636C12.4692 15.9427 13.0571 16.5307 13.3636 17.2709C13.4913 17.579 13.5444 17.9043 13.5693 18.2723C13.5938 18.6298 13.5938 19.0693 13.5938 19.614V21.1673C13.5938 21.7119 13.5938 22.1515 13.5693 22.5094C13.5444 22.8769 13.4913 23.2023 13.3636 23.5104C13.0571 24.2505 12.4692 24.8386 11.7291 25.1453C11.421 25.2726 11.0957 25.3256 10.7277 25.3505C10.3702 25.375 9.93069 25.375 9.38603 25.375H7.83272C7.28806 25.375 6.84853 25.375 6.49056 25.3505C6.12308 25.3256 5.79773 25.2726 5.48961 25.1453C4.74942 24.8387 4.16134 24.2506 3.85473 23.5104C3.72741 23.2023 3.67439 22.8769 3.64947 22.509C3.625 22.1519 3.625 21.7124 3.625 21.1677V19.6144C3.625 19.0698 3.625 18.6302 3.64947 18.2723C3.67439 17.9048 3.72741 17.5794 3.85473 17.2713C4.16134 16.5311 4.74942 15.943 5.48961 15.6364C5.79773 15.5091 6.12308 15.4561 6.49102 15.4312C6.84808 15.4063 7.28806 15.4062 7.83272 15.4062ZM6.57303 16.636C6.26672 16.6569 6.08819 16.6963 5.95225 16.7525C5.73232 16.8436 5.53249 16.9771 5.36416 17.1454C5.19584 17.3137 5.06232 17.5136 4.97123 17.7335C4.91505 17.8694 4.87608 18.048 4.85478 18.3543C4.83348 18.666 4.83348 19.0643 4.83348 19.6353V21.146C4.83348 21.7169 4.83348 22.1157 4.85478 22.427C4.87562 22.7333 4.91505 22.9118 4.97123 23.0477C5.06232 23.2677 5.19584 23.4675 5.36416 23.6358C5.53249 23.8042 5.73232 23.9377 5.95225 24.0288C6.08819 24.085 6.26672 24.1239 6.57303 24.1452C6.88478 24.1665 7.28308 24.1665 7.85402 24.1665H9.36473C9.93567 24.1665 10.3344 24.1665 10.6457 24.1452C10.952 24.1244 11.1306 24.085 11.2665 24.0288C11.4864 23.9377 11.6863 23.8042 11.8546 23.6358C12.0229 23.4675 12.1564 23.2677 12.2475 23.0477C12.3037 22.9118 12.3427 22.7333 12.364 22.427C12.3853 22.1152 12.3853 21.7169 12.3853 21.146V19.6353C12.3853 19.0643 12.3853 18.6656 12.364 18.3543C12.3431 18.048 12.3037 17.8694 12.2475 17.7335C12.1564 17.5136 12.0229 17.3137 11.8546 17.1454C11.6863 16.9771 11.4864 16.8436 11.2665 16.7525C11.1306 16.6963 10.952 16.6573 10.6457 16.636C10.334 16.6147 9.93567 16.6147 9.36473 16.6147H7.85402C7.28308 16.6147 6.88433 16.6147 6.57303 16.636Z" fill="#6495ED"/>
<path d="M16.0103 7.854C16.0103 6.72799 16.0103 6.16521 16.1942 5.72069C16.3157 5.42749 16.4938 5.16109 16.7182 4.93671C16.9427 4.71233 17.2092 4.53436 17.5024 4.41297C17.9465 4.229 18.5092 4.229 19.6353 4.229H21.146C22.272 4.229 22.8348 4.229 23.2788 4.41297C23.5721 4.53436 23.8385 4.71233 24.063 4.93671C24.2875 5.16109 24.4655 5.42749 24.587 5.72069C24.771 6.16475 24.771 6.72799 24.771 7.854V9.36427C24.771 10.4903 24.771 11.0535 24.587 11.4976C24.3416 12.0897 23.871 12.5601 23.2788 12.8053C22.8348 12.9893 22.272 12.9893 21.146 12.9893H19.6353C18.5092 12.9893 17.9465 12.9893 17.5024 12.8053C16.9102 12.5601 16.4396 12.0897 16.1942 11.4976C16.0103 11.0535 16.0103 10.4903 16.0103 9.36427V7.854Z" fill="#6495ED"/>
<path fill-rule="evenodd" clip-rule="evenodd" d="M19.614 3.625H21.1673C21.7119 3.625 22.1515 3.625 22.5094 3.64947C22.8769 3.67439 23.2023 3.72741 23.5104 3.85473C24.2506 4.16134 24.8387 4.74942 25.1453 5.48961C25.2726 5.79773 25.3256 6.12308 25.3505 6.49102C25.375 6.84853 25.375 7.28806 25.375 7.83272V9.38603C25.375 9.93069 25.375 10.3702 25.3505 10.7282C25.3256 11.0957 25.2726 11.421 25.1453 11.7291C24.8386 12.4692 24.2505 13.0571 23.5104 13.3636C23.2023 13.4913 22.8769 13.5444 22.509 13.5693C22.1515 13.5938 21.7119 13.5938 21.1673 13.5938H19.614C19.0693 13.5938 18.6298 13.5938 18.2718 13.5693C17.9043 13.5444 17.579 13.4913 17.2709 13.3636C16.5307 13.0571 15.9427 12.4692 15.636 11.7291C15.5087 11.421 15.4556 11.0957 15.4307 10.7277C15.4063 10.3707 15.4062 9.93114 15.4062 9.38648V7.83317C15.4062 7.28852 15.4063 6.84898 15.4307 6.49102C15.4556 6.12353 15.5087 5.79819 15.636 5.49006C15.9426 4.74988 16.5307 4.1618 17.2709 3.85519C17.579 3.72786 17.9043 3.67484 18.2723 3.64992C18.6293 3.625 19.0693 3.625 19.614 3.625ZM18.3543 4.85478C18.048 4.87562 17.8694 4.91505 17.7335 4.97123C17.5136 5.06232 17.3137 5.19584 17.1454 5.36416C16.9771 5.53249 16.8436 5.73232 16.7525 5.95225C16.6963 6.08819 16.6573 6.26672 16.636 6.57303C16.6147 6.88478 16.6147 7.28308 16.6147 7.85402V9.36473C16.6147 9.93567 16.6147 10.3344 16.636 10.6457C16.6569 10.952 16.6963 11.1306 16.7525 11.2665C16.8436 11.4864 16.9771 11.6863 17.1454 11.8546C17.3137 12.0229 17.5136 12.1564 17.7335 12.2475C17.8694 12.3037 18.048 12.3427 18.3543 12.364C18.666 12.3853 19.0643 12.3853 19.6353 12.3853H21.146C21.7169 12.3853 22.1157 12.3853 22.427 12.364C22.7333 12.3431 22.9118 12.3037 23.0477 12.2475C23.2677 12.1564 23.4675 12.0229 23.6358 11.8546C23.8042 11.6863 23.9377 11.4864 24.0288 11.2665C24.085 11.1306 24.1239 10.952 24.1452 10.6457C24.1665 10.334 24.1665 9.93567 24.1665 9.36473V7.85402C24.1665 7.28308 24.1665 6.88433 24.1452 6.57303C24.1244 6.26672 24.085 6.08819 24.0288 5.95225C23.9377 5.73232 23.8042 5.53249 23.6358 5.36416C23.4675 5.19584 23.2677 5.06232 23.0477 4.97123C22.9118 4.91505 22.7333 4.87608 22.427 4.85478C22.1152 4.83348 21.7169 4.83348 21.146 4.83348H19.6353C19.0643 4.83348 18.6656 4.83348 18.3543 4.85478Z" fill="#6495ED"/>
<path d="M16.0103 19.6353C16.0103 18.5092 16.0103 17.9465 16.1942 17.5019C16.3157 17.2087 16.4938 16.9423 16.7182 16.718C16.9427 16.4936 17.2092 16.3156 17.5024 16.1942C17.9465 16.0103 18.5092 16.0103 19.6353 16.0103H21.146C22.272 16.0103 22.8348 16.0103 23.2788 16.1942C23.5721 16.3156 23.8385 16.4936 24.063 16.718C24.2875 16.9423 24.4655 17.2087 24.587 17.5019C24.771 17.946 24.771 18.5092 24.771 19.6353V21.1455C24.771 22.2715 24.771 22.8348 24.587 23.2788C24.3416 23.871 23.871 24.3413 23.2788 24.5865C22.8348 24.7705 22.272 24.7705 21.146 24.7705H19.6353C18.5092 24.7705 17.9465 24.7705 17.5024 24.5865C16.9102 24.3413 16.4396 23.871 16.1942 23.2788C16.0103 22.8348 16.0103 22.2715 16.0103 21.1455V19.6353Z" fill="#0047AB"/>
<path fill-rule="evenodd" clip-rule="evenodd" d="M19.614 15.4062H21.1673C21.7119 15.4062 22.1515 15.4063 22.5094 15.4307C22.8769 15.4556 23.2023 15.5087 23.5104 15.636C23.8769 15.7878 24.2099 16.0103 24.4904 16.2908C24.771 16.5713 24.9935 16.9043 25.1453 17.2709C25.2726 17.579 25.3256 17.9043 25.3505 18.2723C25.375 18.6298 25.375 19.0693 25.375 19.614V21.1673C25.375 21.7119 25.375 22.1515 25.3505 22.5094C25.3256 22.8769 25.2726 23.2023 25.1453 23.5104C24.9935 23.8769 24.771 24.2099 24.4904 24.4904C24.2099 24.771 23.8769 24.9935 23.5104 25.1453C23.2023 25.2726 22.8769 25.3256 22.509 25.3505C22.1515 25.375 21.7119 25.375 21.1673 25.375H19.614C19.0693 25.375 18.6298 25.375 18.2718 25.3505C17.9043 25.3256 17.579 25.2726 17.2709 25.1453C16.9043 24.9935 16.5713 24.771 16.2908 24.4904C16.0103 24.2099 15.7878 23.8769 15.636 23.5104C15.5087 23.2023 15.4556 22.8769 15.4307 22.509C15.4063 22.1519 15.4062 21.7124 15.4062 21.1677V19.6144C15.4062 19.0698 15.4063 18.6302 15.4307 18.2723C15.4556 17.9048 15.5087 17.5794 15.636 17.2713C15.7878 16.9048 16.0103 16.5718 16.2908 16.2913C16.5713 16.0107 16.9043 15.7882 17.2709 15.6364C17.579 15.5091 17.9043 15.4561 18.2723 15.4312C18.6293 15.4063 19.0693 15.4062 19.614 15.4062ZM18.3543 16.636C18.048 16.6569 17.8694 16.6963 17.7335 16.7525C17.5136 16.8436 17.3137 16.9771 17.1454 17.1454C16.9771 17.3137 16.8436 17.5136 16.7525 17.7335C16.6963 17.8694 16.6573 18.048 16.636 18.3543C16.6147 18.666 16.6147 19.0643 16.6147 19.6353V21.146C16.6147 21.7169 16.6147 22.1157 16.636 22.427C16.6569 22.7333 16.6963 22.9118 16.7525 23.0477C16.8436 23.2677 16.9771 23.4675 17.1454 23.6358C17.3137 23.8042 17.5136 23.9377 17.7335 24.0288C17.8694 24.085 18.048 24.1239 18.3543 24.1452C18.666 24.1665 19.0643 24.1665 19.6353 24.1665H21.146C21.7169 24.1665 22.1157 24.1665 22.427 24.1452C22.7333 24.1244 22.9118 24.085 23.0477 24.0288C23.2677 23.9377 23.4675 23.8042 23.6358 23.6358C23.8042 23.4675 23.9377 23.2677 24.0288 23.0477C24.085 22.9118 24.1239 22.7333 24.1452 22.427C24.1665 22.1152 24.1665 21.7169 24.1665 21.146V19.6353C24.1665 19.0643 24.1665 18.6656 24.1452 18.3543C24.1244 18.048 24.085 17.8694 24.0288 17.7335C23.9377 17.5136 23.8042 17.3137 23.6358 17.1454C23.4675 16.9771 23.2677 16.8436 23.0477 16.7525C22.9118 16.6963 22.7333 16.6573 22.427 16.636C22.1152 16.6147 21.7169 16.6147 21.146 16.6147H19.6353C19.0643 16.6147 18.6656 16.6147 18.3543 16.636Z" fill="#0047AB"/>
</svg>
