<svg width="30" height="30" viewBox="0 0 30 30" fill="none" xmlns="http://www.w3.org/2000/svg">
<path d="M26.9555 12.536H3.02029V23.3068C3.02029 24.259 3.39855 25.1722 4.07186 25.8455C4.74517 26.5188 5.65837 26.8971 6.61057 26.8971H23.3652C24.3174 26.8971 25.2306 26.5188 25.9039 25.8455C26.5772 25.1722 26.9555 24.259 26.9555 23.3068V12.536ZM9.00409 10.1425C8.68669 10.1425 8.38229 10.0164 8.15785 9.79195C7.93342 9.56751 7.80733 9.26311 7.80733 8.94571V4.15867C7.80733 3.84127 7.93342 3.53687 8.15785 3.31244C8.38229 3.088 8.68669 2.96191 9.00409 2.96191C9.32149 2.96191 9.62589 3.088 9.85033 3.31244C10.0748 3.53687 10.2008 3.84127 10.2008 4.15867V8.94571C10.2008 9.26311 10.0748 9.56751 9.85033 9.79195C9.62589 10.0164 9.32149 10.1425 9.00409 10.1425ZM20.9717 10.1425C20.6543 10.1425 20.3499 10.0164 20.1254 9.79195C19.901 9.56751 19.7749 9.26311 19.7749 8.94571V4.15867C19.7749 3.84127 19.901 3.53687 20.1254 3.31244C20.3499 3.088 20.6543 2.96191 20.9717 2.96191C21.2891 2.96191 21.5935 3.088 21.8179 3.31244C22.0424 3.53687 22.1684 3.84127 22.1684 4.15867V8.94571C22.1684 9.26311 22.0424 9.56751 21.8179 9.79195C21.5935 10.0164 21.2891 10.1425 20.9717 10.1425Z" fill="#6495ED" fill-opacity="0.55"/>
<path d="M23.3652 5.35535H22.1684V8.94562C22.1684 9.26302 22.0424 9.56742 21.8179 9.79186C21.5935 10.0163 21.2891 10.1424 20.9717 10.1424C20.6543 10.1424 20.3499 10.0163 20.1254 9.79186C19.901 9.56742 19.7749 9.26302 19.7749 8.94562V5.35535H10.2008V8.94562C10.2008 9.26302 10.0748 9.56742 9.85033 9.79186C9.62589 10.0163 9.32149 10.1424 9.00409 10.1424C8.68669 10.1424 8.38229 10.0163 8.15785 9.79186C7.93342 9.56742 7.80733 9.26302 7.80733 8.94562V5.35535H6.61057C5.65837 5.35535 4.74517 5.73361 4.07186 6.40691C3.39855 7.08022 3.02029 7.99342 3.02029 8.94562V12.5359H26.9555V8.94562C26.9555 7.99342 26.5772 7.08022 25.9039 6.40691C25.2306 5.73361 24.3174 5.35535 23.3652 5.35535Z" fill="#0047AB"/>
</svg>
