<svg width="1851" height="1450" viewBox="0 0 1851 1450" fill="none" xmlns="http://www.w3.org/2000/svg">
<path d="M1 120.087C1 109.566 1.00799 104.494 2.0773 100.348C5.16789 88.3649 14.5256 79.0072 26.5091 75.9166C30.6552 74.8473 35.7269 74.8393 46.248 74.8393H46.4574C53.7305 74.8393 57.5807 74.8394 60.7754 74.0154C69.9392 71.6521 77.0951 64.4961 79.4585 55.3323C80.2825 52.1376 80.2824 48.2874 80.2823 41.0144V40.805V27.6897C80.2823 21.7112 80.2839 17.3122 80.6747 13.8955C81.0632 10.4996 81.8253 8.19992 83.2606 6.36742C83.9576 5.4775 84.7598 4.67528 85.6498 3.97826C87.4823 2.54299 89.7819 1.78089 93.1779 1.39239C96.5946 1.00153 100.994 1 106.972 1H294.81C300.789 1 305.188 1.00153 308.604 1.39239C312 1.78089 314.3 2.54299 316.133 3.97826C317.022 4.67528 317.825 5.4775 318.522 6.36742C319.957 8.19992 320.719 10.4996 321.108 13.8955C321.498 17.3122 321.5 21.7112 321.5 27.6897V27.7568C321.5 37.6249 321.5 45.1152 322.171 50.9831C322.846 56.8851 324.212 61.2715 327.031 64.8712C328.326 66.5239 329.815 68.0138 331.468 69.3082C335.068 72.1276 339.454 73.4928 345.356 74.168C351.224 74.8393 358.714 74.8393 368.582 74.8393H368.65H1781C1797.53 74.8393 1809.82 74.8414 1819.27 76.1118C1828.69 77.3783 1835.13 79.8888 1840.04 84.7976C1844.95 89.7065 1847.46 96.1479 1848.73 105.568C1850 115.017 1850 127.312 1850 143.839V1380C1850 1396.53 1850 1408.82 1848.73 1418.27C1847.46 1427.69 1844.95 1434.13 1840.04 1439.04C1835.13 1443.95 1828.69 1446.46 1819.27 1447.73C1809.82 1449 1797.53 1449 1781 1449H1624.05C1610.8 1449 1600.95 1449 1593.25 1448.16C1585.56 1447.32 1580.14 1445.66 1575.72 1442.41C1572.93 1440.36 1570.47 1437.9 1568.43 1435.12C1565.18 1430.7 1563.52 1425.28 1562.68 1417.59C1561.84 1409.89 1561.84 1400.03 1561.84 1386.78V1386.72C1561.84 1373.55 1561.84 1363.58 1560.98 1355.76C1560.13 1347.91 1558.4 1342.09 1554.86 1337.27C1552.69 1334.32 1550.09 1331.71 1547.14 1329.55C1542.32 1326.01 1536.5 1324.28 1528.65 1323.42C1520.82 1322.57 1510.86 1322.57 1497.68 1322.57H1497.62H348.051H102.339H70C53.4726 1322.57 41.1776 1322.57 31.7287 1321.3C22.3086 1320.03 15.8672 1317.52 10.9584 1312.61C6.04951 1307.7 3.53899 1301.26 2.27249 1291.84C1.00212 1282.39 1 1270.1 1 1253.57V120.087Z" fill="url(#paint0_linear_1_16)" stroke="url(#paint1_linear_1_16)" stroke-width="2"/>
<defs>
<linearGradient id="paint0_linear_1_16" x1="925.5" y1="0" x2="925.5" y2="1450" gradientUnits="userSpaceOnUse">
<stop stop-color="#F2F2F2"/>
<stop offset="1" stop-color="#E0E0E0" stop-opacity="0"/>
</linearGradient>
<linearGradient id="paint1_linear_1_16" x1="925.5" y1="0" x2="890.561" y2="1044.71" gradientUnits="userSpaceOnUse">
<stop stop-color="#0047AB" stop-opacity="0.35"/>
<stop offset="1" stop-color="#4894FF" stop-opacity="0.2"/>
</linearGradient>
</defs>
</svg>
