<svg width="8" height="18" viewBox="0 0 8 18" fill="none" xmlns="http://www.w3.org/2000/svg">
<path d="M7.69798 0.583618H4.84474C3.17067 0.583618 1.81327 1.94101 1.81327 3.61543V6.01807H0.302076C0.184891 6.01807 0.0900269 6.11293 0.0900269 6.23012V8.72204C0.0900269 8.83923 0.184891 8.93409 0.302076 8.93409H1.81327V9.06662V17.2047C1.81327 17.3215 1.90814 17.4167 2.02532 17.4167H5.04737C5.16455 17.4167 5.25942 17.3219 5.25942 17.2047V8.93374H7.45036C7.56057 8.93374 7.65229 8.84969 7.66171 8.73983L7.87236 6.24791C7.88282 6.12409 7.78517 6.01807 7.66101 6.01807H5.25942V4.25018C5.25942 3.83585 5.59528 3.49999 6.00996 3.49999H7.69833C7.81551 3.49999 7.91038 3.40513 7.91038 3.28794V0.796016C7.91003 0.678483 7.81516 0.583618 7.69798 0.583618Z" fill="url(#paint0_linear_9_2736)"/>
<defs>
<linearGradient id="paint0_linear_9_2736" x1="-9.80411" y1="-3.98269" x2="18.562" y2="21.1283" gradientUnits="userSpaceOnUse">
<stop stop-color="#000C55"/>
<stop offset="1" stop-color="#008BE9"/>
</linearGradient>
</defs>
</svg>
