<svg width="1851" height="474" viewBox="0 0 1851 474" fill="none" xmlns="http://www.w3.org/2000/svg">
<path d="M24.3607 222.194L24.3605 222.194C13.9067 219.604 5.51196 212.74 2.34988 204.544L2.34977 204.544C1.4955 202.332 1.03271 198.827 1.03271 193.935C1.03271 138.913 1.02181 83.8878 1.00001 28.8602L1.00001 28.8598C0.994751 22.3752 3.16183 16.6044 7.27465 12.0164C11.3938 7.42135 17.5119 3.96179 25.4797 2.20539L25.4799 2.20535C29.0757 1.41191 34.5927 1.00228 42.082 1.00228H45.2213H48.3605H51.4998H54.6391H57.7784H60.9176H64.0569H67.1962H70.3355H73.4747H76.614H79.7533H82.8926H86.0318H89.1711H92.3104H95.4497H98.5889H101.728H104.867H108.007H111.146H114.285H117.425H120.564H123.703H126.842H129.982H133.121H136.26H139.4H142.539H145.678H148.817H151.957H155.096H158.235H161.374H164.514H167.653H170.792H173.932H177.071H180.21H183.349H186.489H189.628H192.767H195.907H199.046H202.185H205.324H208.464H211.603H214.742H217.881H221.021H224.16H227.299H230.439H233.578H236.717H239.856H242.996H246.135H249.274H252.414H255.553H258.692H261.831H264.971H268.11H271.249H274.388H277.528H280.667H283.806H286.946H290.085H293.224H296.363H299.503H302.642H305.781H308.921H312.06H315.199H318.338H321.478H324.617H327.756H330.896H334.035H337.174H340.313H343.453H346.592H349.731H352.87H356.01H359.149H362.288H365.428H368.567H371.706H374.845H377.985H381.124H384.263H387.403H390.542H393.681H396.82H399.96H403.099H406.238H409.378H412.517H415.656H418.795H421.935H425.074H428.213H431.352H434.492H437.631H440.77H443.91H447.049H450.188H453.327H456.467H459.606H462.745H465.885H469.024H472.163H475.302H478.442H481.581H484.72H487.86H490.999H494.138H497.277H500.417H503.556H506.695H509.835H512.974H516.113H519.252H522.392H525.531H528.67H531.809H534.949H538.088H541.227H544.367H547.506H550.645H553.784H556.924H560.063H563.202H566.342H569.481H572.62H575.759H578.899H582.038H585.177H588.317H591.456H594.595H597.734H600.874H604.013H607.152H610.292H613.431H616.57H619.709H622.849H625.988H629.127H632.267H635.406H638.545H641.684H644.824H647.963H651.102H654.242H657.381H660.52H663.659H666.799H669.938H673.077H676.216H679.356H682.495H685.634H688.774H691.913H695.052H698.191H701.331H704.47H707.609H710.749H713.888H717.027H720.166H723.306H726.445H729.584H732.724H735.863H739.002H742.141H745.281H748.42H751.559H754.699H757.838H760.977H764.116H767.256H770.395H773.534H776.674H779.813H782.952H786.091H789.231H792.37H795.509H798.648H801.788H804.927H808.066H811.206H814.345H817.484H820.623H823.763H826.902H830.041H833.181H836.32H839.459H842.599H845.738H848.877H852.016H855.156H858.295H861.434H864.573H867.713H870.852H873.991H877.131H880.27H883.409H886.548H889.688H892.827H895.966H899.106H902.245H905.384H908.523H911.663H914.802H917.941H921.081H924.22H927.359H930.498H933.638H936.777H939.916H943.056H946.195H949.334H952.473H955.613H958.752H961.891H965.031H968.17H971.309H974.448H977.588H980.727H983.866H987.005H990.145H993.284H996.423H999.563H1002.7H1005.84H1008.98H1012.12H1015.26H1018.4H1021.54H1024.68H1027.82H1030.96H1034.09H1037.23H1040.37H1043.51H1046.65H1049.79H1052.93H1056.07H1059.21H1062.35H1065.49H1068.63H1071.77H1074.91H1078.04H1081.18H1084.32H1087.46H1090.6H1093.74H1096.88H1100.02H1103.16H1106.3H1109.44H1112.58H1115.72H1118.86H1121.99H1125.13H1128.27H1131.41H1134.55H1137.69H1140.83H1143.97H1147.11H1150.25H1153.39H1156.53H1159.67H1162.81H1165.94H1169.08H1172.22H1175.36H1178.5H1181.64H1184.78H1187.92H1191.06H1194.2H1197.34H1200.48H1203.62H1206.76H1209.89H1213.03H1216.17H1219.31H1222.45H1225.59H1228.73H1231.87H1235.01H1238.15H1241.29H1244.43H1247.57H1250.71H1253.84H1256.98H1260.12H1263.26H1266.4H1269.54H1272.68H1275.82H1278.96H1282.1H1285.24H1288.38H1291.52H1294.66H1297.79H1300.93H1304.07H1307.21H1310.35H1313.49H1316.63H1319.77H1322.91H1326.05H1329.19H1332.33H1335.47H1338.61H1341.74H1344.88H1348.02H1351.16H1354.3H1357.44H1360.58H1363.72H1366.86H1370H1373.14H1376.28H1379.42H1382.56H1385.69H1388.83H1391.97H1395.11H1398.25H1401.39H1404.53H1407.67H1410.81H1413.95H1417.09H1420.23H1423.37H1426.5H1429.64H1432.78H1435.92H1439.06H1442.2H1445.34H1448.48H1451.62H1454.76H1457.9H1461.04H1464.18H1467.32H1470.45H1473.59H1476.73H1479.87H1483.01H1486.15H1489.29H1492.43H1495.57H1498.71H1501.85H1504.99H1508.13H1511.27H1514.4H1517.54H1520.68H1523.82H1526.96H1530.1H1533.24H1536.38H1539.52H1542.66H1545.8H1548.94H1552.08H1555.22H1558.35H1561.49H1564.63H1567.77H1570.91H1574.05H1577.19H1580.33H1583.47H1586.61H1589.75H1592.89H1596.03H1599.17H1602.3H1605.44H1608.58H1611.72H1614.86H1618H1621.14H1624.28H1627.42H1630.56H1633.7H1636.84H1639.98H1643.11H1646.25H1649.39V0.0022835C1649.39 1.00228 1649.39 1.00228 1649.4 1.00228L1649.4 1.00228L1649.42 1.00228L1649.48 1.00228L1649.75 1.00227L1650.78 1.00225L1654.77 1.00214L1669.4 1.00178L1717.46 1.00077C1754.87 1.00011 1799.04 0.999633 1826.07 1.00038C1839.31 1.00075 1849.97 11.7314 1849.97 24.9792C1850.02 150.252 1850 235.123 1849.96 366.022C1849.96 372.812 1847.76 379.056 1843.41 384.02C1839.07 388.986 1832.53 392.729 1823.78 394.417C1820.98 394.956 1816.29 395.237 1809.66 395.237C1713.18 395.26 1616.71 395.262 1520.25 395.245C1511.77 395.239 1505.51 395.658 1501.55 396.53C1485.63 400.023 1475.47 410.86 1475.55 424.582C1475.57 427.185 1475.58 429.57 1475.6 431.788C1475.67 444.667 1475.72 451.965 1475.64 464.085C1475.6 469.018 1471.59 473 1466.65 473H1238.31H994.535H289.048H138.004C119.228 473 104.007 457.796 104.006 439.02C104.005 402.226 104.006 356.594 104.007 316.402C104.008 292.623 104.009 270.748 104.009 253.733C104.009 237.364 89.8517 223.933 69.1715 223.607C59.4008 223.451 49.6299 223.371 39.8591 223.365C32.5792 223.359 27.4382 222.957 24.3607 222.194Z" fill="url(#paint0_linear_1_103)" fill-opacity="0.2" stroke="url(#paint1_linear_1_103)" stroke-width="2"/>
<defs>
<linearGradient id="paint0_linear_1_103" x1="925.464" y1="0" x2="925.464" y2="518.768" gradientUnits="userSpaceOnUse">
<stop stop-color="#0047AB"/>
<stop offset="1" stop-color="white" stop-opacity="0.5"/>
</linearGradient>
<linearGradient id="paint1_linear_1_103" x1="925.464" y1="0" x2="925.464" y2="518.768" gradientUnits="userSpaceOnUse">
<stop stop-color="#0047AB"/>
<stop offset="1" stop-color="#6495ED" stop-opacity="0.38"/>
</linearGradient>
</defs>
</svg>
