<svg width="65" height="111" viewBox="0 0 65 111" fill="none" xmlns="http://www.w3.org/2000/svg">
<path opacity="0.31" d="M50.8098 74.9518L40.9576 70.1825L29.8391 83.4418L27.9723 80.7916L30.296 62.9675L21.0923 35.2653L-0.000228882 42.7327L5.61777 56.8753L23.6728 100.339L27.6546 110.187L28.1159 107.328L32.5154 90.5523L38.6643 83.7246L49.6435 82.8804L32.1586 70.7786L50.8098 74.9518Z" fill="#2A72DA"/>
<path d="M33.8249 22.7936C40.3476 22.7936 45.6353 17.6911 45.6353 11.3968C45.6353 5.10252 40.3476 0 33.8249 0C27.3022 0 22.0145 5.10252 22.0145 11.3968C22.0145 17.6911 27.3022 22.7936 33.8249 22.7936Z" fill="#0047AB"/>
<path d="M64.9954 91.4485L57.8108 95.0559C55.722 91.0829 51.292 88.4502 46.2745 88.8506C40.4042 89.3205 35.7218 94.042 35.4781 99.7208C35.3867 101.84 35.8915 103.842 36.8575 105.574L36.3702 105.817L32.532 107.741L27.6581 110.186C25.1429 104.508 23.0149 98.807 21.2177 93.1804C20.9261 92.2796 20.6433 91.3701 20.3735 90.4693V90.4607C20.1733 89.7992 19.9731 89.1204 19.8208 88.5938C19.6685 88.0716 19.564 87.7104 19.564 87.7104C16.3395 76.4616 14.3682 65.674 13.1845 56.2093L13.1932 56.3921C11.6179 46.0048 11.5396 34.6951 11.5396 34.6951C11.4874 32.8152 11.4743 31.1137 11.4743 29.6124C11.4743 28.7029 11.4743 27.8631 11.4917 27.1059C11.5396 24.0946 11.6484 22.3148 11.6614 22.0624V22.0319L17.9539 22.8848L21.1306 23.4157C21.1089 23.6942 21.0958 23.9771 21.0958 24.26C21.0958 30.5567 26.3831 35.6568 32.9019 35.6568C38.3415 35.6568 42.9151 32.1146 44.2858 27.2887L47.6801 27.8544L52.8372 28.7601C52.8496 28.7623 52.8586 28.773 52.8586 28.7856C52.8456 28.964 52.7063 31.5053 52.7237 35.5915C52.7237 35.5915 53.024 47.1145 53.5114 51.5618C54.1249 57.8673 55.1606 64.8516 56.9144 71.6792C56.9231 71.701 56.9274 71.7184 56.9318 71.7401C57.5932 74.425 57.6846 74.5077 57.6889 74.5077C59.447 80.5869 61.8143 86.4354 64.9997 91.4441L64.9954 91.4485Z" fill="#6495ED"/>
</svg>
