<svg width="33" height="30" viewBox="0 0 33 30" fill="none" xmlns="http://www.w3.org/2000/svg">
<path d="M17.9262 6.52605L16.9913 8.98812L16.0565 6.52605C14.3409 2.00802 10.8 0.596325 7.75091 1.13608C4.64153 1.68651 1.98633 4.25226 1.98633 7.99575C1.98633 10.0532 2.87869 12.3467 4.33656 14.6936C5.78501 17.0253 7.73244 19.3155 9.70569 21.3444C11.6753 23.3696 13.6485 25.1118 15.1312 26.3488C15.8718 26.9667 16.4882 27.4571 16.9181 27.792C16.9432 27.8115 16.9676 27.8305 16.9913 27.8489C17.0151 27.8305 17.0395 27.8115 17.0645 27.792C17.4945 27.4571 18.1109 26.9667 18.8515 26.3488C20.3341 25.1118 22.3074 23.3696 24.277 21.3444C26.2502 19.3155 28.1976 17.0253 29.6461 14.6936C31.104 12.3467 31.9963 10.0532 31.9963 7.99575C31.9963 4.25226 29.3411 1.68651 26.2317 1.13608C23.1827 0.596325 19.6417 2.00802 17.9262 6.52605Z" stroke="#0047AB" stroke-width="2"/>
</svg>
