<svg width="88" height="65" viewBox="0 0 88 65" fill="none" xmlns="http://www.w3.org/2000/svg">
<g clip-path="url(#clip0_1_64)">
<path d="M81.7752 64.895H7.74756C5.26888 64.895 3.25951 62.8817 3.25951 60.3981V8.4063C3.25951 5.92272 5.26888 3.90938 7.74756 3.90938H81.7752C84.2539 3.90938 86.2632 5.92272 86.2632 8.4063V60.3981C86.2632 62.8817 84.2539 64.895 81.7752 64.895Z" fill="#E4EDF9"/>
<path d="M86.2633 12.2125V7.3399C86.2633 5.44528 84.7304 3.9093 82.8395 3.9093H6.68324C4.79236 3.9093 3.25951 5.44528 3.25951 7.3399V12.2125H86.2633Z" fill="#D1E2F8"/>
<path d="M81.6914 8.28828C81.6914 9.25006 80.9117 10.0313 79.9518 10.0313C78.9919 10.0313 78.2162 9.25006 78.2162 8.28828C78.2162 7.3265 78.9919 6.54921 79.9518 6.54921C80.9117 6.54921 81.6914 7.3265 81.6914 8.28828ZM76.8993 8.28828C76.8993 9.25006 76.1196 10.0313 75.1597 10.0313C74.1998 10.0313 73.4241 9.25006 73.4241 8.28828C73.4241 7.3265 74.1998 6.54921 75.1597 6.54921C76.1196 6.54921 76.8993 7.3265 76.8993 8.28828ZM72.1071 8.28828C72.1071 9.25006 71.3275 10.0313 70.3676 10.0313C69.4077 10.0313 68.6319 9.25006 68.6319 8.28828C68.6319 7.3265 69.4077 6.54921 70.3676 6.54921C71.3275 6.54921 72.1071 7.3265 72.1071 8.28828Z" fill="#BBCFEA"/>
<path d="M76.8997 44.8023C76.8997 43.3969 78.032 42.2585 79.4346 42.2585C80.8334 42.2585 81.9695 43.3969 81.9695 44.8023C81.9695 46.2038 80.8334 47.3423 79.4346 47.3423C78.032 47.3423 76.8997 46.2038 76.8997 44.8023Z" fill="#2382FF"/>
<path d="M81.9695 57.9652C81.9695 59.3667 80.8334 60.5052 79.4346 60.5052C78.032 60.5052 76.8997 59.3667 76.8997 57.9652C76.8997 56.5599 78.032 55.4214 79.4346 55.4214C80.8334 55.4214 81.9695 56.5599 81.9695 57.9652Z" fill="#3088FC"/>
<path d="M79.4347 53.9217C80.8346 53.9217 81.9695 52.7846 81.9695 51.3819C81.9695 49.9792 80.8346 48.8421 79.4347 48.8421C78.0347 48.8421 76.8999 49.9792 76.8999 51.3819C76.8999 52.7846 78.0347 53.9217 79.4347 53.9217Z" fill="#4092FE"/>
<path d="M87.7206 23.5868C88.2017 26.4222 85.4947 30.5529 84.9516 30.9168C84.9083 30.9476 84.8523 30.9595 84.7807 30.9685C84.4807 31.8175 81.1747 41.1509 76.874 46.7126C74.8994 49.2604 73.3884 50.0593 71.3138 49.65C71.0988 49.61 70.8765 49.5572 70.646 49.4882C63.2069 47.2794 60.158 42.6805 60.158 42.6805L66.6161 35.2252C66.6161 35.2252 67.9485 36.3069 69.436 37.4267C69.46 37.446 69.4829 37.4617 69.5069 37.481C71.2615 38.8007 73.2012 40.1464 73.4191 39.8254C73.7634 39.3204 79.2906 31.3317 81.0947 28.8503C81.0544 28.4272 80.9917 27.6725 80.9786 26.9894C80.969 26.3051 81.0037 25.6865 81.1604 25.5312C81.5599 25.1443 82.2909 26.8848 82.294 27.4C82.2962 27.9118 87.2396 20.7515 87.7206 23.5868Z" fill="#ACCFFE"/>
<path opacity="0.52" d="M71.3138 49.6499C71.0988 49.61 70.8765 49.5572 70.646 49.4882C63.2069 47.2794 60.158 42.6805 60.158 42.6805L66.6161 35.2252C66.6161 35.2252 67.9485 36.3069 69.436 37.4267C68.4418 41.5336 69.1434 46.0335 71.3138 49.6499Z" fill="#90C0FF"/>
<path d="M61.1118 47.5239L61.5347 51.8974L62.1777 58.5504H31.6715L33.3626 49.1999C33.3626 49.1999 26.7425 49.5908 21.5422 42.3628C21.5422 42.3628 28.9141 31.3623 35.0389 26.4595C35.6039 26.0072 36.1578 25.6061 36.6943 25.2717C40.5107 22.8885 44.8063 22.2882 49.1467 22.9759C53.7956 23.7113 58.0793 25.9389 61.4817 29.1959C65.706 33.2357 67.9806 36.575 67.9806 36.575C67.9806 36.575 64.335 46.507 61.1118 47.5239Z" fill="#4F94EE"/>
<path d="M33.5143 48.6486C33.5143 48.6486 43.0518 51.8838 51.3153 51.7995C55.2883 51.7593 58.9687 50.9524 61.1512 48.6486L60.1585 39.7668C60.1585 39.7668 51.346 42.4118 40.0811 40.7539C38.482 40.5182 36.835 40.1962 35.1555 39.7668L33.5143 48.6486Z" fill="white"/>
<path d="M0.246295 37.197C0.730292 40.0318 4.65065 43.0301 5.28341 43.1931C5.33438 43.2077 5.39118 43.2004 5.46168 43.1851C6.02561 43.8865 12.2321 51.5945 18.1294 55.4136C20.8351 57.1616 22.5249 57.4136 24.3469 56.3385C24.5365 56.2294 24.7288 56.1058 24.9234 55.9641C31.2115 51.4097 32.5668 46.0583 32.5668 46.0583L24.0077 41.1689C24.0077 41.1689 23.1084 42.632 22.0753 44.1825C22.0591 44.2086 22.0427 44.2311 22.0265 44.2573C20.8076 46.0851 19.4226 47.9988 19.1108 47.7683C18.619 47.4063 10.7616 41.7046 8.23875 39.9626C8.13685 39.55 7.94637 38.8171 7.73269 38.1682C7.51544 37.5195 7.2781 36.9474 7.07887 36.8528C6.57397 36.6205 6.46004 38.5054 6.62752 38.9925C6.7947 39.4761 -0.237788 34.3621 0.246295 37.197Z" fill="#ACCFFE"/>
<path opacity="0.52" d="M24.3469 56.3385C24.5365 56.2294 24.7288 56.1058 24.9234 55.9641C31.2115 51.4097 32.5668 46.0583 32.5668 46.0583L24.0077 41.1689C24.0077 41.1689 23.1084 42.632 22.0753 44.1825C24.3718 47.7271 25.1984 52.2057 24.3469 56.3385Z" fill="#90C0FF"/>
<path d="M31.6715 58.5504L33.3626 49.1999C33.3626 49.1999 26.7425 49.5908 21.5422 42.3628C21.5422 42.3628 28.9141 31.3623 35.0389 26.4595C35.7339 28.5749 36.4307 30.6921 37.1257 32.8075C38.2724 36.2962 39.4298 39.8083 41.2264 43.0084C43.0249 46.2085 45.5273 49.1117 48.7867 50.7883C51.9406 52.4116 55.6321 52.7897 59.1465 52.3302C59.9496 52.2245 60.7465 52.0783 61.5347 51.8974L62.1777 58.5504H31.6715Z" fill="#2077EA"/>
<path d="M34.099 45.8561C34.0766 45.8561 34.0539 45.8541 34.0313 45.8498C33.8302 45.8126 33.6974 45.6191 33.7348 45.4178L34.9186 39.0113C34.9557 38.8097 35.1513 38.676 35.3498 38.7142C35.5509 38.7514 35.6837 38.9449 35.6463 39.1462L34.4625 45.5526C34.4295 45.7312 34.2739 45.8561 34.099 45.8561ZM60.8235 45.8343C60.6361 45.8343 60.4753 45.6922 60.4557 45.5013L59.7897 39.0314C59.7688 38.8278 59.9165 38.6456 60.12 38.6245C60.3217 38.6046 60.5053 38.7516 60.5261 38.9555L61.1921 45.4253C61.2129 45.629 61.0653 45.8112 60.8618 45.8323C60.8489 45.8335 60.8362 45.8343 60.8235 45.8343Z" fill="#2C6ABB"/>
<path d="M41.7029 23.1805C42.139 24.4742 43.7573 25.3634 44.9834 25.7008C46.1464 26.0209 47.3783 26.0477 48.5452 25.7391C51.1734 25.0434 51.2384 23.4124 51.2384 23.4124C50.7947 23.2686 50.5785 22.134 50.4771 20.9131C50.349 19.3739 50.3987 17.6989 50.3987 17.6989H43.4187C43.4187 17.6989 43.214 19.8244 42.9921 21.4612C42.9462 21.7909 42.8315 22.1071 42.6516 22.3811C42.4929 22.6284 42.2844 22.845 42.0319 23.0079C41.8425 23.1306 41.7029 23.1805 41.7029 23.1805Z" fill="#ACCFFE"/>
<path opacity="0.5" d="M42.6516 22.3811C45.037 23.2456 47.8527 22.9638 49.8727 21.4305C50.085 21.2695 50.2858 21.097 50.4771 20.9131C50.349 19.3739 50.3987 17.6989 50.3987 17.6989H43.4187C43.4187 17.6989 43.214 19.8244 42.9921 21.4612C42.9462 21.7909 42.8314 22.1071 42.6516 22.3811Z" fill="#90C0FF"/>
<path d="M41.2822 25.2138C41.3638 25.1392 41.6134 25.2817 42.0642 25.5731C42.5167 25.8599 43.1821 26.2984 44.1487 26.6902C45.7526 27.4212 47.6142 27.5511 49.3114 27.0727C50.3393 26.8352 51.0146 26.5065 51.4014 26.2072C51.793 25.9136 51.9397 25.6747 52.0536 25.716C52.1434 25.7375 52.196 26.0891 51.8345 26.6132C51.4822 27.1366 50.6868 27.685 49.5792 28.0337C47.663 28.5745 45.5571 28.4275 43.74 27.6001C42.6869 27.0684 42.0381 26.4583 41.67 26.0172C41.3029 25.5691 41.2028 25.2856 41.2822 25.2138ZM28.5324 45.5295C28.4487 45.713 27.7945 45.6616 26.6891 45.0521C25.8002 44.4696 24.9781 43.7844 24.2461 43.012C23.4492 42.0319 23.2842 41.394 23.4541 41.2766C23.6401 41.1444 24.1045 41.5412 24.9672 42.324C25.6459 43.0403 26.4095 43.6769 27.2352 44.2177C28.1606 44.9288 28.6319 45.3183 28.5324 45.5295ZM62.0426 43.3349C61.9013 43.1587 62.2983 42.6538 63.043 41.6818C63.7266 40.9023 64.2991 40.0238 64.7364 39.0833C65.3247 38.0104 65.6266 37.4432 65.8495 37.5033C66.0466 37.5526 66.1097 38.2476 65.6383 39.5063C65.1611 40.5322 64.5377 41.4886 63.7921 42.339C62.8307 43.2787 62.17 43.5001 62.0426 43.3349Z" fill="white"/>
<path d="M33.5143 48.6486C33.5143 48.6486 43.0518 51.8838 51.3153 51.7995C50.445 51.5407 49.5976 51.2053 48.7865 50.7875C45.527 49.1124 43.025 46.2087 41.2269 43.0079C40.8138 42.2719 40.4331 41.5186 40.0811 40.7539C38.482 40.5182 36.835 40.1962 35.1555 39.7668L33.5143 48.6486Z" fill="#E4EDF9"/>
<path d="M41.0769 15.3366C41.2649 16.676 41.5364 18.0886 42.4491 19.0847C43.2595 19.9679 44.4793 20.3885 45.676 20.445C46.3256 20.4764 46.9835 20.4094 47.5975 20.1938C48.8423 19.7586 49.8052 18.7666 50.6699 17.7726C50.991 17.4056 51.3071 17.031 51.6052 16.6435C51.9138 16.2424 52.2993 15.9122 52.713 15.6212C52.7149 15.6198 52.7168 15.6185 52.7188 15.6171C53.0488 15.3848 53.3182 15.075 53.573 14.7653C53.7777 14.5184 53.9844 14.2568 54.0367 13.945C54.0847 13.6624 53.997 13.3674 53.8341 13.1352C53.7338 12.997 53.6127 12.8777 53.4748 12.7772C53.7422 11.3291 53.5876 9.79724 53.0132 8.43901C52.2488 6.63098 50.7513 5.14717 48.9363 4.40429L42.1755 3.34117C42.1463 4.35402 41.714 5.30208 41.4069 6.26475C40.4754 9.16942 40.655 12.3127 41.0769 15.3366Z" fill="#ACCFFE"/>
<path d="M38.3423 6.57735C38.6133 7.20759 38.9534 7.82256 39.4571 8.2888C39.9608 8.75503 40.6486 9.05476 41.3288 8.96769C41.8938 8.89339 42.3899 8.56801 42.9141 8.33746C43.2618 8.18121 43.7323 8.22987 44.1542 8.36573C44.6144 8.51935 45.0977 8.59628 45.5809 8.55262L46.0054 8.51685C45.9415 8.20936 45.5068 8.1966 45.2639 7.9967C46.977 7.81481 48.7489 8.88575 49.3882 10.4895C49.6209 11.0788 50.3368 13.1898 50.3368 13.1898C50.3368 13.1898 51.0451 12.7082 51.3545 12.5877C51.7661 12.429 52.234 12.3136 52.6713 12.4239C53.0139 12.5084 53.331 12.7543 53.4281 13.0951C53.5917 12.4058 53.9364 11.8488 54.231 11.2505C54.6731 10.3528 54.8242 9.33147 54.7322 8.33496C54.6963 7.93777 54.6273 7.54585 54.5404 7.15642C54.41 6.56972 54.2361 5.99065 54.0622 5.41421C53.7963 4.54066 53.5227 3.65422 53.0216 2.89076C52.321 1.82494 51.2113 1.06911 50.0095 0.641277C48.8103 0.213447 47.5191 0.0931043 46.2457 0.105864C45.4275 0.116121 44.6042 0.180171 43.8218 0.423609C43.0419 0.66692 42.3055 1.10501 41.8069 1.75576C41.6509 1.96079 41.5205 2.18359 41.3978 2.41164C41.2163 2.7524 41.0526 3.10843 40.8506 3.43893C40.3546 4.25106 39.608 4.90956 38.7412 5.29899C38.5877 5.36817 38.4241 5.43222 38.3142 5.56282C38.084 5.8344 38.1991 6.24947 38.3423 6.57735Z" fill="#02234F"/>
<path opacity="0.5" d="M51.6536 15.1164C51.6383 15.2702 51.761 15.4239 51.9119 15.4418C51.986 15.4521 52.0576 15.4342 52.1266 15.4059C52.367 15.3112 52.5511 15.1113 52.7096 14.9064C52.9986 14.5349 53.2542 14.1045 53.2645 13.633C53.267 13.4844 53.2415 13.3257 53.1418 13.2155C53.0011 13.0592 52.7531 13.049 52.5485 13.1054C52.1369 13.2155 51.7968 13.5562 51.6817 13.9662L51.6536 15.1164Z" fill="#90C0FF"/>
<path d="M41.945 5.4092C42.4538 5.72682 43.1135 5.61661 43.6939 5.46549C44.5991 5.22981 45.517 4.9147 46.4452 5.03254C47.3657 5.14525 48.2171 5.71143 48.685 6.5108C48.8001 6.71058 48.8947 6.92324 49.0328 7.10776C49.3703 7.55611 49.9405 7.7764 50.4979 7.81743C51.0579 7.85834 51.6127 7.7405 52.1599 7.62266C52.6968 7.50995 53.2313 7.39473 53.7656 7.27939C54.0239 7.22297 54.277 7.16918 54.5404 7.15642C54.41 6.56972 54.2361 5.99065 54.0622 5.41421C53.7963 4.54066 53.5227 3.65422 53.0216 2.89076C52.321 1.82494 51.2113 1.06911 50.0095 0.641277C48.8103 0.213447 47.5191 0.0931043 46.2457 0.105864C45.4275 0.116121 44.6042 0.180171 43.8218 0.423609C43.0419 0.66692 42.3055 1.10501 41.8069 1.75576C41.651 1.96079 41.5206 2.18359 41.3978 2.41164C41.3518 2.79081 41.2751 3.17248 41.247 3.55427C41.1933 4.24856 41.3543 5.04279 41.945 5.4092Z" fill="#002C67"/>
<path d="M48.204 11.5788C48.2311 11.5627 48.2354 11.5026 48.1925 11.4031C48.1489 11.3054 48.0555 11.1661 47.8767 11.0373C47.5645 10.8365 47.1624 10.7732 46.8038 10.8683C46.5944 10.9359 46.4629 11.0396 46.3916 11.1192C46.3204 11.2009 46.3063 11.2597 46.3277 11.2839C46.3762 11.3414 46.5387 11.2287 46.8787 11.1661C47.1623 11.0921 47.4669 11.1401 47.7141 11.2977C48.0188 11.4619 48.1388 11.6194 48.204 11.5788ZM43.8214 10.6975C43.8626 10.6577 43.7714 10.4522 43.4043 10.256C43.0856 10.1173 42.7333 10.0621 42.3875 10.0967C41.9787 10.171 41.829 10.3387 41.8568 10.3907C41.8868 10.4581 42.0697 10.4116 42.4173 10.4024C42.7103 10.3727 43.0128 10.4202 43.2828 10.5381C43.6113 10.6533 43.7712 10.7537 43.8214 10.6975ZM45.251 15.9281C45.2249 15.9046 45.1386 15.9736 44.9771 16.0866C44.8966 16.1403 44.7919 16.2037 44.6689 16.2298C44.5518 16.2553 44.3847 16.2333 44.2986 16.1374C44.1429 15.9967 44.2546 15.5723 44.2933 15.2423C44.3481 14.8966 44.4206 14.5537 44.5093 14.2151C44.6971 13.4111 44.8167 13.013 44.7485 12.9862C44.6925 12.9629 44.4616 13.3227 44.2128 14.1369C44.1215 14.4854 44.047 14.8382 43.9905 15.1939C43.9616 15.3727 43.9387 15.5481 43.9188 15.7318C43.9103 15.8261 43.905 15.9279 43.9239 16.0381C43.9419 16.1474 43.9926 16.2669 44.0827 16.3555C44.3102 16.5534 44.5649 16.5313 44.7391 16.4744C44.9171 16.4085 45.0235 16.3054 45.0982 16.2235C45.2427 16.0536 45.2746 15.949 45.251 15.9281ZM44.6661 17.672C44.6585 17.7014 44.723 17.7555 44.8743 17.8038C45.0244 17.8502 45.2649 17.8975 45.5856 17.8621C46.1237 17.7803 46.6385 17.5354 47.0183 17.1237C47.2304 16.8678 47.3027 16.6037 47.2933 16.4343C47.285 16.2625 47.2254 16.1919 47.1967 16.1987C47.1207 16.2078 47.1827 16.5202 46.7896 16.919C46.4734 17.2637 46.0121 17.4892 45.5406 17.5583C44.982 17.6609 44.6837 17.5924 44.6661 17.672Z" fill="#2A3A4F"/>
<path d="M42.7384 13.4118C42.9325 13.4118 43.0898 13.1286 43.0898 12.7793C43.0898 12.43 42.9325 12.1468 42.7384 12.1468C42.5443 12.1468 42.3869 12.43 42.3869 12.7793C42.3869 13.1286 42.5443 13.4118 42.7384 13.4118Z" fill="#2A3A4F"/>
<path d="M46.8572 13.7594C47.0513 13.7594 47.2086 13.4762 47.2086 13.1269C47.2086 12.7776 47.0513 12.4944 46.8572 12.4944C46.6631 12.4944 46.5057 12.7776 46.5057 13.1269C46.5057 13.4762 46.6631 13.7594 46.8572 13.7594Z" fill="#2A3A4F"/>
</g>
<defs>
<clipPath id="clip0_1_64">
<rect width="88" height="65" fill="white"/>
</clipPath>
</defs>
</svg>
