<svg width="15" height="25" viewBox="0 0 15 25" fill="none" xmlns="http://www.w3.org/2000/svg">
<path d="M12.8406 0.876953C13.9658 2.64684 13.892 5.10059 12.6633 6.79991C11.8436 7.93255 10.6143 8.69178 9.63808 9.69268C8.66182 10.6936 7.9205 12.1686 8.43558 13.4693C8.96005 14.7924 10.4962 15.3311 11.6466 16.1688C12.8996 17.0818 13.7798 18.4916 14.0493 20.0185C14.3188 21.5455 13.9752 23.1716 13.1096 24.4585H1.16066C1.16066 24.4585 -0.93831 20.4579 1.76049 17.4093C4.45928 14.3606 5.90948 14.3106 5.80877 12.3115C5.70806 10.3124 4.30928 9.66253 3.50962 8.91288C2.70997 8.16322 -1.18902 6.41409 1.11066 0.87784L12.8406 0.876953Z" fill="#FAFAFA"/>
<path d="M12.8407 0.876925C12.8407 0.876925 12.7712 0.875861 12.6348 0.875329L12.0291 0.873557L9.69735 0.871074L1.11053 0.864868H1.10184L1.09865 0.872847C0.935351 1.28757 0.770279 1.71435 0.653433 2.16719C0.533041 2.61755 0.434457 3.08688 0.399528 3.57324C0.364598 4.05959 0.378606 4.55978 0.475238 5.05748C0.575952 5.56449 0.758418 6.05176 1.0155 6.50023C1.14878 6.72901 1.29922 6.94737 1.4655 7.15343C1.63555 7.3616 1.81917 7.5583 2.01515 7.74227C2.21443 7.92894 2.42297 8.10546 2.63999 8.27117C2.85736 8.43944 3.08432 8.59831 3.30595 8.76622C3.41695 8.84991 3.51872 8.94352 3.62404 9.03803C3.72936 9.13253 3.83982 9.21924 3.95029 9.30754C4.17103 9.48484 4.39355 9.66073 4.60473 9.854C5.03026 10.2341 5.3886 10.709 5.58612 11.2616C5.6852 11.5392 5.74801 11.8284 5.77301 12.1221C5.77886 12.1959 5.78879 12.2696 5.79074 12.3439C5.79269 12.4182 5.79659 12.4925 5.79304 12.567C5.79112 12.7162 5.77611 12.8649 5.74818 13.0115C5.69087 13.3076 5.56834 13.5873 5.38949 13.8301C5.21218 14.0762 4.99516 14.2927 4.76891 14.501C4.31536 14.9159 3.83415 15.3119 3.37315 15.7394C2.91215 16.1668 2.46019 16.6133 2.02703 17.0851C1.81196 17.3217 1.59352 17.5598 1.40646 17.824C1.21356 18.086 1.0458 18.3656 0.905386 18.6591C0.621387 19.2547 0.447199 19.8967 0.391195 20.5541C0.329669 21.2146 0.376657 21.8875 0.507509 22.546C0.57283 22.8767 0.658453 23.2031 0.763895 23.5233C0.8677 23.8466 0.994504 24.162 1.14333 24.4671L1.14812 24.4771H1.46727H13.1091H13.1185L13.1236 24.4693C13.684 23.6256 14.0277 22.6568 14.1244 21.6487C14.2215 20.6801 14.0796 19.7025 13.7109 18.8016C13.3602 17.9406 12.8203 17.1695 12.1312 16.5454C11.7976 16.2399 11.4256 15.9901 11.0529 15.7589C10.6802 15.5277 10.3036 15.3129 9.94788 15.0785C9.59221 14.8441 9.25231 14.5936 8.97518 14.2874C8.69716 13.9838 8.48457 13.6273 8.3734 13.2441C8.26222 12.861 8.26063 12.4583 8.32588 12.0794C8.39113 11.7005 8.52588 11.34 8.69521 11.0088C8.86318 10.6841 9.06476 10.3779 9.29663 10.0953C9.52199 9.81658 9.77235 9.56924 10.0236 9.33591C10.5295 8.87012 11.0472 8.46284 11.513 8.0444C11.7463 7.83553 11.9674 7.62471 12.171 7.40822C12.3689 7.19766 12.5512 6.97295 12.7164 6.73587C13.0159 6.30147 13.2465 5.82343 13.4001 5.31865C13.5352 4.88316 13.6135 4.43201 13.6329 3.97644C13.6426 3.87218 13.6387 3.76969 13.6385 3.66987C13.6384 3.57005 13.6403 3.47235 13.6299 3.37749L13.6086 3.10018C13.5978 3.01046 13.5829 2.92287 13.5708 2.83919C13.4657 2.16223 13.2614 1.66772 13.1022 1.35105C13.0702 1.27951 13.0342 1.20989 12.9942 1.14253L12.9084 0.99643C12.8623 0.918061 12.8387 0.879053 12.8387 0.879053L12.9064 0.998736C12.9289 1.0381 12.9569 1.08692 12.9905 1.14519C13.0298 1.21266 13.0653 1.28228 13.0969 1.3537C13.2541 1.67073 13.4561 2.16524 13.5593 2.84096C13.5712 2.92536 13.5857 3.01206 13.5962 3.10142L13.6169 3.37838C13.6268 3.47288 13.6236 3.57022 13.6247 3.66987C13.6258 3.76952 13.6284 3.87165 13.6183 3.97573C13.5981 4.42996 13.5193 4.87967 13.3837 5.31369C13.2303 5.81539 13.0004 6.29046 12.7024 6.72222C12.5374 6.95841 12.3554 7.18218 12.1577 7.39173C11.9545 7.60751 11.7335 7.81727 11.5002 8.02578C11.0344 8.44316 10.5163 8.84973 10.0091 9.31587C9.75622 9.54938 9.50462 9.79726 9.27802 10.0771C9.04472 10.3611 8.84189 10.6689 8.67287 10.9953C8.5023 11.3281 8.36719 11.6898 8.30052 12.0732C8.23386 12.4565 8.23492 12.8618 8.34769 13.2501C8.46045 13.6384 8.67482 13.9989 8.95532 14.3053C9.23475 14.6145 9.57784 14.8661 9.93281 15.1019C10.2878 15.3378 10.666 15.5518 11.0381 15.7832C11.4103 16.0145 11.78 16.2631 12.1117 16.567C12.7968 17.1883 13.3334 17.9557 13.682 18.8123C14.0483 19.7084 14.1891 20.6807 14.0919 21.6439C13.9955 22.6463 13.6535 23.6095 13.0962 24.4483L13.1105 24.4405H1.46869H1.16071L1.17684 24.4503C1.02907 24.1469 0.903094 23.8333 0.799889 23.512C0.694847 23.1933 0.609577 22.8683 0.544566 22.5391C0.414245 21.8831 0.367258 21.2139 0.428606 20.5573C0.484269 19.9042 0.657379 19.2665 0.939607 18.6749C1.0787 18.3833 1.24492 18.1055 1.43607 17.8451C1.6226 17.5828 1.83997 17.3459 2.05487 17.1092C2.48726 16.6381 2.9352 16.1901 3.39868 15.7654C3.85968 15.3383 4.33841 14.9429 4.79427 14.5268C5.02016 14.3175 5.23949 14.0996 5.41839 13.8502C5.60007 13.6033 5.72448 13.319 5.78258 13.018C5.81092 12.8696 5.82611 12.7189 5.82797 12.5677C5.83152 12.4925 5.82797 12.4173 5.82567 12.3425C5.82336 12.2677 5.8129 12.1932 5.80687 12.1187C5.78162 11.8222 5.71809 11.5302 5.61786 11.2499C5.41821 10.6916 5.05456 10.2116 4.62707 9.82953C4.41536 9.63449 4.19142 9.45825 3.97103 9.282C3.86075 9.19335 3.75153 9.1047 3.64585 9.01338C3.54017 8.92207 3.43769 8.82473 3.3267 8.74068C3.104 8.57207 2.8774 8.41355 2.66037 8.24582C2.44408 8.08093 2.23625 7.90523 2.03767 7.71939C1.84229 7.5367 1.65927 7.34123 1.48979 7.13428C1.32439 6.92964 1.17473 6.71277 1.04209 6.48551C0.786353 6.03949 0.604844 5.55485 0.504672 5.05056C0.408217 4.55588 0.392258 4.05764 0.428251 3.57413C0.464245 3.09061 0.560701 2.62216 0.680207 2.1734C0.796343 1.72215 0.960707 1.29608 1.12348 0.882244L1.11142 0.890223L9.69309 0.88384L12.0266 0.880471L12.6339 0.878876C12.7701 0.877989 12.8407 0.876925 12.8407 0.876925Z" fill="#0047AB"/>
<path d="M1.58734 4.12292C-0.172613 4.41229 2.60225 7.52935 4.17302 8.75933C5.0826 9.47158 6.05921 10.2439 6.49113 11.3154C6.98121 12.5308 6.61808 13.8972 6.8555 15.1199C6.89504 15.3229 7.19504 15.291 7.19238 15.0844C7.18068 14.2817 7.20213 13.4796 7.33423 12.6894C7.52288 11.5688 7.95374 10.4601 8.73921 9.6386C9.38036 8.9682 10.221 8.5228 10.9048 7.89602C11.9034 6.98094 12.9292 5.80078 13.0292 4.45005C13.0292 4.45005 11.1121 2.90588 10.0479 3.10074C8.80428 3.32858 7.5798 5.24758 5.65282 5.0279C4.30777 4.87417 3.62886 3.78746 1.58734 4.12292ZM1.43113 20.807C1.47564 20.3668 1.59284 19.8687 1.98362 19.6611C2.22015 19.5354 2.50828 19.5494 2.7675 19.6175C3.02672 19.6855 3.27017 19.8035 3.52691 19.8797C4.03695 20.0297 4.58163 20.0125 5.08118 19.8306C5.55867 19.655 5.96772 19.338 6.41188 19.0887C6.85603 18.8394 7.3743 18.6536 7.86792 18.7765C8.719 18.9893 9.16227 20.0132 10.0038 20.2606C10.3777 20.3705 10.7795 20.3088 11.1596 20.2226C11.5398 20.1364 11.9221 20.026 12.3121 20.0405C12.6175 20.0519 12.935 20.1575 13.149 20.3666L13.1469 20.3637C13.149 20.3659 13.1508 20.3682 13.1529 20.3705C13.1883 20.4053 13.2206 20.4432 13.2494 20.4836C13.5106 20.8315 13.5522 21.2992 13.4719 21.7248C13.382 22.2005 13.1598 22.6402 12.9212 23.0617C12.6403 23.5581 12.3212 24.0521 11.8573 24.3829C11.2843 24.7908 10.563 24.5094 9.86228 24.5647C8.22626 24.6938 6.46613 24.7819 4.82994 24.6551C3.96556 24.5881 3.15545 24.6817 2.46962 24.1516C1.98717 23.7792 1.67334 23.2163 1.52209 22.6253C1.37085 22.0343 1.36979 21.4138 1.43113 20.807Z" fill="#6495ED"/>
<path d="M13.9871 25C13.9871 25 14.0199 24.4516 13.3046 24.1464H0.736003C0.736003 24.1464 0.0799656 24.478 0 24.9887L13.9871 25ZM1.00232 0.943823L1.02235 0.953043L12.8406 0.876978C12.8406 0.876978 12.8824 0.850027 12.9454 0.800913C13.2823 0.537612 13.0931 -0.00335318 12.6656 1.56616e-05L1.19505 0.0927476C0.721639 0.0966484 0.574297 0.741515 1.00232 0.943823Z" fill="#0047AB"/>
<path opacity="0.24" d="M2.89382 5.45204C2.87006 5.4976 2.95871 5.59619 3.12822 5.74654C3.29772 5.8969 3.54631 6.10346 3.86174 6.35772C4.17717 6.61198 4.56299 6.91394 5.05236 7.19763C5.31199 7.34765 5.58504 7.47314 5.86797 7.57246C6.02145 7.62558 6.17815 7.66887 6.33713 7.70207C6.50399 7.73803 6.67354 7.76009 6.84405 7.76802C7.18942 7.78709 7.53525 7.73984 7.86286 7.62884C8.17793 7.51944 8.44673 7.36554 8.68167 7.21093C8.9166 7.05631 9.12032 6.90046 9.31164 6.75294C9.50295 6.60542 9.67618 6.46251 9.83133 6.3274C10.4519 5.78945 10.7787 5.39406 10.7157 5.31764C10.6507 5.23838 10.2113 5.4898 9.52636 5.91073L8.96695 6.25417C8.76624 6.37652 8.55028 6.51145 8.33006 6.63627C8.10985 6.7611 7.87882 6.87457 7.63981 6.94816C7.39368 7.02223 7.13647 7.05254 6.87987 7.0377C6.34156 7.01039 5.81921 6.82067 5.36655 6.60223C4.91175 6.37953 4.50483 6.12775 4.15004 5.92846C3.79525 5.72917 3.49259 5.57917 3.27201 5.50026C3.05144 5.42136 2.91598 5.40824 2.89382 5.45204Z" fill="#0047AB"/>
<path d="M7.18321 16.5848C7.0536 16.539 6.89846 16.6695 6.92133 16.8052C6.9442 16.9408 7.1341 17.0133 7.24048 16.9275C7.34687 16.8417 7.31974 16.6411 7.19261 16.5887" fill="#ABABAB"/>
<path d="M11.4104 7.4079C11.4254 7.39496 11.4394 7.38085 11.4521 7.3657C11.4805 7.33473 11.5187 7.29289 11.5666 7.24017C11.615 7.18449 11.6787 7.12013 11.7439 7.03786L11.9672 6.7602C12.0434 6.6524 12.1299 6.53626 12.2168 6.40771C12.2582 6.34187 12.3009 6.2739 12.345 6.20381C12.3667 6.16835 12.3901 6.13288 12.411 6.09742L12.4727 5.98377C12.6594 5.65309 12.8056 5.30115 12.9081 4.93553C13.0115 4.56981 13.067 4.19226 13.0734 3.81229C13.0734 3.72487 13.0688 3.63959 13.0668 3.55678C13.0649 3.5153 13.0658 3.47434 13.0615 3.43444C13.0573 3.39455 13.0532 3.35519 13.0489 3.31653C13.0401 3.23923 13.034 3.1644 13.0236 3.09295C13.0131 3.02149 12.9984 2.95394 12.9867 2.88887C12.9667 2.75802 12.9321 2.6433 12.9073 2.54135C12.8938 2.49081 12.8833 2.44294 12.8699 2.3995L12.8317 2.28265L12.7785 2.12148C12.7729 2.10255 12.7658 2.08406 12.7574 2.06616C12.7605 2.0858 12.7653 2.10513 12.7716 2.12396C12.7833 2.16421 12.7991 2.21865 12.819 2.28673L12.8544 2.40411C12.8667 2.4472 12.8762 2.49507 12.8888 2.54596C12.9115 2.64791 12.9443 2.76263 12.9626 2.89295C12.9736 2.95784 12.985 3.02569 12.997 3.0965C13.0066 3.16742 13.0119 3.24206 13.02 3.31884C13.0239 3.35737 13.0278 3.39644 13.0317 3.43604C13.0355 3.47576 13.0344 3.51654 13.036 3.55749C13.0374 3.63977 13.0417 3.72452 13.041 3.81122C13.0326 4.18805 12.9766 4.56231 12.8743 4.92507C12.7724 5.28807 12.6281 5.63782 12.4445 5.9671C12.4239 6.0054 12.4037 6.04323 12.3839 6.08058C12.3631 6.11746 12.3401 6.15239 12.3188 6.18696C12.2755 6.25694 12.2335 6.32491 12.1927 6.39087C12.1073 6.51959 12.0223 6.63608 11.9477 6.7446L11.7282 7.02492C11.6647 7.10825 11.6028 7.17386 11.5562 7.23095L11.447 7.36074C11.4335 7.37542 11.4213 7.3912 11.4104 7.4079ZM12.0759 17.8245C12.0722 17.8164 12.0678 17.8087 12.0627 17.8015C12.0525 17.785 12.0386 17.7632 12.0211 17.7355L11.9521 17.6291L11.908 17.5612C11.8902 17.538 11.8704 17.5148 11.85 17.4903C11.8087 17.4396 11.7626 17.3839 11.7124 17.3222C11.6592 17.2641 11.5966 17.2038 11.5317 17.1375C11.3802 16.9922 11.2195 16.8569 11.0505 16.7325C10.6782 16.4504 10.198 16.1701 9.67761 15.8429C9.41927 15.6766 9.14746 15.5016 8.89036 15.2883C8.63327 15.075 8.38486 14.8328 8.18397 14.5419C7.78787 13.9528 7.62687 13.2706 7.61286 12.6606C7.59691 12.0461 7.72758 11.4987 7.88166 11.0624C8.00538 10.7168 8.16083 10.3834 8.34603 10.0664C8.4111 9.95368 8.46429 9.86787 8.501 9.81006L8.54231 9.74393C8.54739 9.73661 8.55179 9.72883 8.55543 9.7207C8.54942 9.72723 8.54402 9.73429 8.53929 9.7418L8.49497 9.80598C8.45614 9.86255 8.40082 9.94783 8.3338 10.0592C8.14319 10.3745 7.98363 10.7076 7.85737 11.0537C7.69939 11.4909 7.56499 12.0415 7.57917 12.6613C7.58188 12.8196 7.59479 12.9776 7.61783 13.1342C7.64054 13.2979 7.67485 13.4598 7.72049 13.6186C7.8143 13.954 7.96048 14.2725 8.15365 14.5623C8.3572 14.8573 8.60827 15.1034 8.86785 15.316C9.12742 15.5286 9.39977 15.7061 9.6597 15.8713C10.182 16.1976 10.6624 16.4742 11.0351 16.7532C11.2042 16.876 11.3654 17.0093 11.5177 17.1524C11.5828 17.2176 11.645 17.2765 11.6996 17.3339C11.7503 17.3942 11.797 17.4494 11.839 17.499C11.8597 17.524 11.8801 17.5469 11.8979 17.5699L11.9432 17.6368L12.0142 17.741L12.0588 17.805C12.064 17.812 12.0697 17.8185 12.0759 17.8245ZM12.728 19.0628C12.7317 19.0743 12.7368 19.0852 12.7433 19.0953L12.7933 19.1839C12.8158 19.2221 12.8425 19.2692 12.8697 19.3258C12.8968 19.3824 12.9323 19.4451 12.9617 19.5187L13.0112 19.6327C13.0289 19.6724 13.0418 19.7152 13.0583 19.7588C13.0925 19.8453 13.1191 19.9412 13.1495 20.0412C13.2714 20.4793 13.3135 20.9358 13.2736 21.3888C13.2621 21.4927 13.2534 21.5918 13.2355 21.6831C13.2271 21.7288 13.2214 21.7735 13.2121 21.8157C13.2027 21.8579 13.1931 21.898 13.1842 21.9368C13.1686 22.0145 13.1456 22.0824 13.1287 22.143C13.1119 22.2037 13.0947 22.2553 13.0794 22.2968L13.0466 22.3937C13.042 22.4051 13.0389 22.417 13.0374 22.4292C13.0442 22.4193 13.0496 22.4085 13.0534 22.3971C13.064 22.3716 13.0771 22.3404 13.0927 22.3024C13.114 22.2527 13.1325 22.2018 13.1482 22.1499C13.167 22.0895 13.1918 22.0216 13.2092 21.9437C13.219 21.9049 13.2291 21.8643 13.2395 21.8223C13.25 21.7803 13.2562 21.735 13.2652 21.6889C13.2846 21.5971 13.2945 21.4973 13.3071 21.3925C13.3516 20.9354 13.3095 20.474 13.183 20.0325C13.1514 19.9318 13.1236 19.8354 13.0878 19.7488C13.07 19.7052 13.056 19.6623 13.0383 19.6226L12.9863 19.5086C12.9551 19.4352 12.9183 19.373 12.8888 19.3169C12.8639 19.2689 12.8364 19.2222 12.8066 19.177L12.7507 19.0912C12.7445 19.0807 12.7369 19.0712 12.728 19.0628ZM4.05891 20.7485C4.06325 20.7526 4.06808 20.7561 4.07328 20.759L4.11689 20.7863L4.28711 20.8886L4.41122 20.9616C4.45715 20.987 4.50892 21.0109 4.56353 21.0388C4.67382 21.092 4.79633 21.1597 4.94066 21.2143L5.16478 21.3061C5.24297 21.3375 5.32737 21.3616 5.41301 21.3912C5.58376 21.4537 5.77259 21.4976 5.97011 21.5496C6.83536 21.7512 7.73261 21.7747 8.6072 21.6184C8.80703 21.5772 8.99728 21.5428 9.17175 21.4895C9.25898 21.4643 9.34445 21.4446 9.42424 21.4173L9.65278 21.3372C9.79977 21.2904 9.92566 21.229 10.0386 21.1817C10.0946 21.1568 10.1475 21.1356 10.1946 21.1127L10.3218 21.046L10.4969 20.9529L10.542 20.9279C10.5473 20.9254 10.5524 20.9221 10.5569 20.9182C10.551 20.9195 10.5454 20.9217 10.5402 20.9246L10.4934 20.9464L10.3161 21.0334L10.1879 21.0969C10.1406 21.1187 10.0874 21.1391 10.0312 21.1629C9.91786 21.2084 9.79179 21.2677 9.64481 21.3129L9.41643 21.3904C9.33682 21.4168 9.25154 21.4359 9.16466 21.4602C8.99143 21.5122 8.80118 21.5453 8.60206 21.5843C7.73148 21.736 6.8394 21.7128 5.97791 21.5159C5.78128 21.4655 5.59298 21.4225 5.42276 21.3616C5.3373 21.3327 5.25308 21.3084 5.17453 21.2788L4.95059 21.1902C4.80609 21.137 4.68339 21.0716 4.57257 21.0203C4.51779 20.9935 4.46619 20.9705 4.41938 20.9462L4.29527 20.8753L4.12204 20.7792L4.07647 20.7549C4.07095 20.7519 4.06504 20.7498 4.05891 20.7485ZM3.3277 5.90912C3.33214 5.91427 3.33713 5.91891 3.34259 5.92295L3.38852 5.9609L3.5676 6.10363C3.72363 6.22774 3.94916 6.40505 4.23409 6.61888C4.51903 6.83272 4.86566 7.07776 5.27702 7.30843C5.48464 7.41943 5.70592 7.53273 5.94883 7.61748C6.19871 7.70839 6.45935 7.76639 6.7242 7.79C7.2719 7.82706 7.79123 7.68822 8.21358 7.48024C8.41266 7.3789 8.60486 7.26459 8.78894 7.13804C8.96004 7.01712 9.11643 6.90027 9.25473 6.78821C9.53239 6.56551 9.74977 6.37704 9.90101 6.24778L10.0742 6.09795L10.1186 6.05842C10.1285 6.0492 10.1335 6.04441 10.1329 6.04388C10.127 6.04708 10.1214 6.05095 10.1163 6.0554L10.0695 6.09228L9.89215 6.23679C9.73825 6.36267 9.51821 6.54832 9.23913 6.76871C9.09994 6.87935 8.94338 6.9946 8.7721 7.11375C8.58877 7.23782 8.39758 7.34988 8.19975 7.44921C7.78042 7.65365 7.26747 7.78929 6.7281 7.75294C6.46654 7.72957 6.20909 7.67254 5.96213 7.58326C5.72135 7.49957 5.50113 7.38822 5.29457 7.27829C4.88446 7.05045 4.53782 6.80648 4.25058 6.59743C3.96335 6.38838 3.73639 6.21161 3.57682 6.09175L3.39366 5.95434C3.3738 5.93997 3.35819 5.92845 3.34543 5.91887C3.33993 5.91492 3.33398 5.91165 3.3277 5.90912Z" fill="#0047AB"/>
<path opacity="0.24" d="M9.65143 21.3376C9.31915 21.081 8.8523 21.1425 8.44166 21.2296C8.03102 21.3166 7.617 21.4563 7.20051 21.3982C6.88738 21.3544 6.59979 21.2001 6.29074 21.1333C5.9817 21.0665 5.60634 21.1156 5.43506 21.3815C6.808 21.8236 8.28734 21.8081 9.65072 21.3374" fill="#0047AB"/>
</svg>
