<svg width="17" height="18" viewBox="0 0 17 18" fill="none" xmlns="http://www.w3.org/2000/svg">
<path d="M8.01201 6.51634V0.176323C8.01201 0.02299 8.08172 -0.0303317 8.22119 0.0163349C8.3036 0.0430016 8.3892 0.0729979 8.47795 0.106331C8.53501 0.126331 8.56033 0.166326 8.55399 0.226326C8.28773 2.55299 8.45575 4.82966 9.058 7.05633C9.15624 7.41787 9.36502 7.73528 9.6521 7.95943C9.93917 8.18359 10.2886 8.30201 10.6461 8.29633C12.922 8.25633 14.8967 8.23966 16.5703 8.24633C16.7668 8.253 16.8714 8.373 16.8841 8.60633C16.8967 8.81966 16.8017 8.93632 16.5989 8.95632C9.34333 9.72632 8.14514 7.88632 8.48747 17.1463C8.49381 17.2863 8.43046 17.3363 8.29734 17.2963C8.22126 17.2697 8.1452 17.243 8.06912 17.2163C8.03109 17.203 8.01201 17.1397 8.01201 17.0263V11.0863C8.01211 10.5707 7.82002 10.0756 7.47689 9.70728C7.13376 9.33897 6.6669 9.12679 6.17669 9.11633L0.214513 8.97633C0.182101 8.97594 0.150196 8.96766 0.121185 8.9521C0.0921735 8.93653 0.0666814 8.91407 0.0466622 8.88631C0.0266429 8.85856 0.0126226 8.82622 0.00545409 8.79163C-0.00171442 8.75705 -0.00184198 8.72109 0.00522193 8.68633C0.0495982 8.46633 0.1226 8.35633 0.224031 8.35633C2.43017 8.31633 4.48096 8.28299 6.37646 8.25632C6.81198 8.25106 7.22792 8.06542 7.53412 7.73968C7.84031 7.41393 8.01204 6.97437 8.01201 6.51634Z" fill="#0047AB"/>
</svg>
