<svg width="25" height="24" viewBox="0 0 25 24" fill="none" xmlns="http://www.w3.org/2000/svg">
<path d="M8.74647 2.93677C10.9313 1.66727 13.6169 1.68946 15.7812 2.99489C17.9243 4.32691 19.2268 6.70418 19.2148 9.26144C19.1648 11.8019 17.7681 14.19 16.0223 16.0361C15.0147 17.1064 13.8875 18.0528 12.6637 18.856C12.5376 18.9289 12.3996 18.9777 12.2563 19C12.1184 18.9941 11.9842 18.9534 11.8656 18.8814C9.99727 17.6746 8.35818 16.134 7.02717 14.334C5.91343 12.8314 5.28068 11.016 5.21484 9.13442L5.21983 8.86069C5.31077 6.40464 6.63964 4.16093 8.74647 2.93677ZM13.1221 7.03477C12.2339 6.65723 11.2099 6.86235 10.5282 7.55435C9.84643 8.24635 9.64149 9.28872 10.009 10.1948C10.3765 11.1008 11.244 11.6918 12.2064 11.6918C12.8369 11.6964 13.443 11.4438 13.8897 10.9905C14.3363 10.5371 14.5863 9.92064 14.5841 9.27838C14.5875 8.29804 14.0103 7.41231 13.1221 7.03477Z" fill="#0047AB"/>
<path opacity="0.4" d="M12.2148 22C14.9763 22 17.2148 21.5523 17.2148 21C17.2148 20.4477 14.9763 20 12.2148 20C9.45342 20 7.21484 20.4477 7.21484 21C7.21484 21.5523 9.45342 22 12.2148 22Z" fill="#0047AB"/>
</svg>
