<svg width="357" height="605" viewBox="0 0 357 605" fill="none" xmlns="http://www.w3.org/2000/svg">
<path opacity="0.31" d="M278.978 411.536L224.883 385.349L163.836 458.152L153.586 443.601L166.345 345.734L115.811 193.63L0 234.631L30.8462 312.284L129.979 550.93L151.842 605L154.374 589.302L178.53 497.194L212.291 459.705L272.574 455.07L176.571 388.623L278.978 411.536Z" fill="#010101" fill-opacity="0.3"/>
<path d="M185.723 125.153C221.537 125.153 250.569 97.1363 250.569 62.5764C250.569 28.0164 221.537 -6.10352e-05 185.723 -6.10352e-05C149.909 -6.10352e-05 120.877 28.0164 120.877 62.5764C120.877 97.1363 149.909 125.153 185.723 125.153Z" fill="#0047AB"/>
<path d="M356.87 502.115L317.423 521.922C305.954 500.108 281.631 485.652 254.082 487.85C221.85 490.431 196.141 516.355 194.802 547.536C194.301 559.172 197.072 570.163 202.377 579.672L199.701 581.01L178.627 591.571L151.866 604.999C138.056 573.818 126.372 542.518 116.504 511.624C114.903 506.678 113.35 501.685 111.869 496.739V496.691C110.77 493.059 109.671 489.332 108.835 486.441C107.998 483.573 107.425 481.59 107.425 481.59C89.72 419.826 78.8963 360.595 72.3974 308.627L72.4452 309.631C63.7958 252.597 63.3657 190.499 63.3657 190.499C63.079 180.177 63.0073 170.835 63.0073 162.592C63.0073 157.598 63.0073 152.987 63.1029 148.829C63.3657 132.295 63.963 122.523 64.0347 121.137V120.97L98.5844 125.653L116.026 128.568C115.907 130.097 115.835 131.65 115.835 133.203C115.835 167.776 144.866 195.779 180.658 195.779C210.524 195.779 235.636 176.33 243.162 149.833L261.799 152.939L290.232 157.932V158.052C290.16 159.031 289.396 172.985 289.491 195.421C289.491 195.421 291.14 258.69 293.816 283.109C297.185 317.73 302.872 356.079 312.501 393.568C312.548 393.687 312.572 393.783 312.596 393.902C316.228 408.644 316.73 409.098 316.754 409.098C326.407 442.477 339.404 474.59 356.894 502.091L356.87 502.115Z" fill="#6495ED"/>
</svg>
