<svg width="29" height="29" viewBox="0 0 29 29" fill="none" xmlns="http://www.w3.org/2000/svg">
<g clip-path="url(#clip0_11_2972)">
<path d="M28.5 0.54933C28.3497 0.473961 28.1815 0.441864 28.014 0.456628C27.8466 0.471392 27.6866 0.532434 27.5518 0.632932L22.0815 4.71446C22.0471 4.7059 22.0119 4.70142 21.9766 4.70109C21.9736 4.70109 21.9711 4.70177 21.9682 4.70199L17.1376 1.09784C16.9811 0.981042 16.791 0.917944 16.5957 0.917944C16.4004 0.917944 16.2103 0.981042 16.0538 1.09784L6.28711 8.38477L1.44819 4.77449C1.31345 4.67396 1.1534 4.61289 0.985945 4.59811C0.818486 4.58333 0.650217 4.61541 0.499949 4.69078C0.349682 4.76615 0.22334 4.88183 0.135049 5.02489C0.0467583 5.16795 -6.55444e-07 5.33274 0 5.50085L0 23.6259C-5.50032e-07 23.7669 0.0329339 23.9061 0.0961813 24.0322C0.159429 24.1583 0.251242 24.2679 0.364312 24.3522L5.74517 28.3669C5.90171 28.4837 6.0918 28.5468 6.28711 28.5468C6.48242 28.5468 6.67251 28.4837 6.82905 28.3669L16.5957 21.0797L21.4913 24.7324C21.6478 24.8492 21.8379 24.9123 22.0332 24.9123C22.2285 24.9123 22.4186 24.8492 22.5751 24.7324L28.6357 20.2107C28.7488 20.1263 28.8406 20.0167 28.9038 19.8906C28.9671 19.7645 29 19.6254 29 19.4843V1.35929C29 1.19119 28.9532 1.02641 28.8649 0.883377C28.7766 0.740339 28.6502 0.62468 28.5 0.54933ZM0.90625 5.50085L5.89062 9.21965V13.7069C5.89061 13.7907 5.9138 13.8728 5.95763 13.9442C6.00147 14.0155 6.06422 14.0734 6.13893 14.1112C6.21363 14.1491 6.29737 14.1655 6.38084 14.1586C6.46431 14.1518 6.54424 14.1219 6.61177 14.0724L10.6484 11.1121V15.4995L6.09589 18.8612L0.919844 15.6259C0.915312 15.6234 0.910781 15.6219 0.90625 15.6194V5.50085ZM6.06916 22.6358C6.01369 22.678 5.96872 22.7325 5.93775 22.795C5.90678 22.8575 5.89066 22.9263 5.89062 22.996V27.3447L0.90625 23.6259V16.6862L5.87703 19.7931C5.95413 19.8412 6.04393 19.8651 6.13476 19.8615C6.22558 19.858 6.31324 19.8272 6.38634 19.7732L10.6484 16.6258V19.1467L6.06916 22.6358ZM16.0859 20.3294L6.79688 27.2601V23.2205L11.3762 19.7315C11.4317 19.6892 11.4766 19.6347 11.5076 19.5721C11.5386 19.5096 11.5547 19.4408 11.5547 19.371V10.4474L16.0859 7.12463V20.3294ZM28.0938 19.4843L22.4297 23.7104V21.3534L28.0938 17.1054V19.4843ZM28.0938 3.45182L22.7145 7.39356C23.1075 7.43768 23.493 7.53288 23.8613 7.67676L28.0938 4.57535V12.3428L26.2867 13.6514C26.0258 14.2645 25.722 14.8584 25.3775 15.4286L28.0938 13.4618V15.9726L21.7047 20.7644C21.6484 20.8066 21.6027 20.8613 21.5712 20.9242C21.5398 20.9871 21.5234 21.0565 21.5234 21.1269V23.6259L16.9922 20.2451V10.0815L17.8586 10.5654C17.9455 10.2731 18.0627 9.99066 18.2081 9.72262L17.0622 9.08213C17.0398 9.07005 17.0163 9.05989 16.9922 9.05177V6.23039C16.9922 6.14663 16.969 6.06452 16.9252 5.99315C16.8813 5.92179 16.8186 5.86397 16.7439 5.82611C16.6692 5.78825 16.5854 5.77184 16.502 5.77869C16.4185 5.78555 16.3386 5.8154 16.271 5.86494L6.79688 12.8127V9.13514L16.5957 1.82397L21.5234 5.50085V7.41893C21.7483 7.38354 21.9755 7.36491 22.2031 7.3632C22.2797 7.3632 22.354 7.3709 22.4297 7.37453V5.58536L28.0938 1.35929V3.45182Z" fill="#0047AB"/>
<path d="M18.5781 11.8238C18.5781 13.463 20.7996 16.5258 21.4804 17.4258C21.5649 17.5374 21.6741 17.628 21.7995 17.6904C21.9249 17.7528 22.0631 17.7852 22.2031 17.7852C22.3432 17.7852 22.4813 17.7528 22.6067 17.6904C22.7321 17.628 22.8414 17.5374 22.9259 17.4258C23.6067 16.5258 25.8281 13.463 25.8281 11.8235C25.8097 10.8743 25.4197 9.97012 24.7419 9.3053C24.0641 8.64048 23.1526 8.26807 22.2031 8.26807C21.2537 8.26807 20.3421 8.64048 19.6643 9.3053C18.9865 9.97012 18.5965 10.8745 18.5781 11.8238ZM23.5625 11.8945C23.5625 12.1633 23.4828 12.4261 23.3334 12.6497C23.184 12.8732 22.9717 13.0475 22.7233 13.1504C22.4749 13.2532 22.2016 13.2802 21.9379 13.2277C21.6742 13.1753 21.432 13.0458 21.2419 12.8557C21.0518 12.6656 20.9223 12.4234 20.8699 12.1597C20.8174 11.896 20.8443 11.6226 20.9472 11.3742C21.0501 11.1259 21.2243 10.9135 21.4479 10.7642C21.6714 10.6148 21.9343 10.5351 22.2031 10.5351C22.5635 10.5355 22.909 10.6789 23.1639 10.9337C23.4187 11.1885 23.5621 11.5341 23.5625 11.8945Z" fill="#0047AB"/>
</g>
<defs>
<clipPath id="clip0_11_2972">
<rect width="29" height="29" fill="white"/>
</clipPath>
</defs>
</svg>
