<svg width="26" height="26" viewBox="0 0 26 26" fill="none" xmlns="http://www.w3.org/2000/svg">
<path d="M6.5 2.03125H13C14.3406 2.03125 15.4375 3.12813 15.4375 4.46875C15.4375 5.80938 14.3406 6.90625 13 6.90625H10.9688V8.53125C10.9688 8.85625 10.8062 9.14062 10.5219 9.2625C10.4 9.30312 10.2781 9.34375 10.1562 9.34375C9.99375 9.34375 9.83125 9.30313 9.66875 9.18125L6.5 6.90625C5.15938 6.90625 4.0625 5.80938 4.0625 4.46875C4.0625 3.12813 5.15938 2.03125 6.5 2.03125Z" fill="#BEBEBE"/>
<path d="M13 6.90625C14.3406 6.90625 15.4375 5.80937 15.4375 4.46875H14.0563C12.7156 4.46875 11.6594 5.525 11.6594 6.86562V6.90625H13Z" fill="#B8B9B9"/>
<path d="M10.9688 2.03125H7.3125C7.06875 2.03125 6.90625 2.19375 6.90625 2.4375C6.90625 2.68125 7.06875 2.84375 7.3125 2.84375H10.9688C11.2125 2.84375 11.375 2.68125 11.375 2.4375C11.375 2.19375 11.2125 2.03125 10.9688 2.03125Z" fill="#F5F3FF"/>
<path d="M8.6125 25.5125C8.40938 25.5125 8.20625 25.4313 8.04375 25.2688L4.30625 21.5313C3.98125 21.2063 3.98125 20.7188 4.30625 20.3938C4.63125 20.0688 5.11875 20.0688 5.44375 20.3938L9.18125 24.1313C9.50625 24.4563 9.50625 24.9438 9.18125 25.2688C9.05937 25.4313 8.85625 25.5125 8.6125 25.5125Z" fill="#868686"/>
<path d="M18.6875 9.75C18.6875 9.50625 17.7125 8.97813 17.4688 9.05938L3.9 12.3906C2.80313 12.5938 0.8125 13.7719 0.8125 16.8594C0.8125 20.7188 3.37188 21.2875 3.45312 21.2875L17.5906 24.7C18.1594 24.7813 18.2406 24.7 18.3625 24.6188C18.5656 24.4563 18.6875 24.2125 18.6875 23.9688V9.75Z" fill="#646464"/>
<path d="M13.8938 17.55C13.8938 17.55 12.4313 20.7187 7.59688 20.2312C3.53438 19.825 1.54376 18.7281 0.975006 18.4031C1.54376 20.8812 3.41251 21.3281 3.45313 21.3281L17.5906 24.7406C17.6313 24.7406 17.6719 24.7406 17.6719 24.7406L18.2813 23.6844L13.8938 17.55Z" fill="#868686"/>
<path d="M18.2813 23.6438C20.3679 23.6438 22.0594 20.6063 22.0594 16.8594C22.0594 13.1125 20.3679 10.075 18.2813 10.075C16.1947 10.075 14.5031 13.1125 14.5031 16.8594C14.5031 20.6063 16.1947 23.6438 18.2813 23.6438Z" fill="#F5F3FF"/>
<path d="M18.2812 24.7812C15.5594 24.7812 13.4062 21.2875 13.4062 16.8594C13.4062 12.4313 15.5594 8.9375 18.2812 8.9375C21.0031 8.9375 23.1562 12.4313 23.1562 16.8594C23.1562 21.2875 21.0031 24.7812 18.2812 24.7812ZM18.2812 11.2125C16.9813 11.2125 15.5594 13.5281 15.5594 16.8594C15.5594 20.1906 16.9813 22.5063 18.2812 22.5063C19.5813 22.5063 21.0031 20.1906 21.0031 16.8594C21.0031 13.5281 19.5813 11.2125 18.2812 11.2125Z" fill="#BEBEBE"/>
<path d="M17.7531 17.1844C17.7531 15.9656 16.9 14.95 15.8031 14.7062C15.6813 15.3562 15.6 16.0875 15.6 16.8594C15.6 17.875 15.7219 18.8094 15.9656 19.6219C16.9813 19.3375 17.7531 18.3625 17.7531 17.1844Z" fill="#868686"/>
<path d="M21.9781 21.5312C21.9375 21.5312 21.8562 21.5312 21.8156 21.4906C21.6125 21.4094 21.4906 21.1656 21.6125 20.9625C22.1 19.7437 22.3844 18.3219 22.3844 16.8594C22.3844 16.4125 22.3437 15.925 22.3031 15.4781C22.2625 15.275 22.425 15.0719 22.6687 15.0312C22.9125 14.9906 23.075 15.1531 23.1156 15.3969C23.1562 15.8844 23.1969 16.3719 23.1969 16.8594C23.1969 18.4437 22.9125 19.9875 22.3844 21.2875C22.2625 21.45 22.1406 21.5312 21.9781 21.5312Z" fill="#F5F3FF"/>
<path d="M5.07813 12.9188C4.91563 12.9188 4.7125 12.7969 4.67188 12.5938C4.63125 12.3906 4.75313 12.1469 4.95625 12.1063L9.99375 10.8469C10.1969 10.8063 10.4406 10.9281 10.4813 11.1313C10.5219 11.3344 10.4 11.5781 10.1969 11.6188L5.15938 12.8781C5.11875 12.9188 5.07813 12.9188 5.07813 12.9188Z" fill="#D2D2D2"/>
<path d="M11.7813 11.2531C11.6188 11.2531 11.4156 11.1313 11.375 10.9281C11.3344 10.725 11.4563 10.4813 11.6594 10.4406L13.7719 9.91251C13.975 9.87188 14.2188 9.99376 14.2594 10.1969C14.3 10.4 14.1781 10.6438 13.975 10.6844L11.8625 11.2125C11.8625 11.2531 11.8219 11.2531 11.7813 11.2531Z" fill="#D2D2D2"/>
<path d="M19.7031 9.26251H16.8594C15.925 9.70939 15.1125 10.6031 14.5031 11.7813C15.1125 11.7 16.25 11.7813 16.7781 12.1875C17.225 11.5375 17.7531 11.1719 18.2813 11.1719C19.1344 11.1719 20.0688 12.2281 20.5969 13.8938C20.5969 13.8938 20.8406 13.2844 21.4094 12.8781C21.8969 12.5125 22.425 12.5938 22.425 12.5938C21.8156 11.0094 20.8406 9.83126 19.7031 9.26251Z" fill="#B8B9B9"/>
<path d="M15.3969 4.46875H22.7906C24.1312 4.46875 25.1875 5.525 25.1875 6.86562V8.57188C25.1875 9.9125 24.1312 10.9688 22.7906 10.9688H22.75H22.3438L19.175 13.2437C19.0531 13.3656 18.85 13.4062 18.6875 13.4062C18.5656 13.4062 18.4437 13.3656 18.3219 13.325C18.0375 13.2031 17.875 12.9187 17.875 12.5938V10.9688H16.25H15.3969C14.0563 10.9688 13 9.9125 13 8.57188V6.86562C13 5.525 14.0563 4.46875 15.3969 4.46875Z" fill="#D5D5D5"/>
<path d="M22.3438 5.28125H17.0625C16.8187 5.28125 16.6562 5.11875 16.6562 4.875C16.6562 4.63125 16.8187 4.46875 17.0625 4.46875H22.3438C22.5875 4.46875 22.75 4.63125 22.75 4.875C22.75 5.11875 22.5469 5.28125 22.3438 5.28125Z" fill="#A5A7A7"/>
<path d="M22.3438 8.53125H19.0938C18.6469 8.53125 18.2812 8.16562 18.2812 7.71875C18.2812 7.27187 18.6469 6.90625 19.0938 6.90625H22.3438C22.7906 6.90625 23.1562 7.27187 23.1562 7.71875C23.1562 8.16562 22.7906 8.53125 22.3438 8.53125ZM16.6562 8.53125H16.25C15.8031 8.53125 15.4375 8.16562 15.4375 7.71875C15.4375 7.27187 15.8031 6.90625 16.25 6.90625H16.6562C17.1031 6.90625 17.4688 7.27187 17.4688 7.71875C17.4688 8.16562 17.1031 8.53125 16.6562 8.53125Z" fill="#646464"/>
</svg>
