<svg width="449" height="51" viewBox="0 0 449 51" fill="none" xmlns="http://www.w3.org/2000/svg">
<path d="M43.78 43.63C38.8333 48.53 32.8133 50.98 25.72 50.98C18.6267 50.98 12.6067 48.53 7.66 43.63C2.76 38.6833 0.31 32.64 0.31 25.5C0.31 18.36 2.76 12.34 7.66 7.44C12.6067 2.49333 18.6267 0.0199968 25.72 0.0199968C32.8133 0.0199968 38.8333 2.49333 43.78 7.44C48.7267 12.34 51.2 18.36 51.2 25.5C51.2 32.64 48.7267 38.6833 43.78 43.63ZM14.45 37.05C17.4833 40.0367 21.24 41.53 25.72 41.53C30.2 41.53 33.9567 40.0367 36.99 37.05C40.0233 34.0167 41.54 30.1667 41.54 25.5C41.54 20.8333 40.0233 16.9833 36.99 13.95C33.9567 10.9167 30.2 9.4 25.72 9.4C21.24 9.4 17.4833 10.9167 14.45 13.95C11.4167 16.9833 9.9 20.8333 9.9 25.5C9.9 30.1667 11.4167 34.0167 14.45 37.05ZM75.9177 50.98C70.4577 50.98 65.9777 49.44 62.4777 46.36C58.9777 43.28 57.2277 39.15 57.2277 33.97V0.999997H66.8177V33.2C66.8177 35.7667 67.541 37.7967 68.9877 39.29C70.481 40.7833 72.791 41.53 75.9177 41.53C79.0443 41.53 81.331 40.7833 82.7777 39.29C84.271 37.7967 85.0177 35.7667 85.0177 33.2V0.999997H94.6777V33.97C94.6777 39.15 92.9277 43.28 89.4277 46.36C85.9277 49.44 81.4243 50.98 75.9177 50.98ZM130.26 50L120.39 32.99H113.04V50H103.38V0.999997H122.98C127.507 0.999997 131.357 2.58666 134.53 5.76C137.703 8.93333 139.29 12.76 139.29 17.24C139.29 20.2733 138.427 23.0967 136.7 25.71C134.973 28.2767 132.687 30.2133 129.84 31.52L140.69 50H130.26ZM113.04 10.03V24.52H122.98C124.8 24.52 126.363 23.82 127.67 22.42C128.977 20.9733 129.63 19.2467 129.63 17.24C129.63 15.2333 128.977 13.53 127.67 12.13C126.363 10.73 124.8 10.03 122.98 10.03H113.04ZM182.148 0.999997C186.861 0.999997 190.828 2.58666 194.048 5.76C197.268 8.93333 198.878 12.83 198.878 17.45C198.878 22.07 197.268 25.9667 194.048 29.14C190.828 32.3133 186.861 33.9 182.148 33.9H173.538V50H163.878V0.999997H182.148ZM182.148 24.87C184.201 24.87 185.905 24.17 187.258 22.77C188.611 21.3233 189.288 19.55 189.288 17.45C189.288 15.3033 188.611 13.53 187.258 12.13C185.905 10.73 184.201 10.03 182.148 10.03H173.538V24.87H182.148ZM231.677 50L228.737 41.18H209.207L206.267 50H195.837L212.987 0.999997H224.957L242.177 50H231.677ZM212.287 32.15H225.727L219.007 12.13L212.287 32.15ZM273.815 50L263.945 32.99H256.595V50H246.935V0.999997H266.535C271.061 0.999997 274.911 2.58666 278.085 5.76C281.258 8.93333 282.845 12.76 282.845 17.24C282.845 20.2733 281.981 23.0967 280.255 25.71C278.528 28.2767 276.241 30.2133 273.395 31.52L284.245 50H273.815ZM256.595 10.03V24.52H266.535C268.355 24.52 269.918 23.82 271.225 22.42C272.531 20.9733 273.185 19.2467 273.185 17.24C273.185 15.2333 272.531 13.53 271.225 12.13C269.918 10.73 268.355 10.03 266.535 10.03H256.595ZM321.317 0.999997V10.24H308.087V50H298.427V10.24H285.267V0.999997H321.317ZM355.06 0.999997H364.72V50H357.37L336.37 20.04V50H326.71V0.999997H334.06L355.06 30.89V0.999997ZM383.47 40.76H404.12V50H373.81V0.999997H403.77V10.24H383.47V20.67H402.02V29.77H383.47V40.76ZM437.809 50L427.939 32.99H420.589V50H410.929V0.999997H430.529C435.056 0.999997 438.906 2.58666 442.079 5.76C445.252 8.93333 446.839 12.76 446.839 17.24C446.839 20.2733 445.976 23.0967 444.249 25.71C442.522 28.2767 440.236 30.2133 437.389 31.52L448.239 50H437.809ZM420.589 10.03V24.52H430.529C432.349 24.52 433.912 23.82 435.219 22.42C436.526 20.9733 437.179 19.2467 437.179 17.24C437.179 15.2333 436.526 13.53 435.219 12.13C433.912 10.73 432.349 10.03 430.529 10.03H420.589Z" fill="url(#paint0_linear_1_2698)"/>
<defs>
<linearGradient id="paint0_linear_1_2698" x1="224" y1="-13" x2="224" y2="74" gradientUnits="userSpaceOnUse">
<stop stop-color="#0047AB" stop-opacity="0.6"/>
<stop offset="1" stop-color="white" stop-opacity="0"/>
</linearGradient>
</defs>
</svg>
