<svg width="28" height="28" viewBox="0 0 28 28" fill="none" xmlns="http://www.w3.org/2000/svg">
<path d="M14.8676 14C16.3174 14 17.4926 15.1753 17.4926 16.625L17.4913 17.9346C17.6713 21.1486 15.1958 22.7514 10.6053 22.7514C6.02966 22.7514 3.5 21.1696 3.5 17.9805V16.625C3.5 15.1753 4.67525 14 6.125 14H14.8676ZM21.8687 14C23.3184 14 24.4937 15.1753 24.4937 16.625L24.4924 17.5465C24.6506 20.4296 22.4633 21.875 18.4653 21.875C17.9226 21.875 17.4124 21.8486 16.9359 21.7957C17.8751 20.9283 18.3776 19.7513 18.3759 18.264L18.3649 17.8857L18.3676 16.625C18.3676 15.5793 17.909 14.6406 17.1819 13.9993L21.8687 14ZM10.5 3.5C12.9166 3.5 14.8757 5.45907 14.8757 7.87571C14.8757 10.2923 12.9166 12.2514 10.5 12.2514C8.08336 12.2514 6.12429 10.2923 6.12429 7.87571C6.12429 5.45907 8.08336 3.5 10.5 3.5ZM19.25 5.25C21.183 5.25 22.75 6.817 22.75 8.75C22.75 10.683 21.183 12.25 19.25 12.25C17.317 12.25 15.75 10.683 15.75 8.75C15.75 6.817 17.317 5.25 19.25 5.25Z" fill="#555555"/>
</svg>
