<svg width="22" height="22" viewBox="0 0 22 22" fill="none" xmlns="http://www.w3.org/2000/svg">
<path d="M15.9672 13.891C13.774 13.6847 13.0384 13.066 13.0865 11.3954C14.3 10.5463 14.8843 9.0063 14.984 7.85474C15.0665 6.91287 15.2556 4.71287 13.9906 3.32755C13.3065 2.58162 12.3131 2.20349 11.0412 2.20349C9.76934 2.20349 8.77591 2.58162 8.09184 3.33099C6.82684 4.71287 7.0159 6.91287 7.0984 7.85474C7.19809 9.0063 7.78247 10.5463 8.9959 11.3954C9.04403 13.066 8.3084 13.6847 6.11872 13.891C4.90528 14.0079 4.03559 14.4101 3.45809 15.1285C2.73278 16.0257 2.49559 17.4041 2.7259 19.3394C2.74025 19.4652 2.80039 19.5813 2.89484 19.6657C2.9893 19.75 3.11148 19.7966 3.23809 19.7966C3.25872 19.7966 3.27934 19.7932 3.29997 19.7932C3.36724 19.7851 3.43227 19.7638 3.49132 19.7306C3.55037 19.6973 3.60229 19.6528 3.64411 19.5995C3.68593 19.5462 3.71683 19.4851 3.73505 19.4199C3.75327 19.3546 3.75844 19.2864 3.75028 19.2191C3.55434 17.5726 3.71934 16.4451 4.26247 15.7747C4.65434 15.2866 5.29372 15.0047 6.21497 14.9188C8.11247 14.7401 9.85872 14.2313 10.0168 11.8801C10.1528 11.9219 10.2919 11.9529 10.4328 11.9729C10.634 12.0051 10.8374 12.0212 11.0412 12.021H11.0447C11.2647 14.2519 12.98 14.7435 14.8397 14.9188C16.249 15.0529 17.514 15.6682 17.1875 19.2329C17.1819 19.3043 17.1911 19.3761 17.2144 19.4438C17.2377 19.5115 17.2747 19.5737 17.323 19.6266C17.3714 19.6794 17.43 19.7218 17.4954 19.751C17.5608 19.7803 17.6315 19.7958 17.7031 19.7966C17.7377 19.7966 17.7723 19.7931 17.8062 19.7863L18.8959 19.5594C19.0047 19.5377 19.1036 19.4815 19.1779 19.3992C19.2522 19.3168 19.298 19.2127 19.3084 19.1022C19.6109 15.7472 18.5831 14.1385 15.9672 13.891ZM12.9284 7.76537C12.8459 8.69005 12.3406 10.0444 11.2784 10.6632H11.275C11.0431 10.7985 10.7896 10.8927 10.5256 10.9416C10.2707 10.8947 10.0255 10.8053 9.80028 10.6769C9.79843 10.6751 9.79601 10.6739 9.7934 10.6735C9.77022 10.6635 9.74829 10.6508 9.72809 10.6357C8.59028 9.95505 8.18465 8.44599 8.12622 7.76537C8.05747 6.96099 7.89247 5.0738 8.85153 4.02537C9.29791 3.57196 9.89719 3.30112 10.5325 3.26568C12.9731 3.53724 13.0968 5.80943 12.9284 7.76537ZM6.8784 18.2384L6.61475 19.3941C6.59969 19.4601 6.57178 19.5225 6.53261 19.5777C6.49344 19.633 6.44377 19.68 6.38644 19.716C6.32911 19.752 6.26524 19.7764 6.19849 19.7878C6.13173 19.7991 6.06339 19.7972 5.99737 19.7822C5.93135 19.7671 5.86895 19.7392 5.81371 19.7C5.75848 19.6609 5.7115 19.6112 5.67546 19.5539C5.63943 19.4965 5.61503 19.4327 5.60368 19.3659C5.59232 19.2992 5.59422 19.2308 5.60928 19.1648L5.87294 18.0091C5.90334 17.8758 5.98547 17.76 6.10125 17.6872C6.21703 17.6144 6.35698 17.5906 6.49031 17.621C6.62364 17.6514 6.73944 17.7336 6.81222 17.8493C6.885 17.9651 6.90881 18.1051 6.8784 18.2384ZM16.4721 19.1665C16.4874 19.2327 16.4894 19.3012 16.4781 19.3681C16.4669 19.435 16.4425 19.4991 16.4064 19.5566C16.3703 19.614 16.3232 19.6638 16.2678 19.7031C16.2125 19.7423 16.1499 19.7703 16.0837 19.7853C16.046 19.794 16.0075 19.7984 15.9689 19.7983C15.852 19.7976 15.7389 19.7572 15.6481 19.6837C15.5572 19.6103 15.494 19.5082 15.4687 19.3941L15.2054 18.2384C15.175 18.1051 15.1988 17.9651 15.2716 17.8493C15.3444 17.7336 15.4602 17.6514 15.5935 17.621C15.7268 17.5906 15.8668 17.6144 15.9826 17.6872C16.0983 17.76 16.1805 17.8758 16.2109 18.0091L16.4721 19.1665Z" fill="white"/>
</svg>
