<svg width="463" height="279" viewBox="0 0 463 279" fill="none" xmlns="http://www.w3.org/2000/svg">
<path d="M0.5 264.5C0.5 267.814 0.501062 270.249 0.751823 272.114C1.00065 273.965 1.48706 275.179 2.40381 276.096C3.32055 277.013 4.53497 277.499 6.38572 277.748C8.25086 277.999 10.686 278 14 278H96.5H192H267.648C269.587 278 270.491 277.998 271.371 277.829C272.25 277.659 273.091 277.325 274.89 276.605L330.238 254.466L330.294 254.444C332.024 253.752 332.956 253.379 333.94 253.189C334.924 253 335.928 253 337.792 253H337.852H449C452.314 253 454.749 252.999 456.614 252.748C458.465 252.499 459.679 252.013 460.596 251.096C461.513 250.179 461.999 248.965 462.248 247.114C462.499 245.249 462.5 242.814 462.5 239.5V14C462.5 10.686 462.499 8.25085 462.248 6.38571C461.999 4.53497 461.513 3.32056 460.596 2.40381C459.679 1.48706 458.465 1.00064 456.614 0.751831C454.749 0.501068 452.314 0.5 449 0.5H14C10.686 0.5 8.25085 0.501068 6.38572 0.751831C4.53497 1.00064 3.32055 1.48706 2.40381 2.40381C1.48706 3.32056 1.00065 4.53497 0.751823 6.38571C0.501062 8.25085 0.5 10.686 0.5 14V264.5Z" stroke="url(#paint0_linear_11_3236)"/>
<defs>
<linearGradient id="paint0_linear_11_3236" x1="231.5" y1="265" x2="231.5" y2="2.56672e-05" gradientUnits="userSpaceOnUse">
<stop stop-color="#0047AB"/>
<stop offset="1" stop-color="white" stop-opacity="0"/>
</linearGradient>
</defs>
</svg>
