<svg width="37" height="37" viewBox="0 0 37 37" fill="none" xmlns="http://www.w3.org/2000/svg">
<path d="M11.6927 8.6861C14.4379 8.00015 17.2675 7.71662 20.0905 7.84873C20.9227 7.90817 21.6405 7.23849 21.6791 6.39976C21.7177 5.56103 21.0688 4.84985 20.2301 4.81123C17.1079 4.67167 13.9873 4.97907 10.954 5.73768C8.52599 6.34625 6.64131 8.23032 6.03472 10.6577C4.75861 15.7619 4.75861 21.157 6.03472 26.2613C6.64116 28.6887 8.52599 30.5727 10.9555 31.1814C13.5069 31.8197 16.1318 32.1375 18.7565 32.1375C21.3812 32.1375 24.0061 31.8197 26.559 31.1814C28.9872 30.5727 30.8718 28.6887 31.4783 26.2613C32.2354 23.2311 32.5479 20.1149 32.4055 16.9971C32.3669 16.1582 31.6119 15.5021 30.8177 15.5481C29.9788 15.5868 29.3301 16.2979 29.368 17.1367C29.4972 19.9589 29.2143 22.7813 28.5285 25.5249C28.1952 26.8596 27.1574 27.8973 25.8212 28.2328C21.1981 29.3849 16.3136 29.3849 11.6933 28.2328C10.3556 27.8973 9.3179 26.8596 8.98466 25.5249C7.82879 20.9033 7.82879 16.0158 8.98466 11.3942C9.31805 10.0594 10.3558 9.02162 11.6927 8.6861Z" fill="#0047AB"/>
<path d="M32.4391 6.29737C32.4391 6.09943 32.3987 5.90225 32.3219 5.71647C32.1677 5.34431 31.8714 5.04816 31.4994 4.89416C31.3138 4.81739 31.1166 4.7771 30.9188 4.7771H24.8377C23.9982 4.7771 23.3175 5.45712 23.3175 6.29737C23.3175 7.13762 23.9982 7.81764 24.8377 7.81764H27.2487L20.7222 14.3442C20.1284 14.938 20.1284 15.9 20.7222 16.494C21.0193 16.7907 21.4082 16.9393 21.7972 16.9393C22.1862 16.9393 22.5751 16.7907 22.872 16.4938L29.3986 9.96745V12.3785C29.3986 13.2187 30.0793 13.8987 30.9188 13.8987C31.7583 13.8987 32.4391 13.2187 32.4391 12.3785V6.29737Z" fill="#0047AB"/>
</svg>
