<svg width="27" height="27" viewBox="0 0 27 27" fill="none" xmlns="http://www.w3.org/2000/svg">
<path d="M19.9138 7.08623C16.3717 3.54417 10.6287 3.54417 7.08623 7.08623C3.54417 10.6283 3.54417 16.3713 7.08623 19.9138C10.6283 23.4562 16.3713 23.4558 19.9138 19.9138C23.4558 16.3717 23.4558 10.6283 19.9138 7.08623ZM9.47278 17.5272C7.24866 15.3031 7.24866 11.6969 9.47278 9.47278C11.6969 7.24866 15.3031 7.24866 17.5272 9.47278C19.7513 11.6969 19.7513 15.3031 17.5272 17.5272C15.3031 19.7513 11.6969 19.7513 9.47278 17.5272Z" fill="#A5A7A7" fill-opacity="0.16"/>
<path d="M16.9585 5.11481L15.4613 8.15779C16.2148 8.4337 16.9231 8.86781 17.5276 9.47278C18.1322 10.0777 18.5667 10.7857 18.8426 11.5391L21.8856 10.0419C21.4431 8.96737 20.7871 7.95951 19.9142 7.08665C19.0405 6.21337 18.0331 5.55735 16.9585 5.11481ZM10.0415 21.8852L11.5387 18.8422C10.7852 18.5663 10.0769 18.1322 9.47236 17.5272C8.86782 16.9222 8.43329 16.2143 8.15738 15.4609L5.1144 16.9581C5.55694 18.0326 6.21296 19.0405 7.08582 19.9133C7.95952 20.7866 8.96696 21.4426 10.0415 21.8852ZM9.47279 9.47278C10.0773 8.86823 10.7857 8.4337 11.5391 8.15779L10.0419 5.11481C8.96738 5.55735 7.95952 6.21337 7.08666 7.08623C6.2138 7.95909 5.55779 8.96695 5.11524 10.0415L8.15822 11.5387C8.43371 10.7857 8.86824 10.0773 9.47279 9.47278Z" fill="#A1A1A1" fill-opacity="0.3"/>
<path d="M19.9138 7.08624L17.5272 9.47279C19.7513 11.6969 19.7513 15.3031 17.5272 17.5272C15.3031 19.7514 11.6969 19.7514 9.47277 17.5272L7.08623 19.9138C10.6283 23.4558 16.3713 23.4558 19.9138 19.9138C23.4558 16.3717 23.4558 10.6283 19.9138 7.08624Z" fill="#A1A1A1" fill-opacity="0.3"/>
<path d="M19.9138 7.08624L17.5272 9.47279C18.1318 10.0773 18.5663 10.7857 18.8422 11.5391L21.8852 10.0419C21.4426 8.96696 20.7866 7.95952 19.9138 7.08624ZM7.04742 19.9526L9.43397 17.566C10.0385 18.1706 10.7468 18.6051 11.5003 18.881L10.0031 21.924C8.92814 21.481 7.92071 20.8254 7.04742 19.9526ZM17.5272 17.5272C16.9227 18.1318 16.2143 18.5663 15.4609 18.8422L16.9581 21.8852C18.0326 21.4426 19.0405 20.7866 19.9133 19.9138C20.7866 19.0405 21.4422 18.0331 21.8848 16.9585L18.8418 15.4613C18.5663 16.2144 18.1318 16.9227 17.5272 17.5272Z" fill="#868686" fill-opacity="0.35"/>
<path d="M13.5 22.7771C11.1232 22.7771 8.74631 21.8721 6.93688 20.0627C3.31846 16.4439 3.31846 10.5558 6.93688 6.93734C10.5557 3.31849 16.4438 3.31849 20.0627 6.93734C23.6811 10.5562 23.6811 16.4443 20.0627 20.0627C18.2537 21.8721 15.8768 22.7771 13.5 22.7771ZM13.5 4.64487C11.2312 4.64487 8.96231 5.50845 7.23515 7.2356C3.78084 10.6899 3.78084 16.3101 7.23515 19.7644C10.6895 23.2188 16.3101 23.2188 19.7644 19.7644C23.2187 16.3101 23.2187 10.6899 19.7644 7.2356C18.0377 5.50845 15.7688 4.64487 13.5 4.64487ZM13.5 19.4033C11.9876 19.4033 10.4752 18.8275 9.32385 17.6762C8.20799 16.5607 7.59374 15.0778 7.59374 13.5C7.59374 11.9222 8.20799 10.4393 9.32385 9.32388C11.6269 7.02129 15.3735 7.02129 17.6766 9.32388C18.792 10.4393 19.4062 11.9222 19.4062 13.5C19.4062 15.0778 18.792 16.5607 17.6761 17.6762C16.5248 18.8275 15.0124 19.4033 13.5 19.4033ZM13.5 8.01818C12.0956 8.01818 10.6912 8.5527 9.62212 9.62173C8.58642 10.6579 8.01562 12.0349 8.01562 13.5C8.01562 14.9652 8.58642 16.3422 9.62212 17.3779C11.7602 19.516 15.2398 19.516 17.3783 17.3779C18.4136 16.3422 18.9844 14.9652 18.9844 13.5C18.9844 12.0349 18.4136 10.6579 17.3779 9.62215C16.3088 8.5527 14.9044 8.01818 13.5 8.01818Z" fill="#686868"/>
<path d="M13.5 19.4033C11.9876 19.4033 10.4752 18.8274 9.32386 17.6761C8.208 16.5607 7.59375 15.0778 7.59375 13.5C7.59375 11.9222 8.208 10.4393 9.32386 9.32387C11.6269 7.02128 15.3735 7.02128 17.6766 9.32387C18.792 10.4393 19.4062 11.9222 19.4062 13.5C19.4062 15.0778 18.792 16.5607 17.6761 17.6761C16.5248 18.8274 15.0124 19.4033 13.5 19.4033ZM13.5 8.01817C12.0956 8.01817 10.6912 8.55268 9.62213 9.62171C8.58642 10.6578 8.01562 12.0348 8.01562 13.5C8.01562 14.9652 8.58642 16.3422 9.62213 17.3779C11.7602 19.5159 15.2398 19.5159 17.3783 17.3779C18.4136 16.3422 18.9844 14.9652 18.9844 13.5C18.9844 12.0348 18.4136 10.6578 17.3779 9.62214C16.3088 8.55268 14.9044 8.01817 13.5 8.01817Z" fill="#686868"/>
<path d="M13.5 22.7812C8.38223 22.7812 4.21875 18.6178 4.21875 13.5C4.21875 8.38223 8.38223 4.21875 13.5 4.21875C18.6178 4.21875 22.7812 8.38223 22.7812 13.5C22.7812 18.6178 18.6178 22.7812 13.5 22.7812ZM13.5 4.64062C8.61511 4.64062 4.64062 8.61469 4.64062 13.5C4.64062 18.3853 8.61511 22.3594 13.5 22.3594C18.3849 22.3594 22.3594 18.3853 22.3594 13.5C22.3594 8.61469 18.3849 4.64062 13.5 4.64062ZM13.5 19.4062C10.2431 19.4062 7.59375 16.7569 7.59375 13.5C7.59375 10.2431 10.2431 7.59375 13.5 7.59375C16.7569 7.59375 19.4062 10.2431 19.4062 13.5C19.4062 16.7569 16.7569 19.4062 13.5 19.4062ZM13.5 8.01562C10.476 8.01562 8.01562 10.476 8.01562 13.5C8.01562 16.524 10.476 18.9844 13.5 18.9844C16.524 18.9844 18.9844 16.524 18.9844 13.5C18.9844 10.476 16.524 8.01562 13.5 8.01562Z" fill="#686868"/>
<path d="M18.8418 11.7501C18.8152 11.7501 18.7886 11.745 18.7629 11.7349C18.7076 11.7125 18.6642 11.6678 18.6435 11.6117C18.3663 10.854 17.9402 10.1845 17.3779 9.62212C16.8155 9.05976 16.1464 8.63367 15.3883 8.35649C15.3322 8.33582 15.2875 8.29237 15.2651 8.23668C15.2428 8.18099 15.2449 8.11898 15.2719 8.06498L16.7691 5.02199C16.8176 4.92243 16.9353 4.87729 17.0387 4.9199C18.1744 5.38776 19.1919 6.06656 20.0631 6.93731C20.9334 7.80764 21.6122 8.8252 22.0801 9.96131C22.1227 10.0638 22.078 10.1819 21.9784 10.2309L18.935 11.7281C18.9055 11.7425 18.8738 11.7501 18.8418 11.7501ZM15.752 8.04473C16.4789 8.34257 17.1252 8.77246 17.6766 9.32385C18.2284 9.87524 18.6574 10.5216 18.9553 11.2484L21.6131 9.94063C21.1701 8.92898 20.5491 8.01984 19.7648 7.23557C18.9802 6.45088 18.0706 5.82946 17.0598 5.38692L15.752 8.04473ZM10.0419 22.0961C10.0153 22.0961 9.98789 22.0911 9.96174 22.0801C8.82605 21.6122 7.80849 20.9334 6.93731 20.0627C6.06699 19.1924 5.38819 18.1748 4.92033 17.0387C4.87772 16.9362 4.92244 16.818 5.022 16.7691L8.06541 15.2719C8.11899 15.2453 8.18058 15.2428 8.23711 15.2655C8.29238 15.2879 8.33583 15.3326 8.3565 15.3887C8.63367 16.1464 9.05977 16.8159 9.62213 17.3783C10.1845 17.9407 10.8536 18.3667 11.6117 18.6439C11.6678 18.6646 11.7125 18.708 11.7349 18.7637C11.7572 18.8194 11.7551 18.8814 11.7281 18.9354L10.2309 21.9784C10.1946 22.0522 10.1199 22.0961 10.0419 22.0961ZM5.38735 17.0598C5.83031 18.0714 6.45131 18.9806 7.23558 19.7648C8.02027 20.5495 8.92983 21.1709 9.94064 21.6135L11.2485 18.9557C10.5216 18.6578 9.87525 18.2279 9.32386 17.6766C8.77205 17.1252 8.343 16.4789 8.04516 15.752L5.38735 17.0598ZM8.15822 11.7501C8.12616 11.7501 8.09452 11.7429 8.06499 11.7285L5.02158 10.2313C4.92202 10.1824 4.8773 10.0642 4.91991 9.96173C5.38777 8.82562 6.06699 7.80806 6.93689 6.93773C7.80806 6.06698 8.82563 5.38818 9.96131 4.92032C10.0647 4.87771 10.182 4.92243 10.2309 5.02242L11.7281 8.0654C11.7547 8.11898 11.7568 8.18142 11.7349 8.2371C11.7129 8.29279 11.6678 8.33624 11.6117 8.35692C10.8536 8.63451 10.1845 9.06018 9.62213 9.62254C9.05977 10.1849 8.63367 10.854 8.3565 11.6121C8.33583 11.6682 8.29238 11.7129 8.23711 11.7353C8.21138 11.745 8.1848 11.7501 8.15822 11.7501ZM5.38735 9.94063L8.04516 11.2484C8.343 10.522 8.77247 9.87524 9.32386 9.32385C9.87525 8.77246 10.5216 8.34257 11.2485 8.04473L9.94064 5.38692C8.92983 5.82946 8.02027 6.45088 7.23558 7.23557C6.45131 8.01942 5.82989 8.92898 5.38735 9.94063ZM16.9581 22.0961C16.8796 22.0961 16.8054 22.0522 16.7691 21.9784L15.2719 18.935C15.2453 18.8814 15.2432 18.819 15.2651 18.7633C15.2871 18.7076 15.3322 18.6642 15.3883 18.6435C16.1464 18.3659 16.8155 17.9402 17.3779 17.3779C17.9402 16.8155 18.3663 16.1464 18.6435 15.3883C18.6642 15.3322 18.7076 15.2875 18.7629 15.2651C18.8186 15.2423 18.8806 15.2449 18.9346 15.2714L21.978 16.7687C22.0776 16.8176 22.1223 16.9357 22.0797 17.0383C21.6118 18.1744 20.9326 19.1919 20.0627 20.0623C19.1915 20.933 18.174 21.6118 17.0383 22.0797C17.0121 22.0911 16.9851 22.0961 16.9581 22.0961ZM15.752 18.9553L17.0598 21.6131C18.0706 21.1705 18.9802 20.5491 19.7648 19.7644C20.5487 18.9806 21.1701 18.071 21.6131 17.0594L18.9553 15.7515C18.6574 16.478 18.228 17.1247 17.6766 17.6761C17.1252 18.2279 16.4789 18.6574 15.752 18.9553Z" fill="#686868"/>
<path d="M9.74194 24.0507C7.99243 24.0507 6.25557 23.3752 4.94016 22.0598C2.64601 19.7661 2.29754 16.189 4.08713 13.5C2.29754 10.811 2.64601 7.23388 4.93974 4.94014C7.2339 2.64599 10.8114 2.29752 13.5 4.08711C16.1882 2.29752 19.7657 2.64599 22.0599 4.94014C24.354 7.23388 24.7025 10.8114 22.9125 13.5C24.7021 16.189 24.3536 19.7661 22.0599 22.0598C19.7657 24.354 16.189 24.7025 13.5 22.9129C12.3529 23.6765 11.0438 24.0507 9.74194 24.0507ZM9.74194 3.37119C8.10085 3.37119 6.47199 4.00485 5.23843 5.23841C3.0548 7.42203 2.75105 10.846 4.51533 13.3793C4.56596 13.4515 4.56596 13.5481 4.51533 13.6202C2.75063 16.154 3.0548 19.5779 5.23843 21.7611C7.42247 23.9443 10.8451 24.2489 13.3793 22.4842C13.4519 22.4336 13.5481 22.4336 13.6207 22.4842C16.1532 24.2489 19.578 23.9452 21.7616 21.7611C23.9452 19.5775 24.249 16.1536 22.4847 13.6202C22.4341 13.5481 22.4341 13.4515 22.4847 13.3793C24.2494 10.8456 23.9452 7.42161 21.7616 5.23841C19.578 3.05521 16.1544 2.75061 13.6207 4.51532C13.5481 4.56594 13.4519 4.56594 13.3793 4.51532C12.2774 3.7475 11.0059 3.37119 9.74194 3.37119Z" fill="#686868"/>
<path d="M16.7847 10.5135C16.867 10.4311 16.867 10.2975 16.7847 10.2152C16.7023 10.1328 16.5687 10.1328 16.4863 10.2152C16.404 10.2975 16.404 10.4311 16.4863 10.5135C16.5687 10.5958 16.7023 10.5958 16.7847 10.5135Z" fill="#555555"/>
<path d="M10.5201 16.7776C10.6025 16.6952 10.6025 16.5617 10.5201 16.4793C10.4377 16.3969 10.3042 16.3969 10.2218 16.4793C10.1394 16.5617 10.1394 16.6953 10.2218 16.7776C10.3042 16.86 10.4377 16.86 10.5201 16.7776Z" fill="#555555"/>
<path d="M16.7847 16.7779C16.867 16.6956 16.867 16.562 16.7847 16.4796C16.7023 16.3972 16.5687 16.3972 16.4863 16.4796C16.404 16.562 16.404 16.6956 16.4863 16.7779C16.5687 16.8603 16.7023 16.8603 16.7847 16.7779Z" fill="#555555"/>
<path d="M10.5205 10.5133C10.6029 10.431 10.6029 10.2974 10.5205 10.215C10.4381 10.1327 10.3046 10.1327 10.2222 10.215C10.1398 10.2974 10.1398 10.431 10.2222 10.5133C10.3046 10.5957 10.4382 10.5957 10.5205 10.5133Z" fill="#555555"/>
<path d="M17.9331 13.7076C18.0496 13.7076 18.144 13.6131 18.144 13.4966C18.144 13.3801 18.0496 13.2857 17.9331 13.2857C17.8166 13.2857 17.7221 13.3801 17.7221 13.4966C17.7221 13.6131 17.8166 13.7076 17.9331 13.7076Z" fill="#555555"/>
<path d="M9.07368 13.7076C9.19018 13.7076 9.28462 13.6131 9.28462 13.4966C9.28462 13.3801 9.19018 13.2857 9.07368 13.2857C8.95719 13.2857 8.86275 13.3801 8.86275 13.4966C8.86275 13.6131 8.95719 13.7076 9.07368 13.7076Z" fill="#555555"/>
<path d="M13.5034 18.1373C13.6199 18.1373 13.7143 18.0428 13.7143 17.9263C13.7143 17.8098 13.6199 17.7154 13.5034 17.7154C13.3869 17.7154 13.2924 17.8098 13.2924 17.9263C13.2924 18.0428 13.3869 18.1373 13.5034 18.1373Z" fill="#555555"/>
<path d="M13.5034 9.27789C13.6199 9.27789 13.7143 9.18345 13.7143 9.06696C13.7143 8.95046 13.6199 8.85602 13.5034 8.85602C13.3869 8.85602 13.2924 8.95046 13.2924 9.06696C13.2924 9.18345 13.3869 9.27789 13.5034 9.27789Z" fill="#555555"/>
<path d="M15.3937 9.48451C15.4383 9.37688 15.3872 9.25349 15.2796 9.2089C15.1719 9.16432 15.0486 9.21543 15.004 9.32306C14.9594 9.43069 15.0105 9.55408 15.1181 9.59867C15.2258 9.64325 15.3492 9.59214 15.3937 9.48451Z" fill="#555555"/>
<path d="M12.0035 17.6693C12.0481 17.5616 11.997 17.4382 11.8894 17.3937C11.7818 17.3491 11.6584 17.4002 11.6138 17.5078C11.5692 17.6154 11.6203 17.7388 11.7279 17.7834C11.8356 17.828 11.959 17.7769 12.0035 17.6693Z" fill="#555555"/>
<path d="M17.791 15.2718C17.8356 15.1642 17.7845 15.0408 17.6768 14.9962C17.5692 14.9516 17.4458 15.0027 17.4012 15.1104C17.3567 15.218 17.4078 15.3414 17.5154 15.386C17.623 15.4305 17.7464 15.3794 17.791 15.2718Z" fill="#555555"/>
<path d="M9.6062 11.8816C9.65078 11.774 9.59967 11.6506 9.49204 11.606C9.38441 11.5614 9.26102 11.6125 9.21643 11.7202C9.17185 11.8278 9.22296 11.9512 9.33059 11.9958C9.43822 12.0403 9.56161 11.9892 9.6062 11.8816Z" fill="#555555"/>
<path d="M17.677 11.9961C17.7846 11.9515 17.8357 11.8281 17.7911 11.7204C17.7466 11.6128 17.6232 11.5617 17.5155 11.6063C17.4079 11.6509 17.3568 11.7743 17.4014 11.8819C17.446 11.9895 17.5693 12.0406 17.677 11.9961Z" fill="#555555"/>
<path d="M9.49217 15.3862C9.5998 15.3416 9.65091 15.2182 9.60633 15.1106C9.56175 15.003 9.43836 14.9518 9.33073 14.9964C9.2231 15.041 9.17199 15.1644 9.21657 15.272C9.26115 15.3797 9.38454 15.4308 9.49217 15.3862Z" fill="#555555"/>
<path d="M15.2795 17.7835C15.3871 17.7389 15.4382 17.6155 15.3936 17.5079C15.3491 17.4002 15.2257 17.3491 15.118 17.3937C15.0104 17.4383 14.9593 17.5617 15.0039 17.6693C15.0485 17.7769 15.1719 17.828 15.2795 17.7835Z" fill="#555555"/>
<path d="M11.8891 9.59871C11.9968 9.55413 12.0479 9.43074 12.0033 9.32311C11.9587 9.21548 11.8353 9.16437 11.7277 9.20895C11.6201 9.25353 11.5689 9.37692 11.6135 9.48455C11.6581 9.59218 11.7815 9.64329 11.8891 9.59871Z" fill="#555555"/>
<path d="M17.2953 11.1977C17.3919 11.1326 17.4175 11.0015 17.3524 10.9049C17.2873 10.8082 17.1563 10.7827 17.0596 10.8477C16.963 10.9128 16.9374 11.0439 17.0025 11.1405C17.0676 11.2372 17.1987 11.2627 17.2953 11.1977Z" fill="#555555"/>
<path d="M9.94654 16.1466C10.0432 16.0815 10.0687 15.9504 10.0037 15.8538C9.93859 15.7572 9.8075 15.7316 9.71088 15.7967C9.61425 15.8617 9.58867 15.9928 9.65375 16.0894C9.71883 16.1861 9.84992 16.2116 9.94654 16.1466Z" fill="#555555"/>
<path d="M16.0957 17.3465C16.1923 17.2814 16.2179 17.1504 16.1528 17.0537C16.0877 16.9571 15.9566 16.9315 15.86 16.9966C15.7634 17.0617 15.7378 17.1928 15.8029 17.2894C15.868 17.386 15.999 17.4116 16.0957 17.3465Z" fill="#555555"/>
<path d="M11.1468 9.99777C11.2434 9.93269 11.269 9.8016 11.2039 9.70498C11.1388 9.60835 11.0077 9.58278 10.9111 9.64785C10.8145 9.71293 10.7889 9.84402 10.854 9.94064C10.919 10.0373 11.0501 10.0628 11.1468 9.99777Z" fill="#555555"/>
<path d="M18.0586 14.3854C18.0809 14.2711 18.0063 14.1603 17.8919 14.138C17.7776 14.1157 17.6668 14.1903 17.6445 14.3046C17.6222 14.419 17.6968 14.5297 17.8112 14.5521C17.9255 14.5744 18.0363 14.4998 18.0586 14.3854Z" fill="#555555"/>
<path d="M9.36298 12.6886C9.38529 12.5743 9.31069 12.4635 9.19634 12.4412C9.082 12.4189 8.97123 12.4935 8.94892 12.6078C8.92661 12.7222 9.00122 12.833 9.11556 12.8553C9.2299 12.8776 9.34068 12.803 9.36298 12.6886Z" fill="#555555"/>
<path d="M12.8628 17.8849C12.8851 17.7705 12.8105 17.6597 12.6961 17.6374C12.5818 17.6151 12.471 17.6897 12.4487 17.8041C12.4264 17.9184 12.501 18.0292 12.6154 18.0515C12.7297 18.0738 12.8405 17.9992 12.8628 17.8849Z" fill="#555555"/>
<path d="M14.5591 9.18961C14.5814 9.07527 14.5068 8.96449 14.3925 8.94218C14.2782 8.91987 14.1674 8.99448 14.1451 9.10882C14.1228 9.22316 14.1974 9.33394 14.3117 9.35625C14.4261 9.37856 14.5368 9.30395 14.5591 9.18961Z" fill="#555555"/>
<path d="M16.1269 9.92092C16.1913 9.82381 16.1647 9.69292 16.0676 9.62855C15.9705 9.56419 15.8396 9.59073 15.7753 9.68783C15.7109 9.78493 15.7375 9.91583 15.8346 9.98019C15.9317 10.0446 16.0626 10.018 16.1269 9.92092Z" fill="#555555"/>
<path d="M11.2319 17.3054C11.2963 17.2083 11.2697 17.0774 11.1726 17.0131C11.0755 16.9487 10.9446 16.9752 10.8803 17.0724C10.8159 17.1695 10.8424 17.3003 10.9395 17.3647C11.0366 17.4291 11.1675 17.4025 11.2319 17.3054Z" fill="#555555"/>
<path d="M17.3711 16.0606C17.4355 15.9635 17.4089 15.8326 17.3118 15.7683C17.2147 15.7039 17.0838 15.7304 17.0195 15.8275C16.9551 15.9246 16.9816 16.0555 17.0787 16.1199C17.1758 16.1843 17.3067 16.1577 17.3711 16.0606Z" fill="#555555"/>
<path d="M9.98695 11.1654C10.0513 11.0683 10.0248 10.9374 9.92767 10.8731C9.83057 10.8087 9.69968 10.8352 9.63531 10.9323C9.57095 11.0294 9.59748 11.1603 9.69459 11.2247C9.79169 11.2891 9.92258 11.2625 9.98695 11.1654Z" fill="#555555"/>
<path d="M17.8867 12.823C18.0009 12.7998 18.0747 12.6885 18.0516 12.5743C18.0284 12.4602 17.9171 12.3864 17.8029 12.4095C17.6887 12.4327 17.6149 12.544 17.6381 12.6581C17.6612 12.7723 17.7726 12.8461 17.8867 12.823Z" fill="#555555"/>
<path d="M9.20411 14.5835C9.31829 14.5603 9.39208 14.449 9.36893 14.3348C9.34579 14.2207 9.23447 14.1469 9.12029 14.17C9.00612 14.1932 8.93232 14.3045 8.95547 14.4186C8.97861 14.5328 9.08994 14.6066 9.20411 14.5835Z" fill="#555555"/>
<path d="M14.4256 18.0445C14.5398 18.0214 14.6135 17.9101 14.5904 17.7959C14.5673 17.6817 14.4559 17.6079 14.3418 17.6311C14.2276 17.6542 14.1538 17.7655 14.1769 17.8797C14.2001 17.9939 14.3114 18.0677 14.4256 18.0445Z" fill="#555555"/>
<path d="M12.6652 9.36191C12.7794 9.33876 12.8532 9.22744 12.83 9.11327C12.8069 8.99909 12.6955 8.9253 12.5814 8.94845C12.4672 8.97159 12.3934 9.08291 12.4165 9.19709C12.4397 9.31126 12.551 9.38506 12.6652 9.36191Z" fill="#555555"/>
</svg>
