<svg width="26" height="26" viewBox="0 0 26 26" fill="none" xmlns="http://www.w3.org/2000/svg">
<path fill-rule="evenodd" clip-rule="evenodd" d="M7.90789 20.5845H3.21494C3.10736 20.5843 3.00423 20.5415 2.92816 20.4655C2.85209 20.3894 2.80929 20.2863 2.80916 20.1787V17.6577C3.88578 17.4658 4.70415 16.5242 4.70415 15.3927C4.70415 14.2614 3.88578 13.3196 2.80916 13.1278V10.6069C2.80916 10.4993 2.85192 10.396 2.92801 10.32C3.00411 10.2439 3.10732 10.2011 3.21494 10.2011H22.7525C22.8601 10.2011 22.9634 10.2439 23.0395 10.32C23.1156 10.396 23.1583 10.4993 23.1583 10.6069V20.1787C23.1583 20.2863 23.1156 20.3895 23.0395 20.4656C22.9634 20.5417 22.8602 20.5844 22.7526 20.5845H9.46585C9.35826 20.5845 9.25511 20.6273 9.17904 20.7034C9.10297 20.7795 9.06022 20.8826 9.06017 20.9902C9.06022 21.0978 9.10298 21.201 9.17905 21.277C9.25511 21.3531 9.35827 21.3959 9.46585 21.3959H22.7526C23.4248 21.3959 23.9699 20.851 23.9699 20.1787V10.6069C23.9699 9.93458 23.4248 9.38965 22.7526 9.38965H3.21494C2.54274 9.38965 1.99771 9.93458 1.99771 10.6069V13.4978C1.99771 13.5511 2.00821 13.6039 2.0286 13.6531C2.04899 13.7024 2.07888 13.7471 2.11656 13.7848C2.15424 13.8224 2.19897 13.8523 2.2482 13.8727C2.29743 13.8931 2.3502 13.9036 2.40349 13.9036C3.22536 13.9036 3.89269 14.5709 3.89269 15.3927C3.89269 16.2147 3.22536 16.8819 2.40349 16.8819C2.3502 16.8819 2.29743 16.8924 2.2482 16.9128C2.19897 16.9332 2.15424 16.9631 2.11656 17.0008C2.07888 17.0385 2.04899 17.0832 2.0286 17.1324C2.00821 17.1817 1.99771 17.2344 1.99771 17.2877V20.1787C1.99774 20.5015 2.12599 20.8111 2.35426 21.0394C2.58253 21.2676 2.89212 21.3959 3.21494 21.3959H7.90789C8.13186 21.3959 8.31367 21.2141 8.31367 20.9902C8.31367 20.7663 8.13186 20.5845 7.90789 20.5845Z" fill="#555555"/>
<path fill-rule="evenodd" clip-rule="evenodd" d="M3.64867 10.1872L20.8455 5.57935C20.897 5.56552 20.9506 5.56198 21.0035 5.56891C21.0563 5.57585 21.1073 5.59314 21.1534 5.61978C21.1996 5.64642 21.2401 5.6819 21.2725 5.72419C21.3049 5.76647 21.3287 5.81474 21.3425 5.86623L22.0981 8.68601C22.1259 8.78993 22.194 8.87853 22.2871 8.93234C22.3803 8.98615 22.491 9.00077 22.595 8.97298C22.6989 8.94505 22.7875 8.87702 22.8413 8.78383C22.895 8.69064 22.9096 8.57991 22.8819 8.47596L22.1263 5.65618C22.0427 5.34439 21.8387 5.07855 21.5591 4.91715C21.2796 4.75574 20.9474 4.71196 20.6355 4.79546L3.43863 9.4034C3.33471 9.43128 3.24612 9.49929 3.19233 9.59247C3.13853 9.68565 3.12394 9.79638 3.15175 9.90032C3.17966 10.0042 3.24767 10.0928 3.34085 10.1466C3.43402 10.2004 3.54474 10.215 3.64867 10.1872ZM8.37142 11.1531V11.9645C8.37142 12.1885 8.55323 12.3703 8.7772 12.3703C9.00117 12.3703 9.18297 12.1885 9.18297 11.9645V11.1531C9.18297 10.9291 9.00117 10.7473 8.7772 10.7473C8.66959 10.7474 8.56641 10.7901 8.49033 10.8662C8.41424 10.9423 8.37147 11.0455 8.37142 11.1531ZM8.37142 13.709V14.5204C8.37142 14.7444 8.55323 14.9262 8.7772 14.9262C9.00117 14.9262 9.18297 14.7444 9.18297 14.5204V13.709C9.18297 13.485 9.00117 13.3032 8.7772 13.3032C8.66959 13.3033 8.56641 13.346 8.49033 13.4221C8.41424 13.4982 8.37147 13.6014 8.37142 13.709ZM8.37142 16.2649V17.0764C8.3715 17.184 8.41428 17.2872 8.49036 17.3632C8.56645 17.4393 8.66961 17.482 8.7772 17.4821C9.00117 17.4821 9.18297 17.3003 9.18297 17.0764V16.2649C9.1829 16.1573 9.14012 16.0541 9.06403 15.9781C8.98795 15.902 8.88478 15.8592 8.7772 15.8592C8.66961 15.8592 8.56645 15.902 8.49036 15.9781C8.41428 16.0541 8.3715 16.1573 8.37142 16.2649ZM8.37142 18.8209V19.6323C8.37142 19.8563 8.55323 20.0381 8.7772 20.0381C9.00117 20.0381 9.18297 19.8563 9.18297 19.6323V18.8209C9.18297 18.5969 9.00117 18.4151 8.7772 18.4151C8.66959 18.4151 8.56641 18.4579 8.49033 18.534C8.41424 18.6101 8.37147 18.7132 8.37142 18.8209Z" fill="#555555"/>
</svg>
