<svg width="183" height="93" viewBox="0 0 183 93" fill="none" xmlns="http://www.w3.org/2000/svg">
<path d="M33.4998 0L33.4998 91C34.4998 91 54.5332 93.7845 33.4998 91H122V0H33.4998Z" fill="url(#paint0_linear_1_120)" fill-opacity="0.8"/>
<path d="M122 82.1125V90.5462H174.279C174.693 89.189 175.546 87.3509 177.313 85.8555C179.343 84.1403 181.524 83.7607 182.443 83.6537C182.438 82.2099 182.438 80.7655 182.438 79.3267C179.822 78.4357 178.121 75.906 178.268 73.2075C178.404 70.7446 180.065 68.5785 182.443 67.7792C182.15 67.5691 178.894 65.1266 178.954 60.8148C179.009 56.6515 182.109 54.3217 182.438 54.081C182.16 53.8861 178.858 51.4901 178.884 47.1783C178.909 42.9277 182.135 40.5827 182.433 40.3725C181.923 39.891 179.706 37.6791 179.5 34.089C179.247 29.8231 182.039 27.0634 182.443 26.6794C181.999 26.1979 179.389 23.2434 179.773 18.9316C180.055 15.7159 181.832 13.6314 182.438 12.9811C182.438 11.5424 182.438 10.103 182.433 8.66427C181.525 8.50059 178.758 7.87581 176.496 5.36137C174.608 3.26154 174.078 0.972533 173.911 0H122.01V10.4571C122.005 34.3399 122.005 58.2284 122 82.1125Z" fill="url(#paint1_linear_1_120)" fill-opacity="0.8"/>
<path d="M33.5 90.5462H8.164C7.7502 89.189 6.89683 87.3509 5.12986 85.8555C3.10042 84.1403 0.919022 83.7607 0.00037384 83.6537C0.0053978 82.2099 0.00539398 80.7655 0.00539398 79.3267C2.62068 78.4357 4.32235 75.906 4.17542 73.2075C4.03916 70.7446 2.37831 68.5785 0.00037384 67.7792C0.292984 67.5691 3.54941 65.1266 3.48913 60.8148C3.43387 56.6515 0.333797 54.3217 0.00539398 54.081C0.282936 53.8861 3.5852 51.4901 3.55945 47.1783C3.53433 42.9277 0.308048 40.5827 0.0104141 40.3725C0.520287 39.891 2.73686 37.6791 2.94345 34.089C3.19587 29.8231 0.40414 27.0634 -0.000240326 26.6794C0.444328 26.1979 3.05396 23.2434 2.67031 18.9316C2.38774 15.7159 0.610725 13.6314 0.00478363 12.9811C0.00478363 11.5424 0.00477982 10.103 0.00980377 8.66427C0.918404 8.50059 3.68504 7.87581 5.94681 5.36137C7.83497 3.26154 8.36493 0.972533 8.53196 0H33.5001C33.5057 23.8828 33.495 66.6621 33.5 90.5462Z" fill="url(#paint2_linear_1_120)" fill-opacity="0.8"/>
<defs>
<linearGradient id="paint0_linear_1_120" x1="77.7498" y1="0" x2="77.7498" y2="92.2375" gradientUnits="userSpaceOnUse">
<stop stop-color="#216FDD" stop-opacity="0.6"/>
<stop offset="1" stop-color="#6495ED" stop-opacity="0.15"/>
</linearGradient>
<linearGradient id="paint1_linear_1_120" x1="152.221" y1="0" x2="152.221" y2="90.5462" gradientUnits="userSpaceOnUse">
<stop stop-color="#216FDD" stop-opacity="0.6"/>
<stop offset="1" stop-color="#6495ED" stop-opacity="0.15"/>
</linearGradient>
<linearGradient id="paint2_linear_1_120" x1="16.7508" y1="0" x2="16.7508" y2="90.5462" gradientUnits="userSpaceOnUse">
<stop stop-color="#216FDD" stop-opacity="0.6"/>
<stop offset="1" stop-color="#6495ED" stop-opacity="0.15"/>
</linearGradient>
</defs>
</svg>
