<svg width="24" height="24" viewBox="0 0 24 24" fill="none" xmlns="http://www.w3.org/2000/svg">
<path d="M12 2.25C6.6 2.25 2.25 6.6 2.25 12C2.25 17.4 6.6 21.75 12 21.75C17.4 21.75 21.75 17.4 21.75 12C21.75 6.6 17.4 2.25 12 2.25Z" fill="#E0E0E0"/>
<path d="M11.25 4.5V3.75C7.275 4.125 4.125 7.275 3.75 11.25H4.5C4.875 11.25 5.25 11.625 5.25 12C5.25 12.375 4.875 12.75 4.5 12.75H3.75C4.125 16.725 7.275 19.875 11.25 20.25V19.5C11.25 19.125 11.625 18.75 12 18.75V5.25C11.625 5.25 11.25 4.875 11.25 4.5Z" fill="#6495ED" fill-opacity="0.15"/>
<path d="M21 2.70005L20.55 2.25005C19.575 1.27505 17.925 1.27505 16.95 2.25005L16.05 3.15005C14.475 2.40005 12.675 2.10005 10.8 2.32505C6.375 2.85005 2.85 6.37505 2.325 10.8C1.65 16.725 6.225 21.75 12 21.75C13.65 21.75 15.225 21.375 16.575 20.625L18.225 22.275C18.3 22.35 18.375 22.425 18.45 22.425H18.525H18.6C18.675 22.425 18.675 22.425 18.75 22.425C18.825 22.425 18.825 22.425 18.9 22.425H18.975H19.05C19.125 22.425 19.2 22.35 19.275 22.275C19.35 22.2001 19.425 22.125 19.425 22.05V21.975V21.9V21.8251V18.3C20.85 16.575 21.675 14.4 21.675 12.075C21.675 10.2 21.15 8.55005 20.25 7.05005L21 6.30005C21.975 5.32505 21.975 3.67505 21 2.70005ZM19.5 12.75H20.25C20.025 15.225 18.675 17.4 16.725 18.75C16.425 18.975 16.125 19.125 15.825 19.275C14.925 19.725 13.875 20.1 12.825 20.175V19.425C12.825 19.05 12.45 18.675 12.075 18.675C11.7 18.675 11.325 19.05 11.325 19.425V20.175C7.35 19.8 4.2 16.65 3.825 12.675H4.575C4.95 12.675 5.325 12.3 5.325 11.925C5.325 11.55 4.95 11.175 4.575 11.175H3.75C4.125 7.27505 7.275 4.12505 11.25 3.75005V4.50005C11.25 4.87505 11.625 5.25005 12 5.25005C12.375 5.25005 12.75 4.87505 12.75 4.50005V3.75005C16.725 4.12505 19.875 7.27505 20.25 11.25H19.5C19.125 11.25 18.75 11.625 18.75 12C18.75 12.375 19.125 12.75 19.5 12.75Z" fill="#0047AB"/>
<path d="M12 5.25005V2.25005C10.575 2.25005 9.15 2.55005 7.95 3.15005L7.05 2.25005C6.075 1.27505 4.425 1.27505 3.45 2.25005L3 2.70005C2.025 3.67505 2.025 5.32505 3 6.30005L3.675 6.97505C2.775 8.47505 2.25 10.125 2.25 12C2.25 14.325 3.075 16.5 4.5 18.225V21.75C4.5 21.825 4.5 21.9 4.5 21.975V22.05C4.5 22.05 4.5 22.05 4.5 22.125C4.5 22.2 4.575 22.275 4.65 22.35C4.725 22.425 4.8 22.425 4.875 22.5C4.875 22.5 4.875 22.5 4.95 22.5H5.025C5.1 22.5 5.175 22.5 5.25 22.5C5.325 22.5 5.4 22.5 5.475 22.5H5.55C5.55 22.5 5.55 22.5 5.625 22.5C5.7 22.5 5.775 22.425 5.85 22.35L7.5 20.7001C8.85 21.4501 10.425 21.8251 12.075 21.8251V18.8251C11.7 18.8251 11.325 19.2001 11.325 19.5751V20.3251C10.2 20.25 9.225 19.95 8.325 19.425C8.025 19.275 7.725 19.05 7.425 18.9C5.475 17.55 4.125 15.375 3.9 12.9H4.65C5.025 12.9 5.4 12.525 5.4 12.15C5.4 11.775 5.025 11.4 4.65 11.4H3.75C4.125 7.27505 7.275 4.12505 11.25 3.75005V4.50005C11.25 4.87505 11.625 5.25005 12 5.25005Z" fill="#0047AB"/>
<path d="M15.75 10.5H13.5V6.75C13.5 6.3 13.2 6 12.75 6C12.3 6 12 6.3 12 6.75V11.25C12 11.7 12.3 12 12.75 12H15.75C16.2 12 16.5 11.7 16.5 11.25C16.5 10.8 16.2 10.5 15.75 10.5Z" fill="#6495ED" fill-opacity="0.15"/>
<path d="M15 10.5H12.75V6.75C12.75 6.3 12.45 6 12 6C11.55 6 11.25 6.3 11.25 6.75V11.25C11.25 11.7 11.55 12 12 12H15C15.45 12 15.75 11.7 15.75 11.25C15.75 10.8 15.45 10.5 15 10.5Z" fill="#0047AB"/>
<path d="M11.25 6.75V11.25C11.25 11.7 11.55 12 12 12V6C11.55 6 11.25 6.3 11.25 6.75Z" fill="#0047AB"/>
</svg>
