<svg width="25" height="25" viewBox="0 0 25 25" fill="none" xmlns="http://www.w3.org/2000/svg">
<path d="M22.2031 9.14842L14.7539 1.6992C14.4144 1.36191 13.9552 1.17261 13.4766 1.17261C12.998 1.17261 12.5388 1.36191 12.1992 1.6992L9.78516 4.11327C9.73825 4.15993 9.70397 4.21775 9.68552 4.28129C9.66707 4.34483 9.66507 4.41202 9.67969 4.47655C9.69467 4.54112 9.72584 4.60082 9.77026 4.65002C9.81468 4.69922 9.87089 4.73631 9.9336 4.7578C10.0682 4.80871 10.1906 4.88722 10.293 4.98827L14.957 9.65233C14.9935 9.68853 15.0368 9.71717 15.0844 9.73661C15.132 9.75605 15.183 9.76591 15.2344 9.76561H21.4844C21.6014 9.76398 21.7182 9.77711 21.832 9.80467C21.8632 9.80844 21.8946 9.80844 21.9258 9.80467C22.0034 9.80512 22.0793 9.78246 22.144 9.73957C22.2087 9.69668 22.2591 9.6355 22.2888 9.56384C22.3186 9.49219 22.3263 9.41329 22.3111 9.33722C22.2958 9.26114 22.2582 9.19134 22.2031 9.1367V9.14842Z" fill="url(#paint0_linear_41_539)"/>
<path d="M15.5117 9.0977L10.8476 4.43364C10.6649 4.25864 10.4463 4.12537 10.207 4.04301C9.88406 3.91804 9.53202 3.88842 9.19272 3.95767C8.85342 4.02691 8.54113 4.19211 8.29296 4.43364L3.6289 9.0977C3.5747 9.15263 3.53798 9.22238 3.52338 9.29816C3.50878 9.37394 3.51695 9.45234 3.54687 9.52348C3.57617 9.59481 3.62594 9.65588 3.68989 9.69898C3.75384 9.74208 3.82912 9.76528 3.90624 9.76567H15.2344C15.3115 9.76528 15.3868 9.74208 15.4507 9.69898C15.5147 9.65588 15.5644 9.59481 15.5937 9.52348C15.6237 9.45234 15.6318 9.37394 15.6172 9.29816C15.6026 9.22238 15.5659 9.15263 15.5117 9.0977Z" fill="url(#paint1_linear_41_539)"/>
<path d="M21.0938 8.98438H4.29688C3.88247 8.98438 3.48505 9.149 3.19202 9.44202C2.89899 9.73505 2.73438 10.1325 2.73438 10.5469V22.2656C2.73438 22.68 2.89899 23.0775 3.19202 23.3705C3.48505 23.6635 3.88247 23.8281 4.29688 23.8281H21.0938C21.7154 23.8281 22.3115 23.5812 22.751 23.1417C23.1906 22.7021 23.4375 22.106 23.4375 21.4844V11.3281C23.4375 10.7065 23.1906 10.1104 22.751 9.67084C22.3115 9.2313 21.7154 8.98438 21.0938 8.98438Z" fill="#868686"/>
<path d="M21.4844 11.3281V21.4844C21.4845 22.0986 21.2435 22.6883 20.8132 23.1266C20.3829 23.565 19.7977 23.8169 19.1836 23.8281H2.70312C2.29416 23.8199 1.90472 23.6517 1.61842 23.3596C1.33212 23.0674 1.17179 22.6747 1.17188 22.2656V10.5469C1.17179 10.1378 1.33212 9.74507 1.61842 9.45292C1.90472 9.16078 2.29416 8.99256 2.70312 8.98438H19.1836C19.7977 8.99564 20.3829 9.24753 20.8132 9.68585C21.2435 10.1242 21.4845 10.7139 21.4844 11.3281Z" fill="url(#paint2_linear_41_539)"/>
<path d="M23.4375 14.0625H20.3125C19.7945 14.0625 19.2977 14.2683 18.9314 14.6346C18.5652 15.0008 18.3594 15.4976 18.3594 16.0156V16.7969C18.3594 17.0534 18.4099 17.3073 18.508 17.5443C18.6062 17.7813 18.7501 17.9966 18.9314 18.1779C19.1128 18.3593 19.3281 18.5032 19.5651 18.6013C19.802 18.6995 20.056 18.75 20.3125 18.75H23.4375C23.5411 18.75 23.6405 18.7088 23.7137 18.6356C23.787 18.5623 23.8281 18.463 23.8281 18.3594V14.4531C23.8281 14.3495 23.787 14.2502 23.7137 14.1769C23.6405 14.1037 23.5411 14.0625 23.4375 14.0625Z" fill="#868686"/>
<path d="M12.1094 10.5469H8.98438C8.67357 10.5469 8.3755 10.6703 8.15573 10.8901C7.93596 11.1099 7.8125 11.4079 7.8125 11.7188V12.5C7.8125 12.8108 7.93596 13.1089 8.15573 13.3286C8.3755 13.5484 8.67357 13.6719 8.98438 13.6719H12.1094C12.4202 13.6719 12.7182 13.5484 12.938 13.3286C13.1578 13.1089 13.2812 12.8108 13.2812 12.5V11.7188C13.2812 11.4079 13.1578 11.1099 12.938 10.8901C12.7182 10.6703 12.4202 10.5469 12.1094 10.5469ZM12.5 12.5C12.5 12.6036 12.4588 12.703 12.3856 12.7762C12.3123 12.8495 12.213 12.8906 12.1094 12.8906H8.98438C8.88077 12.8906 8.78142 12.8495 8.70816 12.7762C8.6349 12.703 8.59375 12.6036 8.59375 12.5V11.7188C8.59375 11.6151 8.6349 11.5158 8.70816 11.4425C8.78142 11.3693 8.88077 11.3281 8.98438 11.3281H12.1094C12.213 11.3281 12.3123 11.3693 12.3856 11.4425C12.4588 11.5158 12.5 11.6151 12.5 11.7188V12.5Z" fill="#E5E5E5"/>
<path d="M21.0938 17.1875C21.5252 17.1875 21.875 16.8377 21.875 16.4062C21.875 15.9748 21.5252 15.625 21.0938 15.625C20.6623 15.625 20.3125 15.9748 20.3125 16.4062C20.3125 16.8377 20.6623 17.1875 21.0938 17.1875Z" fill="#E5E5E5"/>
<path d="M3.90625 8.98438H4.6875V23.8281H3.90625V8.98438ZM5.46875 8.98438H6.25V23.8281H5.46875V8.98438Z" fill="#E5E5E5"/>
<defs>
<linearGradient id="paint0_linear_41_539" x1="14.0117" y1="8.89061" x2="17.9766" y2="4.92577" gradientUnits="userSpaceOnUse">
<stop stop-color="#CDCDCD"/>
<stop offset="1" stop-color="#B3B3B3"/>
</linearGradient>
<linearGradient id="paint1_linear_41_539" x1="6.46093" y1="12.4844" x2="12.6797" y2="6.26567" gradientUnits="userSpaceOnUse">
<stop stop-color="#C4C4C4"/>
<stop offset="1" stop-color="#959595"/>
</linearGradient>
<linearGradient id="paint2_linear_41_539" x1="11.3281" y1="23.8281" x2="11.3281" y2="8.98438" gradientUnits="userSpaceOnUse">
<stop stop-color="#D0D0D0"/>
<stop offset="1" stop-color="#888888"/>
</linearGradient>
</defs>
</svg>
