<svg width="24" height="24" viewBox="0 0 24 24" fill="none" xmlns="http://www.w3.org/2000/svg">
<path d="M11.388 9.03495V0.244474C11.388 0.0318758 11.4871 -0.0420552 11.6853 0.0226485C11.8024 0.0596221 11.9241 0.101212 12.0503 0.147429C12.1314 0.175159 12.1673 0.230613 12.1583 0.313803C11.7799 3.53975 12.0187 6.69637 12.8747 9.78366C13.0144 10.2849 13.3111 10.725 13.7192 11.0358C14.1272 11.3466 14.6238 11.5108 15.132 11.5029C18.3668 11.4475 21.1736 11.4244 23.5524 11.4336C23.8318 11.4429 23.9804 11.6092 23.9984 11.9328C24.0164 12.2285 23.8814 12.3903 23.593 12.418C13.2803 13.4856 11.5772 10.9345 12.0638 23.7735C12.0728 23.9676 11.9828 24.037 11.7935 23.9815C11.6854 23.9445 11.5773 23.9076 11.4692 23.8706C11.4151 23.8521 11.388 23.7643 11.388 23.6072V15.3713C11.3881 14.6564 11.1151 13.9699 10.6274 13.4592C10.1397 12.9486 9.4761 12.6544 8.77932 12.6399L0.304901 12.4458C0.258832 12.4452 0.213484 12.4337 0.172248 12.4122C0.131012 12.3906 0.0947787 12.3594 0.066324 12.321C0.0378693 12.2825 0.0179413 12.2376 0.00775225 12.1897C-0.00243681 12.1417 -0.00261813 12.0919 0.00742227 12.0437C0.0704972 11.7386 0.174259 11.5861 0.31843 11.5861C3.45415 11.5307 6.36907 11.4844 9.06327 11.4475C9.68231 11.4402 10.2735 11.1828 10.7087 10.7311C11.1439 10.2795 11.388 9.67002 11.388 9.03495Z" fill="white"/>
</svg>
