<svg width="29" height="24" viewBox="0 0 29 24" fill="none" xmlns="http://www.w3.org/2000/svg">
<g clip-path="url(#clip0_12_619)">
<path d="M23.0628 24H4.83465C4.7647 24 4.69761 23.9719 4.64815 23.9218C4.59868 23.8717 4.5709 23.8038 4.5709 23.7329C4.5709 23.6621 4.59868 23.5942 4.64815 23.5441C4.69761 23.494 4.7647 23.4659 4.83465 23.4659H23.0628C23.1328 23.4659 23.1999 23.494 23.2494 23.5441C23.2988 23.5942 23.3266 23.6621 23.3266 23.7329C23.3266 23.8038 23.2988 23.8717 23.2494 23.9218C23.1999 23.9719 23.1328 24 23.0628 24ZM26.6183 24H24.772C24.702 24 24.6349 23.9719 24.5855 23.9218C24.536 23.8717 24.5082 23.8038 24.5082 23.7329C24.5082 23.6621 24.536 23.5942 24.5855 23.5441C24.6349 23.494 24.702 23.4659 24.772 23.4659H26.6183C26.6882 23.4659 26.7553 23.494 26.8048 23.5441C26.8542 23.5942 26.882 23.6621 26.882 23.7329C26.882 23.8038 26.8542 23.8717 26.8048 23.9218C26.7553 23.9719 26.6882 24 26.6183 24ZM3.81655 21.3025H23.0998C23.1697 21.3025 23.2368 21.2744 23.2863 21.2243C23.3357 21.1742 23.3635 21.1062 23.3635 21.0354C23.3635 20.9646 23.3357 20.8966 23.2863 20.8466C23.2368 20.7965 23.1697 20.7683 23.0998 20.7683H3.81655C3.7466 20.7683 3.67951 20.7965 3.63005 20.8466C3.58059 20.8966 3.5528 20.9646 3.5528 21.0354C3.5528 21.1062 3.58059 21.1742 3.63005 21.2243C3.67951 21.2744 3.7466 21.3025 3.81655 21.3025ZM0.263756 21.3025H2.11005C2.18 21.3025 2.24709 21.2744 2.29655 21.2243C2.34602 21.1742 2.37381 21.1062 2.37381 21.0354C2.37381 20.9646 2.34602 20.8966 2.29655 20.8466C2.24709 20.7965 2.18 20.7683 2.11005 20.7683H0.263756C0.193804 20.7683 0.126716 20.7965 0.0772524 20.8466C0.0277885 20.8966 0 20.9646 0 21.0354C0 21.1062 0.0277885 21.1742 0.0772524 21.2243C0.126716 21.2744 0.193804 21.3025 0.263756 21.3025ZM9.45302 13.2687H28.7494C28.8194 13.2687 28.8865 13.2405 28.9359 13.1904C28.9854 13.1403 29.0132 13.0724 29.0132 13.0016C29.0132 12.9307 28.9854 12.8628 28.9359 12.8127C28.8865 12.7626 28.8194 12.7345 28.7494 12.7345H9.45302C9.38307 12.7345 9.31598 12.7626 9.26652 12.8127C9.21706 12.8628 9.18927 12.9307 9.18927 13.0016C9.18927 13.0724 9.21706 13.1403 9.26652 13.1904C9.31598 13.2405 9.38307 13.2687 9.45302 13.2687ZM5.90023 13.2687H7.74652C7.81647 13.2687 7.88356 13.2405 7.93303 13.1904C7.98249 13.1403 8.01028 13.0724 8.01028 13.0016C8.01028 12.9307 7.98249 12.8628 7.93303 12.8127C7.88356 12.7626 7.81647 12.7345 7.74652 12.7345H5.90023C5.83028 12.7345 5.76319 12.7626 5.71372 12.8127C5.66426 12.8628 5.63647 12.9307 5.63647 13.0016C5.63647 13.0724 5.66426 13.1403 5.71372 13.1904C5.76319 13.2405 5.83028 13.2687 5.90023 13.2687Z" fill="white"/>
<path d="M5.90023 13.2687H7.74652C7.81648 13.2687 7.88356 13.2405 7.93303 13.1904C7.98249 13.1403 8.01028 13.0724 8.01028 13.0016C8.01028 12.9307 7.98249 12.8628 7.93303 12.8127C7.88356 12.7626 7.81648 12.7345 7.74652 12.7345H5.90023C5.83028 12.7345 5.76319 12.7626 5.71373 12.8127C5.66426 12.8628 5.63647 12.9307 5.63647 13.0016C5.63647 13.0724 5.66426 13.1403 5.71373 13.1904C5.76319 13.2405 5.83028 13.2687 5.90023 13.2687Z" fill="white"/>
<path d="M22.9125 3.51214C21.5449 2.12563 19.8624 1.09988 18.0123 0.524766C16.1623 -0.0503467 14.2012 -0.157275 12.3008 0.21335C10.4005 0.583974 8.61892 1.42084 7.11218 2.65063C5.60543 3.88042 4.41951 5.46561 3.6583 7.26732L3.63456 7.3234L3.55544 7.35011L3.58709 7.44626L3.56862 7.49166C2.8411 9.31015 2.56585 11.2817 2.76705 13.2332C2.96825 15.1846 3.63974 17.0561 4.72251 18.6832C5.80528 20.3103 7.26618 21.6432 8.97679 22.5647C10.6874 23.4861 12.5954 23.968 14.533 23.968C16.8742 23.9698 19.1633 23.2684 21.1108 21.9525C23.0583 20.6367 24.5766 18.7655 25.4736 16.5757C26.3706 14.3858 26.6061 11.9758 26.1502 9.65046C25.6943 7.32511 24.5676 5.18892 22.9125 3.51214ZM19.7474 1.83487C20.7127 2.34185 21.601 2.98678 22.385 3.74984L22.5037 3.86736L21.6729 4.42556L19.8266 4.05165L18.6317 3.65102C18.6047 3.64105 18.5762 3.63564 18.5473 3.635H18.4814L16.9595 4.0196L16.1155 3.73916L16.701 2.55332H18.1306C18.1719 2.55307 18.2126 2.543 18.2493 2.52394L19.692 1.7948L19.7474 1.83487ZM4.18581 7.41955C5.33872 4.7361 7.46213 2.6012 10.1203 1.45294L10.1863 1.42623L11.2017 2.11263C11.2336 2.13352 11.2696 2.14719 11.3072 2.15269L13.3909 2.50524L13.1272 3.28779L12.0563 3.65102C11.9955 3.67108 11.9439 3.71285 11.9112 3.76854L10.7481 5.72892L8.85957 6.87738L6.12706 7.27533C6.06321 7.2838 6.00462 7.31564 5.96235 7.36484C5.92008 7.41404 5.89705 7.4772 5.89759 7.54241V8.75229C5.89739 8.78808 5.90428 8.82354 5.91788 8.85658C5.93147 8.88961 5.95148 8.91954 5.97672 8.94459L6.69414 9.67373V10.6833L4.79245 9.39863L4.16208 7.47831L4.18581 7.41955ZM9.00992 14.9566L7.14516 14.5774L6.43038 13.1378V12.0962L8.08677 10.4162L8.71715 11.6955C8.73909 11.7409 8.77329 11.779 8.81577 11.8055C8.85826 11.832 8.90728 11.8457 8.95716 11.8451H11.6053L12.7262 13.7334C12.7496 13.7732 12.7828 13.8063 12.8225 13.8292C12.8623 13.8522 12.9073 13.8642 12.9531 13.8642H14.2165L13.8973 15.4908L12.357 17.0505C12.3325 17.0755 12.3132 17.1051 12.3001 17.1376C12.2869 17.1702 12.2803 17.205 12.2805 17.2402V18.3085L10.7903 19.4382C10.7575 19.4644 10.7311 19.4976 10.7128 19.5355C10.6945 19.5735 10.685 19.6151 10.6848 19.6573V21.2998L9.9568 21.0568L9.23147 19.2032V15.2237C9.23229 15.1597 9.21036 15.0975 9.1697 15.0485C9.12903 14.9994 9.07233 14.9668 9.00992 14.9566ZM23.5745 18.856C22.6845 20.0594 21.5688 21.0732 20.2914 21.8395C19.014 22.6059 17.5999 23.1096 16.13 23.3219C14.6601 23.5343 13.1633 23.4511 11.7253 23.077C10.2872 22.703 8.93605 22.0456 7.74916 21.1422C5.89681 19.7255 4.5184 17.7673 3.80005 15.532C3.08169 13.2967 3.05799 10.8921 3.73215 8.64279L3.85348 8.24217L4.31505 9.64702C4.3338 9.70401 4.37097 9.75294 4.42056 9.7859L6.53061 11.2175L5.96353 11.7944C5.93861 11.8191 5.91878 11.8486 5.9052 11.8811C5.89162 11.9137 5.88455 11.9486 5.8844 11.984V13.1965C5.88465 13.2383 5.89459 13.2795 5.91342 13.3167L6.70469 14.9192C6.72275 14.9563 6.74906 14.9886 6.78156 15.0136C6.81405 15.0387 6.85184 15.0557 6.89195 15.0634L8.70396 15.4374V19.254C8.70475 19.2886 8.71098 19.3228 8.72242 19.3555L9.51369 21.3746C9.52806 21.411 9.55015 21.4437 9.57841 21.4705C9.60668 21.4973 9.64041 21.5174 9.67722 21.5295L10.872 21.9328C10.9113 21.9468 10.9533 21.9512 10.9945 21.9456C11.0358 21.9401 11.0752 21.9247 11.1094 21.9007C11.1447 21.8759 11.1735 21.8428 11.1933 21.8042C11.213 21.7655 11.2232 21.7226 11.2228 21.6791V19.7935L12.7131 18.6637C12.7462 18.6386 12.773 18.6059 12.7913 18.5683C12.8096 18.5307 12.819 18.4893 12.8186 18.4474V17.347L14.3378 15.8113C14.3736 15.7724 14.3982 15.7244 14.409 15.6724L14.8073 13.6532C14.8143 13.6185 14.8145 13.5826 14.8077 13.5477C14.8009 13.5129 14.7873 13.4797 14.7677 13.4503C14.7485 13.4208 14.7237 13.3954 14.6947 13.3757C14.6657 13.356 14.6332 13.3423 14.5989 13.3354C14.5814 13.3328 14.5636 13.3328 14.5462 13.3354H13.0955L11.9772 11.4472C11.9536 11.4069 11.92 11.3736 11.8797 11.3506C11.8395 11.3277 11.7939 11.3158 11.7477 11.3163H9.11014L8.39009 9.85C8.37158 9.81145 8.34419 9.77798 8.31022 9.75241C8.27624 9.72685 8.23669 9.70994 8.19491 9.7031C8.15314 9.69402 8.10975 9.69615 8.06904 9.70926C8.02833 9.72238 7.99171 9.74603 7.9628 9.77789L7.22956 10.523V9.56155C7.22977 9.52576 7.22287 9.4903 7.20928 9.45727C7.19568 9.42423 7.17567 9.3943 7.15043 9.36925L6.43038 8.64012V7.77477L8.99409 7.4062C9.02967 7.40079 9.06378 7.38806 9.09432 7.36881L11.0778 6.15625C11.1155 6.13417 11.1472 6.10297 11.1701 6.06545L12.3148 4.13177L13.4173 3.75786C13.4564 3.74508 13.4921 3.72321 13.5214 3.69399C13.5507 3.66478 13.5729 3.62903 13.5861 3.58959L13.9949 2.37704C14.0062 2.34302 14.0107 2.30704 14.0079 2.27125C14.0052 2.23545 13.9954 2.20058 13.9791 2.16872C13.9632 2.13711 13.9413 2.10903 13.9145 2.0861C13.8878 2.06317 13.8569 2.04586 13.8235 2.03518H13.7839L11.4497 1.62921L10.7955 1.18853L11.0593 1.10306C13.5975 0.26692 16.3463 0.370082 18.8164 1.39418L19.0801 1.50635L18.0673 2.01915H16.5349C16.485 2.01855 16.436 2.03228 16.3935 2.05875C16.351 2.08523 16.3168 2.12336 16.2949 2.16872L15.5036 3.77121C15.4902 3.80379 15.4833 3.83874 15.4833 3.87404C15.4833 3.90934 15.4902 3.94429 15.5036 3.97686C15.5144 4.01091 15.5319 4.04241 15.5551 4.06948C15.5782 4.09655 15.6064 4.11864 15.6381 4.13444L15.6724 4.1478L16.8672 4.55376C16.9163 4.56853 16.9685 4.56853 17.0176 4.55376L18.5394 4.16916L19.6683 4.54842L21.686 4.95973C21.7204 4.96688 21.7558 4.96703 21.7903 4.96015C21.8247 4.95327 21.8574 4.93951 21.8865 4.91966L22.8703 4.27332L22.9468 4.35879C23.3986 4.86875 23.8046 5.41844 24.1601 6.00135L24.2471 6.1429L22.0949 6.86936L19.8819 6.49545L19.1487 5.37103C19.1246 5.33392 19.0917 5.30348 19.053 5.2825C19.0143 5.26151 18.971 5.25063 18.9272 5.25085H16.5349C16.5001 5.25307 16.4662 5.26224 16.4349 5.27782C16.4037 5.29341 16.3758 5.3151 16.3529 5.34165L15.1554 6.55154C15.1267 6.5817 15.1049 6.61795 15.0917 6.65767C15.0785 6.69739 15.0741 6.73959 15.0789 6.78123L15.4799 9.60963C15.4858 9.6557 15.5036 9.69939 15.5313 9.73639C15.5591 9.7734 15.5959 9.80243 15.6381 9.82062L18.4313 11.0305C18.4843 11.0545 18.5436 11.0601 18.6001 11.0465L20.0824 10.6699L21.0609 11.3323V12.8013C21.0595 12.8446 21.0686 12.8877 21.0873 12.9268L22.6699 16.097V17.6274C22.6693 17.663 22.6758 17.6984 22.6889 17.7314C22.7021 17.7644 22.7216 17.7945 22.7463 17.8197L23.6616 18.7465L23.5745 18.856ZM23.9543 18.3218L23.1842 17.5259V16.0249C23.1849 15.9816 23.1759 15.9387 23.1578 15.8994L21.5885 12.7291V11.1774C21.5891 11.1325 21.5786 11.0882 21.5578 11.0485C21.5371 11.0088 21.5068 10.9751 21.4698 10.9504L20.2723 10.1491C20.2417 10.1283 20.2071 10.1142 20.1707 10.1078C20.1344 10.1013 20.0971 10.1027 20.0613 10.1117L18.55 10.4937L15.981 9.37726L15.6223 6.83464L16.6457 5.79836H18.7874L19.5021 6.89073C19.5447 6.95139 19.6091 6.99265 19.6815 7.00558L22.0738 7.40887C22.1161 7.4207 22.1607 7.4207 22.203 7.40887L24.5135 6.62899L24.5663 6.73048C25.4826 8.51724 25.9164 10.5174 25.8237 12.5286C25.7311 14.5397 25.1153 16.4903 24.0387 18.183L23.9543 18.3218Z" fill="white"/>
<path d="M22.4958 3.86736L21.6649 4.42556L19.8186 4.05164L18.6238 3.65102C18.5968 3.64105 18.5682 3.63563 18.5394 3.635H18.4735L16.9516 4.01959L16.1155 3.73916L16.701 2.55331H18.1306C18.1719 2.55306 18.2126 2.543 18.2493 2.52393L19.692 1.7948L19.7501 1.82685C20.7154 2.33384 21.6037 2.97876 22.3876 3.74183L22.4958 3.86736ZM24.321 17.6969C24.2339 17.8544 24.139 18.012 24.0414 18.1669L23.9543 18.3058L23.1842 17.5259V16.0249C23.1849 15.9816 23.1759 15.9387 23.1578 15.8994L21.5885 12.7291V11.1774C21.5891 11.1325 21.5786 11.0882 21.5578 11.0485C21.5371 11.0088 21.5068 10.9751 21.4698 10.9504L20.2723 10.1491C20.2417 10.1283 20.2071 10.1142 20.1707 10.1078C20.1344 10.1013 20.0971 10.1027 20.0613 10.1117L18.55 10.4937L15.981 9.37726L15.6223 6.83464L16.6457 5.79836H17.0861L16.3265 6.56222L16.6852 9.10484L19.2542 10.2212L20.7655 9.83931C20.8013 9.83025 20.8386 9.8289 20.875 9.83534C20.9113 9.84178 20.9459 9.85587 20.9765 9.87671L22.174 10.678C22.211 10.7026 22.2413 10.7364 22.2621 10.7761C22.2828 10.8157 22.2933 10.8601 22.2927 10.905V12.4567L23.8752 15.627C23.8933 15.6663 23.9023 15.7092 23.9016 15.7525V17.2535L24.321 17.6969Z" fill="#E6DEFC"/>
<path d="M24.321 17.6968L23.8884 17.2588V15.7578C23.8891 15.7145 23.8801 15.6715 23.862 15.6323L22.2795 12.462V10.9103C22.2801 10.8654 22.2696 10.821 22.2489 10.7814C22.2281 10.7417 22.1978 10.7079 22.1608 10.6832L20.9633 9.882C20.9327 9.86116 20.8981 9.84707 20.8618 9.84063C20.8254 9.83419 20.7881 9.83555 20.7523 9.8446L19.2542 10.2212L16.6852 9.10479L16.3265 6.56217L17.0861 5.79297H18.7874L19.5021 6.88533C19.5447 6.946 19.6091 6.98725 19.6815 7.00018L22.0738 7.40347C22.116 7.4153 22.1607 7.4153 22.203 7.40347L24.5135 6.62359L24.5663 6.72509C25.4385 8.42763 25.8733 10.3252 25.8304 12.2427C25.7875 14.1603 25.2684 16.036 24.321 17.6968Z" fill="white"/>
<path d="M10.6848 20.8003V21.3024L9.9568 21.0594L9.23147 19.2031V15.2236C9.2326 15.1608 9.21179 15.0995 9.17271 15.0507C9.13364 15.0018 9.07879 14.9685 9.01783 14.9565L7.15307 14.5773L6.43829 13.1377V12.0961L8.08677 10.4161L8.23184 10.7126L7.13461 11.8237V12.8599L7.84939 14.2995L9.71415 14.6895C9.77511 14.7014 9.82995 14.7347 9.86903 14.7836C9.90811 14.8324 9.92892 14.8937 9.92779 14.9565V18.9361L10.661 20.7923L10.6848 20.8003Z" fill="#E6DEFC"/>
<path d="M14.2165 13.8696L13.8973 15.4908L12.357 17.0505C12.3325 17.0755 12.3132 17.1051 12.3001 17.1376C12.287 17.1702 12.2803 17.205 12.2805 17.2402V18.3085L10.7903 19.4382C10.7576 19.4644 10.7311 19.4976 10.7128 19.5355C10.6945 19.5735 10.685 19.6151 10.6848 19.6573V20.7977H10.661L9.92779 18.9361V14.9566C9.92892 14.8938 9.90811 14.8325 9.86903 14.7836C9.82996 14.7348 9.77511 14.7015 9.71415 14.6895L7.84939 14.3103L7.13461 12.8707V11.8291L8.23184 10.718L8.71715 11.7009C8.7391 11.7462 8.77329 11.7844 8.81578 11.8108C8.85826 11.8373 8.90729 11.851 8.95717 11.8504H11.6053L12.7262 13.7387C12.7496 13.7786 12.7828 13.8116 12.8225 13.8346C12.8623 13.8575 12.9073 13.8696 12.9531 13.8696H14.2165Z" fill="white"/>
<path d="M9.23147 6.66101L8.8754 6.87735L6.61237 7.2112C6.62544 7.16001 6.65322 7.11391 6.69219 7.07873C6.73117 7.04354 6.77957 7.02086 6.83128 7.01356L9.23147 6.66101Z" fill="#E6DEFC"/>
<path d="M4.88477 7.15239L4.86631 7.20046L5.49669 9.12078L6.69414 9.92203V10.6832L4.79246 9.39855L4.16208 7.47823L4.18054 7.43015C5.3325 4.74169 7.45822 2.60255 10.1203 1.45286L10.1863 1.42615L10.239 1.46354C7.84546 2.65816 5.94814 4.67404 4.88477 7.15239Z" fill="#E6DEFC"/>
<path d="M13.3909 2.50518L13.1456 3.25568V3.28773L12.6603 3.44531L12.0563 3.65096C11.9955 3.67102 11.9439 3.71279 11.9112 3.76848L10.7481 5.72886L9.23147 6.66098L6.8392 7.00818C6.78749 7.01549 6.73908 7.03817 6.70011 7.07335C6.66114 7.10854 6.63336 7.15464 6.62028 7.20583L6.13497 7.27527C6.07112 7.28374 6.01253 7.31558 5.97026 7.36478C5.92799 7.41398 5.90496 7.47714 5.9055 7.54235V8.75223C5.9053 8.78802 5.91219 8.82348 5.92579 8.85652C5.93938 8.88955 5.95939 8.91948 5.98463 8.94453L6.70205 9.67367V9.94075L5.50459 9.1395L4.8663 7.21117L4.88477 7.16309C5.94814 4.68474 7.84545 2.66886 10.239 1.47424L11.2017 2.12325C11.2336 2.14415 11.2696 2.15781 11.3072 2.16332L13.3909 2.50518Z" fill="white"/>
<path d="M9.45303 22.2025C7.07547 20.9861 5.19808 18.9591 4.15155 16.4786C3.10503 13.9981 2.95651 11.2232 3.73215 8.6427L3.85348 8.24208L4.31505 9.64693C4.32293 9.67358 4.33643 9.69818 4.35462 9.71904C3.83591 11.8955 3.95677 14.178 4.70233 16.2858C5.44788 18.3936 6.78562 20.2348 8.55098 21.5828C8.84375 21.8045 9.14443 22.0128 9.45303 22.2025ZM14.7862 2.82298L14.3879 4.03553C14.3747 4.07496 14.3525 4.11072 14.3232 4.13993C14.2939 4.16915 14.2582 4.19102 14.2191 4.20379L13.1166 4.57771L11.9719 6.51138C11.949 6.54891 11.9173 6.58011 11.8796 6.60219L9.88559 7.81475C9.85504 7.834 9.82094 7.84672 9.78536 7.85214L7.22165 8.22071V9.08071L7.93643 9.80451L7.22956 10.523V9.56146C7.22977 9.52568 7.22287 9.49021 7.20928 9.45718C7.19568 9.42415 7.17567 9.39421 7.15043 9.36916L6.43038 8.64003V7.77468L8.99409 7.40611C9.02967 7.4007 9.06378 7.38797 9.09432 7.36872L11.0778 6.15617C11.1155 6.13408 11.1472 6.10288 11.1701 6.06536L12.3148 4.13168L13.4173 3.75777C13.4564 3.74499 13.4921 3.72312 13.5214 3.6939C13.5507 3.66469 13.5729 3.62894 13.5861 3.58951L13.9949 2.37695L14.5752 2.47577H14.6147C14.6481 2.48646 14.6791 2.50377 14.7058 2.52669C14.7325 2.54962 14.7545 2.57771 14.7704 2.60931C14.7874 2.64189 14.7976 2.6777 14.8004 2.71447C14.8031 2.75124 14.7982 2.78819 14.7862 2.82298ZM15.5933 14.0992L15.195 16.1183C15.1842 16.1703 15.1596 16.2184 15.1238 16.2572L13.6045 17.7929V18.8933C13.605 18.9352 13.5956 18.9766 13.5773 19.0142C13.559 19.0518 13.5322 19.0845 13.499 19.1096L12.0088 20.2394V22.125C12.0092 22.1685 11.999 22.2115 11.9793 22.2501C11.9595 22.2887 11.9307 22.3219 11.8954 22.3467C11.8611 22.3706 11.8218 22.386 11.7805 22.3916C11.7393 22.3971 11.6973 22.3927 11.658 22.3787L10.4632 21.9754C10.4264 21.9633 10.3927 21.9432 10.3644 21.9164C10.3361 21.8897 10.314 21.8569 10.2997 21.8205L10.2628 21.7297L10.8668 21.9327C10.906 21.9467 10.948 21.9511 10.9892 21.9455C11.0305 21.94 11.0699 21.9246 11.1041 21.9007C11.1394 21.8759 11.1682 21.8427 11.188 21.8041C11.2078 21.7654 11.2179 21.7225 11.2176 21.679V19.7934L12.7078 18.6636C12.7409 18.6385 12.7677 18.6058 12.786 18.5682C12.8044 18.5306 12.8137 18.4892 12.8133 18.4473V17.3469L14.3325 15.8112C14.3683 15.7723 14.393 15.7243 14.4037 15.6723L14.7704 13.776H15.3242C15.3417 13.7734 15.3595 13.7734 15.377 13.776C15.4138 13.7805 15.4493 13.7928 15.4811 13.8122C15.5129 13.8315 15.5404 13.8574 15.5616 13.8882C15.5809 13.9193 15.5937 13.954 15.5992 13.9903C15.6046 14.0267 15.6026 14.0637 15.5933 14.0992ZM13.623 13.33H13.0955L12.1644 11.7515H12.539C12.5852 11.7511 12.6307 11.7629 12.671 11.7859C12.7113 11.8089 12.7449 11.8421 12.7684 11.8824L13.623 13.33ZM23.3925 4.8902L22.6567 5.3843C22.6276 5.40414 22.5948 5.4179 22.5604 5.42478C22.526 5.43166 22.4906 5.43152 22.4562 5.42436L20.4385 5.01305L19.3096 4.6338L17.7877 5.0184C17.7387 5.03316 17.6864 5.03316 17.6374 5.0184L16.4426 4.61243L16.4083 4.59908C16.3766 4.58327 16.3483 4.56118 16.3252 4.53411C16.3021 4.50704 16.2846 4.47555 16.2738 4.4415C16.2657 4.41909 16.2604 4.39577 16.2579 4.37206L16.8461 4.57237C16.8952 4.58714 16.9474 4.58714 16.9965 4.57237L18.5183 4.18777L19.6472 4.56703L21.6649 4.97833C21.6993 4.98549 21.7347 4.98563 21.7692 4.97876C21.8036 4.97188 21.8363 4.95811 21.8654 4.93827L22.8703 4.27324L22.9468 4.3587C23.1024 4.52429 23.2528 4.70324 23.3925 4.8902ZM20.7734 11.1292L19.3861 11.4845C19.3296 11.4981 19.2703 11.4924 19.2173 11.4684L16.4241 10.2559C16.3896 10.2404 16.3589 10.2176 16.3338 10.189C16.3088 10.1604 16.2901 10.1268 16.279 10.0903L18.426 11.0197C18.479 11.0437 18.5383 11.0494 18.5948 11.0358L20.0771 10.6592L20.7734 11.1292Z" fill="#0043A0"/>
<path d="M22.7279 17.8303L23.6431 18.7571L23.5745 18.8506C21.9832 20.9983 19.6966 22.5109 17.115 23.1237C14.5334 23.7365 11.8211 23.4104 9.45302 22.2024C9.14443 22.0128 8.84374 21.8045 8.55098 21.5828C6.78562 20.2348 5.44788 18.3936 4.70232 16.2858C3.95677 14.178 3.83591 11.8955 4.35461 9.71902C4.37173 9.74571 4.39419 9.76846 4.42055 9.78579L6.5306 11.2174L5.96353 11.7942C5.93861 11.819 5.91878 11.8485 5.9052 11.881C5.89161 11.9136 5.88454 11.9485 5.8844 11.9839V13.1964C5.88465 13.2382 5.89459 13.2794 5.91341 13.3166L6.70468 14.9191C6.72274 14.9562 6.74906 14.9885 6.78155 15.0135C6.81405 15.0386 6.85184 15.0556 6.89195 15.0633L7.39836 15.1648L8.6723 15.4319V19.2539C8.67309 19.2885 8.67933 19.3227 8.69077 19.3553L9.48204 21.3745C9.4964 21.4109 9.5185 21.4436 9.54676 21.4704C9.57502 21.4972 9.60875 21.5173 9.64556 21.5294L10.2364 21.7297L10.2733 21.8205C10.2877 21.8569 10.3098 21.8896 10.338 21.9164C10.3663 21.9432 10.4 21.9633 10.4368 21.9754L11.6316 22.3787C11.6709 22.3927 11.7129 22.3971 11.7541 22.3915C11.7954 22.386 11.8348 22.3706 11.869 22.3467C11.9043 22.3219 11.9331 22.2887 11.9529 22.2501C11.9727 22.2114 11.9828 22.1685 11.9824 22.125V20.2394L13.4727 19.1096C13.5058 19.0845 13.5326 19.0518 13.5509 19.0142C13.5692 18.9766 13.5786 18.9352 13.5782 18.8933V17.7929L15.0974 16.2572C15.1332 16.2183 15.1578 16.1703 15.1686 16.1183L15.5669 14.0992C15.5802 14.0655 15.5866 14.0294 15.5857 13.9931C15.5848 13.9568 15.5766 13.9211 15.5616 13.8882C15.5424 13.8587 15.5176 13.8333 15.4886 13.8136C15.4596 13.7939 15.4271 13.7802 15.3928 13.7733C15.3753 13.7707 15.3575 13.7707 15.3401 13.7733H14.7703L14.7941 13.6505C14.8012 13.6157 14.8013 13.5798 14.7945 13.5449C14.7877 13.5101 14.7741 13.477 14.7545 13.4475C14.7353 13.418 14.7105 13.3926 14.6815 13.3729C14.6525 13.3532 14.62 13.3395 14.5857 13.3326C14.5682 13.33 14.5505 13.33 14.533 13.3326H13.623L12.7684 11.8904C12.7449 11.8501 12.7113 11.8169 12.671 11.7939C12.6307 11.7709 12.5852 11.7591 12.539 11.7595H12.1644L11.9772 11.4444C11.9536 11.4041 11.92 11.3708 11.8797 11.3479C11.8394 11.3249 11.7939 11.313 11.7477 11.3135H9.11014L8.63274 10.344L8.39008 9.84722C8.37158 9.80867 8.34418 9.7752 8.31021 9.74964C8.27624 9.72407 8.23669 9.70716 8.1949 9.70033C8.15314 9.69124 8.10975 9.69337 8.06904 9.70648C8.02833 9.7196 7.99171 9.74326 7.9628 9.77511L7.92587 9.8125L7.22164 9.0807V8.22069L9.78535 7.85212C9.82093 7.84671 9.85504 7.83398 9.88558 7.81473L11.869 6.60217C11.9067 6.58009 11.9384 6.54889 11.9613 6.51136L13.106 4.57769L14.2085 4.20378C14.2477 4.191 14.2833 4.16913 14.3127 4.13991C14.342 4.1107 14.3641 4.07495 14.3774 4.03551L14.7756 2.82296C14.7886 2.78965 14.7948 2.75404 14.7939 2.71826C14.793 2.68247 14.785 2.64723 14.7703 2.61464C14.7545 2.58303 14.7325 2.55494 14.7058 2.53202C14.6791 2.50909 14.6481 2.49178 14.6147 2.4811H14.5752L13.9949 2.38228C14.007 2.34748 14.0118 2.31054 14.0091 2.27377C14.0064 2.23699 13.9961 2.20119 13.9791 2.16861C13.9632 2.137 13.9413 2.10892 13.9145 2.08599C13.8878 2.06306 13.8569 2.04575 13.8235 2.03507H13.7839L11.6211 1.65848L11.4497 1.6291L10.7955 1.18842L11.0593 1.10295C13.5975 0.266812 16.3463 0.369974 18.8164 1.39407L19.0801 1.50625L18.9245 1.5837L18.0673 2.01904H16.5349C16.485 2.01844 16.436 2.03217 16.3935 2.05864C16.351 2.08512 16.3168 2.12325 16.2949 2.16861L15.5036 3.7711C15.4902 3.80368 15.4833 3.83863 15.4833 3.87393C15.4833 3.90923 15.4902 3.94418 15.5036 3.97676C15.5144 4.01081 15.5319 4.0423 15.5551 4.06937C15.5782 4.09644 15.6064 4.11853 15.6381 4.13433L15.6724 4.14769L16.279 4.35334C16.2815 4.37705 16.2868 4.40037 16.2949 4.42278C16.3057 4.45683 16.3232 4.48833 16.3463 4.5154C16.3694 4.54247 16.3977 4.56456 16.4294 4.58036L16.4637 4.59372L17.6585 4.99968C17.7075 5.01445 17.7598 5.01445 17.8088 4.99968L19.3307 4.61508L20.4596 4.99434L22.4773 5.40564C22.5117 5.4128 22.5471 5.41295 22.5815 5.40607C22.6159 5.39919 22.6487 5.38542 22.6778 5.36558L23.4136 4.87148C23.6919 5.2217 23.9482 5.58921 24.1812 5.97186L24.2682 6.11341L22.116 6.83988L20.4622 6.57279L19.903 6.47932L19.3755 5.69142L19.1619 5.36558C19.1378 5.32846 19.1048 5.29803 19.0662 5.27705C19.0275 5.25606 18.9842 5.24518 18.9403 5.2454H16.5349C16.4997 5.24829 16.4655 5.25829 16.4343 5.27481C16.403 5.29132 16.3753 5.31401 16.3529 5.34155L15.1554 6.55143C15.1267 6.58159 15.1049 6.61784 15.0917 6.65756C15.0785 6.69729 15.0741 6.73949 15.0789 6.78112L15.4799 9.60952C15.4858 9.65559 15.5036 9.69928 15.5313 9.73629C15.5591 9.77329 15.5959 9.80232 15.6381 9.82051L16.2843 10.1009C16.2954 10.1374 16.3141 10.1711 16.3391 10.1997C16.3641 10.2282 16.3949 10.251 16.4294 10.2665L19.2226 11.4764C19.2755 11.5004 19.3349 11.5061 19.3914 11.4924L20.7787 11.1399L21.0609 11.3322V12.8011C21.0595 12.8445 21.0686 12.8876 21.0873 12.9267L22.6698 16.0969V17.6273C22.6654 17.6634 22.6682 17.7 22.6782 17.7349C22.6882 17.7698 22.7051 17.8022 22.7279 17.8303Z" fill="#0047AB"/>
</g>
<defs>
<clipPath id="clip0_12_619">
<rect width="29" height="24" fill="white"/>
</clipPath>
</defs>
</svg>
