<svg width="159" height="159" viewBox="0 0 159 159" fill="none" xmlns="http://www.w3.org/2000/svg">
<g clip-path="url(#clip0_3848_15266)">
<circle cx="79.6691" cy="79.5485" r="74.9499" fill="#D6A3E4"/>
<path d="M29.8365 62.7389C30.7639 60.3459 29.7436 58.693 28.6578 57.8213C29.4211 58.1171 30.2083 58.3511 31.1273 58.6123L31.7109 57.1064C30.6602 56.8178 29.8476 56.5267 29.105 56.2388L24.1541 54.3201C22.2975 53.6005 20.5023 54.3758 19.4069 57.2019C18.3036 60.0487 19.1068 62.1395 21.2694 63.0489L21.901 61.4192C20.6001 60.7964 19.947 59.6654 20.7305 57.6437C21.506 55.6428 22.5184 55.4182 23.5705 55.826C24.3544 56.1298 24.4673 56.6955 24.2292 57.8608L23.6471 60.6485C23.1549 63.0203 23.8552 64.3357 25.5261 64.9833C27.4859 65.7429 29.069 64.7192 29.8365 62.7389ZM28.6648 61.9051C28.1931 63.1222 27.2877 63.7441 26.1119 63.2884C24.9979 62.8567 24.7174 61.9887 24.9722 60.474L25.2851 58.6259C25.4239 57.7781 25.4748 57.1572 25.3033 56.4975L26.1903 56.8413C28.1501 57.6008 29.6082 59.4709 28.6648 61.9051Z" fill="#141414"/>
<path d="M30.9322 38.2113C29.5039 39.8718 29.5487 41.7196 30.6278 43.5524L28.4306 41.6625L27.2764 43.0043L35.6627 50.2178L36.8169 48.876L33.6133 46.1204C30.7284 43.639 30.1372 41.4087 31.7386 39.5469C32.7917 38.3225 34.0065 37.9959 35.8012 39.5395L41.0007 44.0119L42.1549 42.6701L36.8044 38.0679C34.6407 36.2068 32.7356 36.1147 30.9322 38.2113Z" fill="#141414"/>
<path d="M47.7078 36.9997C45.9048 38.2818 44.0738 38.2264 42.2091 35.8332L49.4572 30.6792C49.3395 30.4372 49.2112 30.2569 49.0446 30.0225C47.1727 27.3901 44.3196 26.6228 41.6151 28.5459C38.6221 30.6742 38.6308 33.817 40.5411 36.5035C42.4771 39.2261 45.3346 40.3432 48.4358 38.138C51.4288 36.0097 51.2694 33.5713 50.4753 32.0728L49.1591 33.0087C49.6964 34.3369 49.4748 35.7432 47.7078 36.9997ZM42.4152 29.633C44.092 28.4406 45.7712 28.5496 47.3177 30.5718L41.4759 34.7258C40.1614 32.4572 40.7023 30.8509 42.4152 29.633Z" fill="#141414"/>
<path d="M65.2699 18.0354L65.5972 28.1806L59.2208 20.0369L57.4775 20.6137L57.2167 30.9534L51.4494 22.6082L49.685 23.192L56.3734 32.6307L58.7679 31.8384L58.9569 22.338L64.796 29.8439L67.1904 29.0516L66.9083 17.4933L65.2699 18.0354Z" fill="#141414"/>
<path d="M82.9617 27.2084C80.7573 27.021 79.3961 25.7951 79.5205 22.7638L88.3823 23.5171C88.4489 23.2563 88.4676 23.0358 88.492 22.7493C88.7656 19.5308 87.0848 17.101 83.7782 16.8199C80.1188 16.5088 78.0938 18.9123 77.8146 22.1969C77.5317 25.5256 78.9897 28.2251 82.7813 28.5474C86.4406 28.8585 87.8953 26.895 88.2582 25.2384L86.649 25.1016C86.2002 26.4623 85.1221 27.392 82.9617 27.2084ZM83.6859 18.1665C85.736 18.3407 86.9467 19.5094 86.8194 22.052L79.677 21.4449C80.1406 18.8643 81.5917 17.9885 83.6859 18.1665Z" fill="#141414"/>
<path d="M99.414 20.2413C97.397 19.6505 95.8173 20.4787 94.6641 22.0543L95.4851 19.2518L93.7865 18.7542L90.6769 29.37L92.3754 29.8676L93.5197 25.961C94.3967 22.9673 95.7478 20.8733 98.859 21.8999L99.3048 22.0305L99.7962 20.3532L99.414 20.2413Z" fill="#141414"/>
<path d="M101.3 33.5029C103.58 34.6811 105.333 33.8437 106.316 32.8574C105.94 33.5846 105.623 34.3423 105.265 35.2281L106.7 35.9695C107.099 34.9557 107.476 34.179 107.841 33.4715L110.279 28.7544C111.193 26.9856 110.615 25.1176 107.922 23.726C105.21 22.3243 103.045 22.899 101.909 24.9519L103.462 25.7543C104.22 24.5276 105.415 23.9993 107.341 24.9947C109.247 25.98 109.362 27.0106 108.844 28.013C108.458 28.7598 107.884 28.8115 106.751 28.4501L104.041 27.5728C101.736 26.8296 100.353 27.3851 99.5302 28.9771C98.5652 30.8442 99.4135 32.5278 101.3 33.5029ZM102.255 32.4272C101.095 31.8279 100.574 30.8611 101.153 29.7408C101.701 28.6795 102.594 28.4935 104.073 28.9091L105.877 29.418C106.705 29.6468 107.317 29.7638 107.991 29.6639L107.554 30.5091C106.589 32.3762 104.574 33.6258 102.255 32.4272Z" fill="#141414"/>
<path d="M113.734 41.5628L115.005 42.7943L121.732 35.8507L124.052 38.0983L125.022 37.0973L122.607 34.7573L124.746 32.5487L127.607 35.3197L128.546 34.3505L126.528 32.3954C125.002 30.9175 123.986 30.9805 122.955 32.0451L121.477 33.5705L119.819 32.611L119.126 33.326L120.461 34.6192L113.734 41.5628Z" fill="#141414"/>
<path d="M120.955 50.3212C123.075 53.3736 126.249 53.4047 128.974 51.5112C131.663 49.643 132.741 46.658 130.621 43.6056C128.487 40.5351 125.332 40.4913 122.625 42.3722C119.881 44.2783 118.821 47.2506 120.955 50.3212ZM123.629 43.8565C126.191 42.0766 128.013 42.373 129.44 44.4261C130.866 46.4792 130.495 48.2723 127.934 50.0522C125.39 51.8194 123.562 51.5538 122.136 49.5007C120.709 47.4476 121.085 45.6238 123.629 43.8565Z" fill="#141414"/>
<path d="M137.964 57.7559C137.132 55.826 135.486 55.1384 133.537 55.2563L136.219 54.0996L135.518 52.4745L125.36 56.8556L126.061 58.4808L129.799 56.8685C132.664 55.633 135.138 55.3368 136.333 58.3871L136.517 58.8137L138.122 58.1215L137.964 57.7559Z" fill="#141414"/>
<path d="M146.244 76.6643L139.748 77.2974C141.238 76.3964 141.984 74.9233 141.787 72.8975C141.45 69.4405 138.829 68.0955 135.438 68.426C132.069 68.7544 129.735 70.5823 130.072 74.0394C130.27 76.0651 131.308 77.3644 132.944 77.9606L130.83 78.1667L131.002 79.9282L146.415 78.4258L146.244 76.6643ZM131.538 74.2522C131.293 71.7419 132.661 70.4972 135.612 70.2096C138.584 69.9198 140.145 70.8791 140.39 73.3893C140.617 75.7234 139.44 77.3275 136.335 77.6301C133.23 77.9327 131.765 76.5862 131.538 74.2522Z" fill="#141414"/>
<path d="M143.56 83.684L143.393 85.9567L145.225 86.0912L145.392 83.8186L143.56 83.684ZM130.701 82.9834L130.572 84.7486L141.604 85.559L141.733 83.7938L130.701 82.9834Z" fill="#141414"/>
<path d="M139.249 98.2296L137.403 97.7727C138.958 97.3825 140.055 96.2637 140.538 94.3093C141.372 90.9375 139.661 88.8276 136.375 88.0148C133.068 87.1967 130.57 88.2653 129.736 91.6371C129.257 93.57 129.615 95.0715 130.831 96.147L128.511 95.5733C126.213 95.0048 125.593 93.7347 126.22 91.2005C126.81 88.8166 128.107 88.1802 129.556 88.402L129.976 86.7053C127.479 86.293 125.658 87.6658 124.867 90.8658C123.9 94.7745 125.208 96.5795 128.065 97.2861L138.824 99.9477L139.249 98.2296ZM130.988 92.3799C131.593 89.9315 133.04 89.0587 135.939 89.7759C138.839 90.4931 139.69 91.9344 139.084 94.3827C138.521 96.6592 137.059 97.6877 134.16 96.9705C131.239 96.248 130.425 94.6564 130.988 92.3799Z" fill="#141414"/>
<path d="M138.458 105.598L137.53 107.679L139.207 108.427L140.135 106.346L138.458 105.598ZM126.6 100.574L125.879 102.19L135.981 106.697L136.702 105.081L126.6 100.574Z" fill="#141414"/>
<path d="M122.99 107.542L121.644 109.779L122.876 110.521L124.69 107.506L131.742 111.749L129.86 114.877L131.055 115.596L132.936 112.468L135.041 113.734L135.531 112.918L133.902 111.164L134.591 108.945L133.738 108.432L132.654 110.233L126.588 106.583C125.071 105.671 124.085 105.722 122.99 107.542Z" fill="#141414"/>
<path d="M118.14 113.745C116.416 115.647 116.776 117.555 117.477 118.758C116.871 118.209 116.22 117.708 115.456 117.135L114.371 118.331C115.248 118.977 115.903 119.541 116.493 120.075L120.427 123.641C121.902 124.978 123.856 124.898 125.892 122.652C127.942 120.39 127.942 118.15 126.249 116.526L125.075 117.821C126.066 118.869 126.27 120.159 124.814 121.765C123.373 123.355 122.348 123.202 121.512 122.445C120.889 121.88 120.986 121.311 121.626 120.309L123.169 117.915C124.478 115.877 124.296 114.398 122.968 113.195C121.411 111.783 119.566 112.171 118.14 113.745ZM118.935 114.943C119.811 113.976 120.879 113.72 121.814 114.567C122.699 115.369 122.65 116.28 121.869 117.603L120.914 119.216C120.481 119.958 120.211 120.519 120.135 121.196L119.43 120.558C117.872 119.146 117.181 116.878 118.935 114.943Z" fill="#141414"/>
<path d="M112.084 120.119L110.704 121.227L120.399 133.303L121.779 132.195L112.084 120.119Z" fill="#141414"/>
<path d="M106.992 130.656C105.641 127.552 102.898 126.02 99.5714 127.47C96.4885 128.813 95.6585 131.394 96.553 133.78L98.0945 133.108C97.5462 131.296 98.0972 129.68 100.146 128.788C102.275 127.86 104.068 128.43 105.35 131.371C106.622 134.292 105.787 136.031 103.637 136.968C101.751 137.79 100.277 137.177 99.3092 135.62L97.788 136.283C98.9753 138.565 101.23 139.585 104.272 138.26C107.558 136.828 108.344 133.759 106.992 130.656Z" fill="#141414"/>
<path d="M89.2763 142.629C91.3307 142.186 92.3234 140.704 92.5845 138.769L93.201 141.623L94.931 141.25L92.5957 130.437L90.8657 130.811L91.7251 134.79C92.3837 137.839 92.1961 140.324 88.9722 140.907L88.5181 141.005L88.8871 142.713L89.2763 142.629Z" fill="#141414"/>
<path d="M79.4886 133.237C81.7008 133.214 83.1725 134.305 83.3368 137.335L74.4435 137.427C74.402 137.693 74.4043 137.914 74.4073 138.202C74.441 141.432 76.3452 143.691 79.6635 143.656C83.3359 143.618 85.1232 141.033 85.0888 137.737C85.054 134.396 83.346 131.847 79.5409 131.887C75.8685 131.925 74.6071 134.018 74.4034 135.702L76.0183 135.685C76.3357 134.288 77.3206 133.26 79.4886 133.237ZM79.6274 142.307C77.57 142.328 76.2537 141.28 76.1386 138.737L83.3064 138.662C83.0902 141.275 81.729 142.285 79.6274 142.307Z" fill="#141414"/>
<path d="M69.05 131.076C66.5452 130.517 65.0637 131.774 64.3646 132.978C64.5427 132.179 64.6561 131.365 64.7767 130.418L63.2004 130.066C63.0724 131.148 62.9063 131.995 62.733 132.773L61.5776 137.955C61.1444 139.899 62.1799 141.557 65.1382 142.217C68.1182 142.881 70.065 141.774 70.6401 139.499L68.9342 139.119C68.5133 140.499 67.4929 141.314 65.3767 140.842C63.2821 140.375 62.9084 139.408 63.154 138.307C63.3369 137.486 63.8794 137.29 65.0671 137.35L67.9106 137.508C70.3294 137.639 71.525 136.75 71.915 135.001C72.3723 132.95 71.123 131.538 69.05 131.076ZM68.4013 132.359C69.6753 132.643 70.4258 133.445 70.1514 134.676C69.8915 135.842 69.0753 136.249 67.5396 136.224L65.6654 136.192C64.8064 136.182 64.1848 136.224 63.5583 136.493L63.7653 135.564C64.2227 133.513 65.8532 131.791 68.4013 132.359Z" fill="#141414"/>
<path d="M56.9649 127.513L54.5768 126.459L53.9959 127.774L57.2138 129.195L53.8893 136.724L50.55 135.25L49.987 136.525L53.3263 137.999L52.3344 140.246L53.2046 140.63L54.7412 138.793L57.0289 139.199L57.4311 138.288L55.5084 137.439L58.3682 130.963C59.0831 129.344 58.9078 128.371 56.9649 127.513Z" fill="#141414"/>
<path d="M49.0901 122.617C46.0586 120.466 43.0632 121.515 41.1431 124.222C39.2486 126.892 39.2485 130.066 42.28 132.217C45.3295 134.38 48.3121 133.349 50.2194 130.661C52.1523 127.936 52.1396 124.78 49.0901 122.617ZM48.7706 129.606C46.9657 132.15 45.1511 132.49 43.1121 131.044C41.073 129.597 40.8126 127.785 42.6175 125.241C44.4096 122.714 46.219 122.343 48.258 123.79C50.297 125.236 50.5627 127.08 48.7706 129.606Z" fill="#141414"/>
<path d="M30.4082 121.232C31.8403 122.77 33.6215 122.865 35.4177 122.1L33.2803 124.09L34.4863 125.385L42.5826 117.847L41.3766 116.552L38.3972 119.326C36.114 121.451 33.8828 122.561 31.7326 120.089L31.4161 119.749L30.1368 120.94L30.4082 121.232Z" fill="#141414"/>
<path d="M34.3789 114.497C36.319 113.219 36.9977 111.062 35.0713 108.014C33.4994 105.526 31.7252 104.79 29.8175 105.995C28.2839 106.964 27.8639 108.329 28.9051 110.68L29.8773 112.84C30.4536 114.125 30.1053 114.816 29.4507 115.23C28.5342 115.809 27.4847 115.556 26.4801 113.966C25.3928 112.246 25.8227 110.98 26.7361 110.271L25.8025 108.794C24.1154 110.017 23.7674 112.2 25.3156 114.65C26.8048 117.006 28.7454 117.717 30.4847 116.618C31.9248 115.708 32.206 114.247 31.4022 112.478L30.3492 110.108C29.7729 108.823 29.9283 107.993 30.826 107.425C31.8733 106.763 32.8668 107.052 33.9068 108.697C35.266 110.848 34.7051 112.197 33.5043 113.113L34.3789 114.497Z" fill="#141414"/>
<path d="M25.0465 85.6766L30.1218 85.2304L30.0379 84.2888L24.9632 84.7353C24.7025 84.7591 24.4397 84.731 24.19 84.6524C23.9403 84.5738 23.7087 84.4464 23.5087 84.2776C23.3069 84.11 23.1405 83.9039 23.0191 83.6714C22.8977 83.4389 22.8238 83.1847 22.8018 82.9233L22.3557 77.8502L21.414 77.934L21.8603 83.008C21.905 83.5341 21.7395 84.0565 21.4003 84.4611C21.061 84.8656 20.5754 85.1194 20.0496 85.1671L14.9766 85.6132L15.0599 86.5545L20.134 86.1091C20.6594 86.0652 21.1808 86.2308 21.5847 86.5697C21.9885 86.9086 22.2422 87.3933 22.2903 87.9183L22.7367 92.9922L23.678 92.9088L23.2319 87.8344C23.1878 87.308 23.3539 86.7854 23.6939 86.381C24.0339 85.9767 24.5202 85.7234 25.0465 85.6766V85.6766Z" fill="black"/>
<path d="M84.3824 77.8412H97.1563C98.4921 77.8411 99.7812 77.3498 100.778 76.4608C101.775 75.5719 102.411 74.3474 102.563 73.0204V59.2117C102.563 57.9391 102.058 56.7186 101.158 55.8187C100.258 54.9188 99.0373 54.4132 97.7647 54.4131H59.3782C58.1056 54.4131 56.885 54.9187 55.9851 55.8186C55.0852 56.7185 54.5797 57.939 54.5797 59.2117V59.2117V97.5982C54.5796 98.2284 54.7037 98.8523 54.9448 99.4345C55.1859 100.017 55.5394 100.546 55.985 100.991C56.4306 101.437 56.9596 101.79 57.5418 102.032C58.124 102.273 58.748 102.397 59.3782 102.397H97.7652C98.3954 102.397 99.0193 102.273 99.6015 102.031C100.184 101.79 100.713 101.437 101.158 100.991C101.604 100.546 101.957 100.017 102.198 99.4345C102.44 98.8523 102.564 98.2284 102.564 97.5982V97.5982V83.79C102.41 82.4637 101.775 81.2401 100.778 80.3515C99.7816 79.463 98.4934 78.9715 97.1582 78.9705H84.3833C82.9402 78.9713 81.5564 79.545 80.5358 80.5654C79.5153 81.5858 78.9416 82.9696 78.9406 84.4127V84.599H78.934V90.2237H77.8169V84.5966H77.8118V72.2151H77.8169V66.5889H78.934V72.2141H78.9406V72.4003C78.9419 73.8431 79.5157 75.2264 80.536 76.2465C81.5563 77.2666 82.9396 77.8401 84.3824 77.8412V77.8412Z" fill="#141414"/>
</g>
<defs>
<clipPath id="clip0_3848_15266">
<rect width="157.521" height="157.521" fill="white" transform="translate(0.908508 0.883789)"/>
</clipPath>
</defs>
</svg>
