<svg width="1035" height="439" viewBox="0 0 1035 439" fill="none" xmlns="http://www.w3.org/2000/svg">
<path d="M584.79 302.1C569.7 283.75 556.45 264.27 546.09 242.57L503.71 168.89L539.62 106.37C554.71 81.8901 565.06 67.9902 575.4 60.7402H510.73C516.33 71.3102 519.35 77.4397 519.35 80.2197C519.35 84.1197 518.06 89.12 515.04 95.25L514.18 96.3604L493.02 145.54L468.91 96.9199C465.89 90.7999 464.17 84.6697 464.17 80.2197C464.17 75.2197 466.76 69.1002 471.92 60.7402H386.53C399.04 74.6602 408.96 89.6797 421.03 114.72L459.61 183.44L422.17 253.14C408.37 277.06 397.59 291.53 386.8 302.1H451.92C446.31 292.65 442.86 285.96 442.86 281.51C442.86 277.06 444.15 270.95 447.17 265.94L471.87 202.47L502.37 264.27L503.23 265.94C506.26 272.06 507.55 277.62 507.55 281.51C507.55 285.96 504.52 292.65 499.35 302.1H584.79Z" fill="#6495ED"/>
<path d="M843.43 100.2C843.43 100.2 843.43 80.6305 856.25 60.7305H800.939V61.3203L736.3 241.87L647.66 60.7305H600.099C609.069 75.5705 612.31 86.7096 612.37 109.31V253.69C611.57 277.03 610.07 286.41 599.81 302.27H654.8C644.83 287.09 641.469 275.25 641.329 253.69V144.73L696.29 278.65C696.29 278.65 702.15 292.48 711.06 297.88C720.54 303.61 737.3 303.95 737.3 303.95L800.939 138.19V263.15C800.909 266.17 800.31 287.85 787.78 302.26H856.25C843.43 282.35 843.43 262.78 843.43 262.78V100.2Z" fill="#0047AB"/>
<path d="M995.02 273.92C995.02 273.92 992.87 275.36 989.62 276.96C985.7 278.89 980.85 278.98 980.85 278.98H928.9V192.28H964.32C964.32 192.28 983.89 192.28 1003.79 205.1V155.84C989.39 168.37 967.71 168.97 964.68 169H928.91V84H980.86C980.86 84 985.72 84.0795 989.63 86.0195C992.88 87.6295 995.03 89.0498 995.03 89.0498L1016.27 105.58L1033.82 60.7197H869.54C882.07 75.1197 882.67 96.8001 882.7 99.8301V263.13C882.67 266.15 882.07 287.83 869.54 302.24H1033.82L1016.27 257.37L995.02 273.92Z" fill="#0047AB"/>
<path d="M0.219727 60.6504L17.4298 105.51L38.6798 88.9805C38.6798 88.9805 40.8197 87.5602 44.0697 85.9502C47.9897 84.0002 52.8397 83.9297 52.8397 83.9297H79.5997V263.07C79.5697 266.09 78.9697 287.77 66.4397 302.18H138.63C125.81 282.27 125.81 262.7 125.81 262.7V83.9297H153.47C153.47 83.9297 158.33 84.0102 162.24 85.9502C165.49 87.5602 167.63 88.9805 167.63 88.9805L188.88 105.51L207.09 60.6504H0.219727Z" fill="#6495ED"/>
<path opacity="0.31" d="M347.19 206.61L320.03 193.46L289.37 230.01L284.23 222.71L290.64 173.57L265.27 97.21L207.12 117.8L222.61 156.78L272.39 276.6L283.36 303.74L284.63 295.87L296.75 249.62L313.71 230.8L343.97 228.47L295.78 195.1L347.19 206.61Z" fill="#2A72DA"/>
<path d="M300.369 62.8301C318.346 62.8301 332.919 48.7629 332.919 31.4102C332.919 14.0574 318.346 -0.00976562 300.369 -0.00976562C282.393 -0.00976562 267.819 14.0574 267.819 31.4102C267.819 48.7629 282.393 62.8301 300.369 62.8301Z" fill="#0047AB"/>
<path d="M386.29 252.08L366.49 262.02C360.729 251.07 348.519 243.81 334.689 244.92C318.509 246.21 305.6 259.23 304.93 274.88C304.68 280.73 306.079 286.24 308.729 291.01L307.38 291.69L296.8 297H296.79L283.359 303.74C276.429 288.09 270.559 272.37 265.599 256.86C264.789 254.38 264.02 251.87 263.28 249.39C263.28 249.38 263.28 249.37 263.28 249.37C262.73 247.55 262.17 245.67 261.75 244.23C261.33 242.8 261.04 241.8 261.04 241.8C252.15 210.79 246.719 181.05 243.449 154.96L243.469 155.46C239.129 126.83 238.91 95.6504 238.91 95.6504C238.77 90.4704 238.729 85.7796 238.729 81.6396C238.729 79.1396 238.73 76.8205 238.77 74.7305C238.9 66.4305 239.2 61.5203 239.24 60.8203C239.24 60.7703 239.24 60.7402 239.24 60.7402L256.589 63.0898L265.349 64.5498C265.289 65.3198 265.25 66.0999 265.25 66.8799C265.25 84.2399 279.82 98.2998 297.8 98.2998C312.79 98.2998 325.41 88.5405 329.18 75.2305L338.53 76.79L352.8 79.29V79.3496C352.77 79.8396 352.38 86.8504 352.43 98.1104C352.43 98.1104 353.259 129.88 354.599 142.13C356.289 159.51 359.139 178.77 363.979 197.59C363.999 197.65 364.01 197.69 364.02 197.76C365.84 205.16 366.099 205.39 366.109 205.39C370.979 222.15 377.51 238.27 386.29 252.08Z" fill="#6495ED"/>
<path d="M12.807 417.916L1.11592 376.162H9.76497L17.7579 407.12L26.4666 376.162H33.5051L42.2735 407.12L50.2664 376.162H58.9154L47.2243 417.916H37.8595L29.9858 390.358L22.1719 417.916H12.807ZM87.4288 376.162H95.6007V417.916H87.4288V400.618H71.9202V417.916H63.6887V376.162H71.9202V392.744H87.4288V376.162ZM111.589 410.042H129.185V417.916H103.357V376.162H128.887V384.036H111.589V392.923H127.396V400.678H111.589V410.042ZM157.892 417.916L149.482 403.421H143.219V417.916H134.987V376.162H151.689C155.546 376.162 158.827 377.514 161.531 380.218C164.235 382.922 165.587 386.183 165.587 390C165.587 392.585 164.851 394.991 163.38 397.218C161.909 399.405 159.96 401.055 157.535 402.169L166.78 417.916H157.892ZM143.219 383.857V396.204H151.689C153.24 396.204 154.572 395.607 155.685 394.414C156.799 393.182 157.356 391.71 157.356 390C157.356 388.291 156.799 386.839 155.685 385.646C154.572 384.453 153.24 383.857 151.689 383.857H143.219ZM179.859 410.042H197.455V417.916H171.627V376.162H197.157V384.036H179.859V392.923H195.665V400.678H179.859V410.042ZM226.401 410.042H243.997V417.916H218.169V376.162H243.699V384.036H226.401V392.923H242.208V400.678H226.401V410.042ZM260.119 417.916L246.101 376.162H255.048L265.248 408.253L275.389 376.162H284.396L270.318 417.916H260.119ZM296.651 410.042H314.247V417.916H288.419V376.162H313.949V384.036H296.651V392.923H312.458V400.678H296.651V410.042ZM342.955 417.916L334.544 403.421H328.281V417.916H320.05V376.162H336.751C340.608 376.162 343.889 377.514 346.593 380.218C349.297 382.922 350.649 386.183 350.649 390C350.649 392.585 349.914 394.991 348.442 397.218C346.971 399.405 345.022 401.055 342.597 402.169L351.842 417.916H342.955ZM328.281 383.857V396.204H336.751C338.302 396.204 339.634 395.607 340.748 394.414C341.861 393.182 342.418 391.71 342.418 390C342.418 388.291 341.861 386.839 340.748 385.646C339.634 384.453 338.302 383.857 336.751 383.857H328.281ZM388.569 376.162L374.254 401.632V417.916H366.082V401.632L351.826 376.162H361.131L370.198 393.579L379.264 376.162H388.569ZM435.101 376.162V384.036H423.827V417.916H415.596V384.036H404.382V376.162H435.101ZM439.696 376.162H447.928V417.916H439.696V376.162ZM475.46 418.751C469.177 418.751 463.988 416.663 459.892 412.488C455.796 408.313 453.748 403.163 453.748 397.039C453.748 390.875 455.796 385.726 459.892 381.59C463.988 377.415 469.177 375.327 475.46 375.327C479.238 375.327 482.717 376.222 485.899 378.011C489.12 379.761 491.625 382.147 493.414 385.169L486.316 389.285C485.282 387.416 483.811 385.964 481.902 384.93C479.994 383.857 477.846 383.32 475.46 383.32C471.404 383.32 468.123 384.592 465.618 387.137C463.153 389.682 461.92 392.983 461.92 397.039C461.92 401.055 463.153 404.336 465.618 406.881C468.123 409.426 471.404 410.699 475.46 410.699C477.846 410.699 479.994 410.182 481.902 409.148C483.851 408.074 485.322 406.623 486.316 404.793L493.414 408.909C491.625 411.931 489.14 414.337 485.958 416.127C482.777 417.876 479.278 418.751 475.46 418.751ZM531.099 417.916H521.615L506.703 398.351V417.916H498.471V376.162H506.703V394.593L521.018 376.162H530.502L515.053 396.443L531.099 417.916ZM543.4 410.042H560.997V417.916H535.169V376.162H560.699V384.036H543.4V392.923H559.207V400.678H543.4V410.042ZM594.416 376.162V384.036H583.143V417.916H574.911V384.036H563.697V376.162H594.416ZM641.541 376.162V384.036H630.267V417.916H622.036V384.036H610.822V376.162H641.541ZM654.368 410.042H671.964V417.916H646.136V376.162H671.666V384.036H654.368V392.923H670.175V400.678H654.368V410.042ZM685.998 410.042H701.924V417.916H677.766V376.162H685.998V410.042ZM714.832 410.042H730.758V417.916H706.6V376.162H714.832V410.042ZM748.933 418.751C744.798 418.751 741.318 417.836 738.495 416.007C735.671 414.138 733.683 411.613 732.53 408.432L739.568 404.316C741.199 408.571 744.4 410.699 749.172 410.699C751.478 410.699 753.168 410.281 754.242 409.446C755.316 408.611 755.852 407.557 755.852 406.285C755.852 404.813 755.196 403.68 753.884 402.885C752.572 402.049 750.226 401.155 746.846 400.2C744.977 399.644 743.386 399.087 742.074 398.53C740.801 397.973 739.509 397.238 738.196 396.323C736.924 395.369 735.95 394.176 735.274 392.744C734.598 391.313 734.26 389.643 734.26 387.734C734.26 383.956 735.592 380.954 738.256 378.727C740.96 376.46 744.201 375.327 747.979 375.327C751.359 375.327 754.321 376.162 756.866 377.832C759.451 379.463 761.459 381.749 762.891 384.692L755.972 388.688C754.302 385.109 751.637 383.32 747.979 383.32C746.269 383.32 744.917 383.717 743.923 384.513C742.968 385.268 742.491 386.262 742.491 387.495C742.491 388.807 743.028 389.881 744.102 390.716C745.215 391.512 747.323 392.386 750.424 393.341C751.697 393.738 752.651 394.057 753.288 394.295C753.964 394.494 754.858 394.832 755.972 395.309C757.125 395.747 758 396.164 758.596 396.562C759.233 396.959 759.948 397.496 760.744 398.172C761.539 398.848 762.135 399.544 762.533 400.26C762.971 400.976 763.328 401.851 763.607 402.885C763.925 403.879 764.084 404.972 764.084 406.165C764.084 410.023 762.672 413.084 759.849 415.351C757.065 417.618 753.427 418.751 748.933 418.751ZM811.207 417.916L808.702 410.4H792.06L789.554 417.916H780.667L795.281 376.162H805.481L820.154 417.916H811.207ZM794.684 402.706H806.137L800.41 385.646L794.684 402.706ZM853.377 418.751C849.241 418.751 845.761 417.836 842.938 416.007C840.115 414.138 838.126 411.613 836.973 408.432L844.012 404.316C845.642 408.571 848.843 410.699 853.615 410.699C855.922 410.699 857.612 410.281 858.685 409.446C859.759 408.611 860.296 407.557 860.296 406.285C860.296 404.813 859.64 403.68 858.327 402.885C857.015 402.049 854.669 401.155 851.289 400.2C849.42 399.644 847.829 399.087 846.517 398.53C845.244 397.973 843.952 397.238 842.64 396.323C841.367 395.369 840.393 394.176 839.717 392.744C839.041 391.313 838.703 389.643 838.703 387.734C838.703 383.956 840.035 380.954 842.699 378.727C845.403 376.46 848.644 375.327 852.422 375.327C855.802 375.327 858.765 376.162 861.31 377.832C863.895 379.463 865.903 381.749 867.334 384.692L860.415 388.688C858.745 385.109 856.081 383.32 852.422 383.32C850.712 383.32 849.36 383.717 848.366 384.513C847.412 385.268 846.934 386.262 846.934 387.495C846.934 388.807 847.471 389.881 848.545 390.716C849.658 391.512 851.766 392.386 854.868 393.341C856.14 393.738 857.095 394.057 857.731 394.295C858.407 394.494 859.302 394.832 860.415 395.309C861.568 395.747 862.443 396.164 863.04 396.562C863.676 396.959 864.392 397.496 865.187 398.172C865.982 398.848 866.579 399.544 866.976 400.26C867.414 400.976 867.772 401.851 868.05 402.885C868.368 403.879 868.527 404.972 868.527 406.165C868.527 410.023 867.116 413.084 864.292 415.351C861.509 417.618 857.87 418.751 853.377 418.751ZM899.999 376.162V384.036H888.725V417.916H880.494V384.036H869.28V376.162H899.999ZM937.339 412.488C933.124 416.663 927.994 418.751 921.95 418.751C915.905 418.751 910.775 416.663 906.56 412.488C902.385 408.273 900.297 403.123 900.297 397.039C900.297 390.955 902.385 385.825 906.56 381.65C910.775 377.434 915.905 375.327 921.95 375.327C927.994 375.327 933.124 377.434 937.339 381.65C941.554 385.825 943.662 390.955 943.662 397.039C943.662 403.123 941.554 408.273 937.339 412.488ZM912.346 406.881C914.931 409.426 918.132 410.699 921.95 410.699C925.767 410.699 928.968 409.426 931.553 406.881C934.138 404.296 935.43 401.016 935.43 397.039C935.43 393.062 934.138 389.782 931.553 387.197C928.968 384.612 925.767 383.32 921.95 383.32C918.132 383.32 914.931 384.612 912.346 387.197C909.761 389.782 908.469 393.062 908.469 397.039C908.469 401.016 909.761 404.296 912.346 406.881ZM972.352 417.916L963.942 403.421H957.679V417.916H949.447V376.162H966.149C970.006 376.162 973.287 377.514 975.991 380.218C978.695 382.922 980.047 386.183 980.047 390C980.047 392.585 979.311 394.991 977.84 397.218C976.369 399.405 974.42 401.055 971.994 402.169L981.24 417.916H972.352ZM957.679 383.857V396.204H966.149C967.7 396.204 969.032 395.607 970.145 394.414C971.259 393.182 971.815 391.71 971.815 390C971.815 388.291 971.259 386.839 970.145 385.646C969.032 384.453 967.7 383.857 966.149 383.857H957.679ZM1017.97 376.162L1003.65 401.632V417.916H995.48V401.632L981.224 376.162H990.529L999.595 393.579L1008.66 376.162H1017.97ZM1023.04 403.899L1021.43 388.092V376.162H1030.68V388.092L1029.13 403.899H1023.04ZM1029.66 417.2C1028.67 418.194 1027.48 418.691 1026.08 418.691C1024.69 418.691 1023.5 418.194 1022.51 417.2C1021.51 416.206 1021.01 415.013 1021.01 413.621C1021.01 412.23 1021.51 411.037 1022.51 410.042C1023.5 409.048 1024.69 408.551 1026.08 408.551C1027.48 408.551 1028.67 409.048 1029.66 410.042C1030.66 411.037 1031.16 412.23 1031.16 413.621C1031.16 415.013 1030.66 416.206 1029.66 417.2Z" fill="#0047AB"/>
</svg>
